<?xml version="1.0"?><svg width="320.65625" height="320.65625" xmlns="http://www.w3.org/2000/svg">
 <title>SWORD</title>

 <metadata id="metadata6133">image/svg+xml</metadata>
 <g>
  <title>Layer 1</title>
  <g id="layer1">
   <g id="g7869">
    <text y="13.42981" x="0.00977" xml:space="preserve" id="2" font-family="Times New Roman" fill="#000000" text-anchor="start" font-weight="normal" font-style="normal" font-size="14.992826px"/>
    <path id="4" d="m43.125,27.59375c-3.973099,0 -7.937389,1.53113 -10.96875,4.5625c-6.06271,6.06274 -6.06271,15.87476 0,21.9375c3.252338,3.25238 7.586391,4.768311 11.84375,4.53125l39.375,39.40625l-39.1875,39.1875l34.75,-11.78125l9.65625,-9.65625l44.53125,44.5l-95.375,95.375l-5.5,32.625l32.65625,-5.46875l95.34375,-95.34375l95.4375,95.40625l32.65625,5.46875l-5.46875,-32.6875l-95.40625,-95.40625l44.5,-44.5l9.6875,9.6875l34.75,11.78125l-39.25,-39.25l39.375,-39.34375c4.257355,0.237061 8.5914,-1.27887 11.84375,-4.53125c6.062714,-6.06274 6.062714,-15.87476 0,-21.9375c-3.031372,-3.03137 -6.995636,-4.5625 -10.96875,-4.5625c-3.973114,0 -7.937378,1.53113 -10.96875,4.5625c-3.25235,3.25238 -4.768341,7.586369 -4.53125,11.84375l-39.375,39.34375l-39.1875,-39.21875l11.78125,34.78125l9.6875,9.6875l-44.5,44.5l-44.5,-44.5l9.625,-9.65625l11.78125,-34.75l-39.15625,39.15625l-39.4375,-39.4375c0.21019,-4.227482 -1.271301,-8.521301 -4.5,-11.75c-3.031361,-3.03137 -7.026901,-4.5625 -11,-4.5625z" fill-rule="evenodd" fill="#000000"/>
   </g>
  </g>
 </g>
</svg>