<?xml version="1.0" encoding="iso-8859-1"?>
<!-- Generator: Adobe Illustrator 19.0.0, SVG Export Plug-In . SVG Version: 6.00 Build 0)  -->
<svg version="1.1" id="Layer_1" xmlns="http://www.w3.org/2000/svg" xmlns:xlink="http://www.w3.org/1999/xlink" x="0px" y="0px"
	 viewBox="0 0 512 512" style="enable-background:new 0 0 512 512;" xml:space="preserve">
<g>
	<g>
		<path d="M509.518,432.285L334.054,256.822l149.831-150.338c2.419-2.426,3.138-6.07,1.824-9.235
			c-1.313-3.165-4.404-5.227-7.83-5.227H169.254L79.714,2.482C78.123,0.893,75.968,0,73.719,0s-4.404,0.893-5.995,2.482
			L2.483,67.725c-3.311,3.312-3.311,8.678,0,11.989l88.295,88.295v312.399c0,3.432,2.068,6.524,5.24,7.835
			c1.048,0.433,2.145,0.642,3.235,0.642c2.211,0,4.384-0.866,6.006-2.493l151.693-152.207l175.333,175.333
			c1.656,1.655,3.825,2.482,5.995,2.482c2.169,0,4.339-0.827,5.995-2.482l31.132-31.132c0.599-0.355,1.169-0.78,1.684-1.295
			l26.989-26.989c0.515-0.515,0.94-1.084,1.295-1.684l4.143-4.143c1.588-1.59,2.481-3.746,2.481-5.994
			S511.107,433.877,509.518,432.285z M20.466,73.721l53.253-53.254l20.043,20.043L67.135,67.137c-3.311,3.312-3.311,8.678,0,11.989
			c1.656,1.655,3.826,2.482,5.995,2.482c2.169,0,4.339-0.827,5.995-2.482l26.627-26.627l27.808,27.808l-19.29,19.29
			c-3.311,3.312-3.311,8.678,0,11.989c1.656,1.655,3.826,2.482,5.995,2.482s4.339-0.827,5.995-2.482l19.29-19.29l27.807,27.807
			l-26.627,26.627c-3.311,3.312-3.311,8.678,0,11.989c1.656,1.655,3.826,2.482,5.995,2.482c2.169,0,4.339-0.827,5.995-2.482
			l26.627-26.627l27.807,27.807l-19.29,19.29c-3.311,3.312-3.311,8.678,0,11.989c1.656,1.655,3.826,2.482,5.995,2.482
			s4.339-0.827,5.995-2.482l19.29-19.29l27.807,27.808l-26.627,26.627c-3.23,3.232-3.299,8.414-0.225,11.74L205.49,258.74
			L20.466,73.721z M193.518,270.75l-12.832,12.876v-25.709L193.518,270.75z M251.034,316.105c-0.029,0.028-0.061,0.053-0.09,0.081
			c-0.032,0.032-0.058,0.066-0.088,0.097l-143.123,143.61V184.965l55.999,55.999v63.179c0,3.432,2.068,6.524,5.24,7.835
			c1.048,0.433,2.145,0.642,3.235,0.642c2.211,0,4.384-0.866,6.006-2.493l98.346-98.68c0.021-0.021,0.045-0.038,0.067-0.06
			c0.024-0.024,0.042-0.049,0.064-0.071l27.276-27.369c2.419-2.426,3.138-6.07,1.824-9.235c-1.313-3.165-4.404-5.227-7.83-5.227
			h-51.249l-60.506-60.506h45.424v31.398c0,4.683,3.794,8.477,8.477,8.477s8.477-3.794,8.477-8.477v-31.4h34.597V130
			c0,4.683,3.794,8.477,8.477,8.477c4.683,0,8.477-3.794,8.477-8.477v-21.023h34.597v31.398c0,4.683,3.794,8.477,8.477,8.477
			c4.683,0,8.477-3.794,8.477-8.477v-31.398h34.597V130c0,4.683,3.794,8.477,8.477,8.477s8.477-3.794,8.477-8.477v-21.023h54.219
			l-141.367,141.85c-0.005,0.003-0.009,0.008-0.012,0.011c-0.005,0.005-0.008,0.009-0.012,0.014L251.034,316.105z M263.669,186.438
			h13.877l-6.926,6.95L263.669,186.438z M438.279,491.534L268.921,322.176l53.163-53.344l10.456,10.456l-26.627,26.627
			c-3.311,3.312-3.311,8.678,0,11.989c1.656,1.655,3.826,2.482,5.995,2.482c2.169,0,4.339-0.827,5.995-2.482l26.627-26.627
			l27.807,27.807l-19.29,19.29c-3.311,3.312-3.311,8.678,0,11.989c1.656,1.655,3.826,2.482,5.995,2.482
			c2.169,0,4.339-0.827,5.995-2.482l19.29-19.29l27.808,27.808l-26.627,26.627c-3.311,3.312-3.311,8.678,0,11.989
			c1.656,1.655,3.826,2.482,5.995,2.482c2.169,0,4.339-0.827,5.995-2.482l26.627-26.627l27.808,27.807l-19.29,19.29
			c-3.311,3.312-3.311,8.678,0,11.989c1.656,1.655,3.826,2.482,5.995,2.482c2.169,0,4.339-0.827,5.995-2.482l19.29-19.29
			l27.613,27.613L438.279,491.534z"/>
	</g>
</g>
<g>
	<g>
		<path d="M349.867,174.582c-3.311-3.308-8.677-3.311-11.989,0l-169.62,169.619c-3.311,3.312-3.311,8.679,0,11.989
			c1.656,1.655,3.825,2.482,5.995,2.482c2.169,0,4.339-0.827,5.995-2.482l169.619-169.619
			C353.178,183.259,353.178,177.893,349.867,174.582z"/>
	</g>
</g>
<g>
</g>
<g>
</g>
<g>
</g>
<g>
</g>
<g>
</g>
<g>
</g>
<g>
</g>
<g>
</g>
<g>
</g>
<g>
</g>
<g>
</g>
<g>
</g>
<g>
</g>
<g>
</g>
<g>
</g>
</svg>
