<?xml version="1.0" encoding="iso-8859-1"?>
<!-- Generator: Adobe Illustrator 18.0.0, SVG Export Plug-In . SVG Version: 6.00 Build 0)  -->
<!DOCTYPE svg PUBLIC "-//W3C//DTD SVG 1.1//EN" "http://www.w3.org/Graphics/SVG/1.1/DTD/svg11.dtd">
<svg version="1.1" id="Capa_1" xmlns="http://www.w3.org/2000/svg" xmlns:xlink="http://www.w3.org/1999/xlink" x="0px" y="0px"
	 viewBox="0 0 485.08 485.08" style="enable-background:new 0 0 485.08 485.08;" xml:space="preserve">
<path d="M485.025,337.959c-0.371-3.26-2.585-6.015-5.688-7.079c-1.196-0.41-25.868-8.787-59.417-14.438
	c29.219-29.915,47.686-58.547,48.557-59.908c1.704-2.662,1.791-6.049,0.226-8.794s-4.505-4.4-7.684-4.284
	c-1.077,0.038-22.802,0.865-52.179,6.192c21.571-44.153,31.417-83.549,31.872-85.394c0.756-3.068-0.252-6.303-2.618-8.398
	s-5.7-2.704-8.654-1.582c-1.725,0.656-38.423,14.736-78.857,40.673c3.451-47.909-1.723-86.875-1.971-88.703
	c-0.427-3.132-2.555-5.769-5.526-6.845c-2.971-1.077-6.294-0.417-8.629,1.715c-1.244,1.135-27.489,25.265-54.221,61.206
	c-12.72-42.372-29.07-73.904-30.188-76.037c-1.467-2.799-4.366-4.553-7.527-4.554c0,0,0,0-0.001,0c-3.16,0-6.06,1.753-7.527,4.552
	c-0.783,1.492-17.247,33.135-30.135,76.057c-26.737-35.951-52.992-60.089-54.235-61.225c-2.334-2.131-5.657-2.793-8.629-1.715
	c-2.971,1.077-5.1,3.713-5.526,6.845c-0.249,1.829-5.422,40.796-1.971,88.703c-40.434-25.937-77.132-40.017-78.858-40.673
	c-2.954-1.123-6.288-0.513-8.653,1.582c-2.366,2.095-3.375,5.33-2.619,8.398c0.455,1.845,10.301,41.242,31.872,85.394
	c-29.377-5.327-51.103-6.155-52.179-6.192c-3.162-0.11-6.117,1.539-7.684,4.284c-1.565,2.745-1.479,6.132,0.225,8.794
	c0.871,1.361,19.34,29.994,48.558,59.908c-33.548,5.65-58.22,14.028-59.417,14.438c-3.103,1.064-5.317,3.819-5.688,7.079
	c-0.371,3.259,1.167,6.441,3.951,8.176c2.641,1.645,63.935,39.459,127.895,48.654c0.884,1.32,1.864,2.368,2.784,3.173
	c4.54,3.974,10.956,5.387,19.386,5.387c8.283,0,18.511-1.365,30.804-3.006c16.232-2.167,36.434-4.863,57.641-4.863
	c21.208,0,41.409,2.696,57.642,4.863c24.805,3.31,41.191,5.497,50.189-2.381c0.917-0.803,1.895-1.848,2.776-3.162
	c63.982-9.184,125.309-47.02,127.951-48.665C483.859,344.401,485.397,341.219,485.025,337.959z M395.919,316.139
	c-14.936,13.901-29.866,25.145-44.383,33.42c-4.912,2.804-9.801,5.454-14.591,7.914c-2.153-1.313-4.524-2.609-7.158-3.877
	c9.173-8.066,18.562-17.312,28.03-27.62c1.738-1.878,3.569-3.903,5.766-6.38c12.468-14.079,24.289-31.098,35.172-50.622
	c17.775-3.824,33.818-5.969,45.246-7.15C433.955,275.389,417.046,296.474,395.919,316.139z M385.702,257.44
	c-10.784,19.833-22.509,36.953-34.842,50.88c-2.109,2.379-3.862,4.319-5.54,6.131c-11.488,12.506-22.78,23.31-33.631,32.209
	c-2.78-0.846-5.653-1.637-8.61-2.372c2.671-4.164,5.303-8.584,7.873-13.241c6.727-12.193,13.145-26.081,19.067-41.255
	c1.371-3.486,2.731-7.098,4.041-10.724c6.629-18.283,11.454-39.217,14.366-62.266c27.066-18.679,54.289-32.222,70.912-39.755
	C413.562,195.474,402.537,226.512,385.702,257.44z M333.44,126.011c1.379,18.894,2.532,50.909-1.434,85.011
	c-2.697,23.256-7.384,44.2-13.933,62.263c-1.259,3.487-2.563,6.948-3.883,10.306c-5.66,14.5-11.758,27.704-18.124,39.245
	c-3.585,6.498-7.278,12.471-11.015,17.839c-0.246-0.039-0.485-0.083-0.732-0.121c7.173-22.396,10.939-52.104,10.939-86.822
	c0-23.865-3.833-48.027-9.267-70.294C303.216,158.66,321.635,138.223,333.44,126.011z M242.515,110.042
	c12.395,27.743,35.745,87.474,35.745,143.689c0,42.437-5.653,68.977-11.176,84.781c-7.977-0.682-16.202-1.044-24.568-1.044
	c-8.367,0-16.592,0.362-24.57,1.044c-5.523-15.804-11.176-42.344-11.176-84.782c0-21.069,3.275-44.572,9.736-69.857
	C224.342,153.176,235.286,126.195,242.515,110.042z M151.639,126.011c11.807,12.214,30.229,32.656,47.455,57.438
	c-6.184,25.234-9.324,48.863-9.324,70.283c0,34.719,3.765,64.427,10.939,86.823c-0.231,0.036-0.457,0.077-0.688,0.113
	c-3.711-5.325-7.402-11.295-11.009-17.832c-6.365-11.537-12.463-24.74-18.131-39.262c-1.324-3.37-2.628-6.831-3.88-10.299
	c-6.546-18.055-11.231-39-13.928-62.255C149.107,176.919,150.26,144.904,151.639,126.011z M136.653,216.802
	c2.911,23.046,7.736,43.979,14.361,62.255c1.302,3.605,2.662,7.216,4.037,10.714c5.933,15.199,12.351,29.085,19.076,41.275
	c2.577,4.67,5.205,9.087,7.864,13.231c-2.958,0.734-5.832,1.525-8.613,2.371c-10.847-8.896-22.137-19.699-33.642-32.224
	c-1.639-1.77-3.393-3.71-5.513-6.1c-12.336-13.93-24.06-31.051-34.848-50.888c-16.807-30.877-27.841-61.943-33.628-80.388
	C82.371,184.583,109.593,198.127,136.653,216.802z M86.325,268.974c10.885,19.526,22.706,36.545,35.177,50.627
	c2.208,2.489,4.039,4.514,5.739,6.349c9.479,10.319,18.867,19.566,28.037,27.629c-2.636,1.269-5.01,2.565-7.166,3.878
	c-4.736-2.432-9.618-5.077-14.572-7.902c-14.514-8.274-29.445-19.518-44.378-33.418c-21.129-19.666-38.041-40.755-48.086-54.319
	C52.49,262.999,68.519,265.143,86.325,268.974z M80.533,331.299c14.919,13.554,29.903,24.655,44.587,33.025
	c3.107,1.771,6.186,3.469,9.228,5.102c-1.992,2.705-3.311,5.364-4.134,7.901c-39.508-6.52-78.397-24.594-99.96-35.941
	C42.817,338.065,60.61,333.987,80.533,331.299z M338.967,385.284c-0.632,0.339-3.043,1.271-10.189,1.034
	c-6.94-0.231-15.944-1.433-26.371-2.824c-16.73-2.233-37.554-5.012-59.891-5.012s-43.159,2.779-59.89,5.012
	c-10.426,1.392-19.431,2.593-26.371,2.824c-7.138,0.24-9.558-0.695-10.19-1.034c-0.017-0.125-0.033-0.308-0.033-0.563
	c0-12.335,37.586-30.253,96.484-30.253c58.898,0,96.484,17.918,96.484,30.253C339,384.975,338.984,385.159,338.967,385.284z
	 M354.822,377.338c-0.821-2.534-2.135-5.19-4.122-7.891c3.07-1.647,6.161-3.353,9.26-5.122c14.682-8.369,29.667-19.47,44.587-33.026
	c19.89,2.684,37.696,6.767,50.273,10.091C433.247,352.741,394.342,370.823,354.822,377.338z"/>
<g>
</g>
<g>
</g>
<g>
</g>
<g>
</g>
<g>
</g>
<g>
</g>
<g>
</g>
<g>
</g>
<g>
</g>
<g>
</g>
<g>
</g>
<g>
</g>
<g>
</g>
<g>
</g>
<g>
</g>
</svg>
