<?xml version="1.0" standalone="no"?>
<!DOCTYPE svg PUBLIC "-//W3C//DTD SVG 20010904//EN"
 "http://www.w3.org/TR/2001/REC-SVG-20010904/DTD/svg10.dtd">
<svg version="1.0" xmlns="http://www.w3.org/2000/svg"
 width="1280.000000pt" height="930.000000pt" viewBox="0 0 1280.000000 930.000000"
 preserveAspectRatio="xMidYMid meet">
<g transform="translate(0.000000,930.000000) scale(0.100000,-0.100000)"
fill="#000000" stroke="none">
<path d="M6935 9280 c-225 -45 -396 -137 -536 -287 -160 -173 -239 -372 -245
-618 l-3 -130 -28 0 c-25 0 -97 -99 -860 -1180 -458 -649 -843 -1193 -857
-1210 -14 -18 -52 -42 -92 -59 -90 -37 -213 -118 -292 -190 -232 -216 -357
-550 -322 -863 6 -55 15 -115 20 -133 5 -18 7 -37 4 -41 -3 -5 -240 -9 -527
-9 -287 0 -527 -4 -533 -8 -7 -4 -101 -338 -209 -742 -109 -404 -202 -743
-207 -754 -5 -10 -13 -14 -18 -10 -4 5 -136 396 -294 869 -157 473 -290 865
-294 872 -5 8 -28 9 -82 3 -99 -12 -170 -12 -170 -1 0 5 47 78 105 163 l106
153 -196 3 c-159 2 -195 5 -195 16 0 8 58 99 130 203 99 144 125 189 113 192
-9 2 -66 -2 -126 -9 -90 -10 -112 -10 -122 2 -14 13 -305 894 -305 920 0 8 14
25 31 37 59 44 85 143 55 214 -23 57 -111 117 -171 117 -31 0 -90 -25 -120
-51 -69 -61 -82 -162 -30 -241 32 -48 75 -70 149 -77 l59 -6 152 -468 c84
-258 157 -472 161 -477 5 -4 41 -4 79 1 93 11 145 11 145 1 0 -5 -58 -94 -129
-197 -72 -104 -128 -192 -125 -197 3 -4 90 -8 195 -8 126 0 189 -4 189 -11 0
-5 -47 -78 -105 -162 -58 -83 -101 -153 -95 -155 7 -3 70 1 141 8 70 6 133 9
138 6 5 -4 139 -394 297 -869 157 -474 293 -873 301 -887 14 -24 12 -36 -12
-130 -15 -58 -32 -113 -37 -122 -8 -16 -27 -18 -191 -18 l-182 0 -80 -80 -80
-80 -81 0 -81 0 -89 -56 -89 -56 -96 12 -97 13 -193 -133 c-107 -73 -198 -137
-203 -141 -5 -4 -19 -60 -32 -124 l-22 -116 -69 -75 c-160 -176 -152 -170
-279 -232 -66 -33 -125 -66 -131 -74 -6 -7 -45 -117 -87 -245 l-77 -231 53
-109 c53 -107 53 -108 47 -178 -4 -38 -7 -125 -8 -192 l-1 -121 170 -180 171
-179 155 -5 156 -6 77 -76 76 -76 245 0 244 0 56 54 c53 52 58 54 133 65 48 7
85 8 95 2 10 -5 41 -34 70 -65 l53 -56 244 0 244 0 63 65 64 65 275 0 276 0
62 -65 63 -65 247 0 247 0 64 65 64 65 252 0 251 0 62 -65 63 -65 246 0 246 0
66 64 65 64 228 4 228 3 66 -68 65 -67 247 0 247 0 64 65 64 65 267 0 266 0
62 -65 63 -65 242 0 243 0 66 66 67 67 61 -7 c34 -3 123 -6 197 -6 l135 0 60
-60 60 -60 242 0 243 0 73 75 74 75 175 7 175 6 120 126 c67 69 144 151 173
182 l52 56 -8 194 -9 194 49 97 c26 54 48 106 48 115 0 10 -34 121 -76 246
l-76 228 -70 35 c-56 28 -95 61 -192 158 -66 68 -144 143 -173 167 l-52 44
-20 104 c-11 57 -22 105 -23 106 -2 1 -92 64 -201 139 -131 91 -206 136 -224
136 -14 0 -86 -11 -158 -25 l-133 -26 -113 41 c-149 53 -310 100 -344 100 -21
0 -48 20 -109 80 l-82 80 -172 0 c-97 0 -173 4 -177 10 -3 5 -24 71 -46 146
-33 112 -38 139 -27 149 7 6 87 31 178 55 91 24 186 49 213 57 l47 14 0 345 0
344 -22 9 c-13 5 -179 50 -370 101 -191 51 -352 96 -358 100 -7 4 -43 113 -82
241 -38 129 -75 237 -81 241 -7 4 -164 8 -349 8 -200 0 -338 4 -338 9 0 5 5
33 11 63 6 29 13 63 15 76 4 17 10 22 30 20 23 -3 61 67 723 1350 384 744 702
1356 707 1361 5 5 40 16 78 25 38 9 96 28 129 41 33 14 63 22 66 19 3 -3 6
-17 6 -30 0 -22 148 -121 1215 -812 l1215 -788 36 -68 c20 -38 60 -96 88 -129
30 -34 51 -67 48 -76 -2 -9 -48 -278 -102 -599 -61 -361 -95 -586 -89 -592 17
-17 1588 -781 1599 -777 14 6 299 237 303 246 3 9 45 -11 -698 333 -344 159
-630 295 -637 301 -8 9 8 132 67 505 43 271 80 495 82 496 1 2 34 18 71 35
126 60 239 188 284 321 16 49 27 66 45 71 13 4 234 20 491 35 402 23 470 25
481 13 7 -8 120 -318 250 -689 131 -371 241 -680 245 -687 5 -9 50 30 147 128
76 77 138 146 138 152 -2 16 -616 1650 -623 1659 -3 3 -87 0 -186 -7 -99 -8
-376 -28 -615 -44 -239 -17 -453 -35 -474 -40 -36 -8 -43 -6 -101 34 -59 40
-159 85 -189 85 -8 0 -65 44 -128 98 -301 257 -2510 2117 -2517 2120 -5 2 -11
-6 -14 -18 -8 -32 -23 -24 -57 33 -109 177 -277 320 -462 393 -80 31 -284 74
-346 73 -26 -1 -87 -9 -137 -19z"/>
</g>
</svg>
