<svg xmlns="http://www.w3.org/2000/svg" xmlns:xlink="http://www.w3.org/1999/xlink" version="1.1" x="0px" y="0px" viewBox="-366.5 263.1 68 71.3" enable-background="new -366.5 263.1 68 71.3" xml:space="preserve"><g><path d="M-298.9 276.1c-0.6-1.1-1.8-2-3.7-1.5c-0.6 0.2-1.3 0.6-2 1.1c-1.5 1.3-2.6 2.2-3.9 3.2c-1 0.8-2.1 1.7-3.4 2.7 c-0.1 0.1-1 0.4-1.1 0.4c-1.7-0.7-7.2-2.7-12.5-4.6c0-7.1-11.2-11.4-11.7-11.6l-0.2-0.1l-5.1 1.6l3 2.7l0.1 0 c8.1 1 11 4.5 12.1 6.8c-4.1-1.5-7.8-2.8-9.3-3.3c-1.9-0.6-3.5-0.3-4.9 1.2c-1.3 1.3-2.6 2.6-3.9 3.9c-1.7 1.7-3.3 3.3-4.9 5 l-0.5-0.4c-0.7-0.6-1.8-0.5-2.4 0.2l-1.6 2l-2.6-2.1c-0.7-0.6-1.7-0.5-2.3 0.2l-6.6 8c-0.6 0.7-0.5 1.7 0.2 2.3l13.9 11.5 c0.7 0.6 1.7 0.5 2.3-0.2l6.6-8c0.6-0.7 0.5-1.7-0.2-2.3l-2.3-1.9l1.6-2c0.6-0.7 0.5-1.8-0.2-2.4l-0.8-0.7c0.1-0.1 0.2-0.1 0.3-0.2 c1.4-1.4 2.5-2.4 3.7-3.4c1-0.9 2-1.8 3.2-3c0.3-0.3 0.9-0.5 1-0.4c1.1 0.3 5.1 2 5.1 2s-1.2 6.7-11.5 24.9 c-1.4 2.6-1.5 4.1-4.2 2.6c-2.8-1.6-5.6-3.1-8.5-4.5c-2-1-4.2-0.2-5.1 1.6c-0.9 2-0.3 4.1 1.7 5.2c4.5 2.5 9.1 4.9 13.6 7.3 c1.5 0.8 3.3 0.6 4.5-0.6c0.7-0.7 1.2-1.4 1.8-2.1c1.8-2.4 4.4-6.8 6.2-9.2c0.1 0.1 7.8 12.2 8 12.8c0.2 1-0.1 7.7-0.1 10 c0.1 2.2 1.8 3.9 3.7 3.8c2.1 0 3.6-1.6 3.6-3.9c0-2.8 0.2-11.9-0.8-14.3c-1.8-4.3-7.5-12.2-7.5-12.2s3.3-6.6 7.5-16.8 c1.7 0.7 3.4 1.4 5 2.1c1.1 0.5 2.1 0.6 3.1 0.3c0.6-0.2 1.2-0.6 1.8-1.1c1.4-1.2 2.8-2.5 4.2-3.7c1.8-1.6 3.5-3.1 5.2-4.7 C-298.3 279.2-298.2 277.4-298.9 276.1z M-345.6 289.8l-1.5 1.8l-6-5l1.5-1.8l0.7 0.6c0 0.2 0 0.5 0 0.8c0.2 1.2 0.9 2.2 1.8 2.6 c0.5 0.2 1.2 0.4 2.3 0L-345.6 289.8z"/><path d="M-320.3 276.5c0.8 0 1.6-0.1 2.4-0.4c1.7-0.6 3-1.9 3.7-3.5c0.7-1.7 0.8-3.5 0.1-5.2c-1-2.6-3.4-4.3-6.2-4.3 c-0.8 0-1.6 0.2-2.4 0.5c-3.4 1.3-5.1 5.2-3.8 8.6C-325.5 274.8-323.1 276.5-320.3 276.5z"/></g></svg>