<?xml version="1.0" encoding="iso-8859-1"?>
<!-- Generator: Adobe Illustrator 17.1.0, SVG Export Plug-In . SVG Version: 6.00 Build 0)  -->
<!DOCTYPE svg PUBLIC "-//W3C//DTD SVG 1.1//EN" "http://www.w3.org/Graphics/SVG/1.1/DTD/svg11.dtd">
<svg version="1.1" id="Capa_1" xmlns="http://www.w3.org/2000/svg" xmlns:xlink="http://www.w3.org/1999/xlink" x="0px" y="0px"
	 viewBox="0 0 456.33 456.33" style="enable-background:new 0 0 456.33 456.33;" xml:space="preserve">
<g>
	<path d="M439.951,263.58c-4.607-0.287-9.578-0.433-14.774-0.433c-9.902,0-21.724,0.505-35.437,1.904l-1.18-51.7
		c5.382,1.912,11.125,2.917,17.035,2.917c27.953,0,50.694-22.741,50.694-50.693c0-16.088-7.53-31.008-20.312-40.57
		c0.432-2.487,0.649-5.019,0.649-7.56c0-18.993-12.164-35.577-29.692-41.557c1.896-4.976,2.881-10.287,2.881-15.643
		c0-24.218-19.703-43.921-43.922-43.921s-43.922,19.703-43.922,43.921c0,0.449,0.007,0.899,0.021,1.352
		c-22,2.368-39.187,21.048-39.187,43.667c0,11.056,4.131,21.57,11.495,29.62c-10.021,9.533-15.666,22.602-15.666,36.648
		c0,27.952,22.741,50.693,50.694,50.693c5.999,0,11.842-1.065,17.305-3.051l-1.221,52.662
		c-27.328,5.471-59.319,14.104-95.919,27.469c-75.005,27.389-134.42,61.001-163.161,78.6c-19.713,12.07-36.631,23.645-48.926,33.472
		c-18.343,14.661-19.227,19.578-18.615,23.037c0.472,2.661,2.717,5.506,7.608,5.506h410.543c0.393,0.04,0.997,0.084,1.758,0.084
		c2.306,0,6.756-0.436,10.661-3.354c3.179-2.375,6.968-7.163,6.968-16.478V280.462C456.33,273.226,453.488,264.423,439.951,263.58z"
		/>
	<path d="M227.6,274.693c2.652-1.011,4.627-3.674,4.913-6.627c0.24-2.488-0.808-4.716-2.802-5.958
		c-23.379-14.569-59.47-27.452-95.788-36.515l-0.995-43.585c3.653,1.108,7.495,1.695,11.436,1.695
		c21.597,0,39.166-17.569,39.166-39.166c0-12.172-5.579-23.479-15.083-30.88c0.254-1.687,0.382-3.395,0.382-5.108
		c0-14.308-8.892-26.854-21.851-31.83c1.188-3.51,1.803-7.211,1.803-10.938c0-18.804-15.299-34.103-34.103-34.103
		c-18.77,0-34.047,15.243-34.103,34C64.043,68.025,51.29,82.272,51.29,99.442c0,8.172,2.907,15.963,8.119,22.085
		c-7.199,7.282-11.237,17.024-11.237,27.466c0,21.597,17.569,39.166,39.166,39.166c4.008,0,7.921-0.625,11.637-1.783l-0.732,31.553
		c-21.356-3.833-41.266-5.991-56.917-5.991C13.904,211.938,0,218.257,0,230.718v154.241c0,6.059,3.671,8.771,7.31,8.771
		c2.843,0,5.076-1.597,5.903-2.281c1.746-1.446,3.429-2.791,5.02-4.063c13.273-10.609,31.276-22.945,52.063-35.673
		C97.934,334.79,155.122,302.281,227.6,274.693z"/>
</g>
<g>
</g>
<g>
</g>
<g>
</g>
<g>
</g>
<g>
</g>
<g>
</g>
<g>
</g>
<g>
</g>
<g>
</g>
<g>
</g>
<g>
</g>
<g>
</g>
<g>
</g>
<g>
</g>
<g>
</g>
</svg>
