<?xml version="1.0" encoding="iso-8859-1"?>
<!-- Generator: Adobe Illustrator 19.0.0, SVG Export Plug-In . SVG Version: 6.00 Build 0)  -->
<svg version="1.1" id="Capa_1" xmlns="http://www.w3.org/2000/svg" xmlns:xlink="http://www.w3.org/1999/xlink" x="0px" y="0px"
	 viewBox="0 0 232.068 232.068" style="enable-background:new 0 0 232.068 232.068;" xml:space="preserve">
<g>
	<path d="M116.034,0C52.053,0,0,52.053,0,116.034s52.053,116.034,116.033,116.034c63.981,0,116.034-52.053,116.034-116.034
		S180.015,0,116.034,0z M106.701,9.034h18v18h-18V9.034z M197.07,116.034c0,44.684-36.353,81.036-81.036,81.036
		c-44.683,0-81.035-36.353-81.035-81.036s36.353-81.036,81.035-81.036C160.717,34.998,197.07,71.351,197.07,116.034z M46.738,34.01
		l12.728,12.728L46.738,59.466L34.01,46.738L46.738,34.01z M26.701,125.034h-18v-18h18V125.034z M46.738,198.059L34.01,185.331
		l12.728-12.728l12.728,12.728L46.738,198.059z M124.701,223.034h-18v-18h18V223.034z M185.33,198.059l-12.728-12.728l12.728-12.728
		l12.728,12.728L185.33,198.059z M185.33,59.466l-12.728-12.728L185.33,34.01l12.728,12.728L185.33,59.466z M204.701,125.034v-18h18
		v18H204.701z"/>
	<path d="M49.999,116.034c0,36.412,29.623,66.036,66.035,66.036s66.036-29.624,66.036-66.036s-29.624-66.036-66.036-66.036
		S49.999,79.622,49.999,116.034z M134.831,99.272c0,2.028-0.316,4-0.942,5.889c10.032,0.381,18.076,8.706,18.076,18.829
		c0,10.365-8.432,18.843-18.797,18.843c-4.938,0-9.436-1.825-12.794-4.95l4.225,14.152h-17.243l4.181-14.008
		c-3.341,3.04-7.775,4.715-12.636,4.715c-10.365,0-18.797-8.433-18.797-18.797c0-10.123,8.044-18.403,18.076-18.784
		c-0.626-1.889-0.942-3.861-0.942-5.889c0-10.365,8.432-18.797,18.797-18.797C126.399,80.475,134.831,88.907,134.831,99.272z"/>
</g>
<g>
</g>
<g>
</g>
<g>
</g>
<g>
</g>
<g>
</g>
<g>
</g>
<g>
</g>
<g>
</g>
<g>
</g>
<g>
</g>
<g>
</g>
<g>
</g>
<g>
</g>
<g>
</g>
<g>
</g>
</svg>
