<?xml version="1.0" encoding="utf-8"?>
<!-- Svg Vector Icons : http://www.onlinewebfonts.com/icon -->
<!DOCTYPE svg PUBLIC "-//W3C//DTD SVG 1.1//EN" "http://www.w3.org/Graphics/SVG/1.1/DTD/svg11.dtd">
<svg version="1.1" xmlns="http://www.w3.org/2000/svg" xmlns:xlink="http://www.w3.org/1999/xlink" x="0px" y="0px" viewBox="0 0 1000 1000" enable-background="new 0 0 1000 1000" xml:space="preserve">
<metadata> Svg Vector Icons : http://www.onlinewebfonts.com/icon </metadata>
<g><g transform="translate(0.000000,512.000000) scale(0.100000,-0.100000)"><path d="M5921.2,4964.5c-70.8-70.8-72.8-151.2-5.8-229.7c38.3-45.9,65.1-59.3,116.8-59.3c88.1,0,178,86.1,178,172.3c0,42.1-17.2,78.5-55.5,116.8c-38.3,38.3-74.6,55.5-116.8,55.5S5959.5,5002.8,5921.2,4964.5z"/><path d="M5519.2,4466.8c-74.7-74.7-76.6-176.1-5.8-241.2c74.7-68.9,166.5-65.1,241.2,9.6c49.8,51.7,57.4,68.9,47.9,130.2C5777.6,4514.6,5622.6,4570.1,5519.2,4466.8z"/><path d="M4990.9,4043.7c-216.3-132.1-120.6-478.6,132.1-478.6c135.9,0,264.2,124.4,264.2,254.6c0,82.3-55.5,185.7-122.5,225.9C5188,4091.6,5069.4,4091.6,4990.9,4043.7z"/><path d="M6026.5,3603.4c-80.4-32.5-141.7-130.2-141.7-225.9c0-260.3,298.6-367.5,457.5-164.6c128.2,162.7,5.7,411.6-201,407.7C6099.2,3620.7,6049.5,3613,6026.5,3603.4z"/><path d="M5144,3134.4c-84.2-36.4-139.7-132.1-139.7-241.2c0-271.8,386.7-342.7,488.1-90C5580.5,3027.2,5366.1,3232.1,5144,3134.4z"/><path d="M3325.4,2824.3c-179.9-428.8-446-1217.5-562.8-1665.4C2636.3,663.1,2603.7,452.5,2603.7,129c1.9-373.3,30.6-480.5,264.2-966.7c237.4-492,250.8-536,248.9-784.9c-1.9-185.7-15.3-260.3-193.3-995.4c-183.8-752.3-195.3-796.3-250.8-844.2l-59.3-53.6l-350.3,11.5c-358,9.6-455.6-1.9-455.6-59.4c0-84.2,241.2-176.1,882.5-335c606.8-149.3,834.6-193.3,993.5-193.3c283.3,0,195.3,116.8-229.7,308.2c-287.1,128.3-344.6,174.2-344.6,271.8c0,30.6,86.1,415.4,191.4,853.8c229.7,945.6,248.9,995.4,472.8,1209.8c82.3,78.5,222.1,193.3,312,256.5c88.1,63.2,222.1,162.7,298.6,224c222.1,178,463.3,503.5,442.2,595.3c-86.1,373.3-137.8,633.6-193.3,989.7c-84.2,541.7-170.4,1206-157,1221.3c5.7,5.8,212.5,59.3,455.6,118.7l446,107.2l23,162.7c13.4,88.1,17.2,166.5,9.6,172.3c-13.4,13.4-1994.7,495.8-2033,495.8C3365.6,2895.1,3342.7,2862.6,3325.4,2824.3z"/><path d="M6095.4,2091.1c-289.1-70.8-748.5-183.8-1020.3-248.9l-493.9-120.6l9.6-68.9c5.7-38.3,36.4-271.8,68.9-518.8C4782.2,203.6,4899-384,5042.5-789.9C5209.1-1257,5410.1-1507.7,5904-1860c132.1-93.8,292.9-225.9,356.1-291c195.3-195.3,227.8-285.2,447.9-1192.6c105.3-436.5,191.4-819.3,191.4-851.9c-1.9-95.7-53.6-137.8-306.3-250.8c-375.2-168.5-486.2-252.7-409.7-310.1c68.9-51.7,298.6-21.1,869.1,112.9C7783.8-4473,8159-4350.4,8189.6-4270c7.7,17.2,0,44-17.2,61.3c-26.8,26.8-86.2,30.6-411.6,24.9c-371.4-3.8-381-3.8-430.7,38.3c-45.9,40.2-68.9,120.6-241.2,838.4c-118.7,495.8-195.3,851.9-201,947.6c-17.2,227.8,23,361.8,231.6,794.4c206.7,428.8,273.8,637.5,291,901.6c24.9,396.3-112.9,1066.3-390.5,1893.2c-124.4,369.4-365.6,995.4-384.7,993.5C6627.6,2221.3,6384.5,2162,6095.4,2091.1z"/></g></g>
</svg>