<?xml version="1.0" encoding="iso-8859-1"?>
<!-- Generator: Adobe Illustrator 18.1.1, SVG Export Plug-In . SVG Version: 6.00 Build 0)  -->
<svg version="1.1" id="Capa_1" xmlns="http://www.w3.org/2000/svg" xmlns:xlink="http://www.w3.org/1999/xlink" x="0px" y="0px"
	 viewBox="0 0 17.421 17.421" style="enable-background:new 0 0 17.421 17.421;" xml:space="preserve">
<g>
	<path style="fill:#010002;" d="M9.807,2.282c-0.102-0.078-0.085-0.171,0.04-0.206l1.346-0.37c0.126-0.035,0.264-0.165,0.306-0.286
		l0.456-1.321c0.042-0.122,0.136-0.133,0.207-0.024l0.77,1.164c0.072,0.108,0.237,0.199,0.367,0.203l1.396,0.027
		c0.13,0,0.169,0.086,0.088,0.188l-0.869,1.092c-0.081,0.102-0.117,0.287-0.079,0.411l0.405,1.335
		c0.037,0.125-0.03,0.188-0.152,0.144l-1.309-0.492c-0.12-0.045-0.308-0.022-0.414,0.052l-1.146,0.8
		c-0.106,0.073-0.189,0.028-0.182-0.103l0.062-1.393c0.008-0.13-0.074-0.3-0.178-0.379L9.807,2.282z M10.886,6.605
		c0.178-0.145,0.144-0.306-0.081-0.358L8.417,5.672C8.196,5.616,7.948,5.397,7.865,5.186L6.984,2.893
		c-0.082-0.214-0.248-0.23-0.365-0.036L5.333,4.953C5.214,5.146,4.929,5.317,4.701,5.329L2.249,5.455
		C2.02,5.469,1.955,5.621,2.103,5.795l1.595,1.868C3.845,7.838,3.919,8.16,3.859,8.382l-0.634,2.372
		c-0.062,0.222,0.064,0.33,0.273,0.244l2.272-0.939c0.211-0.087,0.542-0.057,0.73,0.066l2.062,1.337
		c0.19,0.125,0.333,0.041,0.315-0.188l-0.19-2.449C8.67,8.6,8.799,8.294,8.98,8.149L10.886,6.605z M2.159,3.486L2.916,3.77
		c0.07,0.026,0.11-0.011,0.088-0.083L2.77,2.913C2.749,2.841,2.768,2.734,2.815,2.675L3.32,2.041
		c0.047-0.057,0.022-0.107-0.052-0.109l-0.81-0.016c-0.076,0-0.171-0.053-0.213-0.116L1.8,1.125C1.758,1.062,1.705,1.068,1.679,1.14
		L1.414,1.905C1.39,1.976,1.31,2.051,1.238,2.07l-0.78,0.215c-0.073,0.021-0.083,0.074-0.022,0.12l0.646,0.489
		c0.06,0.045,0.107,0.145,0.104,0.22L1.148,3.922c-0.003,0.077,0.043,0.102,0.105,0.06l0.663-0.464
		C1.979,3.473,2.086,3.459,2.159,3.486z M16.747,15.668l-1.679-1.679L9.804,8.605C9.595,8.804,9.44,9.155,9.457,9.428l0.116,2.013
		l5.701,5.701c0.333,0.332,0.83,0.373,1.111,0.092l0.454-0.454C17.12,16.497,17.079,16,16.747,15.668z"/>
</g>
<g>
</g>
<g>
</g>
<g>
</g>
<g>
</g>
<g>
</g>
<g>
</g>
<g>
</g>
<g>
</g>
<g>
</g>
<g>
</g>
<g>
</g>
<g>
</g>
<g>
</g>
<g>
</g>
<g>
</g>
</svg>
