<?xml version="1.0" encoding="iso-8859-1"?>
<!-- Generator: Adobe Illustrator 18.1.1, SVG Export Plug-In . SVG Version: 6.00 Build 0)  -->
<svg version="1.1" id="Capa_1" xmlns="http://www.w3.org/2000/svg" xmlns:xlink="http://www.w3.org/1999/xlink" x="0px" y="0px"
	 viewBox="0 0 611.997 611.997" style="enable-background:new 0 0 611.997 611.997;" xml:space="preserve">
<g>
	<path d="M532.629,106.57l-41.398-39.716c-2.909-2.787-6.802-4.142-10.682-3.898h-145.07V14.164C335.478,6.34,329.135,0,321.314,0
		h-30.628c-7.821,0-14.164,6.34-14.164,14.164v48.792h-76.658c-7.821,0-14.164,6.34-14.164,14.164v65.406h-54.002
		c-3.94-0.312-7.96,1.048-10.932,3.898L79.368,186.14c-2.785,2.671-4.36,6.362-4.36,10.221c0,3.858,1.575,7.549,4.36,10.221
		l40.265,38.628c2.598,3.156,6.535,5.167,10.94,5.167h145.948v108.714c-6.702,1.122-11.821,6.906-11.821,13.929v224.814
		c0,7.824,6.343,14.164,14.164,14.164h54.271c7.821,0,14.164-6.34,14.164-14.164V373.022c0-7.02-5.119-12.807-11.821-13.929V250.379
		h76.655c7.821,0,14.164-6.34,14.164-14.164v-65.406h55.126c4.204,0,7.983-1.872,10.578-4.819l40.628-38.976
		c2.785-2.671,4.36-6.362,4.36-10.221C536.989,112.935,535.414,109.241,532.629,106.57z M397.97,222.052h-76.655h-30.628H136.412
		l-26.778-25.688l26.589-25.509H397.97V222.052z M475.588,142.481h-261.56V91.284h261.747l26.589,25.509L475.588,142.481z"/>
</g>
<g>
</g>
<g>
</g>
<g>
</g>
<g>
</g>
<g>
</g>
<g>
</g>
<g>
</g>
<g>
</g>
<g>
</g>
<g>
</g>
<g>
</g>
<g>
</g>
<g>
</g>
<g>
</g>
<g>
</g>
</svg>
