<?xml version="1.0" encoding="iso-8859-1"?>
<!-- Generator: Adobe Illustrator 18.1.1, SVG Export Plug-In . SVG Version: 6.00 Build 0)  -->
<svg version="1.1" id="Capa_1" xmlns="http://www.w3.org/2000/svg" xmlns:xlink="http://www.w3.org/1999/xlink" x="0px" y="0px"
	 viewBox="0 0 267.999 267.999" style="enable-background:new 0 0 267.999 267.999;" xml:space="preserve">
<g>
	<path style="fill:#030104;" d="M205.11,50.276c-29.487-1.441-28.451-26.614-63.564-37.823c-11.102-1.153-6.83-19.285-24.358-9.633
		c-5.618,0.093-9.849,2.913-10.836,12.108c-0.327,2.289-0.77,5.083-3.952,7.296c-1.936,0.204-5.564,4.316-0.466,6.021
		c4.736,0.446,6.59,2.224,6.691,4.816l0,0c0.783,2.01,0.573,4.019-0.787,6.029c-13.899,7.749-22.05,23.289-24.892,46.035
		c-2.304,22.759-8.312,37.097-18.467,42.018c-3.861,2.78-0.452,3.823,7.626,3.749l-6.955,10.709c-0.667,4.137,2.007,4.787,9.901,0
		c2.894-2.521,4.331-5.605,4.014-9.368l4.017,1.337c2.069,7.989,7.833,14.491,15.255,20.339c2.324-1.232,3.927-2.867,3.48-5.618
		c13.241,0,0.945,0.233,0.534-6.69c1.125-2.674,1.11-5.451,0.268-8.3c-0.408-2.333-2.891-2.699-8.3-2.541
		c0.92-2.23,0.589-5.403-0.802-7.629c0.718-1.062,2.671-0.9,5.354,0c-2.169-2.412-3.007-4.82-2.677-7.225
		c0.877-1.253,3.23-1.253,6.425-0.538c-2.496-2.228-4.632-5.169-6.425-8.83c0.768-1.67,1.013-3.237,0-4.551
		c1.618-1.372,4.182-1.217,7.228-0.269c-2.367-6.422-6.023-6.072-6.425-9.099c-0.835-2.576-0.673-5.001,0.803-7.224
		c3.123-11.915,13.695-7.902,14.452-0.27c-3.615,8.209-5.389,17.57-6.156,27.568c-1.603,44.778,19.006,88.22-3.206,131.931
		c0.178,4.625-10.565,6.959-16.825-3.075c-1.735-2.412-0.945-5.478,0.731-6.457c2.633-1.415,5.436-0.642,6.996,2.042
		c1.217-8.996-12.772-11.174-13.815,0.327c-3.331-0.333-5.279-3.296-6.827-7.024c-0.75,5.619-0.899,11.061,1.205,15.793
		c-2.538,1.365-5.289,1.818-8.364,0.867c3.286,11.753,10.439,15.754,20.681,13.582c6.878-2.03,12.079-2.11,15.925,0.67
		c1.9,9.883,16.185,7.383,21.004,1.34c7.046,2.383,14.096,1.712,21.143-2.677c15.279,8.166,21.391,6.729,21.682-0.804
		c7.06-3.455,18.045,3.037,21.143-1.604c7.127-1.962,5.632-6.422-0.803-12.31c6.82-0.375,11.29-2.036,14.184-4.551
		c3.791-5.738-13.717-17.719-19.004-10.704c-1.854,2.725-2.129,6.923-5.618,8.829c1.557-8.489-4.616-10.665-6.157-7.225
		c-10.934,25.491-32.01-0.848-32.786-26.629c-1.935-45.455,21.966-82.475-2.269-120.032c-0.796-9.129,8.869-12.465,10.17-2.678
		c11.021,64.038,26.096,78.821,42.821,73.603c-10.782-3.263-16.519-8.882-16.593-17.13c6.338,3.758,13.644,5.345,21.412,5.889
		c-8.854-3.464-14.785-8.848-17.932-16.059c3.392,2.784,7.625,3.282,12.177,3.481c-13.01-9.867-21.192-26.98-26.354-45.77
		c-3.748-31.044-14.896-37.412-29.977-46.837c8.555-3.974,17.314,1.923,26.229,15.792l-3.746-10.972
		c10.019,5.34,14.022,8.81,27.164,25.959c-2.208-7.109-5.594-13.764-11.908-19.27c7.273,1.263,14.4,8.967,27.7,7.558
		c-12.151-3.469-23.505-9.713-27.509-17.32C168.333,40.406,187.137,51.289,205.11,50.276z M116.855,24.297
		c-5.631-3.528-5.845-7.261-3.02-8.376c6.121-1.609,9.002-1.557,10.487,2.262c4.952-0.194,6.276,2.509,6.189,6.338
		C126.905,38.261,119.364,41.534,116.855,24.297z"/>
</g>
<g>
</g>
<g>
</g>
<g>
</g>
<g>
</g>
<g>
</g>
<g>
</g>
<g>
</g>
<g>
</g>
<g>
</g>
<g>
</g>
<g>
</g>
<g>
</g>
<g>
</g>
<g>
</g>
<g>
</g>
</svg>
