<?xml version="1.0" encoding="iso-8859-1"?>
<!-- Generator: Adobe Illustrator 18.1.1, SVG Export Plug-In . SVG Version: 6.00 Build 0)  -->
<svg version="1.1" id="Capa_1" xmlns="http://www.w3.org/2000/svg" xmlns:xlink="http://www.w3.org/1999/xlink" x="0px" y="0px"
	 viewBox="0 0 40.974 40.974" style="enable-background:new 0 0 40.974 40.974;" xml:space="preserve">
<g>
	<g>
		<path style="fill:#010002;" d="M27.316,18.744V8.571H13.658v10.173H0v13.658h13.658h13.658h13.658V18.744H27.316z M9.919,29.406
			H4.552v-1.112c0.376-0.317,0.747-0.639,1.121-0.957c0.376-0.32,0.725-0.639,1.049-0.953c0.679-0.66,1.146-1.185,1.399-1.573
			c0.25-0.39,0.378-0.81,0.378-1.259c0-0.412-0.136-0.733-0.408-0.967c-0.271-0.232-0.648-0.35-1.135-0.35
			c-0.326,0-0.675,0.059-1.053,0.171c-0.373,0.113-0.741,0.287-1.1,0.521H4.75v-1.119c0.25-0.121,0.587-0.235,1.009-0.339
			c0.42-0.103,0.827-0.154,1.222-0.154c0.812,0,1.449,0.196,1.911,0.59c0.46,0.392,0.69,0.923,0.69,1.593
			c0,0.303-0.036,0.584-0.112,0.844c-0.077,0.262-0.189,0.51-0.34,0.744c-0.137,0.219-0.301,0.438-0.486,0.647
			c-0.187,0.214-0.412,0.45-0.679,0.708c-0.379,0.374-0.771,0.734-1.175,1.084c-0.406,0.35-0.783,0.674-1.135,0.972h4.264V29.406z
			 M22.926,18.25h-4.378v-0.825h1.686v-5.423h-1.686v-0.739c0.227,0,0.471-0.02,0.732-0.059c0.261-0.037,0.457-0.092,0.593-0.164
			c0.166-0.092,0.297-0.206,0.394-0.346c0.097-0.139,0.152-0.326,0.167-0.562h0.841v7.292h1.65v0.826H22.926z M37.54,27.956
			c-0.138,0.323-0.34,0.604-0.593,0.846c-0.286,0.267-0.622,0.463-1.008,0.592c-0.385,0.127-0.812,0.191-1.271,0.191
			c-0.473,0-0.936-0.058-1.395-0.17c-0.457-0.111-0.83-0.234-1.123-0.367v-1.193h0.084c0.326,0.213,0.703,0.39,1.144,0.531
			c0.437,0.141,0.858,0.209,1.267,0.209c0.239,0,0.498-0.039,0.765-0.119c0.272-0.078,0.491-0.197,0.659-0.354
			c0.174-0.167,0.308-0.352,0.394-0.554s0.126-0.457,0.126-0.765c0-0.306-0.048-0.558-0.146-0.758
			c-0.096-0.199-0.231-0.355-0.399-0.472c-0.175-0.118-0.381-0.198-0.623-0.243c-0.244-0.044-0.508-0.064-0.788-0.064h-0.518V24.32
			h0.404c0.576,0,1.037-0.121,1.383-0.363c0.346-0.24,0.516-0.596,0.516-1.06c0-0.206-0.044-0.386-0.128-0.54
			c-0.09-0.154-0.21-0.28-0.368-0.381c-0.164-0.098-0.337-0.166-0.523-0.204c-0.188-0.038-0.398-0.058-0.635-0.058
			c-0.365,0-0.748,0.064-1.154,0.192c-0.407,0.131-0.791,0.313-1.154,0.549h-0.057v-1.194c0.27-0.134,0.631-0.256,1.082-0.368
			c0.453-0.112,0.889-0.168,1.312-0.168c0.414,0,0.78,0.037,1.097,0.113c0.316,0.077,0.602,0.198,0.856,0.366
			c0.274,0.183,0.479,0.403,0.623,0.662c0.142,0.26,0.212,0.563,0.212,0.908c0,0.473-0.168,0.885-0.499,1.236
			c-0.334,0.353-0.728,0.574-1.181,0.666v0.08c0.183,0.029,0.393,0.094,0.629,0.19c0.234,0.097,0.437,0.218,0.599,0.362
			c0.185,0.164,0.334,0.369,0.452,0.617c0.117,0.246,0.178,0.566,0.178,0.959C37.754,27.276,37.684,27.632,37.54,27.956z"/>
	</g>
</g>
<g>
</g>
<g>
</g>
<g>
</g>
<g>
</g>
<g>
</g>
<g>
</g>
<g>
</g>
<g>
</g>
<g>
</g>
<g>
</g>
<g>
</g>
<g>
</g>
<g>
</g>
<g>
</g>
<g>
</g>
</svg>
