<?xml version="1.0" encoding="iso-8859-1"?>
<!-- Generator: Adobe Illustrator 16.0.0, SVG Export Plug-In . SVG Version: 6.00 Build 0)  -->
<!DOCTYPE svg PUBLIC "-//W3C//DTD SVG 1.1//EN" "http://www.w3.org/Graphics/SVG/1.1/DTD/svg11.dtd">
<svg version="1.1" id="Capa_1" xmlns="http://www.w3.org/2000/svg" xmlns:xlink="http://www.w3.org/1999/xlink" x="0px" y="0px"
	 width="611.995px" height="611.995px" viewBox="0 0 611.995 611.995" style="enable-background:new 0 0 611.995 611.995;"
	 xml:space="preserve">
<g>
	<g>
		<g>
			<g>
				<path d="M132.389,520.52C59.393,520.52,0,461.133,0,388.131s59.393-132.399,132.389-132.399
					c73.002,0,132.389,59.394,132.389,132.399C264.783,461.133,205.391,520.52,132.389,520.52z M132.389,282.549
					c-58.218,0-105.577,47.364-105.577,105.583c0,58.213,47.365,105.578,105.577,105.578c58.218,0,105.578-47.365,105.578-105.578
					C237.972,329.914,190.607,282.549,132.389,282.549z"/>
				<path d="M479.605,520.52c-73.002,0-132.395-59.387-132.395-132.389s59.393-132.399,132.395-132.399
					s132.39,59.394,132.39,132.399C612,461.133,552.607,520.52,479.605,520.52z M479.605,282.549
					c-58.219,0-105.582,47.364-105.582,105.588c0,58.212,47.363,105.577,105.582,105.577s105.577-47.365,105.577-105.577
					C585.188,329.914,537.824,282.549,479.605,282.549z"/>
				<g>
					<path d="M25.412,347.26c-1.432,0-2.89-0.236-4.322-0.725c-7.009-2.387-10.751-10.001-8.365-17.009l66.953-196.564
						c3.898-15.492,15.122-27.976,31.68-35.208c15.481-6.762,34.056-8.107,52.298-3.786c7.202,1.705,11.663,8.928,9.952,16.135
						c-1.7,7.202-8.901,11.674-16.135,9.953c-12.623-2.998-25.192-2.188-35.386,2.269c-8.88,3.882-14.735,10.092-16.489,17.491
						l-0.354,1.229l-67.14,197.127C36.201,343.749,30.994,347.26,25.412,347.26z"/>
					<path d="M585.671,347.26c-5.582,0-10.788-3.512-12.692-9.089L505.485,139.81c-1.754-7.399-7.609-13.608-16.489-17.492
						c-10.193-4.439-22.763-5.266-35.386-2.268c-7.233,1.7-14.431-2.756-16.136-9.953c-1.705-7.207,2.751-14.43,9.952-16.135
						c18.242-4.322,36.817-2.981,52.298,3.786c16.555,7.238,27.782,19.722,31.682,35.208l66.953,196.563
						c2.386,7.009-1.362,14.617-8.37,17.009C588.562,347.024,587.104,347.26,585.671,347.26z"/>
				</g>
			</g>
			<path d="M360.606,401.542c-2.049,0-4.13-0.473-6.075-1.465c-0.15-0.074-20.303-9.958-49.805-9.958
				c-29.015,0-46.577,9.589-46.748,9.686c-6.435,3.587-14.602,1.324-18.232-5.089s-1.442-14.531,4.949-18.199
				c0.938-0.542,23.401-13.202,60.031-13.202c36.281,0,60.942,12.36,61.977,12.88c6.596,3.362,9.218,11.438,5.854,18.028
				C370.194,398.867,365.486,401.539,360.606,401.542z"/>
		</g>
	</g>
</g>
<g>
</g>
<g>
</g>
<g>
</g>
<g>
</g>
<g>
</g>
<g>
</g>
<g>
</g>
<g>
</g>
<g>
</g>
<g>
</g>
<g>
</g>
<g>
</g>
<g>
</g>
<g>
</g>
<g>
</g>
</svg>
