<svg id="Capa_1" data-name="Capa 1" xmlns="http://www.w3.org/2000/svg" viewBox="0 0 358.39226 363.44873"><title>chronomancy</title><path d="M343.657,237.412c-21.188,1.306-49.053,22.476-75.93,34.648-32.939,14.916-84.217,2.924-84.222,2.924,7.91-3.713,40.057-11.369,46.526-14.209,34.411-15.146,31.495-46.689,15.106-46.422-21.652.346-34.362,5.659-77.566,11.551-32.746,4.451-71.476,2.824-90.052,9.916C51.295,245.837,9.061,313.23,9.061,313.23l65.3,63.285s40.43-39.817,60.099-39.817c44.823,0,46.633-.599,88.255-2.864,17.699-.946,21.393-1.673,31.521-5.087,53.951-18.24,111.881-66.818,112.945-72.647C369.647,242.55,354.844,236.736,343.657,237.412Z" transform="translate(-9.06101 -13.06632)"/><g id="layer1"><path id="path7195" d="M223.06733,187.20369c-15.755-3.11856-26.48772-8.74777-37.45807-19.64638l-8.12025-8.06722.02529,5.43734a63.84114,63.84114,0,0,0,2.70336,16.701c.91407,3.01686-1.44175,2.09754-6.44665-2.51584-14.39854-13.27212-23.03935-33.83246-24.26232-57.73134-.55269-10.802-.42646-12.31138,1.03027-12.31138.91314,0,2.677,1.42775,3.91951,3.17273,3.4473,4.84138,15.157,14.52415,23.56379,18.15411,20.58411,8.888,44.43624,10.6443,63.85738,5.0738a87.33723,87.33723,0,0,0,29.90156-15.64764c3.7499-3.0182,7.17152-5.49354,7.60373-5.50087,1.72866-.02893.58393,3.11763-3.346,9.19794a61.25576,61.25576,0,0,1-17.49138,17.90848c-6.19621,4.10421-20.72536,9.29953-28.92731,10.34385l-6.55336.83438,4.64816,3.40572c6.93525,5.08144,14.30418,6.86593,25.67484,6.21743,17.68877-1.00884,32.38711-7.65846,45.17805-20.43893,5.42026-5.41586,15.37959-18.41494,16.498-21.53355.2433-.67845.80833-.89284,1.25567-.47634,1.04241.97041-3.886,14.898-8.63043,24.38942-10.84974,21.70538-27.574,36.50971-47.42815,41.98347-8.23151,2.26951-28.1884,2.83278-37.1957,1.04985ZM198.06283,102.384c.01036-25.25743,34.09166-25.12763,34.09166-.00518C232.15449,125.33753,198.05824,125.74162,198.06283,102.384ZM275.98,86.84249c-36.08011-29.35906-84.50749-30.51107-117.61293-4.33513-5.66052,4.47566-7.07252,5.29087-7.07252,3.719,0-3.107,7.49077-13.81966,13.80794-19.74694,8.47168-7.94879,24.04426-15.05752,36.64819-16.72947,4.94938-.65654,5.27955-.96107,3.37405-2.643-11.46973-10.12374-35.95491-7.99589-47.25307-4.096C144.45711,47.64129,131.48,58.7204,121.9471,73.24135c-2.83992,4.32592-5.34944,8.38112-5.57679,9.01159s-.77859.80622-1.2252.39056c-1.13377-1.05543,1.21668-9.1496,5.74269-19.77571,8.48468-19.92038,21.44838-35.39035,38.18414-42.40456,18.21486-7.63414,40.61915-10.09647,58.25616-3.86121,12.73289,4.50149,22.15566,10.77264,31.87935,20.92018l4.76928,4.97717a86.52119,86.52119,0,0,0-2.55679-24.46364c.68877-.70738,8.163,6.18355,13.24993,12.216,6.506,7.71528,10.61671,15.62182,13.75568,26.45736,3.6121,12.46938,6.28917,35.66744,4.10308,35.55629-.4322-.02221-3.18452-2.68544-6.54862-5.42293Z" transform="translate(-9.06101 -13.06632)"/></g></svg>