<?xml version="1.0" encoding="iso-8859-1"?>
<!-- Generator: Adobe Illustrator 18.0.0, SVG Export Plug-In . SVG Version: 6.00 Build 0)  -->
<!DOCTYPE svg PUBLIC "-//W3C//DTD SVG 1.1//EN" "http://www.w3.org/Graphics/SVG/1.1/DTD/svg11.dtd">
<svg version="1.1" id="Capa_1" xmlns="http://www.w3.org/2000/svg" xmlns:xlink="http://www.w3.org/1999/xlink" x="0px" y="0px"
	 viewBox="0 0 492.75 492.75" style="enable-background:new 0 0 492.75 492.75;" xml:space="preserve">
<g>
	<g>
		<path d="M45.082,121.589l-2.227,20.876l53.434,63.486l9.276-68.475c0.433-3.196,1.338-6.191,2.199-9.202L45.082,121.589z"/>
		<path d="M90.538,248.414l2.799-20.661l-52.876-62.832l-7.819,73.314c-1.941,18.178,11.223,34.478,29.402,36.422l31.597,3.37
			C90.491,268.769,89.137,258.765,90.538,248.414z"/>
		<path d="M200.385,124.129c-4.577-12.695-18.593-19.301-31.296-14.693c-12.703,4.585-19.286,18.593-14.693,31.296l29.665,82.164
			c2.69,7.474,8.851,13.173,16.516,15.274l76.894,21.14c2.165,0.597,4.346,0.884,6.495,0.884c10.729,0,20.575-7.124,23.56-17.98
			c3.582-13.021-4.075-26.473-17.097-30.054l-64.678-17.781L200.385,124.129z"/>
		<path d="M280.893,391.117l-10.053-69.35c-1.162-8.007-5.667-15.139-12.393-19.636l-40.759-27.214l-14.318-9.56
			c0.062-0.417,0.14-0.945,0.237-1.622l1.021-7.543l-8.376-2.303c-12.767-3.51-23.034-13.006-27.531-25.454l-9.316-25.806
			l-50.052,28.345c0,0-1.994,14.721-2.658,19.627c-0.562,4.143-0.673,17.777,1.162,23.663c2.9,9.306,11.608,37.224,11.608,37.224
			l15.589,49.994l-21.801,82.896c-4.012,15.242,5.094,30.843,20.328,34.846c2.436,0.637,4.879,0.947,7.275,0.947
			c12.647,0,24.204-8.477,27.571-21.275l23.886-90.824c1.361-5.182,1.242-10.642-0.358-15.752l-10.235-32.818l34.479,23.02
			l8.229,56.774c2.062,14.208,14.255,24.443,28.2,24.435c1.361,0,2.738-0.095,4.123-0.294
			C272.345,421.18,283.154,406.71,280.893,391.117z"/>
		<path d="M464.069,212.629c-7.195-5.42-17.423-3.972-22.827,3.216l-61.184,81.297c-1.21,1.615-2.117,3.43-2.666,5.372
			l-25.191,89.089l-38.658,5.524c-2.006,0.287-3.94,0.939-5.707,1.942l-111.908,63.189c-7.84,4.425-10.602,14.367-6.177,22.207
			c2.993,5.309,8.517,8.286,14.208,8.286c2.714,0,5.468-0.677,7.998-2.109l109.234-61.677l46.116-6.59
			c6.376-0.907,11.621-5.492,13.38-11.7l27.253-96.356l59.345-78.861C472.706,228.261,471.257,218.042,464.069,212.629z"/>
		<path d="M51.776,113.025l59.31,6.33l7.516,0.802c3.691,0.394,7.354,0.03,10.903-0.787c-3.937,5.952-6.764,12.751-7.782,20.296
			l-9.621,71.021l41.688-23.61l-14.732-40.805c-3.945-10.929-2.855-22.401,1.961-32.034c0.618-0.432,1.294-0.759,1.884-1.236
			c4.128-3.335,7.215-7.641,9.327-12.404c1.381-3.115,2.426-6.39,2.794-9.843c0.283-2.648,0.159-5.231-0.168-7.762
			c-1.918-14.836-13.704-27-29.233-28.659l-66.851-7.132c-8.724-0.932-17.455,1.639-24.284,7.146
			c-6.821,5.517-11.184,13.507-12.114,22.255C20.432,94.783,33.597,111.084,51.776,113.025z"/>
	</g>
	<circle cx="200.891" cy="47.5" r="47.5"/>
</g>
<g>
</g>
<g>
</g>
<g>
</g>
<g>
</g>
<g>
</g>
<g>
</g>
<g>
</g>
<g>
</g>
<g>
</g>
<g>
</g>
<g>
</g>
<g>
</g>
<g>
</g>
<g>
</g>
<g>
</g>
</svg>
