<?xml version="1.0" encoding="iso-8859-1"?>
<!-- Generator: Adobe Illustrator 16.0.0, SVG Export Plug-In . SVG Version: 6.00 Build 0)  -->
<!DOCTYPE svg PUBLIC "-//W3C//DTD SVG 1.1//EN" "http://www.w3.org/Graphics/SVG/1.1/DTD/svg11.dtd">
<svg version="1.1" id="Capa_1" xmlns="http://www.w3.org/2000/svg" xmlns:xlink="http://www.w3.org/1999/xlink" x="0px" y="0px"
	 width="527.737px" height="527.738px" viewBox="0 0 527.737 527.738" style="enable-background:new 0 0 527.737 527.738;"
	 xml:space="preserve">
<g>
	<path d="M435.831,79.26c-18.205,21.971-36.706,38.107-64.806,21.116c-24.761-14.96-42.393-34.3-73.796-31.212
		c-24.459,2.385-44.325,22.91-51.285,45.407c-1.005,3.251-1.33,6.626-1.312,10.083c-18.891-0.422-37.713,6.798-51.527,21.007
		l-0.544-0.405L15.552,383.381l0.127,0.089c-0.641,0.779-1.318,1.507-1.93,2.34c-22.934,30.843-16.518,74.452,14.325,97.374
		c30.857,22.946,74.461,16.521,97.395-14.327c0.612-0.828,1.12-1.685,1.676-2.524l0.127,0.101l177.016-238.121l-0.544-0.405
		c16.709-30.047,9.055-68.523-19.287-89.592c-6.768-5.036-14.156-8.612-21.799-10.858c0.092-11.892,6.324-22.315,15.338-30.39
		c14.239-12.759,33.178-12.135,49.645-4.604c23.572,10.778,40.282,35.946,68.943,34.208c23.52-1.427,39.727-19.585,53.818-36.575
		C457.884,81.069,443.272,70.279,435.831,79.26z M264.448,141.203c4.285,1.882,8.494,4.262,12.489,7.231
		c23.224,17.266,30.766,46.42,16.863,65.122c-13.901,18.708-44.005,19.884-67.223,2.621c-23.232-17.268-30.766-46.423-16.864-65.134
		c8.08-10.87,21.639-15.767,36.142-14.623c2.751,15.513,8.346,31.413-1.768,43.518c-7.512,9.002,7.093,19.787,14.567,10.834
		C271.264,175.686,267.643,158.592,264.448,141.203z M425.848,60.872l-14.653-30.074l19.837,26.944L425.848,60.872z M486.084,45.885
		l-22.65,27.11l-4.291-4.273L486.084,45.885z M527.737,132.711l-61.702-31.371l2.973-5.267L527.737,132.711z M459.403,107.455
		l1.424,78.731l-7.471-78.383L459.403,107.455z"/>
</g>
<g>
</g>
<g>
</g>
<g>
</g>
<g>
</g>
<g>
</g>
<g>
</g>
<g>
</g>
<g>
</g>
<g>
</g>
<g>
</g>
<g>
</g>
<g>
</g>
<g>
</g>
<g>
</g>
<g>
</g>
</svg>
