<?xml version="1.0" encoding="iso-8859-1"?>
<!-- Generator: Adobe Illustrator 18.1.1, SVG Export Plug-In . SVG Version: 6.00 Build 0)  -->
<svg version="1.1" id="Capa_1" xmlns="http://www.w3.org/2000/svg" xmlns:xlink="http://www.w3.org/1999/xlink" x="0px" y="0px"
	 viewBox="0 0 460.606 460.606" style="enable-background:new 0 0 460.606 460.606;" xml:space="preserve">
<g>
	<g>
		<path style="fill:#010002;" d="M444.251,118.348c0-52.275-42.374-94.649-94.649-94.649H112.004
			c-52.275,0-94.649,42.374-94.649,94.649v213.773C6.69,342.185,0,356.418,0,372.236c0,30.49,24.719,55.209,55.209,55.209
			c22.069,0,41.057-12.981,49.893-31.693c9.567,7.966,21.866,12.762,35.286,12.762s25.719-4.796,35.286-12.762
			c8.836,18.712,27.824,31.693,49.893,31.693c20.118,0,37.676-10.795,47.325-26.881c9.649,16.078,27.206,26.881,47.325,26.881
			c15.111,0,28.8-6.08,38.765-15.924c9.827,15.257,26.922,25.386,46.414,25.386c30.49,0,55.209-24.719,55.209-55.209
			c0-15.347-6.267-29.222-16.379-39.229V118.348H444.251z M405.413,245.739l-9.291-6.08c-7.934-5.186-14.924-1.731-15.615,7.73
			l-3.82,52.519c-0.691,9.454-4.056,9.966-7.527,1.146l-25.288-64.281c-3.471-8.819-10.177-9.348-14.973-1.171l-39.407,67.118
			c-4.804,8.177-12.583,8.177-17.379,0l-39.407-67.118c-4.804-8.177-12.437-8.088-17.046,0.187l-36.92,66.24
			c-1.926,3.463-4.357,5.381-6.852,5.942c-3.26,0.732-6.625-0.992-9.226-5.178c-0.179-0.285-0.382-0.504-0.553-0.813l-18.159-33.018
			c-4.568-8.307-12.152-8.405-16.932-0.219l-16.273,27.848c-0.179-0.992-0.309-2-0.309-3.048V140.149
			c0-4.528,1.788-8.624,4.658-11.689l36.822,76.864c4.097,8.551,11.746,9.128,17.078,1.292l56.941-83.627h27.182l25.67,81.448
			c2.853,9.039,9.015,9.722,13.77,1.52l48.121-82.968h22.768l17.224,67.768c2.333,9.185,6.698,9.356,9.738,0.382l14.997-44.244
			v98.843H405.413z M362.819,48.702c11.323,0,20.508,9.185,20.508,20.508s-9.185,20.508-20.508,20.508
			c-11.323,0-20.508-9.185-20.508-20.508S351.496,48.702,362.819,48.702z M130.935,48.702c11.323,0,20.508,9.185,20.508,20.508
			s-9.185,20.508-20.508,20.508s-20.508-9.185-20.508-20.508S119.612,48.702,130.935,48.702z"/>
	</g>
</g>
<g>
</g>
<g>
</g>
<g>
</g>
<g>
</g>
<g>
</g>
<g>
</g>
<g>
</g>
<g>
</g>
<g>
</g>
<g>
</g>
<g>
</g>
<g>
</g>
<g>
</g>
<g>
</g>
<g>
</g>
</svg>
