<?xml version="1.0" encoding="iso-8859-1"?>
<!-- Generator: Adobe Illustrator 17.1.0, SVG Export Plug-In . SVG Version: 6.00 Build 0)  -->
<!DOCTYPE svg PUBLIC "-//W3C//DTD SVG 1.1//EN" "http://www.w3.org/Graphics/SVG/1.1/DTD/svg11.dtd">
<svg version="1.1" id="Capa_1" xmlns="http://www.w3.org/2000/svg" xmlns:xlink="http://www.w3.org/1999/xlink" x="0px" y="0px"
	 viewBox="0 0 449.505 449.505" style="enable-background:new 0 0 449.505 449.505;" xml:space="preserve">
<g>
	<path d="M306.079,223.021c-0.632-7.999-7.672-14.605-15.694-14.728l-53.093-0.814c-3.084-0.047-6.21-2.762-6.689-5.809
		l-11.698-74.37c-0.424-2.694-2.936-13.678-16.649-13.678l-66.024,2.875c-8.698,0.378-15.769,4.607-15.769,16.476
		c0,0-0.278,165.299-0.616,171.289l-2.31,40.898c-0.309,5.462-2.437,14.303-4.647,19.306l-26.724,60.487
		c-1.764,3.991-1.735,8.403,0.08,12.105s5.284,6.428,9.52,7.48l8.897,2.208c1.324,0.329,2.71,0.495,4.118,0.495
		c7.182,0,14.052-4.168,17.096-10.372l25.403-51.78c2.806-5.719,6.298-15.412,7.786-21.607l14.334-59.711l34.689,53.049
		c2.86,4.374,5.884,12.767,6.471,17.961l6.706,59.392c0.954,8.454,8.654,15.332,17.164,15.332l10.146-0.035
		c4.353-0.015,8.311-1.752,11.145-4.893c2.833-3.14,4.158-7.254,3.728-11.585l-7.004-70.612c-0.646-6.512-2.985-16.401-5.325-22.513
		l-31.083-81.187l-0.192-17.115l72.241-2.674c4.033-0.149,7.718-1.876,10.376-4.862c2.658-2.985,3.947-6.845,3.629-10.873
		L306.079,223.021z M238.43,444.503L238.43,444.503v0.002V444.503z"/>
	<path d="M157.338,97.927c5.558,0,11.054-0.948,16.335-2.819c12.327-4.362,22.216-13.264,27.846-25.066
		c3.981-8.345,5.483-17.433,4.486-26.398l16.406-1.851c5.717-0.645,11.52-5.205,13.498-10.607l5.495-15.007
		c1.173-3.206,0.864-6.45-0.849-8.902c-1.67-2.39-4.484-3.761-7.72-3.761c-0.375,0-0.763,0.018-1.161,0.056l-47.438,4.512
		C176.416,2.933,167.116,0,157.333,0c-5.556,0-11.05,0.947-16.333,2.816c-12.326,4.365-22.215,13.268-27.846,25.07
		s-6.328,25.089-1.963,37.413C118.102,84.815,136.647,97.927,157.338,97.927z"/>
	<path d="M364.605,174.546l-4.72-67.843c-0.561-8.057-7.587-14.611-15.691-14.611l-90.689,0.158
		c-4.06,0.007-7.792,1.618-10.509,4.536c-2.716,2.917-4.058,6.754-3.775,10.805l4.72,67.843c0.561,8.057,7.587,14.611,15.664,14.611
		l90.716-0.158c4.06-0.007,7.792-1.617,10.509-4.535C363.546,182.434,364.887,178.596,364.605,174.546z M259.604,185.044
		L259.604,185.044L259.604,185.044L259.604,185.044z"/>
</g>
<g>
</g>
<g>
</g>
<g>
</g>
<g>
</g>
<g>
</g>
<g>
</g>
<g>
</g>
<g>
</g>
<g>
</g>
<g>
</g>
<g>
</g>
<g>
</g>
<g>
</g>
<g>
</g>
<g>
</g>
</svg>
