<?xml version="1.0" encoding="iso-8859-1"?>
<!-- Generator: Adobe Illustrator 18.0.0, SVG Export Plug-In . SVG Version: 6.00 Build 0)  -->
<!DOCTYPE svg PUBLIC "-//W3C//DTD SVG 1.1//EN" "http://www.w3.org/Graphics/SVG/1.1/DTD/svg11.dtd">
<svg version="1.1" id="Capa_1" xmlns="http://www.w3.org/2000/svg" xmlns:xlink="http://www.w3.org/1999/xlink" x="0px" y="0px"
	 viewBox="0 0 269.418 269.418" style="enable-background:new 0 0 269.418 269.418;" xml:space="preserve">
<path d="M73.998,138.478c0,0-14.344,12.163-4.629,40.331c0.477,7.343-3.245,14.285-6.936,15.679
	c-3.704,1.389-13.763,32.807,0.573,74.93h16.859c0,0-12.082-23.548-5.886-46.703c6.176-23.137,34.368-47.421,34.368-47.421
	c12.964,6.942,22.928,3.913,39.595,1.608c4.171,12.494,12.041,22.628,13.426,27.05c1.391,4.413-1.385,23.866,18.977,65.466h18.638
	c0,0-29.163-48.876-11.102-90.609c2.3-2.826,24.053-17.647,24.053-46.815c1.865-21.749-24.754-43.975-19.434-54.607
	c1.847-3.716,5.089-5.106,14.357-3.716c9.254,1.39,17.577-0.45,18.505-5.556c0.932-5.085-1.385-5.546-10.188-7.865
	c-7.774-2.048-10.517-9.161-27.098-11.093c1.133-1.746,2.146-3.93,2.891-6.813c0.86-3.297-1.115-6.659-4.421-7.511
	c-3.284-0.846-6.648,1.133-7.512,4.419c-0.646,2.558-1.333,3.417-1.303,3.549c-2.627-0.11-8.913-6.185-14.661-13.797
	c3.814-2.66,7.047-7.121,9.639-13.37c1.296-3.14-0.196-6.74-3.34-8.039c-3.143-1.305-6.736,0.183-8.045,3.331
	c-1.306,3.155-3.982,8.476-7.23,8.721c-5.1,0.319-13.859-9.422-18.17-16.637c-1.743-2.925-5.504-3.88-8.442-2.143
	c-2.926,1.74-3.878,5.513-2.134,8.435c2.061,3.476,11.924,19.018,24.267,22.101c4.418,6.65,20.132,22.03,20.533,23.027
	c-2.126,0.448-4.662,0.593-6.514-0.526c-3.775-2.326-15.443-2.21-15.862,1.878c-0.42,4.109,8.393,5.474,14.083,6.206
	c2.08,0.432,4.204-0.069,5.692,0.653l0.029-0.089c-0.268,2.614-0.183,5.679,0.381,9.275c2.786,17.597,14.363,35.644,5.094,45.831
	c-9.255,10.185-38.396,6.942-60.169,3.234c-21.759-3.699-65.437,1.626-69.021,15.683C45.248,143.051,57.796,147.272,73.998,138.478z
	"/>
<g>
</g>
<g>
</g>
<g>
</g>
<g>
</g>
<g>
</g>
<g>
</g>
<g>
</g>
<g>
</g>
<g>
</g>
<g>
</g>
<g>
</g>
<g>
</g>
<g>
</g>
<g>
</g>
<g>
</g>
</svg>
