<?xml version="1.0" encoding="iso-8859-1"?>
<!-- Generator: Adobe Illustrator 18.0.0, SVG Export Plug-In . SVG Version: 6.00 Build 0)  -->
<!DOCTYPE svg PUBLIC "-//W3C//DTD SVG 1.1//EN" "http://www.w3.org/Graphics/SVG/1.1/DTD/svg11.dtd">
<svg version="1.1" id="Capa_1" xmlns="http://www.w3.org/2000/svg" xmlns:xlink="http://www.w3.org/1999/xlink" x="0px" y="0px"
	 viewBox="0 0 441.032 441.032" style="enable-background:new 0 0 441.032 441.032;" xml:space="preserve">
<path d="M429.516,207.032h-102v-102h10v57c0,13.785,11.215,25,25,25s25-11.215,25-25v-109c0-5.523-4.478-10-10-10h-30
	c-5.522,0-10,4.477-10,10v32h-10v-12c0-5.523-4.478-10-10-10s-10,4.477-10,10v12h-29.6V65.513c0-5.523-4.478-10-10-10h-7.306V27.092
	c0-11.868-7.729-22.058-19.233-25.355c-11.397-3.268-22.788,1.06-29.012,11.026c-0.307,0.49-0.601,0.996-0.879,1.51
	c-1.855,3.426-5.074,3.795-6.372,3.796c-1.298,0-4.518-0.37-6.375-3.797C193.972,5.468,184.792,0,174.781,0c-0.001,0,0,0,0,0
	c-10.01,0-19.192,5.469-23.959,14.271c-0.005,0.01-0.011,0.02-0.016,0.029c-1.857,3.402-5.063,3.77-6.358,3.77
	c-1.298,0-4.517-0.37-6.373-3.795c-0.008-0.015-0.018-0.032-0.026-0.048c-0.274-0.503-0.56-0.993-0.858-1.47
	c-6.224-9.964-17.61-14.289-29.011-11.023C96.676,5.03,88.947,15.22,88.947,27.087V64.16h-9.479c-5.523,0-10,4.477-10,10v33.124
	c0,1.098-0.584,2.094-1.523,2.599c-20.248,10.882-32.826,31.911-32.826,54.879c0,15.776,5.917,30.684,16.702,42.271H11.516
	c-5.523,0-10,4.477-10,10v28c0,5.523,4.477,10,10,10h27v176c0,5.523,4.477,10,10,10s10-4.477,10-10v-126h324v126
	c0,5.523,4.478,10,10,10s10-4.477,10-10v-176h27c5.522,0,10-4.477,10-10v-28C439.516,211.509,435.039,207.032,429.516,207.032z
	 M362.516,167.032c-2.757,0-5-2.243-5-5v-57h10v57C367.516,164.789,365.273,167.032,362.516,167.032z M357.516,63.032h10v22h-10
	V63.032z M259.086,109.789l25.791,48.556c1.051,1.979,0.376,3.657-0.119,4.48c-0.495,0.824-1.661,2.207-3.901,2.207h-63.495
	c-2.24,0-3.406-1.383-3.901-2.207c-0.496-0.824-1.169-2.502-0.119-4.48l25.79-48.556c0.768-1.444,1.169-3.055,1.169-4.691v-0.066
	h17.616v0.066C257.917,106.734,258.318,108.345,259.086,109.789z M240.301,85.032v-9.519h17.616v9.519H240.301z M89.468,97.284
	V84.16h15.843v13.124H89.468z M77.413,127.499c4.333-2.329,7.7-5.938,9.764-10.215h20.436c2.072,4.28,5.452,7.897,9.802,10.243
	c13.721,7.398,22.244,21.666,22.244,37.236c0,23.119-18.804,42.081-41.917,42.269c-11.284,0.092-21.936-4.29-30.048-12.336
	c-8.109-8.043-12.575-18.674-12.575-29.933C55.119,149.168,63.661,134.89,77.413,127.499z M126.907,109.922
	c-0.985-0.531-1.597-1.542-1.597-2.638V74.16c0-5.523-4.477-10-10-10h-6.363V27.087c0-4.425,3.631-5.811,4.744-6.129
	c1.595-0.458,4.57-0.756,6.536,2.392c0.09,0.145,0.177,0.293,0.26,0.447c0.009,0.017,0.019,0.036,0.029,0.054
	c4.776,8.772,13.94,14.219,23.932,14.219c10.01,0,19.19-5.468,23.958-14.271c0.005-0.01,0.011-0.02,0.016-0.03
	c1.858-3.401,5.063-3.769,6.358-3.769c1.298,0,4.518,0.37,6.374,3.797c4.768,8.802,13.948,14.271,23.959,14.271
	s19.191-5.468,23.961-14.276c0.081-0.15,0.166-0.295,0.254-0.436c1.966-3.148,4.938-2.853,6.538-2.394
	c1.112,0.319,4.744,1.704,4.744,6.129v28.421h-10.311c-5.522,0-10,4.477-10,10v37.094l-24.622,46.356
	c-4.079,7.68-3.84,16.714,0.641,24.167c4.48,7.453,12.347,11.903,21.042,11.903h63.495c8.696,0,16.563-4.45,21.043-11.903
	c4.479-7.453,4.72-16.487,0.64-24.167l-23.334-43.931h28.311v102h-48.407v-4c0-5.523-4.478-10-10-10s-10,4.477-10,10v4H143
	c10.322-11.128,16.659-25.995,16.659-42.27C159.659,141.829,147.109,120.815,126.907,109.922z M382.516,285.032h-324v-30h324
	V285.032z M419.516,235.032h-398v-8h398V235.032z"/>
<g>
</g>
<g>
</g>
<g>
</g>
<g>
</g>
<g>
</g>
<g>
</g>
<g>
</g>
<g>
</g>
<g>
</g>
<g>
</g>
<g>
</g>
<g>
</g>
<g>
</g>
<g>
</g>
<g>
</g>
</svg>
