<?xml version="1.0" encoding="utf-8"?>
<!-- Generator: Adobe Illustrator 23.0.0, SVG Export Plug-In . SVG Version: 6.00 Build 0)  -->
<svg version="1.1" id="Capa_1" xmlns="http://www.w3.org/2000/svg" xmlns:xlink="http://www.w3.org/1999/xlink" x="0px" y="0px"
	 viewBox="0 0 292.6 522" style="enable-background:new 0 0 292.6 522;" xml:space="preserve">
<style type="text/css">
	.st0{clip-path:url(#SVGID_2_);}
	.st1{fill:none;}
	.st2{fill:#FFFFFF;}
</style>
<title>loopingPotion</title>
<g>
	<defs>
		<rect id="SVGID_1_" x="-108.2" width="512" height="512"/>
	</defs>
	<clipPath id="SVGID_2_">
		<use xlink:href="#SVGID_1_"  style="overflow:visible;"/>
	</clipPath>
	<g class="st0">
		<path d="M118.9,54.9h54.9c5,0,9.1-4.1,9.1-9.1V9.1c0-5-4.1-9.1-9.1-9.1h-54.9c-5,0-9.1,4.1-9.1,9.1v36.6
			C109.7,50.8,113.8,54.9,118.9,54.9C118.9,54.9,118.9,54.9,118.9,54.9z"/>
		<path d="M100.6,109.7H192c5,0,9.1-4.1,9.1-9.1V82.3c0-5-4.1-9.1-9.1-9.1l0,0h-91.4c-5,0-9.1,4.1-9.1,9.1v18.3
			C91.5,105.6,95.5,109.7,100.6,109.7z"/>
		<g>
			<path d="M126.6,342.7c-0.9,2.6-1.2,4.4-1,5.4c0.2,0.8,0.9,1.7,2.3,3.4l0.1,0.1l17.9,21.5c0.9,1.1,1.2,2.5,0.7,3.9l-3.3,9.7
				c-0.5,1.3-1.6,2.3-3,2.6c-9.8,2.1-25,5.5-26.8,6c-2.3,0.7-5.4,1.6-7.1,6.6l-5.4,16l61.5,20.9l5.5-16.3c0.9-2.6,1.2-4.4,1-5.4
				c-0.2-0.8-0.9-1.7-2.3-3.4l-18-21.5h0c-0.9-1.1-1.2-2.5-0.7-3.9l3.3-9.7c0.5-1.3,1.6-2.3,3-2.6c9.8-2.1,25-5.5,26.8-6
				c2.3-0.7,5.4-1.6,7.1-6.6l6.3-18.5L133,323.8L126.6,342.7z"/>
			<g>
				<path class="st1" d="M124.9,307.5l-3.4,10c-0.4,1.2,0.2,2.4,1.4,2.8l2.5,0.9l-6.4,18.9c-3,8.9-1,11.9,2.8,16.5l16.5,19.8
					l-1.8,5.4c-6.3,1.4-22.9,5-25.1,5.6c-2.8,0.8-9.4,2.7-12.5,11.7l-5.4,16l-2.5-0.9c-1.2-0.4-2.4,0.2-2.8,1.4l-3.4,10
					c-0.4,1.2,0.2,2.4,1.4,2.8l81.8,27.8c1.2,0.4,2.4-0.2,2.8-1.4l3.4-9.9c0.4-1.2-0.2-2.4-1.4-2.8l-2.5-0.9l5.5-16.3
					c3-8.9,1-11.9-2.8-16.5l-16.5-19.8l1.8-5.4c6.3-1.4,22.9-5,25.1-5.6c2.8-0.8,9.4-2.7,12.5-11.7l6.3-18.5l2.5,0.9
					c1.2,0.4,2.4-0.2,2.8-1.4l3.4-10c0.4-1.2-0.2-2.4-1.4-2.8l-81.8-27.8C126.5,305.8,125.3,306.4,124.9,307.5z"/>
				<path d="M292.3,378.3c-3.5-53.1-35.6-100.1-83.7-122.7c-15.8-7.6-25.8-23.6-25.7-41.1v-77.3c0-5-4.1-9.1-9.1-9.1h-54.9
					c-5,0-9.1,4.1-9.1,9.1v78.5c-0.2,17.3-10.4,32.9-26.1,40.1c-73,34.6-104.1,121.9-69.5,194.9c11.7,24.6,30,45.5,52.9,60.3
					c1.2,0.7,2.7,1.1,4.1,1.1h21.1C43,491.9,8.3,443.5,8.3,387c0-74.6,60.4-135,135-135c1,0,2,0,3,0l0-4.2c0-3.3,2-4.2,4.5-2.2
					l8.9,7.3c66.8,8.1,118.6,65,118.6,134c0,56.5-34.7,104.9-83.9,125h27.2c1.4,0,2.7-0.4,3.8-1.1
					C270.2,482.2,295.8,431.4,292.3,378.3z"/>
				<path d="M56,460.3c-0.1-0.1-0.2-0.2-0.3-0.3c-1.6-1.8-3.2-3.8-4.7-5.7c-0.1-0.1-0.1-0.1-0.1-0.2c-15.4-19.9-24.2-44.1-25.2-69.2
					c0-0.2,0-0.4,0-0.5c-0.1-1.5-0.1-3.1-0.1-4.6c0-0.9,0-1.9,0-2.8c0-0.2,0-0.4,0-0.7c0.7-26.6,10.2-52.2,26.9-72.8
					c-19.3,20.3-31.3,46.7-33.8,74.8c-3.7,44.7,16.4,88,53,113.8c1.6,1.1,3.4,1.7,5.3,1.6h27.5c-16.2-6-31.1-15.6-43.4-28
					C59.4,464,57.7,462.2,56,460.3z"/>
				<path d="M143.3,522c18.1,0,35.3-3.6,51.1-10H92.3C108,518.4,125.2,522,143.3,522z"/>
				<path d="M146.6,288.4l-0.1-10.5c-7.5,0-15,0.9-22.3,2.6c-0.1,0-0.1,0-0.2,0c-0.5,0.1-1,0.2-1.5,0.4c0,0,0,0-0.1,0
					c-32.7,8.2-59.3,32-71.1,63.6c-0.1,0.3-0.2,0.5-0.3,0.8c-0.2,0.6-0.4,1.2-0.6,1.8c-0.1,0.2-0.1,0.4-0.2,0.7
					c-6.9,20.9-6.9,43.4,0,64.3c0.2,0.6,0.4,1.2,0.6,1.8c14.4,40.7,52.9,68,96.2,68c3.8,0,7.6-0.2,11.4-0.6c0,0,0,0,0.1,0
					c2-0.2,4.1-0.5,6.2-0.9c0.1,0,0.2,0,0.3,0c8.7-1.5,17.1-4.2,25.1-7.9c0.3-0.1,0.6-0.3,0.9-0.4c0.3-0.2,0.6-0.3,0.9-0.5
					c1.9-0.9,3.7-1.9,5.5-2.9h0c0,0,0,0,0,0c4.7-2.7,10.7-1,13.3,3.7c2.7,4.7,1,10.7-3.7,13.3c-2.1,1.2-4.4,2.4-6.6,3.5
					c-0.3,0.2-0.7,0.3-1.1,0.4c-0.3,0.2-0.7,0.4-1,0.5c-2.9,1.4-5.9,2.6-8.9,3.7h25.9c1.9,0,3.7-0.6,5.3-1.6
					c30.8-21.4,50.3-55.5,53.2-92.9c2.4-30.6-6.7-60.8-24.9-85c1.5,4.1,0.1,8.9-3.7,11.4c-4.5,3-10.5,1.8-13.6-2.7
					c-1.1-1.7-2.4-3.4-3.6-5c-3.3-4.3-2.5-10.4,1.8-13.7c2.8-2.1,6.3-2.5,9.4-1.4c-1.2-1.3-2.4-2.5-3.7-3.7c-3.8-3.7-8-6.9-12.3-9.9
					c0.2,2.3-0.4,4.6-1.9,6.6v0c0,0,0,0,0,0c-3.2,4.3-9.3,5.2-13.7,2c-1.7-1.2-3.4-2.4-5.1-3.5c-4.5-2.9-5.8-9-2.9-13.5
					c0.5-0.8,1.1-1.5,1.8-2.1c-9.2-3-18.9-4.6-28.7-4.5h-2.6l-19.1,16.2C148.7,292.6,146.7,291.6,146.6,288.4z M268.5,383.5
					c-0.1,2.5-0.2,5-0.5,7.4c-0.5,5-4.7,8.9-9.7,8.9c-0.3,0-0.6,0-0.9,0c-5.4-0.5-9.3-5.2-8.8-10.6c0.2-2.1,0.3-4.1,0.4-6.2
					c0,0,0,0,0,0c0.2-5.4,4.7-9.6,10.1-9.5C264.5,373.6,268.7,378.1,268.5,383.5z M264.8,349.8c1.3,5.2-1.8,10.5-7.1,11.9
					c-5.2,1.3-10.5-1.8-11.9-7c-0.5-2-1.1-4-1.7-6c0,0,0,0,0,0c-1.6-5.1,1.2-10.6,6.3-12.3c5.1-1.6,10.6,1.2,12.3,6.3 M239.6,422.6
					c0.9-1.9,1.7-3.8,2.4-5.7c0,0,0,0,0,0c2-5,7.6-7.5,12.7-5.5c5,2,7.5,7.6,5.5,12.7c-0.9,2.3-1.9,4.6-2.9,6.8
					c-2.3,4.9-8.1,7-13,4.8C239.5,433.3,237.4,427.5,239.6,422.6z M219.9,451.2c1.4-1.5,2.9-3,4.2-4.6c3.5-4.1,9.7-4.5,13.8-1
					c4.1,3.5,4.5,9.7,1,13.8c-1.6,1.9-3.3,3.7-5,5.5c0,0,0,0,0,0c-3.8,3.9-10,3.9-13.8,0.2C216.2,461.2,216.2,455,219.9,451.2z
					 M209.5,334c1.2,0.4,1.8,1.7,1.4,2.8l-3.4,10c-0.4,1.2-1.7,1.8-2.8,1.4l-2.5-0.9l-6.3,18.5c-3.1,9-9.6,10.9-12.5,11.7
					c-2.2,0.6-18.8,4.2-25.1,5.6l-1.8,5.4l16.5,19.8c3.8,4.6,5.8,7.6,2.8,16.5l-5.5,16.3l2.5,0.9c1.2,0.4,1.8,1.7,1.4,2.8l-3.4,9.9
					c-0.4,1.2-1.7,1.8-2.8,1.4l-81.8-27.8c-1.2-0.4-1.8-1.7-1.4-2.8l3.4-10c0.4-1.2,1.7-1.8,2.8-1.4l2.5,0.9l5.4-16
					c3.1-9,9.6-10.9,12.5-11.7c2.2-0.6,18.8-4.2,25.1-5.6l1.8-5.4l-16.5-19.8c-3.8-4.6-5.8-7.6-2.8-16.5l6.4-18.9l-2.5-0.9
					c-1.2-0.4-1.8-1.7-1.4-2.8l3.4-10c0.4-1.2,1.7-1.8,2.8-1.4L209.5,334z"/>
				<path d="M278.3,387c0-69-51.8-125.9-118.6-134l13.6,11.1c0.3,0.3,0.6,0.6,0.9,0.9c1.6,2.1,1.2,5.1-0.8,6.7l-3.1,2.6h2.6
					c9.9-0.1,19.5,1.5,28.7,4.5c3.2-2.7,8-3.2,11.7-0.8c2.1,1.3,4.1,2.8,6.1,4.2c0,0,0,0,0,0c2.4,1.8,3.7,4.4,3.9,7.1
					c4.4,2.9,8.5,6.2,12.3,9.9c1.3,1.2,2.5,2.4,3.7,3.7c1.6,0.6,3.2,1.7,4.3,3.2c1.5,2,2.9,4,4.3,6c0,0,0,0,0,0
					c0.5,0.7,0.8,1.4,1.1,2.1c18.3,24.1,27.3,54.3,24.9,85c-2.9,37.4-22.4,71.5-53.2,92.9c-1.6,1.1-3.4,1.7-5.3,1.6h-25.9
					c-13.5,5.1-27.9,7.6-42.4,7.6c-6.7,0-13.5-0.6-20.1-1.7c-0.1,0-0.1,0-0.2,0c-0.1,0-0.2,0-0.2,0c-7.5-1.3-14.9-3.3-22-5.9H77.1
					c-1.9,0-3.8-0.6-5.3-1.6c-36.6-25.9-56.8-69.2-53-113.8c2.5-28.1,14.5-54.4,33.8-74.8c0.6-0.8,1.2-1.6,1.9-2.3
					c0.1-0.1,0.1-0.2,0.2-0.3c0,0,0,0,0,0c2-2.4,4.2-4.7,6.4-6.9c22.6-22.7,53.2-35.5,85.2-35.6l-0.1-6.3c-1,0-2,0-3,0
					c-74.6,0-135,60.4-135,135c0,56.5,34.7,104.9,83.9,125h102.1C243.6,491.9,278.3,443.5,278.3,387z"/>
				<path class="st2" d="M126.6,499.6c0.1,0,0.2,0,0.2,0c0.1,0,0.1,0,0.2,0c6.6,1.1,13.4,1.7,20.1,1.7c14.5,0,28.9-2.6,42.4-7.6
					h-84.9C111.7,496.4,119,498.3,126.6,499.6z"/>
			</g>
		</g>
	</g>
</g>
</svg>
