<?xml version="1.0" encoding="utf-8"?>
<!-- Generator: Adobe Illustrator 22.1.0, SVG Export Plug-In . SVG Version: 6.00 Build 0)  -->
<svg version="1.1" id="Layer_1" xmlns="http://www.w3.org/2000/svg" xmlns:xlink="http://www.w3.org/1999/xlink" x="0px" y="0px"
	 viewBox="0 0 939 939" style="enable-background:new 0 0 939 939;" xml:space="preserve">
<g id="surface1">
	<g>
		<path d="M138.6,319.3l26.5-26.5l26.5,26.5l-26.5,26.5L138.6,319.3z"/>
		<path d="M34.2,493.4l26.5-26.5l26.5,26.5l-26.5,26.5L34.2,493.4z"/>
		<path d="M164.7,641.4l26.5-26.5l26.5,26.5l-26.5,26.5L164.7,641.4z"/>
		<path d="M800.2,528.2l26.5-26.5l26.5,26.5l-26.5,26.5L800.2,528.2z"/>
		<path d="M573.9,93l26.5-26.5L626.8,93l-26.5,26.5L573.9,93z"/>
		<path d="M748,650.1l26.5-26.5l26.5,26.5l-26.5,26.5L748,650.1z"/>
		<path d="M765.4,388.9l26.5-26.5l26.5,26.5l-26.5,26.5L765.4,388.9z"/>
	</g>
	<path d="M418.2,266.8c-4.5,11.9-7.5,24.3-8.8,36.9c-0.6,4.1-1.3,8.2-2,12.3c-3.1,24.8-15.3,47.6-34.4,63.8
		c-3.4,2.7-6.6,5.6-9.6,8.7c-41.6,40.7-46.2,106.1-10.8,152.2c13,16.4,21.5,36,24.6,56.7l4.8,31.2c6.4,43.3,44.1,75,87.8,74
		c45.5-1.1,83.7-34.4,91-79.3l8.4-53.5c3.4-21.3,14.2-40.6,30.5-54.6c22.3-19.3,35.7-47,37-76.4c1.5-27.7-8.7-54.8-28.1-74.7
		c-30.4-31.2-56-66.7-76-105.4c-10.3-18.9-29.7-30.9-51.2-31.7C454.2,225.7,429,241.6,418.2,266.8z M556.4,431.3
		c8.4,40.5-9.9,76.4-31,112.7c-3.6,6.3-7.9,12-13,17.2c-6.9,7.3-15.8,12.3-25.6,14.6c-51,10.7-77.7-58.2-84.7-79.5
		c-14.6-40.9-5.2-86.6,24.3-118.5c43-47.8,75.9-34.6,91.7-22.6C541.8,373,551,405.3,556.4,431.3z"/>
	<path d="M450,388c-1.8,1.8-3.7,3.8-5.6,5.9c-23.7,25.5-31.1,62.1-19.2,94.8c2.3,7.2,23.9,70.2,56.6,63.4
		c9.9-3.5,18.1-10.8,22.6-20.2c19.4-33.3,34.9-63.4,28.2-95.6c-4.5-21.9-11.9-48.8-29.2-61.9C497.8,370,480.9,357.2,450,388z"/>
	<path d="M495.3,41.4c-4.3-11.9-9.1-23.6-14.6-34.9l-1.3,4.3c-1,3.2-1.9,6.3-2.9,9.3c-8.8,26.3-20.4,51.6-34.7,75.4l-4.9,8.2
		c-21,38.5-73.4,82.9-112,105l-11.2,6.4c-30.2,17.3-34.6,53.8-39.3,92.5c-3.5,28.5-7.1,58-21.4,81.7c-4.5,7.5-9.5,14.5-14.2,21.3
		c-12.2,14.6-20.9,31.8-25.5,50.3c-5.1,30.1,14.2,59.6,29.8,83.3l0.4,0.6l6.8,10.3c18.1,25.4,28.8,55.2,30.9,86.3
		c0.2,3.9,0.4,7.9,0.5,11.8c0.9,23,1.7,44.5,15,61.9c19.2,22.9,41.1,43.4,65.2,61c28.6,20.6,54,45.3,75.5,73.3
		c16,24.6,28.9,51.1,38.2,78.9l1.6,4.3c1.1-4.5,2.2-9,3.2-13.5c1.6-6.8,3.1-13.5,4.8-19.9c13.8-55.1,55.4-87.1,95.5-118
		c32.5-25,63.2-48.6,78.8-83.3c4.9-12.6,8.4-25.7,10.1-39.1c2.1-15.6,6.1-30.9,12.2-45.5c7.9-16,17.3-31.3,28-45.7
		c17.3-24.7,32.2-46,33.8-77.6c1.8-37.6-15.4-64.7-35.3-96.1l-5.5-8.6c-21.3-36.3-35.2-76.4-41-118.1c-7.5-42.3-25.3-70.2-56.2-87.9
		c-37.9-22.6-69.1-54.9-90.6-93.5C507.2,71.5,500.6,56.7,495.3,41.4z M626.1,346.9c24.1,24.7,36.7,58.3,34.9,92.7
		c-1.7,36.1-18.1,70-45.5,93.7c-12,10.3-19.9,24.5-22.4,40l-8.4,53.5c-9.3,56.5-57.4,98.4-114.6,99.8c-55.9,1.3-104-39.2-112.1-94.5
		l-4.8-31.2c-2.5-16.5-9.3-32.1-19.6-45.2c-46.7-60.6-35.9-147.5,24.2-194.8c14.4-12.6,23.6-30.1,25.7-49.1
		c0.7-3.9,1.3-7.8,1.9-11.8c1.6-14.7,5.2-29.2,10.5-42.9c14.9-34.3,49.3-56,86.7-54.6c29.9,1.2,57,18,71.3,44.4
		C573,283.6,597.3,317.3,626.1,346.9z"/>
</g>
</svg>
