<?xml version="1.0" encoding="utf-8"?>
<!-- Generator: Adobe Illustrator 16.0.0, SVG Export Plug-In . SVG Version: 6.00 Build 0)  -->
<!DOCTYPE svg PUBLIC "-//W3C//DTD SVG 1.1//EN" "http://www.w3.org/Graphics/SVG/1.1/DTD/svg11.dtd">
<svg version="1.1" id="Layer_1" xmlns="http://www.w3.org/2000/svg" xmlns:xlink="http://www.w3.org/1999/xlink" x="0px" y="0px"
	 width="512px" height="512px" viewBox="0 0 512 512" enable-background="new 0 0 512 512" xml:space="preserve">
<g>
	<polygon fill="#020201" points="451.5,132.5 451.482,132.5 353.74,89.5 256,46.5 158.26,89.5 60.519,132.5 60.5,132.5 60.5,182.5 
		451.5,182.5 	"/>
	<path fill="#020201" d="M99,365.5c-5.799,0-10.5,4.701-10.5,10.5s4.701,10.5,10.5,10.5h62c5.799,0,10.5-4.701,10.5-10.5
		s-4.701-10.5-10.5-10.5h-3.5v-150h3.5c5.799,0,10.5-4.701,10.5-10.5s-4.701-10.5-10.5-10.5H99c-5.799,0-10.5,4.701-10.5,10.5
		s4.701,10.5,10.5,10.5h3.5v150H99z"/>
	<path fill="#020201" d="M225,365.5c-5.799,0-10.5,4.701-10.5,10.5s4.701,10.5,10.5,10.5h62c5.799,0,10.5-4.701,10.5-10.5
		s-4.701-10.5-10.5-10.5h-3.5v-150h3.5c5.799,0,10.5-4.701,10.5-10.5s-4.701-10.5-10.5-10.5h-62c-5.799,0-10.5,4.701-10.5,10.5
		s4.701,10.5,10.5,10.5h3.5v150H225z"/>
	<path fill="#020201" d="M353,365.5c-5.799,0-10.5,4.701-10.5,10.5s4.701,10.5,10.5,10.5h62c5.799,0,10.5-4.701,10.5-10.5
		s-4.701-10.5-10.5-10.5h-3.5v-150h3.5c5.799,0,10.5-4.701,10.5-10.5s-4.701-10.5-10.5-10.5h-62c-5.799,0-10.5,4.701-10.5,10.5
		s4.701,10.5,10.5,10.5h3.5v150H353z"/>
	<path fill="#020201" d="M60.51,408.5v6c0,5.522,4.477,10,10,10h370.98c5.522,0,10-4.478,10-10v-6c0-5.522-4.478-10-10-10H70.51
		C64.987,398.5,60.51,402.977,60.51,408.5z"/>
	<path fill="#020201" d="M467.5,436.5h-423c-5.523,0-10,4.478-10,10v9c0,5.522,4.477,10,10,10h423c5.522,0,10-4.478,10-10v-9
		C477.5,440.977,473.023,436.5,467.5,436.5z"/>
</g>
</svg>
