<?xml version="1.0" encoding="utf-8"?>
<!-- Generator: Adobe Illustrator 23.0.0, SVG Export Plug-In . SVG Version: 6.00 Build 0)  -->
<svg version="1.1" id="Layer_1" xmlns="http://www.w3.org/2000/svg" xmlns:xlink="http://www.w3.org/1999/xlink" x="0px" y="0px"
	 viewBox="0 0 512 512" style="enable-background:new 0 0 512 512;" xml:space="preserve">
<g>
	<g>
		<path d="M503.7,424.6c-53.1,0-84.7-13.8-115.3-27.2c-29.1-12.7-59.3-25.9-105.9-25.9c-40.3,0-78.9,15.8-113,29.7
			c-29.4,12-57.1,23.4-81.7,23.4H61c15.7-7,33.7-15.8,53.3-25.4c74.7-36.5,167.6-81.9,239-81.9c87.3,0,144.9,42.2,145.4,42.6
			c3.7,2.7,8.9,2,11.6-1.7c2.7-3.7,2-8.9-1.7-11.6c-2.1-1.6-43.9-32.4-111.7-42.6v-14c15.2-3,26.5-14.1,26.5-27.4
			c0-6.5-3.2-22.4-8.2-36.8c-7.5-21-16.1-31.3-26.6-31.3c-7.3,0-13.7,5-19.5,15.2c-1.7-10.2-5.1-24-9.6-36.9
			c-9.5-27.1-20.2-40.2-32.8-40.2c-12.6,0-23.4,13.2-32.8,40.2c-6.7,19.1-10.8,40-10.8,48.5c0,17.1,15.3,31.3,35.4,34.5V296
			c-48-24.8-96.3-35.3-143.6-31.2c-38.2,3.3-67.8,15.7-86.2,25.7c-24.5-9.4-51.1-16.3-80.4-16.3c-4.6,0-8.3,3.7-8.3,8.3
			s3.7,8.3,8.3,8.3c48,0,89.6,20.6,126.2,38.9c16.1,8,30.9,15.3,44.8,20.3c-25.1,11.3-49.6,23.2-72.4,34.4
			c-42.4,20.7-82.4,40.3-98.7,40.3c-4.6,0-8.3,3.7-8.3,8.3s3.7,8.3,8.3,8.3h79.6c27.8,0,57-11.9,88-24.6
			c34.2-14,69.7-28.5,106.7-28.5c43.2,0,70.4,11.9,99.2,24.5c32.1,14,65.3,28.6,121.9,28.6c4.6,0,8.3-3.7,8.3-8.3
			S508.3,424.6,503.7,424.6L503.7,424.6z M353.3,300.8c-6,0-12.1,0.3-18.2,0.8v-45.7c8-1.2,15.2-4.2,21-8.4
			c-1.4,6.5-2.2,11.9-2.2,15.1c0,13.2,11.3,24.4,26.5,27.4v12C371.7,301.2,362.7,300.8,353.3,300.8z M377,233.6
			c5.2-15.4,9.9-21.1,11.7-22.3c1.8,1.2,6.5,6.8,11.7,22.3c4.2,12.5,6.5,25.1,6.5,29c0,4.3-4.1,8.2-10,10.2v-8
			c0-4.6-3.7-8.3-8.3-8.3s-8.3,3.7-8.3,8.3v8c-5.8-2-10-5.9-10-10.2C370.5,258.7,372.8,246.2,377,233.6z M299.7,221.5
			c0-6.2,3.8-25.6,9.9-43c8.5-24.2,15.7-29.1,17.2-29.1c1.5,0,8.7,4.9,17.2,29.1c6.1,17.5,9.9,36.9,9.9,43c0,8.1-8,15.1-18.8,17.6
			v-18.4c0-4.6-3.7-8.3-8.3-8.3s-8.3,3.7-8.3,8.3V239C307.7,236.6,299.7,229.5,299.7,221.5z M141.9,314.8
			c-10.6-5.3-21.6-10.7-33.1-15.9c16.8-7.6,39.6-15.2,67.5-17.7c41.5-3.6,83.9,4.9,126.4,25.3c-31.9,6.7-65.6,18.7-98.7,32.7
			C186.2,336.8,165.6,326.6,141.9,314.8L141.9,314.8z"/>
		<path d="M79.1,149.3h19c1.1,5.9,3.5,11.4,6.7,16.2l-13.5,13.5c-3.2,3.2-3.2,8.5,0,11.7c1.6,1.6,3.7,2.4,5.9,2.4
			c2.1,0,4.2-0.8,5.9-2.4l13.5-13.5c4.8,3.3,10.3,5.6,16.2,6.7v19c0,4.6,3.7,8.3,8.3,8.3s8.3-3.7,8.3-8.3v-19
			c5.9-1.1,11.4-3.5,16.2-6.7l13.5,13.5c1.6,1.6,3.7,2.4,5.9,2.4s4.2-0.8,5.9-2.4c3.2-3.2,3.2-8.5,0-11.7l-13.5-13.5
			c3.3-4.8,5.6-10.3,6.7-16.2h19c4.6,0,8.3-3.7,8.3-8.3s-3.7-8.3-8.3-8.3h-19c-1.1-5.9-3.5-11.4-6.7-16.2l13.5-13.5
			c3.2-3.2,3.2-8.5,0-11.7c-3.2-3.2-8.5-3.2-11.7,0l-13.5,13.5c-4.8-3.3-10.3-5.6-16.2-6.7v-19c0-4.6-3.7-8.3-8.3-8.3
			s-8.3,3.7-8.3,8.3v19c-5.9,1.1-11.4,3.5-16.2,6.7l-13.5-13.5c-3.2-3.2-8.5-3.2-11.7,0c-3.2,3.2-3.2,8.5,0,11.7l13.5,13.5
			c-3.3,4.8-5.6,10.3-6.7,16.2h-19c-4.6,0-8.3,3.7-8.3,8.3S74.5,149.3,79.1,149.3z M141,113.9c14.9,0,27.1,12.2,27.1,27.1
			s-12.2,27.1-27.1,27.1s-27.1-12.2-27.1-27.1S126.1,113.9,141,113.9z"/>
	</g>
</g>
</svg>
