<?xml version="1.0" encoding="UTF-8"?>
<svg xmlns="http://www.w3.org/2000/svg" xmlns:xlink="http://www.w3.org/1999/xlink" viewBox="0 0 304.515 304.515">
  <g>
    <g>
      <path d="m148.078,256.816l-25.964-18.122-10.657-1.392 15.756,56.255c2.236,7.983 10.519,12.631 18.49,10.398 7.977-2.234 12.633-10.513 10.399-18.49l-8.024-28.649z"></path>
      <circle cx="62.034" cy="61.041" r="25.907"></circle>
      <path d="m187.079,232.819l-46.337-32.342c-1.975-1.379-4.253-2.261-6.642-2.574l-59.266-7.744c2.483,5.066 10.024,17.088 0.728,30.351l51.015,6.665 43.33,30.244c6.808,4.751 16.154,3.064 20.886-3.715 4.742-6.793 3.079-16.143-3.714-20.885z"></path>
      <path d="m277.617,0h-179.556c-1.313,0-2.467,0.867-2.833,2.128s0.145,2.611 1.254,3.314l8.584,5.441-.975,56.237-23.316,25.842-30.97,3.172c-9.615,0.985-16.611,9.578-15.627,19.193l.912,8.902 13.95-14.214-26.716,44.352c-2.114,3.622-2.269,8.053-0.43,11.805l22.403,45.75c3.08,6.285 10.641,8.706 16.726,5.722 6.228-3.052 8.749-10.552 5.722-16.726l-19.031-38.825 23.973-41.053-10.414,37.143-.768,2.741 12.829,26.172 34.443-3.016-7.701-75.191 25.73-28.517c2.033-2.254 3.178-5.17 3.219-8.204l.612-45.104c3.917,3.635 6.836,8.259 8.415,13.433l10.505,34.42c1.42,4.654 3.935,8.9 7.333,12.382l36.043,36.93c5.928,6.074 9.052,14.346 8.62,22.822l-2.874,56.391c-0.293,5.751 1.05,11.467 3.874,16.486l25.059,44.532c3.008,5.345 7.56,9.658 13.06,12.373l35.164,17.359c1.947,0.961 4.252,0.849 6.095-0.297 1.844-1.146 2.965-3.163 2.965-5.334v-282.281c0.001-3.468-2.811-6.28-6.279-6.28z"></path>
    </g>
  </g>
</svg>
