<?xml version="1.0" encoding="utf-8"?>
<!-- Generator: Adobe Illustrator 21.1.0, SVG Export Plug-In . SVG Version: 6.00 Build 0)  -->
<svg version="1.1" xmlns="http://www.w3.org/2000/svg" xmlns:xlink="http://www.w3.org/1999/xlink" x="0px" y="0px"
	 viewBox="0 0 40 40" style="enable-background:new 0 0 40 40;" xml:space="preserve">
<style type="text/css">
	.st0{display:none;}
	.st1{display:inline;}
</style>
<g id="Results" class="st0">
	<g class="st1">
		<path d="M14.5,9.8v3c0,0.4-0.1,0.8-0.4,1.1s-0.6,0.4-1.1,0.4h-5c-0.4,0-0.8-0.1-1.1-0.4s-0.4-0.6-0.4-1.1v-3
			c0-0.4,0.1-0.8,0.4-1.1c0.3-0.3,0.6-0.4,1.1-0.4h5c0.4,0,0.8,0.1,1.1,0.4C14.3,9,14.5,9.4,14.5,9.8z M14.5,17.8v3
			c0,0.4-0.1,0.8-0.4,1.1c-0.3,0.3-0.6,0.4-1.1,0.4h-5c-0.4,0-0.8-0.1-1.1-0.4c-0.3-0.3-0.4-0.6-0.4-1.1v-3c0-0.4,0.1-0.8,0.4-1.1
			c0.3-0.3,0.6-0.4,1.1-0.4h5c0.4,0,0.8,0.1,1.1,0.4C14.3,17.1,14.5,17.4,14.5,17.8z M14.5,25.9v3c0,0.4-0.1,0.8-0.4,1.1
			c-0.3,0.3-0.6,0.4-1.1,0.4h-5c-0.4,0-0.8-0.1-1.1-0.4c-0.3-0.3-0.4-0.6-0.4-1.1v-3c0-0.4,0.1-0.8,0.4-1.1c0.3-0.3,0.6-0.4,1.1-0.4
			h5c0.4,0,0.8,0.1,1.1,0.4C14.3,25.1,14.5,25.4,14.5,25.9z M34.6,9.8v3c0,0.4-0.1,0.8-0.4,1.1s-0.6,0.4-1.1,0.4H18
			c-0.4,0-0.8-0.1-1.1-0.4s-0.4-0.6-0.4-1.1v-3c0-0.4,0.1-0.8,0.4-1.1c0.3-0.3,0.6-0.4,1.1-0.4h15.1c0.4,0,0.8,0.1,1.1,0.4
			C34.4,9,34.6,9.4,34.6,9.8z M34.6,17.8v3c0,0.4-0.1,0.8-0.4,1.1c-0.3,0.3-0.6,0.4-1.1,0.4H18c-0.4,0-0.8-0.1-1.1-0.4
			c-0.3-0.3-0.4-0.6-0.4-1.1v-3c0-0.4,0.1-0.8,0.4-1.1c0.3-0.3,0.6-0.4,1.1-0.4h15.1c0.4,0,0.8,0.1,1.1,0.4
			C34.4,17.1,34.6,17.4,34.6,17.8z M34.6,25.9v3c0,0.4-0.1,0.8-0.4,1.1c-0.3,0.3-0.6,0.4-1.1,0.4H18c-0.4,0-0.8-0.1-1.1-0.4
			c-0.3-0.3-0.4-0.6-0.4-1.1v-3c0-0.4,0.1-0.8,0.4-1.1c0.3-0.3,0.6-0.4,1.1-0.4h15.1c0.4,0,0.8,0.1,1.1,0.4
			C34.4,25.1,34.6,25.4,34.6,25.9z"/>
	</g>
</g>
<g id="Estimator_x09__1_" class="st0">
	<g class="st1">
		<path d="M33.5,8.3v24.1c0,0.5-0.2,1-0.6,1.4c-0.4,0.4-0.9,0.6-1.4,0.6H9.4c-0.5,0-1-0.2-1.4-0.6c-0.4-0.4-0.6-0.9-0.6-1.4V8.3
			c0-0.5,0.2-1,0.6-1.4c0.4-0.4,0.9-0.6,1.4-0.6h22.1c0.5,0,1,0.2,1.4,0.6C33.3,7.3,33.5,7.7,33.5,8.3z M31.5,13.3v-4
			c0-0.3-0.1-0.5-0.3-0.7c-0.2-0.2-0.4-0.3-0.7-0.3H10.4c-0.3,0-0.5,0.1-0.7,0.3C9.5,8.8,9.4,9,9.4,9.3v4c0,0.3,0.1,0.5,0.3,0.7
			c0.2,0.2,0.4,0.3,0.7,0.3h20.1c0.3,0,0.5-0.1,0.7-0.3C31.4,13.8,31.5,13.6,31.5,13.3z M12.8,19.7c0.4-0.4,0.6-0.9,0.6-1.4
			c0-0.6-0.2-1-0.6-1.4c-0.4-0.4-0.9-0.6-1.4-0.6c-0.6,0-1,0.2-1.4,0.6c-0.4,0.4-0.6,0.9-0.6,1.4c0,0.6,0.2,1,0.6,1.4
			c0.4,0.4,0.9,0.6,1.4,0.6C11.9,20.3,12.4,20.1,12.8,19.7z M12.8,25.8c0.4-0.4,0.6-0.9,0.6-1.4s-0.2-1-0.6-1.4
			c-0.4-0.4-0.9-0.6-1.4-0.6c-0.6,0-1,0.2-1.4,0.6s-0.6,0.9-0.6,1.4s0.2,1,0.6,1.4s0.9,0.6,1.4,0.6C11.9,26.4,12.4,26.2,12.8,25.8z
			 M12.8,31.8c0.4-0.4,0.6-0.9,0.6-1.4s-0.2-1-0.6-1.4c-0.4-0.4-0.9-0.6-1.4-0.6c-0.6,0-1,0.2-1.4,0.6c-0.4,0.4-0.6,0.9-0.6,1.4
			s0.2,1,0.6,1.4c0.4,0.4,0.9,0.6,1.4,0.6C11.9,32.4,12.4,32.2,12.8,31.8z M18.8,19.7c0.4-0.4,0.6-0.9,0.6-1.4c0-0.6-0.2-1-0.6-1.4
			c-0.4-0.4-0.9-0.6-1.4-0.6c-0.6,0-1,0.2-1.4,0.6c-0.4,0.4-0.6,0.9-0.6,1.4c0,0.6,0.2,1,0.6,1.4c0.4,0.4,0.9,0.6,1.4,0.6
			C18,20.3,18.4,20.1,18.8,19.7z M18.8,25.8c0.4-0.4,0.6-0.9,0.6-1.4s-0.2-1-0.6-1.4s-0.9-0.6-1.4-0.6c-0.6,0-1,0.2-1.4,0.6
			s-0.6,0.9-0.6,1.4s0.2,1,0.6,1.4s0.9,0.6,1.4,0.6C18,26.4,18.4,26.2,18.8,25.8z M18.8,31.8c0.4-0.4,0.6-0.9,0.6-1.4
			s-0.2-1-0.6-1.4c-0.4-0.4-0.9-0.6-1.4-0.6c-0.6,0-1,0.2-1.4,0.6c-0.4,0.4-0.6,0.9-0.6,1.4s0.2,1,0.6,1.4c0.4,0.4,0.9,0.6,1.4,0.6
			C18,32.4,18.4,32.2,18.8,31.8z M24.8,19.7c0.4-0.4,0.6-0.9,0.6-1.4c0-0.6-0.2-1-0.6-1.4c-0.4-0.4-0.9-0.6-1.4-0.6s-1,0.2-1.4,0.6
			c-0.4,0.4-0.6,0.9-0.6,1.4c0,0.6,0.2,1,0.6,1.4c0.4,0.4,0.9,0.6,1.4,0.6S24.5,20.1,24.8,19.7z M24.8,25.8c0.4-0.4,0.6-0.9,0.6-1.4
			s-0.2-1-0.6-1.4s-0.9-0.6-1.4-0.6s-1,0.2-1.4,0.6c-0.4,0.4-0.6,0.9-0.6,1.4s0.2,1,0.6,1.4c0.4,0.4,0.9,0.6,1.4,0.6
			S24.5,26.2,24.8,25.8z M24.8,31.8c0.4-0.4,0.6-0.9,0.6-1.4s-0.2-1-0.6-1.4c-0.4-0.4-0.9-0.6-1.4-0.6s-1,0.2-1.4,0.6
			c-0.4,0.4-0.6,0.9-0.6,1.4s0.2,1,0.6,1.4c0.4,0.4,0.9,0.6,1.4,0.6S24.5,32.2,24.8,31.8z M30.9,19.7c0.4-0.4,0.6-0.9,0.6-1.4
			c0-0.6-0.2-1-0.6-1.4c-0.4-0.4-0.9-0.6-1.4-0.6c-0.6,0-1,0.2-1.4,0.6c-0.4,0.4-0.6,0.9-0.6,1.4c0,0.6,0.2,1,0.6,1.4
			c0.4,0.4,0.9,0.6,1.4,0.6C30,20.3,30.5,20.1,30.9,19.7z M31.5,30.4v-6c0-0.5-0.2-1-0.6-1.4c-0.4-0.4-0.9-0.6-1.4-0.6
			c-0.5,0-1,0.2-1.4,0.6c-0.4,0.4-0.6,0.9-0.6,1.4v6c0,0.5,0.2,1,0.6,1.4c0.4,0.4,0.9,0.6,1.4,0.6c0.5,0,1-0.2,1.4-0.6
			C31.3,31.4,31.5,30.9,31.5,30.4z"/>
	</g>
</g>
<g id="Eligibility" class="st0">
	<g class="st1">
		<path d="M32.7,12.8v15.1c0,1.2-0.4,2.3-1.3,3.2c-0.9,0.9-2,1.3-3.2,1.3H13.1c-1.2,0-2.3-0.4-3.2-1.3c-0.9-0.9-1.3-2-1.3-3.2V12.8
			c0-1.2,0.4-2.3,1.3-3.2c0.9-0.9,2-1.3,3.2-1.3h15.1c1.2,0,2.3,0.4,3.2,1.3C32.3,10.5,32.7,11.6,32.7,12.8z M19.4,26.7L29,17
			c0.2-0.2,0.3-0.4,0.3-0.7c0-0.3-0.1-0.5-0.3-0.7L27.4,14c-0.2-0.2-0.4-0.3-0.7-0.3S26.2,13.8,26,14l-7.3,7.3L15.3,18
			c-0.2-0.2-0.4-0.3-0.7-0.3c-0.3,0-0.5,0.1-0.7,0.3l-1.6,1.6c-0.2,0.2-0.3,0.4-0.3,0.7c0,0.3,0.1,0.5,0.3,0.7l5.6,5.6
			c0.2,0.2,0.4,0.3,0.7,0.3C18.9,27,19.2,26.9,19.4,26.7z"/>
	</g>
</g>
<g id="Qualifying_Child" class="st0">
	<g class="st1">
		<path d="M29,14.9l-4.6,4.6v12.9c0,0.5-0.2,0.9-0.5,1.2c-0.3,0.3-0.8,0.5-1.2,0.5c-0.5,0-0.9-0.2-1.2-0.5c-0.3-0.3-0.5-0.8-0.5-1.2
			v-6h-1v6c0,0.5-0.2,0.9-0.5,1.2c-0.3,0.3-0.8,0.5-1.2,0.5s-0.9-0.2-1.2-0.5c-0.3-0.3-0.5-0.8-0.5-1.2V19.5l-4.6-4.6
			c-0.3-0.3-0.4-0.6-0.4-1.1c0-0.4,0.1-0.8,0.4-1.1c0.3-0.3,0.7-0.4,1.1-0.4c0.4,0,0.8,0.1,1.1,0.4l3.6,3.6h5.8l3.6-3.6
			c0.3-0.3,0.6-0.4,1.1-0.4s0.8,0.1,1.1,0.4c0.3,0.3,0.4,0.7,0.4,1.1C29.4,14.2,29.3,14.6,29,14.9z M22.9,9.8c0.7,0.7,1,1.5,1,2.5
			c0,1-0.3,1.8-1,2.5s-1.5,1-2.5,1c-1,0-1.8-0.3-2.5-1s-1-1.5-1-2.5c0-1,0.3-1.8,1-2.5s1.5-1,2.5-1C21.4,8.8,22.2,9.1,22.9,9.8z"/>
	</g>
</g>
<g id="filing_status">
	<g>
		<path d="M36.1,10.8v19.1c0,0.7-0.2,1.3-0.7,1.8c-0.5,0.5-1.1,0.7-1.8,0.7H6.4c-0.7,0-1.3-0.2-1.8-0.7c-0.5-0.5-0.7-1.1-0.7-1.8
			V10.8c0-0.7,0.2-1.3,0.7-1.8s1.1-0.7,1.8-0.7h27.1c0.7,0,1.3,0.2,1.8,0.7S36.1,10.1,36.1,10.8z M5.9,12.3h28.1v-1.5
			c0-0.1,0-0.3-0.1-0.4c-0.1-0.1-0.2-0.1-0.4-0.1H6.4c-0.1,0-0.3,0-0.4,0.1c-0.1,0.1-0.1,0.2-0.1,0.4V12.3z M18,25.3
			c0-0.6,0-1.1-0.1-1.6c-0.1-0.5-0.2-1-0.4-1.4c-0.2-0.5-0.4-0.8-0.8-1.1c-0.4-0.3-0.8-0.4-1.3-0.4c-0.7,0.7-1.5,1-2.5,1
			s-1.8-0.3-2.5-1c-0.5,0-0.9,0.1-1.3,0.4c-0.4,0.3-0.6,0.6-0.8,1.1c-0.2,0.5-0.3,0.9-0.4,1.4c-0.1,0.5-0.1,1-0.1,1.6
			c0,0.6,0.2,1.1,0.5,1.5c0.3,0.4,0.7,0.6,1.2,0.6h6.7c0.5,0,0.9-0.2,1.2-0.6C17.8,26.4,18,25.9,18,25.3z M15.1,20.5
			c0.6-0.6,0.9-1.3,0.9-2.1c0-0.8-0.3-1.5-0.9-2.1c-0.6-0.6-1.3-0.9-2.1-0.9s-1.5,0.3-2.1,0.9c-0.6,0.6-0.9,1.3-0.9,2.1
			c0,0.8,0.3,1.5,0.9,2.1c0.6,0.6,1.3,0.9,2.1,0.9S14.5,21.1,15.1,20.5z M32.1,17.8v-1c0-0.1,0-0.3-0.1-0.4
			c-0.1-0.1-0.2-0.1-0.4-0.1H20.5c-0.1,0-0.3,0-0.4,0.1C20,16.6,20,16.7,20,16.8v1c0,0.1,0,0.3,0.1,0.4c0.1,0.1,0.2,0.1,0.4,0.1
			h11.1c0.1,0,0.3,0,0.4-0.1C32,18.1,32.1,18,32.1,17.8z M26,21.8v-1c0-0.1,0-0.3-0.1-0.4c-0.1-0.1-0.2-0.1-0.4-0.1h-5
			c-0.1,0-0.3,0-0.4,0.1C20,20.6,20,20.7,20,20.8v1c0,0.1,0,0.3,0.1,0.4c0.1,0.1,0.2,0.1,0.4,0.1h5c0.1,0,0.3,0,0.4-0.1
			C26,22.1,26,22,26,21.8z M32.1,25.9v-1c0-0.1,0-0.3-0.1-0.4c-0.1-0.1-0.2-0.1-0.4-0.1H20.5c-0.1,0-0.3,0-0.4,0.1
			C20,24.6,20,24.7,20,24.9v1c0,0.1,0,0.3,0.1,0.4c0.1,0.1,0.2,0.1,0.4,0.1h11.1c0.1,0,0.3,0,0.4-0.1C32,26.1,32.1,26,32.1,25.9z
			 M32.1,21.8v-1c0-0.1,0-0.3-0.1-0.4c-0.1-0.1-0.2-0.1-0.4-0.1h-3c-0.1,0-0.3,0-0.4,0.1c-0.1,0.1-0.1,0.2-0.1,0.4v1
			c0,0.1,0,0.3,0.1,0.4c0.1,0.1,0.2,0.1,0.4,0.1h3c0.1,0,0.3,0,0.4-0.1C32,22.1,32.1,22,32.1,21.8z"/>
	</g>
</g>
</svg>
