<?xml version="1.0"?>
<svg xmlns="http://www.w3.org/2000/svg" viewBox="0 0 24 24">
    <path d="M 9 2 L 2 5.34375 L 2 21.5 C 2 21.789 2.238 22 2.5 22 C 2.574 22 2.64575 21.9735 2.71875 21.9375 L 9 19 L 15 22 L 22 18.65625 L 22 2.5 C 22 2.214 21.764 2 21.5 2 C 21.442 2 21.3715 2.00925 21.3125 2.03125 L 15 4 L 9 2 z M 9.125 4.15625 L 14.375 5.90625 L 14.96875 6.09375 L 15.59375 5.90625 L 20 4.53125 L 20 17.40625 L 15.03125 19.78125 L 9.90625 17.21875 L 9.03125 16.78125 L 8.15625 17.1875 L 4 19.125 L 4 6.59375 L 9.125 4.15625 z M 14.9375 7 C 14.2855 7 12 7.25825 12 10.03125 L 14.09375 10.03125 C 14.09375 9.11625 14.5915 8.75 14.9375 8.75 C 15.4695 8.75 15.71875 9.177 15.71875 10 C 15.71875 11.725 13.758 11.56375 13.875 14.59375 L 15.71875 14.59375 C 15.61475 12.26075 17.84375 12.36125 17.84375 9.90625 C 17.84375 9.25325 17.7385 7 14.9375 7 z M 14.8125 15.71875 C 13.8595 15.71875 13.6875 16.536 13.6875 16.875 C 13.6875 17.213 13.8145 18 14.8125 18 C 15.8105 18 15.96875 17.19 15.96875 16.875 C 15.96875 16.559 15.7655 15.71875 14.8125 15.71875 z"/>
</svg>
