<?xml version="1.0" encoding="iso-8859-1"?>
<!-- Generator: Adobe Illustrator 19.0.0, SVG Export Plug-In . SVG Version: 6.00 Build 0)  -->
<svg version="1.1" id="Layer_1" xmlns="http://www.w3.org/2000/svg" xmlns:xlink="http://www.w3.org/1999/xlink" x="0px" y="0px"
	 viewBox="0 0 512 512" style="enable-background:new 0 0 512 512;" xml:space="preserve">
<g>
	<g>
		<path d="M349.833,52.526H166.247c-5.632,0-10.199,4.566-10.199,10.199v274.532c-2.586-0.773-5.324-1.194-8.159-1.194
			c-15.747,0-28.558,12.811-28.558,28.558c0,5.633,4.567,10.199,10.199,10.199c5.632,0,10.199-4.566,10.199-10.199
			c0-4.499,3.661-8.159,8.159-8.159c4.499,0,8.159,3.66,8.159,8.159c0,5.633,4.567,10.199,10.199,10.199h23.458
			c5.632,0,10.199-4.566,10.199-10.199c0-4.499,3.66-8.159,8.159-8.159c4.499,0,8.159,3.66,8.159,8.159
			c0,15.747,12.811,28.558,28.558,28.558s28.558-12.811,28.558-28.558c0-4.499,3.66-8.159,8.159-8.159
			c4.499,0,8.159,3.66,8.159,8.16c0,15.747,12.811,28.558,28.558,28.558h31.618c5.632,0,10.199-4.566,10.199-10.199V62.725
			C360.032,57.092,355.465,52.526,349.833,52.526z M339.633,372.781h-21.418c-4.499,0-8.159-3.66-8.159-8.159
			c0-15.747-12.811-28.558-28.558-28.558c-15.747,0-28.558,12.81-28.558,28.558c0,4.499-3.661,8.159-8.159,8.159
			s-8.159-3.66-8.159-8.159c0-15.747-12.811-28.558-28.558-28.558c-12.155,0-22.561,7.634-26.675,18.359h-4.943V72.924h53.036
			v194.805c0,5.633,4.567,10.199,10.199,10.199s10.199-4.566,10.199-10.199V72.924h54.056v194.805
			c0,5.633,4.567,10.199,10.199,10.199c5.632,0,10.199-4.566,10.199-10.199V72.924h15.299V372.781z"/>
	</g>
</g>
<g>
	<g>
		<path d="M223.363,402.359c-5.632,0-10.199,4.566-10.199,10.199c0,4.499-3.66,8.159-8.159,8.159c-4.499,0-8.159-3.661-8.159-8.159
			c0-15.747-12.811-28.558-28.558-28.558c-15.747,0-28.558,12.811-28.558,28.558c0,4.499-3.66,8.159-8.159,8.159
			c-4.499,0-8.159-3.661-8.159-8.159c0-5.633-4.567-10.199-10.199-10.199c-5.632,0-10.199,4.566-10.199,10.199
			c0,15.747,12.811,28.558,28.558,28.558c15.747,0,28.558-12.811,28.558-28.558c0-4.499,3.66-8.159,8.159-8.159
			c4.499,0,8.159,3.66,8.159,8.159c0,15.747,12.811,28.558,28.558,28.558c15.747,0,28.558-12.811,28.558-28.558
			C233.562,406.925,228.995,402.359,223.363,402.359z"/>
	</g>
</g>
<g>
	<g>
		<path d="M405.928,420.717c-5.632,0-10.199,4.566-10.199,10.199c0,4.499-3.661,8.159-8.159,8.159c-4.499,0-8.159-3.66-8.159-8.159
			c0-15.747-12.811-28.558-28.558-28.558s-28.558,12.811-28.558,28.558c0,4.499-3.661,8.159-8.159,8.159
			c-4.499,0-8.159-3.66-8.159-8.159c0-5.633-4.567-10.199-10.199-10.199c-5.632,0-10.199,4.566-10.199,10.199
			c0,15.747,12.811,28.558,28.558,28.558c15.747,0,28.558-12.811,28.558-28.558c0-4.499,3.66-8.159,8.159-8.159
			s8.159,3.661,8.159,8.159c0,15.747,12.811,28.558,28.558,28.558c15.747,0,28.558-12.811,28.558-28.558
			C416.128,425.283,411.56,420.717,405.928,420.717z"/>
	</g>
</g>
<g>
	<g>
		<path d="M131.569,52.526h-17.338c-5.632,0-10.199,4.566-10.199,10.199s4.567,10.199,10.199,10.199h17.338
			c5.632,0,10.199-4.566,10.199-10.199C141.768,57.092,137.201,52.526,131.569,52.526z"/>
	</g>
</g>
<g>
	<g>
		<path d="M76.494,52.526H10.199C4.567,52.526,0,57.092,0,62.725s4.567,10.199,10.199,10.199h66.295
			c5.632,0,10.199-4.566,10.199-10.199C86.693,57.092,82.126,52.526,76.494,52.526z"/>
	</g>
</g>
<g>
	<g>
		<path d="M201.944,79.044c-5.632,0-10.199,4.566-10.199,10.199v120.351c0,5.633,4.567,10.199,10.199,10.199
			c5.632,0,10.199-4.566,10.199-10.199V89.243C212.143,83.611,207.576,79.044,201.944,79.044z"/>
	</g>
</g>
<g>
	<g>
		<path d="M277.418,79.044c-5.632,0-10.199,4.566-10.199,10.199v120.351c0,5.633,4.567,10.199,10.199,10.199
			s10.199-4.566,10.199-10.199V89.243C287.618,83.611,283.05,79.044,277.418,79.044z"/>
	</g>
</g>
<g>
	<g>
		<path d="M201.944,238.151c-5.632,0-10.199,4.566-10.199,10.199v63.235c0,5.633,4.567,10.199,10.199,10.199
			c5.632,0,10.199-4.566,10.199-10.199v-63.235C212.143,242.718,207.576,238.151,201.944,238.151z"/>
	</g>
</g>
<g>
	<g>
		<path d="M277.418,238.151c-5.632,0-10.199,4.566-10.199,10.199v63.235c0,5.633,4.567,10.199,10.199,10.199
			s10.199-4.566,10.199-10.199v-63.235C287.618,242.718,283.05,238.151,277.418,238.151z"/>
	</g>
</g>
<g>
	<g>
		<path d="M501.801,52.526H388.59c-5.632,0-10.199,4.566-10.199,10.199s4.567,10.199,10.199,10.199h113.211
			c5.632,0,10.199-4.566,10.199-10.199C512,57.092,507.433,52.526,501.801,52.526z"/>
	</g>
</g>
<g>
	<g>
		<path d="M314.135,295.267c-5.632,0-10.199,4.566-10.199,10.199v16.319c0,5.633,4.567,10.199,10.199,10.199
			c5.632,0,10.199-4.566,10.199-10.199v-16.319C324.335,299.833,319.767,295.267,314.135,295.267z"/>
	</g>
</g>
<g>
	<g>
		<path d="M239.681,295.267c-5.632,0-10.199,4.566-10.199,10.199v16.319c0,5.633,4.567,10.199,10.199,10.199
			s10.199-4.566,10.199-10.199v-16.319C249.88,299.833,245.313,295.267,239.681,295.267z"/>
	</g>
</g>
<g>
	<g>
		<path d="M379.41,336.064c-5.632,0-10.199,4.566-10.199,10.199c0,5.633,4.567,10.199,10.199,10.199c4.499,0,8.159,3.66,8.159,8.159
			c0,5.633,4.567,10.199,10.199,10.199c5.632,0,10.199-4.566,10.199-10.199C407.968,348.875,395.157,336.064,379.41,336.064z"/>
	</g>
</g>
<g>
</g>
<g>
</g>
<g>
</g>
<g>
</g>
<g>
</g>
<g>
</g>
<g>
</g>
<g>
</g>
<g>
</g>
<g>
</g>
<g>
</g>
<g>
</g>
<g>
</g>
<g>
</g>
<g>
</g>
</svg>
