<?xml version="1.0" encoding="utf-8"?>
<!-- Generator: Adobe Illustrator 23.0.0, SVG Export Plug-In . SVG Version: 6.00 Build 0)  -->
<svg version="1.1" id="Layer_1" xmlns="http://www.w3.org/2000/svg" xmlns:xlink="http://www.w3.org/1999/xlink" x="0px" y="0px"
	 viewBox="0 0 512 512" style="enable-background:new 0 0 512 512;" xml:space="preserve">
<path d="M0,0v512h512V0H0z M493.7,310.3l-2.3,75.5l-79.2,8v-83.6L493.7,310.3z M490.5,294.8l-75.5-2.8l-1.2-79.2l77.6-5.7
	L490.5,294.8z M487.5,187.8l-72.5,8.4c-9-27.7-20.1-48-52.6-69l31.9-61C445.3,80.8,477.9,131.9,487.5,187.8z M101.8,66.5
	c18.5,16.4,32.2,35.6,42.1,55.8c-29.7,16.5-42.2,42.2-54.2,72.8l-66-3.4C35.2,142.9,65.2,99.4,101.8,66.5z M20.4,205.5l74.4,4.5
	l-1.6,49.9l-72.8,11.9V205.5z M98.3,279.8l4.8,110.7l-83.5-1.2l-1.2-99.8L98.3,279.8z M14.5,492.5l4.7-86.2l81.8-2.3l3.5,88.5H14.5z
	 M138.9,365.9l-16.1-5l9.2-70.3l28.3,7L138.9,365.9z M171.6,281.8l-8.4-2.2c14.6-2.8,3.6-12.7,12.7-22.8
	c-13.6-2.8-8.9-13.7-7.3-25.2c-7.5,7.8-18.2,27.6-24.8,12.2c-4.2,12.6-7.6,10-14.7,7c-1.1,9.2,4.7,15.1,10.5,22.8l-11.2-3
	c-6-5-18.4-28.5-4.7-38.5c-2.6,12.4,8.2,13.5,21.3-11.8c4.4,30.8,22.6-5.7,18.9-14.5c8.2,8,20.9,30.6,14.2,40.3
	c3.8-2,6.2-3.1,11.8-13.7c1.1,12.5,0.5,24.3-9.5,34c2.7,0.8,6.5-0.4,10.5-2.6C192,271.2,181.4,280.9,171.6,281.8z M158.1,113.1
	c-9.3-18.6-23.3-37-38.2-52.8C135,48,154.2,38.2,176,31.7l29.6,62.9C193.6,106.2,182.6,119.2,158.1,113.1z M228.8,110l-35.2-84
	c38.5-8.2,77.4-10.5,123-3.3l-40.3,86C261.9,116.7,243.6,117.7,228.8,110z M330.9,33.6C330.9,33.6,330.9,33.6,330.9,33.6L330.9,33.6
	L330.9,33.6c18.7,6.3,33.7,13.7,46.2,22.1l-31.2,64.7c-9.8,3.4-34.5-3.1-47-15.4L330.9,33.6z M372.1,362.5l-21.5-68.3l28.3-7
	l9.2,70.3L372.1,362.5z M382.6,267.3l-12.5,5c5.8-7.7,9.8-13.3,8.8-22.5c-7.1,3-9.4,3.5-13.6-9.1c-6.6,15.5-14.3,0.7-21.9-7.1
	c1.9,7,8.5,19.1-4.1,21.9c10.4,7.6,0.8,13.4-2.1,14.8c2.7,2.8,4.5,5,10.6,6.1l-8.4,2.2c-9.9-1-22-7.4-20.7-14.8
	c4,2.2,9.4,0.2,12.1-0.6c-10-9.6-13.3-16.7-12.2-29.2c5.5,10.6,10.4,9.8,14.4,9c-6.8-9.7,13.8-26.5,9.1-39.4
	c16.1,9.9,24,48.2,28.3,17.4c13.1,25.3,21.3,23.4,18.7,10.9C402.8,241.8,388.6,262.3,382.6,267.3z M406.8,492.6l1.2-80.7l88.9-9.9
	l0.6,91.3L406.8,492.6z"/>
</svg>
