<?xml version="1.0" encoding="utf-8"?>
<!-- Generator: Adobe Illustrator 23.0.0, SVG Export Plug-In . SVG Version: 6.00 Build 0)  -->
<svg version="1.1"
	 id="svg2" xmlns:cc="http://creativecommons.org/ns#" xmlns:dc="http://purl.org/dc/elements/1.1/" xmlns:rdf="http://www.w3.org/1999/02/22-rdf-syntax-ns#" xmlns:svg="http://www.w3.org/2000/svg"
	 xmlns="http://www.w3.org/2000/svg" xmlns:xlink="http://www.w3.org/1999/xlink" x="0px" y="0px" viewBox="0 0 283.5 602.4"
	 style="enable-background:new 0 0 283.5 602.4;" xml:space="preserve">
<style type="text/css">
	.st0{fill:#030104;}
</style>
<path id="path7090" d="M141.9,22.5c-0.6-0.1-1.2,0.3-1.5,1.1c-0.2,0.6-0.7,1.9-1.1,2.7c-0.5,1.1-0.5,1.8,0.1,2.3
	c0.9,0.9,1,3.6,0.2,4.2c-0.4,0.2-0.5,2.4-0.2,5l0.4,4.3c-0.1,0.1-0.1,0.3-0.2,0.4l-2.2,0.4c-2.4,0.5-3.2,1.6-2.6,4
	c0.3,1.3,2.5,1.6,3,0.3c0.2-0.5,0.2,3.5,0.1,8.8c-0.2,7.6-0.4,9.9-1.2,10.8c-1.2,1.3-1.4,3.8-0.4,4.4c0.8,0.5,0.9,6.4,0.1,6.4
	c-0.3,0-0.9-0.4-1.4-0.9c-0.7-0.7-1.1-0.5-2.2,0.8c-0.8,1-1.1,1.9-0.7,2.4c1.2,1.4,1,7.4-0.2,9.3c-1.3,1.9-1,4.2,0.5,3.7
	c0.6-0.2,0.9,0.9,1,4c0.1,3.9,0,4.4-1.2,4.7c-0.9,0.2-1.2,0.7-1.2,1.7l-0.5,0.4l0.5,0.2c0.1,0.9,0.6,1.5,1,1.4
	c0.5-0.1,0.8,0.6,0.8,1.9c0,1.5-0.4,2.2-1.5,2.6c-0.8,0.3-2,1.4-2.5,2.4c-0.9,1.6-0.9,1.9,0.2,2.5c1,0.5,1,0.9,0.4,1.7
	c-0.6,0.8-0.7,1.5-0.1,3.1c0.4,1.2,0.9,3.7,1.2,5.7c0.4,3.4,0.4,3.6-1.3,4.2c-1.8,0.7-2.4,3-1,3.5c0.5,0.2,0.6,1.2,0.3,3.1
	c-0.3,1.6-0.7,2.7-1,2.5s-1,0.2-1.5,0.9c-0.9,1.3-0.9,3.1,0.5,12.4c0.4,2.9,0.4,3.2-0.9,3.6c-1.5,0.4-2.1,2.9-0.7,2.9
	c0.4,0,0.6,1.2,0.5,2.9c-0.2,2.3-0.5,2.9-1.6,3.1c-1.4,0.2-2.8,2.9-2.3,4.5c0.1,0.4,0.3,1.9,0.4,3.4c0.3,4.5,1,8.7,1.7,9.9
	c0.5,1,0.3,1.2-1,1.2c-2.2,0-2.8,1.1-1.7,3c0.6,1.1,0.7,2.8,0.4,5.3c-0.5,3.7-0.5,3.7-2.4,3.3c-1.1-0.2-2.2,4.1-2.5,4.6
	c-0.3,0.5-0.8-3.9-1.6-5c-2.1-2.6-3.3-0.6-3.5,6.2c-0.1,3.1-0.4,6.1-0.7,6.5c-0.3,0.4-0.3,2.5-0.2,4.7c0.1,2.2,0.1,4.2-0.1,4.5
	c-0.5,0.9-0.4,7.6,0.1,12.7c0.3,2.6,0.2,4.5-0.1,4.5c-0.3,0-1.2,0.4-1.9,0.9c-1.1,0.8-1.2,1.1-0.4,2c0.7,0.9,0.8,5.3,0.5,24
	c-0.4,19.8-0.6,23.1-1.5,24.6c-0.8,1.3-0.9,1.9-0.4,2.5c0.9,0.9,1.1,22.1,0.3,23c-0.3,0.3-0.4,3.4-0.3,7c0.2,5.9,0,6.8-1.5,9.8
	c-1.7,3.3-2.3,8.1-1,8.8c0.4,0.2,0.7,1.3,0.7,2.3c0,1.6-0.4,2-3.2,2.8c-2.9,0.9-3.2,1.1-3,2.9c0.1,1.1-0.1,2.3-0.4,2.7
	c-0.3,0.4-0.5,2.3-0.5,4.1c0.1,1.9,0,3.7-0.3,4c-0.2,0.4-0.5,2.2-0.5,4c-0.4,10.2-0.7,13.6-1.1,14.3c-0.3,0.4-0.2,1.3,0.2,2
	c0.9,1.6,0.9,7.7,0,8.7c-0.4,0.5-0.6,1.4-0.5,2.1c0.1,0.7-0.1,1.6-0.4,2.1c-0.3,0.5-0.7,7.6-0.9,15.7c-0.2,8.1-0.5,14.7-0.8,14.7
	s-0.4,5.6-0.4,12.5c0,12.1-0.1,12.6-1.5,13.7c-1.2,0.9-1.5,1.8-1.5,4.3c0,4.4-2,9.9-3.8,10.3c-0.9,0.2-1.7,1.2-2,2.5
	c-0.5,1.6-1.1,2.2-2.5,2.4c-1.5,0.2-1.9,0.5-1.9,2.2c0,1.6-0.4,2.1-2.4,2.9c-1.9,0.8-2.3,1.3-2,2.3c0.5,1.5-0.6,2.5-3.2,3.2
	c-1.5,0.4-1.9,0.8-1.9,2.4c0,1.7-0.2,1.9-2.1,1.9c-1.9,0-2.1,0.2-1.8,1.7c0.4,1.9-0.3,2.7-3,3.4c-1.6,0.4-1.8,0.8-1.7,2.5
	c0.1,1.3-0.2,2.2-0.8,2.4c-0.8,0.3-0.9-0.6-0.5-5.1c0.3-4.4,0.2-5.6-0.6-6c-0.8-0.4-1.1-3.1-1.4-13.7c-0.2-7.2-0.4-13.7-0.4-14.4
	c0.1-2.3-1.9-5.7-3.3-5.7c-0.9,0-1.3,0.5-1.3,1.4c0,0.8-0.4,1.5-1,1.7c-1.1,0.4-1.4,2.7-0.3,3.1c0.4,0.1,0.4,1,0,2.6
	c-0.4,1.3-0.8,7.3-1,13.4c-0.2,8.1-0.5,11.2-1.1,11.6c-0.7,0.4-0.8,2.8-0.7,9.7l0.2,9.1h-3.1c-2.5,0-3.3-0.3-4.2-1.7
	c-1.4-2.1-2.7-2.2-3.9-0.2c-0.7,1.2-0.8,3.3-0.3,10.3c0.6,9.3,0.2,18.2-0.9,18.9c-0.6,0.4-0.7,8-0.7,56.2c0,5.6,0.1,14.1,0.1,14.1
	c62.7,0,157.5-0.8,213.6-0.8c0,0,0.1-33.9-0.4-34.7c-0.8-1.2-0.6-33.4,0.2-33.7c1.1-0.4,0.8-2-0.4-2.7c-1.3-0.7-2.1-6.8-0.9-6.8
	c0.9,0,0.9-2.5,0-3.1c-0.4-0.3-0.6-1.3-0.3-2.4c0.2-1.1,0.1-2.1-0.3-2.3c-0.4-0.2-0.7-1.7-0.7-3.3c0-2.1-0.4-3.3-1.6-4.7
	c-1.6-1.8-3.7-2.4-3.7-1.1c0,0.4-0.7,0.7-1.6,0.7c-1.5,0-1.6-0.3-2-4.5c-0.2-2.5-0.4-6.7-0.4-9.3c0-2.9-0.4-5.2-0.9-6.1
	c-0.7-0.9-1.1-4.7-1.3-13.1c-0.2-6.5-0.6-12.8-0.8-14c-0.3-1.7-0.2-2.2,0.6-2.2c1.6,0,1.4-2.5-0.2-3.4c-0.7-0.4-1.3-1.3-1.3-2
	c0-2-2.5-1.7-3,0.4c-0.2,0.9-0.9,1.7-1.4,1.7c-0.6,0-1,0.7-1,1.7c0,0.9,0.3,1.7,0.8,1.7c0.5,0,0.6,1.2,0.2,3.9
	c-0.3,2.1-0.6,8.5-0.7,14.2c-0.1,7.3-0.4,10.6-1.1,11.3c-0.6,0.7-0.9,2.9-0.9,6c0,4.9,0,5-1.7,4.6c-2.5-0.6-3.4-1.5-3.4-3.7
	c0-1.6-0.3-1.9-1.6-1.9c-1.9,0-3.2-1.2-3.2-2.8c0-0.7-0.9-1.7-2-2.2c-1.3-0.7-2-1.6-2.2-2.9c-0.2-1.5-0.6-1.9-2.2-2.2
	c-1.7-0.3-2.1-0.7-2.3-2.5c-0.2-1.8-0.5-2.2-1.7-2.2c-1.9,0-3.1-1.2-3.1-3.2c0-0.9-0.5-1.7-1.2-1.9c-2.4-0.7-3.2-1.5-3.1-2.9
	c0-1.1-0.5-1.8-2.1-2.4c-2.6-1.1-3.7-4.3-3.3-9.9c0.2-3.2,0-4-1.1-4.8c-1-0.7-1.5-2.2-2-5.9c-0.9-7.1-0.9-17,0.1-17.9
	c0.6-0.6,0.5-1.1-0.3-2.1c-1-1.1-1.1-2.6-1.1-9.5c0-4.5,0.3-8.3,0.6-8.5c0.7-0.4,0-7.8-0.8-8.8c-0.5-0.6-0.8-4.4-1.6-20.2
	c-0.2-3-0.5-7.8-0.7-10.8c-0.2-3-0.5-6.8-0.6-8.4c-0.1-1.7-0.6-4.8-1-6.9c-0.8-3.8-0.8-3.9-3.5-4.3l-2.7-0.4l0.5-4.1
	c0.7-5.6,0.4-8.6-0.8-9.9c-0.8-0.9-1-2.7-0.9-8.6c0.1-5.1-0.1-7.7-0.6-8.3c-0.5-0.5-0.8-4.1-0.8-11.2c0-9,0.2-10.5,1.2-11.2
	c1-0.8,1-1,0.1-3.1c-1.1-2.4-1.9-15.4-2.3-37.8c-0.1-6.6-0.4-12.3-0.7-12.7c-0.8-1.3-0.9-7.4-0.2-8.8c0.5-0.9,0.4-1.5-0.1-2.2
	c-0.5-0.6-0.7-3-0.6-6.5c0.1-3.1,0-6-0.3-6.4c-0.3-0.5-0.4-1.1-0.2-1.3c0.2-0.3,0.1-2-0.2-3.9c-0.3-2-0.3-3.7,0.1-4.1
	c0.4-0.5,0.4-0.9-0.1-1.2c-0.4-0.3-0.6-1.2-0.4-2c0.5-1.8-1.1-3.4-2.7-2.8c-0.7,0.3-1,1.1-0.9,2.3c0.1,1,0.1,2.6,0,3.4
	c-0.1,1.3-0.2,1.5-1.1,0.8c-0.6-0.5-1-1.7-1-2.7c0-1.5-0.4-2-2-2.6c-1.7-0.6-2-1.1-2-3c0-1.3-0.2-3.3-0.4-4.4
	c-0.4-1.8-0.2-2.1,1.1-2.1c2.2,0,1.6-2.8-0.6-3.4c-1.2-0.3-1.7-0.8-1.6-1.7c0.1-0.7,0.2-3.6,0.3-6.4c0.1-3.2,0.5-5.5,1.1-6.2
	c0.8-1,0.8-1.3-0.3-2.8c-0.7-0.9-1.7-1.7-2.3-1.7c-0.7,0-1.2-0.8-1.5-2.2c-0.4-1.7-0.1-2.4,1-3.3c1.6-1.2,1.3-2.4-1-3.3
	c-1.5-0.6-1.5-0.6-0.8-7.2c0.4-3.6,1-7,1.2-7.5c0.3-0.6-0.1-1.2-1.5-2c-2.3-1.3-3.3-4.7-1.7-6c1.6-1.2,1.1-3.4-0.7-3.9
	c-1.6-0.4-1.6-0.6-1.4-4.8c0.1-2.4,0.5-4.7,0.9-5.1c0.5-0.5,0.5-1.2,0-2.3c-0.5-1.2-0.5-1.8,0-2.4c0.9-0.9-0.7-4.6-2.1-4.6
	c-1.4,0-2-4.2-0.8-4.9c1.4-0.8,1.3-2.7-0.3-3.7c-1.9-1.2-1.6-8.2,0.4-8.2c1.3,0,1.2-3.1-0.1-3.9c-0.8-0.4-0.9-1-0.4-2.2
	c0.7-1.8,0.5-8.3-0.2-9.5c-0.3-0.4-1.2-0.6-2.1-0.4c-1.5,0.3-1.6,0.1-1.6-2.6c0-1.6,0.4-3.5,0.8-4.3c0.7-1.1,0.6-1.7-0.6-3.9
	c-1.2-2.2-1.4-3.5-1.3-8.9c0.1-3.5,0.4-7,0.7-7.7c0.4-0.8,0.3-1.4-0.3-1.8c-0.5-0.3-0.7-0.8-0.4-1.1c0.3-0.3,0.8-0.1,1.1,0.4
	c0.7,1.1,2.7,0.5,2.7-0.9c0-2.1-0.9-3.1-3.1-3.5l-2.1-0.4c-0.1-0.1-0.1-0.3-0.2-0.5l0.1-4c0-2.5-0.1-5.6-0.4-7
	c-0.3-1.7-0.2-2.5,0.3-2.5c0.4,0,0.8-0.6,0.8-1.4s-0.3-1.3-0.7-1.3s-1-0.7-1.3-1.7C143.1,23.2,142.5,22.6,141.9,22.5L141.9,22.5z
	 M198.8,479.1l3.5,2.2c4.3,2.7,12.6,11,15.8,15.9c1.3,2.1,3.3,5.6,4.3,8c1.1,2.3,1.9,4.6,1.7,4.9c-0.1,0.4-1.7-0.4-3.6-1.8
	c-1.8-1.3-6.1-4.1-9.4-6.3c-3.3-2.1-6.9-4.5-8-5.4c-1-0.8-2.5-1.7-3.2-1.9c-1.2-0.4-1.3-1.1-1.2-8.1L198.8,479.1z M84.2,479.7
	c0.3,0,0.5,3.2,0.5,7l0.1,7l-4.3,2.6c-2.4,1.4-7,4.2-10.2,6.1c-10,6-9.6,5.8-9.6,4.7c0-2.9,6.9-14,11.8-18.9
	C75.5,485.2,83.1,479.7,84.2,479.7L84.2,479.7z"/>
<g>
	<path class="st0" d="M-18.7,118.7c-3.9-48.8-68.1-64.8-94.3-23.1c-17-9.6-38.7,1.7-40.1,21.6c-18.7,2.3-33.1,18.2-33.1,37.5
		c0,20.9,16.9,37.8,37.8,37.8h118.3c20.9,0,37.8-16.9,37.8-37.8C7.6,137.8-3.5,123.5-18.7,118.7z"/>
	<path class="st0" d="M46.3,46.2C44.6,25,16.7,18.1,5.4,36.2C-2,32-11.4,36.9-12,45.5c-8.1,1-14.4,7.9-14.4,16.2
		c0,9,7.3,16.4,16.4,16.4h51.3c9,0,16.4-7.3,16.4-16.4C57.7,54.5,52.9,48.3,46.3,46.2z"/>
</g>
<g>
	<path class="st0" d="M308.4,58.7c-3-37.5-52.4-49.9-72.6-17.8c-13.1-7.4-29.8,1.3-30.9,16.6c-14.4,1.8-25.5,14-25.5,28.8
		c0,16,13,29.1,29.1,29.1h91.1c16,0,29.1-13,29.1-29.1C328.6,73.5,320.1,62.5,308.4,58.7z"/>
</g>
<g>
	<path class="st0" d="M439.9,106.2c-2.2-33.9-38-45.1-52.6-16c-9.5-6.7-21.6,1.2-22.4,15c-10.4,1.6-18.5,12.6-18.5,26.1
		c0,14.5,9.4,26.3,21,26.3h66c11.6,0,21-11.8,21-26.3C454.6,119.5,448.4,109.6,439.9,106.2z"/>
</g>
<g>
	<path class="st0" d="M300.9,161.5c-1.9-23.4-32.6-31.1-45.2-11.1c-8.2-4.6-18.6,0.8-19.2,10.3c-8.9,1.1-15.9,8.7-15.9,17.9
		c0,10,8.1,18.1,18.1,18.1h56.7c10,0,18.1-8.1,18.1-18.1C313.5,170.6,308.2,163.8,300.9,161.5z"/>
</g>
<g>
	<path class="st0" d="M97.5,111.1c-1.9-23.8-33.3-31.7-46.1-11.3c-8.3-4.7-18.9,0.8-19.6,10.6c-9.1,1.1-16.2,8.9-16.2,18.3
		c0,10.2,8.3,18.5,18.5,18.5h57.9c10.2,0,18.5-8.3,18.5-18.5C110.4,120.5,105,113.5,97.5,111.1z"/>
</g>
</svg>
