<?xml version="1.0" encoding="iso-8859-1"?>
<!-- Generator: Adobe Illustrator 16.0.0, SVG Export Plug-In . SVG Version: 6.00 Build 0)  -->
<!DOCTYPE svg PUBLIC "-//W3C//DTD SVG 1.1//EN" "http://www.w3.org/Graphics/SVG/1.1/DTD/svg11.dtd">
<svg version="1.1" id="Layer_1" xmlns="http://www.w3.org/2000/svg" xmlns:xlink="http://www.w3.org/1999/xlink" x="0px" y="0px"
	 width="537.731px" height="549.733px" viewBox="0 0 537.731 549.733" style="enable-background:new 0 0 537.731 549.733;"
	 xml:space="preserve">
<path style="fill-rule:evenodd;clip-rule:evenodd;" d="M8.966,483.401c19.516,3.225,33.555-6,44.598-20.589
	c8.019-10.593,15.04-21.949,22.342-33.072c6.328-9.638,14.873-16.083,26.163-18.517c2.61-0.562,5.615-0.459,8.196,0.236
	c6.245,1.685,12.343,3.91,18.508,5.895c3.11,1.002,6.153,1.225,7.367-2.61c1.174-3.708-1.061-5.45-4.355-6.469
	c-5.064-1.565-10.073-3.309-16.688-5.501c4.211-2.57,7.447-4.332,10.43-6.449c1.695-1.205,3.823-2.762,4.314-4.554
	c8.245-30.12,16.302-60.292,24.224-90.5c0.445-1.698-0.07-4.228-1.12-5.642c-5.806-7.819-7.061-16.145-2.821-24.859
	c4.273-8.783,11.791-12.774,21.465-12.779c23.989-0.01,47.977,0.003,71.966,0.007c1.964,0,3.928,0,6.17,0
	c0.113-1.968,0.267-3.418,0.268-4.868c0.015-20.156,0.325-40.32-0.093-60.469c-0.326-15.705,6.622-27.191,19.028-35.744
	c24.148-16.645,62.66-10.23,79.017,12.938c4.644,6.576,7.017,13.766,7.001,21.928c-0.098,50.977-0.559,101.961,0.202,152.926
	c0.312,20.893,3.126,41.77,5.237,62.611c2.212,21.848,5.119,43.626,7.391,65.47c1.526,14.688-9.021,28.062-23.539,30.651
	c-1.111,0.198-2.181,0.635-3.27,0.961c-1,0-2,0-3,0c-0.785-0.259-1.553-0.622-2.358-0.76c-14.226-2.442-23.071-10.916-24.929-25.283
	c-2.882-22.28-5.166-44.637-7.704-66.961c-1.292-11.365-2.583-22.729-3.875-34.094c-1.257,1.319-1.783,2.678-2.229,4.061
	c-10.939,33.832-21.914,67.654-32.768,101.514c-2.695,8.406-7.725,14.715-15.734,18.352c-3.273,1.485-6.924,2.139-10.403,3.172
	c-1,0-2,0-3,0c-0.449-0.211-0.878-0.523-1.351-0.619c-21.225-4.281-30.256-19.602-23.603-40.332
	c12.138-37.813,24.005-75.721,36.731-113.337c5.172-15.287,2.094-30.552,3.344-45.553c-0.953-0.419-1.25-0.664-1.548-0.665
	c-24.495-0.057-48.99-0.149-73.483,0.021c-1.243,0.009-3.202,2.083-3.599,3.532c-8.207,29.971-16.276,59.98-24.193,90.029
	c-0.466,1.77,0.021,4.283,1.011,5.854c3.485,5.532,4.731,11.232,2.997,17.61c-0.363,1.334-0.472,3.129,0.131,4.275
	c6.73,12.82,7.678,26.51,5.405,40.367c-2.628,16.021-6.955,31.381-23.842,38.816c-33,0-66,0-99,0
	c-7.925-2.335-15.029-5.959-20.02-12.853c-1.703-2.353-3.323-4.764-4.98-7.147C8.966,484.067,8.966,483.734,8.966,483.401z
	 M99.558,437.206c-1.006-1.075-1.878-2.814-2.891-2.9c-1.557-0.133-3.705,0.39-4.748,1.463c-9.392,9.672-15.21,21.607-20.622,33.728
	c-1.31,2.933,0.063,5.589,3.451,5.505c1.421-0.034,3.16-2.064,4.119-3.588c6.412-10.188,12.658-20.479,18.936-30.748
	C98.384,439.713,98.819,438.672,99.558,437.206z"/>
<path style="fill-rule:evenodd;clip-rule:evenodd;" d="M426.966,504.401c-8.07-3.064-11.402-8.893-12.227-17.528
	c-2.164-22.688-5.084-45.308-7.865-67.935c-0.152-1.25-1.541-2.707-2.74-3.41c-5.969-3.498-6.482-9.221-1.392-13.873
	c1.374-1.256,2.258-3.451,2.613-5.355c4.412-23.656,20.412-39.591,44.76-44.381c21.759-4.279,45.299,5.742,57.062,24.604
	c2.434,3.902,4.607,8.234,5.66,12.662c1.525,6.418,2.839,12.682,8.129,17.217c0,1.333,0,2.666,0,4
	c-1.42,1.564-2.559,3.841-4.322,4.537c-3.064,1.209-3.53,3.113-3.852,6.016c-2.416,21.779-5.413,43.501-7.436,65.313
	c-0.784,8.458-3.928,14.385-11.391,18.134C471.632,504.401,449.3,504.401,426.966,504.401z M498.709,400.184
	c0.519-17.743-19.673-34.486-40.114-33.488c-20.279,0.99-38.934,17.802-37.053,33.488
	C447.261,400.184,472.988,400.184,498.709,400.184z M439.036,428.667c3.994,0,7.99,0.059,11.983-0.018
	c3.372-0.064,5.411-1.932,5.38-5.253c-0.032-3.304-2.052-5.161-5.453-5.172c-7.988-0.025-15.978-0.038-23.967,0.013
	c-3.39,0.021-5.389,1.865-5.367,5.23c0.022,3.37,2.079,5.137,5.441,5.188C431.048,428.713,435.042,428.668,439.036,428.667z"/>
<path style="fill-rule:evenodd;clip-rule:evenodd;" d="M308.966,19.401c4.586,1.331,9.289,2.351,13.736,4.045
	c25.302,9.641,40.682,36.643,35.943,62.805c-5.088,28.101-28.688,48.178-56.597,48.149c-27.937-0.029-51.919-19.655-56.927-46.587
	c-5.983-32.18,15.235-62.289,47.571-67.541c0.785-0.127,1.518-0.574,2.273-0.871C299.632,19.401,304.3,19.401,308.966,19.401z"/>
<path style="fill-rule:evenodd;clip-rule:evenodd;" d="M232.964,239.134c-7.116-2.99-13.372-5.624-19.632-8.249
	c-6.121-2.566-12.246-5.125-19.108-7.994c-1.578,5.583-3.079,10.893-4.635,16.402c-6.051,0-12.004,0-18.598,0
	c1.783-6.855,3.369-13.543,5.309-20.127c0.83-2.817,0.684-4.726-1.416-7.145c-11.16-12.857-6.138-31.102,10.024-36.688
	c2.716-0.939,3.979-2.293,4.556-5.068c0.98-4.711,2.344-9.346,3.669-13.978c1.645-5.747,6.226-8.767,11.125-7.476
	c5.334,1.404,7.942,6.14,6.466,12.166c-1.375,5.613-2.979,11.17-4.561,17.043c8.077,3.455,15.891,6.688,23.581,10.193
	c1.342,0.611,3.066,2.361,3.083,3.607C233.037,207.301,232.964,222.785,232.964,239.134z"/>
</svg>
