<?xml version="1.0" encoding="utf-8"?>
<!-- Generator: Adobe Illustrator 23.0.0, SVG Export Plug-In . SVG Version: 6.00 Build 0)  -->
<svg version="1.1" id="Layer_1" xmlns="http://www.w3.org/2000/svg" xmlns:xlink="http://www.w3.org/1999/xlink" x="0px" y="0px"
	 viewBox="0 0 512 512" style="enable-background:new 0 0 512 512;" xml:space="preserve">
<style type="text/css">
	.st0{fill-rule:evenodd;clip-rule:evenodd;}
</style>
<path class="st0" d="M253.8,15.6l-79.9,84.1l2.3,58.8l50.6,36.2l31.9,182l10.8-26.9l11.9-235.4l18.7,0.9l-9.1,181l28.4-70.8l8.1-108
	l0.9-17.9L253.8,15.6L253.8,15.6z M392.8,66.1l-46.6,50.8l-3.9,51.1l10.5-26.2l30.4-13.6L392.8,66.1L392.8,66.1z M453.1,117.3
	l-85.7,38.4L264.8,411.6l14.6,83.3h7.8l147.6-293.1l16.7,8.4L308.1,494.9h24.4l146.6-291.8C479.1,203.1,453.1,117.3,453.1,117.3z
	 M112.9,136.2l-54.1,99.1l69.1,259.6h93.6l-51.1-274.7l18.4-3.4l51.8,278.1h19.9l-50.7-289.4L112.9,136.2L112.9,136.2z M458.4,368.4
	l-52.9,23l-49.8,99.2l69.7-36.7v0L458.4,368.4L458.4,368.4z M35.2,368.6l42.5,126.7h30.9L80.6,389.9L35.2,368.6L35.2,368.6z M84,514
	l0.1,0.3l1.7-0.3H84L84,514z"/>
</svg>
