<?xml version="1.0" encoding="utf-8"?>
<!-- Svg Vector Icons : http://www.onlinewebfonts.com/icon -->
<!DOCTYPE svg PUBLIC "-//W3C//DTD SVG 1.1//EN" "http://www.w3.org/Graphics/SVG/1.1/DTD/svg11.dtd">
<svg version="1.1" xmlns="http://www.w3.org/2000/svg" xmlns:xlink="http://www.w3.org/1999/xlink" x="0px" y="0px" viewBox="0 0 1000 1000" enable-background="new 0 0 1000 1000" xml:space="preserve">
<metadata> Svg Vector Icons : http://www.onlinewebfonts.com/icon </metadata>
<g><g transform="translate(0.000000,511.000000) scale(0.100000,-0.100000)"><path d="M3566.8,4511.2c-109-72.7-152.2-202.2-104.5-315.7c47.7-115.8,131.7-163.5,286.2-165.8c120.4,0,140.8-9.1,315.7-134c265.8-193.1,372.5-315.7,506.5-586c61.3-129.5,120.4-234,129.5-231.7c45.4,2.3,140.8,38.6,140.8,52.2c0,9.1-54.5,127.2-122.7,265.8c-149.9,302.1-258.9,427-542.9,631.5c-213.5,149.9-215.8,152.2-206.7,236.2c13.6,104.5-25,181.7-124.9,247.6C3746.2,4577.1,3664.5,4577.1,3566.8,4511.2z"/><path d="M6328.9,4538.4c-95.4-54.5-149.9-122.6-161.3-204.4c-13.6-77.2-34.1-97.7-245.3-238.5c-349.8-238.5-481.5-381.6-638.3-699.6c-70.4-145.4-127.2-268-122.7-270.3c13.6-11.4,136.3-61.3,143.1-61.3c4.5,0,61.3,109,127.2,245.3c140.8,283.9,279.4,436.1,595.1,647.4l197.6,131.7l111.3-38.6c104.5-38.6,113.6-38.6,199.9,4.6c59.1,29.5,102.2,72.7,131.8,131.7c38.6,81.8,40.9,97.7,11.4,179.5c-18.2,50-56.8,111.3-88.6,134C6517.4,4552.1,6387.9,4572.5,6328.9,4538.4z"/><path d="M888.8,4106.9c-181.7-20.4-406.6-93.1-524.7-172.6C173.3,3809.3,62,3532.2,111.9,3309.6c15.9-65.9,118.1-272.6,245.3-495.2c308.9-545.1,308.9-540.6,324.8-1056.2c13.6-386.1,20.4-442.9,65.9-538.3c109-220.3,311.2-336.2,622.4-354.3c304.4-15.9,304.4-20.4,6.8-463.4c-268-399.8-338.4-547.4-377.1-792.7c-36.3-234-18.2-349.8,188.5-1156.2c199.9-788.2,204.4-840.4,104.5-1074.4c-31.8-70.4-265.8-388.4-590.6-797.3l-540.6-681.4l106.8-109c59-59.1,115.8-109,127.2-109c11.4,0,265.8,238.5,563.3,527c640.5,622.4,726.9,683.7,1024.4,697.3c138.5,4.5,211.2-4.6,336.2-45.4c143.1-45.4,163.5-47.7,240.8-18.2c79.5,29.6,106.8,75,513.3,804.1c236.2,424.8,633.7,1167.5,883.6,1651.3l452,881.3v231.7c0,129.5,11.4,329.4,22.7,447.5l22.7,215.8l-161.3,283.9c-520.2,913.1-1033.5,1476.4-2014.8,2210.1c-245.3,184-508.8,365.7-586,404.3C1449.8,4091,1165.9,4140.9,888.8,4106.9z"/><path d="M8593.5,4072.8c-211.2-56.8-358.9-143.1-770-449.7c-531.5-395.2-686-524.7-1047.1-883.6c-470.2-463.4-729.1-799.6-1056.2-1374.2l-172.6-299.8l20.4-197.6c11.4-111.3,22.7-313.5,22.7-452V163.7l411.1-815.5c379.3-747.3,1272-2325.9,1390.1-2455.4c68.1-77.2,152.2-84.1,333.9-27.3c127.2,38.6,199.9,45.4,329.4,38.6c290.7-18.2,354.3-63.6,988.1-692.8l558.8-552l118.1,120.4l120.4,120.4l-527,667.8c-290.8,368-552,720-583.8,781.4c-38.6,79.5-61.3,163.5-68.1,274.9c-9.1,143.1,9.1,231.7,168.1,851.8c172.6,670.1,179.5,701.9,179.5,954c-2.3,361.1-50,490.6-361.2,954c-134,195.3-240.8,370.2-240.8,388.4c0,65.9,54.5,88.6,204.4,88.6c209,0,358.9,50,486.1,161.3c184,163.5,202.1,218.1,220.3,713.2c20.4,522.4,25,538.3,322.5,1069.8c247.6,438.4,286.2,558.8,245.3,747.3c-59,261.2-220.3,413.4-527,504.3C9143.2,4118.2,8791.1,4127.3,8593.5,4072.8z"/><path d="M4841.1,2719c-124.9-63.6-190.8-170.4-190.8-311.2c2.3-190.8,115.8-322.5,308.9-354.3c68.1-11.4,111.3-2.3,195.3,38.6c270.3,134,268,508.8-4.5,633.7C5027.3,2780.4,4961.5,2780.4,4841.1,2719z"/><path d="M4782,1667.4c-4.5-11.4-34.1-206.7-68.1-431.6c-81.8-552-81.8-969.9-2.3-1998.9c34.1-436.1,72.7-833.6,86.3-881.3c56.8-211.3,374.8-236.2,415.7-34.1c6.8,29.5,45.4,502,84,1049.4c81.8,1108.5,79.5,1283.4-27.3,1989.8l-50,329.4h-215.8C4882,1690.1,4786.6,1681,4782,1667.4z"/></g></g>
</svg>