<?xml version="1.0" encoding="iso-8859-1"?>
<!-- Generator: Adobe Illustrator 17.1.0, SVG Export Plug-In . SVG Version: 6.00 Build 0)  -->
<!DOCTYPE svg PUBLIC "-//W3C//DTD SVG 1.1//EN" "http://www.w3.org/Graphics/SVG/1.1/DTD/svg11.dtd">
<svg version="1.1" id="Capa_1" xmlns="http://www.w3.org/2000/svg" xmlns:xlink="http://www.w3.org/1999/xlink" x="0px" y="0px"
	 viewBox="0 0 446.775 446.775" style="enable-background:new 0 0 446.775 446.775;" xml:space="preserve">
<g>
	<path d="M174.568,109.635c29.688,0,53.842-24.153,53.842-53.843c0-29.688-24.153-53.842-53.842-53.842
		c-29.683,0-53.831,24.153-53.831,53.842C120.737,85.481,144.886,109.635,174.568,109.635z"/>
	<path d="M343.743,42.14c-0.333,0-0.672,0.032-1.008,0.095l-92.277,17.154c-2.905,0.541-5.96,3.145-6.955,5.93l-7.846,21.996
		c-0.514,1.438-0.416,2.954,0.274,4.267c0.69,1.313,1.884,2.251,3.36,2.644l3.273,0.869c5.491,12.233,10.511,25.836,13.475,36.497
		c-9.308-2.499-20.552-6.395-30.305-10.531c-2.151-0.912-6.048-1.858-8.485-1.858h-81.733
		c-19.958-17.873-38.952-35.774-45.844-43.87c1.883-8.132,10.844-25.738,20.196-39.527c3.442-5.061,4.708-11.16,3.563-17.173
		c-1.146-6.013-4.564-11.22-9.625-14.661C99.989,1.373,95.54,0,90.94,0c-7.606,0-14.696,3.75-18.966,10.031
		c-0.348,0.51-8.602,12.664-16.01,27.211C42.936,62.829,40.234,80.398,47.208,94.21c2.103,4.164,6.015,11.914,44.587,47.212
		c10.67,9.765,20.953,18.867,27.615,24.711v256.489c0,13.317,10.836,24.153,24.155,24.153c13.317,0,24.153-10.836,24.153-24.153
		V284.22h13.82v138.402c0,13.317,10.835,24.153,24.153,24.153c13.318,0,24.154-10.836,24.154-24.153l-0.109-251.145
		c3.122,1.048,6.414,2.096,9.766,3.075c10.443,3.055,19.058,4.778,26.338,5.267c1.35,0.092,2.68,0.137,3.952,0.137
		c19.484,0,27.602-10.316,30.708-16.466c6.064-12.011,5.13-28.299-3.227-53.867l45.47,12.075c0.461,0.123,0.923,0.184,1.374,0.184
		c2.548,0,4.397-1.944,4.397-4.624V47.038C348.515,44.246,346.463,42.14,343.743,42.14z"/>
	<path d="M369.814,57.861c0.764,0,1.543-0.135,2.301-0.416l26.888-9.998c3.42-1.271,5.16-5.074,3.89-8.493
		c-1.272-3.42-5.078-5.161-8.494-3.89l-26.888,9.996c-3.42,1.272-5.16,5.075-3.89,8.494
		C364.609,56.216,367.132,57.861,369.814,57.861z"/>
	<path d="M369.812,87.049h26.887c3.648,0,6.606-2.957,6.606-6.605s-2.958-6.605-6.606-6.605h-26.887
		c-3.647,0-6.605,2.957-6.605,6.605S366.164,87.049,369.812,87.049z"/>
	<path d="M399.002,113.44l-26.887-9.997c-3.421-1.271-7.224,0.47-8.494,3.89c-1.271,3.419,0.47,7.222,3.89,8.494l26.887,9.997
		c0.76,0.281,1.537,0.416,2.301,0.416c2.682,0,5.204-1.646,6.193-4.307C404.162,118.515,402.422,114.712,399.002,113.44z"/>
</g>
<g>
</g>
<g>
</g>
<g>
</g>
<g>
</g>
<g>
</g>
<g>
</g>
<g>
</g>
<g>
</g>
<g>
</g>
<g>
</g>
<g>
</g>
<g>
</g>
<g>
</g>
<g>
</g>
<g>
</g>
</svg>
