<?xml version="1.0" encoding="utf-8"?>
<!-- Svg Vector Icons : http://www.onlinewebfonts.com/icon -->
<!DOCTYPE svg PUBLIC "-//W3C//DTD SVG 1.1//EN" "http://www.w3.org/Graphics/SVG/1.1/DTD/svg11.dtd">
<svg version="1.1" xmlns="http://www.w3.org/2000/svg" xmlns:xlink="http://www.w3.org/1999/xlink" x="0px" y="0px" viewBox="0 0 1000 1000" enable-background="new 0 0 1000 1000" xml:space="preserve">
<metadata> Svg Vector Icons : http://www.onlinewebfonts.com/icon </metadata>
<g><path d="M500,220c19.3,0,35-15.7,35-35V45c0-19.3-15.7-35-35-35s-35,15.7-35,35v140C465,204.3,480.7,220,500,220z"/><path d="M535,850c-19.3,0-35,15.6-35,35v70c0,19.4,15.7,35,35,35c19.4,0,35-15.6,35-35v-70C570,865.6,554.3,850,535,850z"/><path d="M750.1,295.1c9,0,17.9-3.4,24.7-10.3l90.9-90.9c13.7-13.7,13.7-35.8,0-49.5c-13.7-13.7-35.8-13.7-49.5,0l-90.9,90.9c-13.7,13.7-13.7,35.8,0,49.5C732.2,291.7,741.2,295.1,750.1,295.1z"/><path d="M770.6,722.8c-13.7-13.7-35.8-13.7-49.5,0c-13.7,13.7-13.7,35.8,0,49.5l103.8,103.8c6.8,6.8,15.8,10.3,24.7,10.3c9,0,17.9-3.4,24.7-10.3c13.7-13.7,13.7-35.8,0-49.5L770.6,722.8z"/><path d="M266.1,317.3c6.8,6.8,15.8,10.3,24.7,10.3s17.9-3.4,24.7-10.3c13.7-13.7,13.7-35.8,0-49.5L210.1,162.3c-13.7-13.7-35.8-13.7-49.5,0c-13.7,13.7-13.7,35.8,0,49.5L266.1,317.3z"/><path d="M955,465H815c-19.4,0-35,15.7-35,35s15.6,35,35,35h140c19.4,0,35-15.7,35-35S974.3,465,955,465z"/><path d="M45,500h70c19.3,0,35-15.7,35-35s-15.7-35-35-35H45c-19.3,0-35,15.7-35,35S25.7,500,45,500z"/><path d="M640,325H444.5c-9.1,0-17.9,3.6-24.5,10L23.4,722.7c-13.8,13.5-14.1,35.7-0.6,49.5c13.5,13.8,35.7,14.1,49.5,0.6L458.8,395H605v146.4L230.5,930.7c-13.4,13.9-13,36.1,0.9,49.5c6.8,6.5,15.5,9.8,24.3,9.8c9.2,0,18.3-3.6,25.2-10.7l384.3-399.4c6.3-6.5,9.8-15.2,9.8-24.3V360C675,340.7,659.3,325,640,325z"/></g>
</svg>