<?xml version="1.0" encoding="utf-8"?>
<!-- Svg Vector Icons : http://www.onlinewebfonts.com/icon -->
<!DOCTYPE svg PUBLIC "-//W3C//DTD SVG 1.1//EN" "http://www.w3.org/Graphics/SVG/1.1/DTD/svg11.dtd">
<svg version="1.1" xmlns="http://www.w3.org/2000/svg" xmlns:xlink="http://www.w3.org/1999/xlink" x="0px" y="0px" viewBox="0 0 1000 1000" enable-background="new 0 0 1000 1000" xml:space="preserve">
<metadata> Svg Vector Icons : http://www.onlinewebfonts.com/icon </metadata>
<g><path d="M848.6,355.2c-68.1,0-136.2-0.1-204.3-0.2c15.6-44.9,23.7-92.3,24.1-139.9c0.2-24.9-1.9-49.9-5.9-74.5c-3.1-18.6-7.3-36.2-16.4-53.1c-17-31.4-47.8-54.2-83-60.9c-41-7.7-84.2,7.3-111.8,38.6C438.6,79.7,429.5,97,425,115.5c-5,19.9-2.4,40-4.5,60.2c-4.5,42.6-20.3,83.7-45.4,118.4c-21.8,30.3-50.5,55.5-83.4,73.2c-16.7,9-34.4,16-52.6,20.9c-9,2.4-18.1,4.3-27.2,5.6c-5.6,0.8-14.5,2.9-18.9,2.9l-120,0.3c-19.9,0.1-40.3-1.9-54.2,15.9c-7.6,9.8-8.5,19.6-8.6,31c0,80.5,0,401.5,0.1,481.5c0,11.6,0.4,22.5,7.5,32.6c9.4,13.4,24,17.4,39.4,17.4h661.6c72.2,0,142-37,181.5-97.6c15.2-23.4,21.8-48.3,28-75.1c7-30.8,47.1-200.3,56.9-254.7c7.7-42.9,8.9-91.5-12.1-131C948.5,370.9,897.8,355.2,848.6,355.2L848.6,355.2z M92.3,479.6c27.6-0.1,55.1-0.1,82.6-0.2c-0.1,70.1,2.1,413,0,413c-21.1,0-82.6,0-82.6,0V479.6L92.3,479.6z M855.7,749.3c-15.5,56.5-48.5,110.1-104.7,132.8c-22.3,9-49,14.2-73.1,10.5c-5.3-0.8-348.9-0.2-420.8-0.2h-0.2c0.1-69.3,0.4-351.3,0.4-423.1c0-0.8,14.5-4.3,16.1-4.7c9.9-3.1,19.6-6.7,29.1-10.6c18.1-7.6,35.5-16.9,52-27.6c32.7-21.3,61.4-48.4,84.7-79.7c25.1-33.8,43.7-72.8,54.4-113c6-22.5,8.7-45.6,9.9-68.8c1-19.3-0.3-39.2,18.5-51.3c15.9-10.2,37.3-6.9,49.5,7.4c9.3,10.9,9.6,24.7,11.7,37.9c6.7,44.3,5.7,89.3-4.5,132.9c-5.2,22.7-12.9,44.8-22.5,66c-8,17.8-18.9,34.8-10.1,55c8.7,20.1,27.5,24.8,47.1,24.8c45.1,0,239.9-0.7,255.3,0.7c28.5,2.6,50.5,18.2,55.9,47.1c4.1,22.1,0.3,45.4-4,67.2C889.9,603.5,859.8,734.5,855.7,749.3C810.6,913.5,862.2,725.5,855.7,749.3L855.7,749.3z"/></g>
</svg>