<?xml version="1.0" encoding="utf-8"?>
<!-- Generator: Adobe Illustrator 16.0.0, SVG Export Plug-In . SVG Version: 6.00 Build 0)  -->
<!DOCTYPE svg PUBLIC "-//W3C//DTD SVG 1.1//EN" "http://www.w3.org/Graphics/SVG/1.1/DTD/svg11.dtd">
<svg version="1.1" id="Layer_1" xmlns="http://www.w3.org/2000/svg" xmlns:xlink="http://www.w3.org/1999/xlink" x="0px" y="0px"
	 width="512px" height="512px" viewBox="0 0 512 512" enable-background="new 0 0 512 512" xml:space="preserve">
<g>
	<path d="M226.611,231.988c-6.506,4.597-8.047,13.59-3.441,20.065c4.606,6.507,22.491,20.567,28.982,15.985
		c6.48-4.583-0.846-26.12-5.452-32.609C242.103,228.906,233.102,227.373,226.611,231.988z"/>
	<path d="M79.961,316.288c6.162,8.195,17.814,9.837,26.002,3.692c8.195-6.164,25.688-29.733,19.519-37.929
		c-6.154-8.195-33.649,2.064-41.845,8.242C75.449,296.44,73.791,308.107,79.961,316.288z"/>
	<path d="M68.121,231.048c-7.554,1.582-12.41,8.947-10.87,16.501c1.564,7.539,8.938,12.386,16.485,10.837
		c7.546-1.547,26.987-11.917,25.454-19.472C97.619,231.377,75.683,229.5,68.121,231.048z"/>
	<path d="M159.616,319.321c-6.307-3.308-19.77,9.828-24.64,17.236h27.652C163.713,328.999,163.439,321.329,159.616,319.321z"/>
	<path d="M476.274,232.504c-12.051-16.719-31.546-26.698-52.152-26.698c-5.799,0-11.559,0.847-17.137,2.393
		c6.841-17.823,24.535-33.729,32.964-39.679c7.218-5.083,8.978-15.046,3.91-22.287c-5.052-7.242-15.046-8.993-22.303-3.941
		c-1.845,1.287-35.661,25.465-46.237,59.646c-11.787-6.594-25.468-9.487-38.895-8.231c-2.525-2.808-5.18-5.504-8.036-7.998
		c-25.243-21.99-44.309-50.236-55.147-81.688c-7.929-23.006-29.599-38.475-53.927-38.475c-0.857,0-1.698,0.174-2.552,0.212
		c-7.209-18.884-18.002-32.667-32.583-40.548c-23.398-12.637-46.35-5.287-48.883-4.395c-8.36,2.894-12.786,12.012-9.885,20.379
		c2.901,8.352,12.027,12.794,20.379,9.869c0.102-0.016,11.98-3.707,23.171,2.331c7.449,4.03,13.378,11.668,17.737,22.718
		c-20.271,14.241-29.802,40.515-21.334,65.085c10.831,31.437,13.216,65.438,6.881,98.298c-0.6,3.12-0.899,6.275-1.179,9.429
		l-74.825-99.532c-5.177-6.882-13.067-11.12-21.646-11.636l-1.767-0.063c-7.906,0-15.593,3.269-21.099,8.946
		C1.448,198.539-5.98,276.567,32.08,336.558h40.198c-2.585-2.847-5.143-5.733-7.488-8.852
		c-35.8-47.609-32.375-112.922,7.789-156.496l124.296,165.348h40.071h22.685h33.986c-5.851-14.842-7.973-30.929-5.376-47.092
		c3.801-23.664,16.586-44.434,36.003-58.494c5.529-4.004,12.066-6.131,18.886-6.131c9.063,0,17.775,3.832,23.906,10.526
		c5.701,6.209,12.207,9.947,19.339,11.104c0.749,0.12,1.507,0.09,2.26,0.151c0.103,0.002,0.195,0.052,0.297,0.052
		c0.064,0,0.132-0.018,0.196-0.019c6.329,0.415,12.769-1.093,19.174-4.658c13.975-7.836,32.719-3.597,41.994,9.243
		c14.013,19.441,19.636,43.183,15.835,66.831c-1.042,6.482-2.926,12.593-5.213,18.486h5.15c9.496,0,18.587,2.543,26.553,7.059
		c2.242-6.562,3.997-13.379,5.134-20.446C502.917,291.076,495.285,258.873,476.274,232.504z M256.616,284.382
		c-1.885,11.731-2.021,23.468-0.565,34.936c-22.877-3.509-42.353-19.403-50.07-41.787c-3.542-10.275-4.333-21.333-2.283-31.968
		c7.39-38.365,4.606-78.06-8.055-114.814c-4.488-13.028,2.463-27.308,15.515-31.796c2.651-0.923,5.396-1.376,8.156-1.376
		c10.659,0,20.168,6.788,23.656,16.923c12.113,35.144,33.233,66.689,60.838,91.852C278.432,225.388,261.666,252.983,256.616,284.382
		z"/>
	<path d="M353.451,322.059c4.427-7.021,10.872-29.84,3.865-34.267c-7.015-4.411-24.837,11.229-29.264,18.236
		c-4.418,7.007-2.322,16.296,4.684,20.707C339.751,331.162,349.035,329.065,353.451,322.059z"/>
	<path d="M417.93,336.558c4.392-3.56,6.653-9.402,5.199-15.234c-2.002-8.038-14.021-28.496-22.067-26.494
		s-9.071,25.697-7.077,33.752c0.839,3.361,2.91,5.987,5.448,7.977H417.93z"/>
	<path d="M466.069,368.589H31.203c-8.078,0-15.499,4.457-19.3,11.574c-3.801,7.132-3.363,15.78,1.134,22.491l33.595,50.095
		c11.159,16.642,29.873,26.62,49.908,26.62h305.365c20.38,0,39.374-10.338,50.447-27.45l32.087-49.563
		c4.355-6.725,4.675-15.297,0.852-22.35C481.459,372.967,474.085,368.589,466.069,368.589z"/>
</g>
</svg>
