<svg xmlns="http://www.w3.org/2000/svg" viewBox="0 0 256 256" enable-background="new 0 0 256 256"><path d="m210.6 113.5c4.8-.1 10.5-.2 14-.2-.9-8.3-11.1-42.1-36.1-56.3l-.1-.1c3.3-3.4 7.3-7.6 9.7-10.1-6.4-5.1-36.4-21.2-63.7-14.5 0-4.7 0-10.2 0-13.5-8.3.8-42.3 10.3-56.9 35.1l-.1.1c-3.4-3.4-7.5-7.4-9.9-9.9-5.3 6.4-22.5 37.3-15.3 65.1v.2c-4.8 0-10.5.1-14 .1.8 8.3 10.6 42.3 35.4 56.7l.1.1c-3.3 3.4-7.4 7.5-9.8 10 1.7 1.4 5 3.8 9.5 5.8h102.6c3.9-4 7.3-8 10-12.7l.1-.1c3.4 3.3 7.6 7.3 10 9.8 5.2-6.5 22.1-37.5 14.5-65.2v-.4m-79.1 22.6c-14.3 0-25.9-11.6-25.9-25.9 0-14.3 11.6-25.9 25.9-25.9s25.9 11.6 25.9 25.9c0 14.3-11.6 25.9-25.9 25.9"/><path d="m32.3 193.5h198.3v25.7l-33.1 2.9 33.1 5.4-65.3 2.6 65.3 7.2h-198.3v-27.4l45.7-4.7-45.7-3.4 61.1-3.7z"/><path d="m211.3 179.2l17.8-9.2 2.4 7.3-20.2 1.9m15.3-17l23.2-16.7 3.9 6.9-27.1 9.8"/><path d="m53.6 175.7l-11.6-16.3-6.2 4.7 17.8 11.6m-20.9-.4l-25.9-12-3.4 7.1 29.3 4.9"/></svg>