<?xml version="1.0" encoding="iso-8859-1"?>
<!-- Generator: Adobe Illustrator 19.0.0, SVG Export Plug-In . SVG Version: 6.00 Build 0)  -->
<svg version="1.1" id="Layer_1" xmlns="http://www.w3.org/2000/svg" xmlns:xlink="http://www.w3.org/1999/xlink" x="0px" y="0px"
	 viewBox="0 0 511.996 511.996" style="enable-background:new 0 0 511.996 511.996;" xml:space="preserve">
<g>
	<g>
		<path d="M501.34,26.667c-5.906,0-10.688,4.781-10.688,10.672c0,5.89,4.781,10.664,10.688,10.664
			c5.875,0,10.656-4.773,10.656-10.664C511.996,31.449,507.215,26.667,501.34,26.667z"/>
	</g>
</g>
<g>
	<g>
		<path d="M458.653,410.656c-5.875,0-10.656,4.781-10.656,10.688c0,5.875,4.781,10.656,10.656,10.656
			c5.906,0,10.687-4.781,10.687-10.656C469.34,415.437,464.56,410.656,458.653,410.656z"/>
	</g>
</g>
<g>
	<g>
		<path d="M287.998,5.339c-5.891,0-10.656,4.773-10.656,10.664s4.765,10.664,10.656,10.664s10.656-4.773,10.656-10.664
			S293.889,5.339,287.998,5.339z"/>
	</g>
</g>
<g>
	<g>
		<path d="M74.663,154.666c-5.891,0-10.664,4.781-10.664,10.672s4.773,10.664,10.664,10.664c5.891,0,10.672-4.773,10.672-10.664
			C85.335,159.447,80.554,154.666,74.663,154.666z"/>
	</g>
</g>
<g>
	<g>
		<path d="M10.664,346.658C4.773,346.658,0,351.439,0,357.346c0,5.875,4.773,10.656,10.664,10.656s10.672-4.781,10.672-10.656
			C21.336,351.439,16.555,346.658,10.664,346.658z"/>
	</g>
</g>
<g>
	<g>
		<path d="M32,37.339V26.667c0-5.891-4.773-10.664-10.664-10.664s-10.672,4.773-10.672,10.664v10.672
			C4.773,37.339,0,42.112,0,48.003s4.773,10.664,10.664,10.664v10.672c0,5.891,4.781,10.664,10.672,10.664S32,75.23,32,69.339
			V58.667c5.891,0,10.664-4.773,10.664-10.664C42.664,42.113,37.891,37.339,32,37.339z"/>
	</g>
</g>
<g>
	<g>
		<path d="M437.341,165.338v-10.672c0-5.891-4.781-10.664-10.688-10.664c-5.875,0-10.656,4.773-10.656,10.664v10.672
			c-5.891,0-10.656,4.773-10.656,10.664c0,5.891,4.766,10.664,10.656,10.664v10.672c0,5.891,4.781,10.664,10.656,10.664
			c5.906,0,10.688-4.773,10.688-10.664v-10.672c5.875,0,10.656-4.773,10.656-10.664
			C447.997,170.111,443.216,165.338,437.341,165.338z"/>
	</g>
</g>
<g>
	<g>
		<path d="M431.138,344.596c0-0.047-0.016-0.094-0.016-0.125c0-0.188-0.031-0.375-0.047-0.562c-0.016-0.031-0.016-0.047-0.016-0.062
			l-7.797-60.234c-0.016-0.016-0.016-0.047-0.016-0.078c-0.016-0.125-0.047-0.266-0.062-0.406c-0.031-0.188-0.062-0.375-0.125-0.562
			c-0.031-0.125-0.062-0.281-0.094-0.406c-0.062-0.188-0.109-0.359-0.156-0.531c-0.062-0.156-0.109-0.281-0.156-0.438
			c-0.062-0.156-0.125-0.312-0.203-0.469c-0.062-0.156-0.141-0.297-0.203-0.438c-0.062-0.156-0.156-0.312-0.234-0.453
			s-0.156-0.266-0.234-0.406c-0.094-0.156-0.188-0.297-0.297-0.453c-0.078-0.125-0.172-0.25-0.25-0.375
			c-0.141-0.156-0.281-0.344-0.422-0.5c-0.062-0.094-0.125-0.172-0.203-0.25c-0.234-0.25-0.453-0.484-0.703-0.719
			c-0.016,0-0.031-0.016-0.031-0.031c-0.062-0.047-0.125-0.094-0.188-0.141c-0.172-0.172-0.359-0.312-0.562-0.453
			c-0.094-0.094-0.219-0.156-0.312-0.25c-0.156-0.109-0.328-0.219-0.5-0.312c-0.125-0.094-0.25-0.156-0.375-0.234
			c-0.156-0.078-0.312-0.172-0.469-0.25s-0.281-0.141-0.422-0.203c-0.172-0.062-0.328-0.125-0.484-0.203
			c-0.156-0.047-0.281-0.109-0.438-0.156c-0.172-0.062-0.344-0.109-0.531-0.172c-0.141-0.031-0.266-0.062-0.406-0.109
			c-0.234-0.047-0.484-0.109-0.719-0.141c-0.156-0.031-0.281-0.047-0.406-0.062c-0.266-0.031-0.516-0.062-0.781-0.078h-0.062
			l-31.905-1.797c-1.594-0.094-3.172,0.188-4.656,0.781l-46.562,19.125c-0.25,0.109-0.484,0.219-0.719,0.344
			c-0.078,0.031-0.156,0.062-0.219,0.109c-0.188,0.109-0.375,0.203-0.562,0.328c-0.094,0.062-0.188,0.125-0.281,0.188
			c-0.156,0.094-0.312,0.188-0.469,0.312c-0.094,0.062-0.188,0.125-0.281,0.219c-0.156,0.125-0.328,0.25-0.484,0.406
			c-0.078,0.062-0.156,0.125-0.234,0.188c-0.188,0.188-0.375,0.375-0.562,0.578c-0.062,0.078-0.141,0.172-0.219,0.25
			c-0.125,0.156-0.25,0.312-0.375,0.484c-0.062,0.078-0.125,0.156-0.188,0.25c-0.188,0.234-0.344,0.5-0.5,0.75l-13.344,22.375
			l18.906-141.812c0.016-0.016,0.016-0.039,0.016-0.055c0.047-0.336,0.078-0.672,0.078-1.008c0-0.07,0-0.133,0-0.211
			c0-0.297,0-0.602-0.031-0.906c0-0.039,0-0.086,0-0.133c-0.031-0.328-0.062-0.656-0.125-0.977
			c-0.031-0.078-0.031-0.156-0.047-0.227c-0.078-0.32-0.141-0.633-0.234-0.945c0-0.016,0-0.023,0-0.031
			c-0.109-0.32-0.219-0.641-0.344-0.945c-0.031-0.07-0.062-0.148-0.094-0.219c-0.125-0.305-0.281-0.609-0.438-0.898
			c-0.016-0.016-0.031-0.031-0.031-0.047c-0.156-0.281-0.328-0.547-0.5-0.812c-0.062-0.07-0.094-0.141-0.156-0.211
			c-0.031-0.062-0.078-0.125-0.125-0.18l-64-85.335c-0.016-0.023-0.039-0.047-0.055-0.07c-0.094-0.125-0.195-0.242-0.297-0.359
			c-0.117-0.141-0.234-0.281-0.359-0.414c-0.094-0.109-0.203-0.211-0.305-0.312c-0.133-0.133-0.266-0.266-0.406-0.391
			c-0.109-0.094-0.219-0.188-0.336-0.281c-0.141-0.117-0.289-0.234-0.438-0.344c-0.117-0.094-0.242-0.18-0.375-0.258
			c-0.141-0.102-0.289-0.195-0.438-0.289c-0.141-0.086-0.281-0.164-0.422-0.242c-0.148-0.078-0.297-0.156-0.445-0.227
			c-0.148-0.071-0.297-0.141-0.453-0.211c-0.156-0.062-0.312-0.125-0.477-0.188c-0.148-0.055-0.297-0.109-0.453-0.156
			c-0.188-0.062-0.375-0.109-0.562-0.164c-0.133-0.031-0.258-0.07-0.398-0.102c-0.312-0.07-0.633-0.125-0.953-0.172
			c-0.016,0-0.023,0-0.039,0c-0.336-0.047-0.672-0.07-1.008-0.078c-0.141-0.008-0.281,0-0.414,0c-0.195,0-0.391,0.008-0.586,0.016
			c-0.164,0.016-0.336,0.031-0.5,0.055c-0.156,0.016-0.32,0.031-0.477,0.055c-0.18,0.031-0.359,0.062-0.539,0.102
			c-0.141,0.031-0.281,0.062-0.43,0.102c-0.18,0.047-0.359,0.094-0.539,0.156c-0.133,0.039-0.273,0.086-0.406,0.133
			c-0.18,0.062-0.359,0.133-0.531,0.203c-0.133,0.055-0.258,0.117-0.391,0.18c-0.172,0.078-0.344,0.164-0.516,0.25
			c-0.047,0.023-0.094,0.047-0.141,0.07l-42.671,23.586c-1.438,0.797-2.68,1.914-3.617,3.266l-42.664,61.757
			c-0.18,0.266-0.344,0.531-0.5,0.812c-0.039,0.062-0.078,0.133-0.117,0.203c-0.156,0.297-0.305,0.594-0.438,0.898v0.008
			c-0.133,0.305-0.242,0.625-0.344,0.945c-0.016,0.07-0.039,0.141-0.062,0.211c-0.094,0.32-0.172,0.641-0.234,0.969
			c-0.008,0.039-0.016,0.078-0.023,0.117c-0.055,0.297-0.094,0.602-0.117,0.906c-0.008,0.062-0.016,0.133-0.023,0.203
			c-0.023,0.328-0.031,0.656-0.023,0.984c0,0.062,0,0.125,0.008,0.195c0.008,0.312,0.031,0.625,0.07,0.938
			c0.008,0.031,0.008,0.055,0.008,0.078l0.016,0.094l18.883,141.671l-13.297-22.328c-0.156-0.25-0.328-0.516-0.508-0.766
			c-0.062-0.078-0.117-0.156-0.18-0.234c-0.125-0.156-0.258-0.328-0.398-0.5c-0.062-0.062-0.133-0.156-0.203-0.219
			c-0.188-0.219-0.383-0.406-0.586-0.609c-0.062-0.047-0.133-0.109-0.195-0.172c-0.164-0.141-0.328-0.281-0.5-0.406
			c-0.094-0.094-0.188-0.156-0.281-0.219c-0.148-0.125-0.305-0.219-0.461-0.312c-0.094-0.062-0.195-0.125-0.289-0.188
			c-0.188-0.125-0.375-0.219-0.57-0.328c-0.07-0.047-0.133-0.078-0.203-0.109c-0.242-0.125-0.484-0.234-0.734-0.344l-46.562-19.125
			c-1.477-0.594-3.062-0.875-4.656-0.781l-31.961,1.797c-0.281,0.016-0.555,0.047-0.836,0.078c-0.094,0.031-0.195,0.031-0.297,0.062
			c-0.258,0.031-0.523,0.094-0.781,0.156c-0.125,0.031-0.258,0.062-0.383,0.094c-0.188,0.062-0.375,0.109-0.555,0.172
			c-0.141,0.047-0.281,0.109-0.414,0.156c-0.172,0.078-0.336,0.141-0.5,0.203c-0.141,0.062-0.273,0.125-0.414,0.203
			c-0.156,0.078-0.32,0.172-0.469,0.25c-0.133,0.078-0.258,0.141-0.391,0.234c-0.164,0.094-0.32,0.203-0.484,0.312
			c-0.109,0.094-0.219,0.156-0.328,0.25c-0.195,0.141-0.375,0.281-0.562,0.453c-0.055,0.047-0.117,0.094-0.172,0.141
			c-0.016,0.016-0.023,0.031-0.039,0.031c-0.242,0.234-0.477,0.469-0.703,0.719c-0.07,0.078-0.133,0.156-0.203,0.25
			c-0.141,0.156-0.281,0.344-0.422,0.5c-0.086,0.125-0.164,0.25-0.25,0.375c-0.102,0.156-0.203,0.297-0.297,0.453
			c-0.078,0.141-0.156,0.266-0.234,0.406s-0.164,0.297-0.234,0.453c-0.07,0.141-0.141,0.281-0.203,0.438
			c-0.07,0.156-0.133,0.312-0.195,0.469c-0.055,0.156-0.109,0.281-0.156,0.438c-0.055,0.172-0.102,0.344-0.148,0.531
			c-0.039,0.125-0.086,0.281-0.117,0.406c-0.039,0.188-0.07,0.375-0.109,0.562c-0.023,0.141-0.055,0.281-0.07,0.406
			c0,0.031-0.008,0.062-0.008,0.078l-7.812,60.234c0,0.016,0,0.031-0.008,0.062c-0.016,0.188-0.039,0.375-0.047,0.562
			c-0.008,0.031-0.008,0.078-0.016,0.125c-0.008,0.219-0.016,0.438-0.016,0.672c0,0.078,0.008,0.141,0.008,0.203
			c0,0.156,0.008,0.312,0.016,0.469c0.008,0.094,0.016,0.188,0.023,0.266c0.016,0.141,0.031,0.266,0.047,0.422
			c0.016,0.094,0.031,0.172,0.039,0.266c0.023,0.141,0.047,0.266,0.07,0.391c0.023,0.094,0.039,0.188,0.062,0.281
			c0.031,0.125,0.062,0.266,0.102,0.406c0.016,0.062,0.039,0.156,0.062,0.234c0.047,0.156,0.094,0.312,0.148,0.453
			c0.023,0.062,0.039,0.125,0.055,0.188c0.078,0.203,0.164,0.406,0.25,0.625c0.016,0.031,0.039,0.062,0.055,0.109
			c0.07,0.172,0.148,0.328,0.234,0.484c0.031,0.078,0.07,0.141,0.109,0.219c0.07,0.125,0.141,0.25,0.211,0.375
			c0.047,0.078,0.094,0.156,0.141,0.219c0.07,0.125,0.148,0.234,0.227,0.344c0.055,0.078,0.102,0.156,0.156,0.234
			c0.078,0.109,0.164,0.203,0.242,0.328c0.062,0.062,0.117,0.141,0.18,0.219c0.086,0.094,0.172,0.188,0.266,0.297
			c0.062,0.078,0.117,0.141,0.18,0.203c0.016,0.031,0.031,0.031,0.047,0.062l143.133,150.779c0.25,0.25,0.508,0.5,0.789,0.75
			c0.062,0.031,0.125,0.094,0.188,0.156c0.203,0.156,0.406,0.312,0.617,0.469c0.102,0.062,0.203,0.125,0.312,0.188
			c0.18,0.125,0.367,0.25,0.555,0.344c0.117,0.062,0.227,0.125,0.344,0.188c0.195,0.125,0.391,0.219,0.586,0.281
			c0.117,0.062,0.227,0.125,0.344,0.156c0.211,0.094,0.43,0.156,0.648,0.25c0.102,0.031,0.203,0.062,0.305,0.094
			c0.242,0.062,0.492,0.125,0.734,0.188c0.086,0.031,0.172,0.031,0.258,0.062c0.281,0.062,0.562,0.094,0.844,0.125
			c0.062,0,0.117,0.031,0.18,0.031c0.344,0.031,0.688,0.031,1.038,0.031h64.008c0.062,0,0.141,0,0.219,0c0.25,0,0.531,0,0.797-0.031
			c0.172-0.031,0.328-0.062,0.5-0.062c0.172-0.031,0.328-0.062,0.484-0.094c0.203-0.031,0.406-0.094,0.594-0.125
			c0.125-0.031,0.25-0.062,0.375-0.094c0.219-0.062,0.422-0.156,0.641-0.219c0.078-0.031,0.172-0.062,0.266-0.094
			c0.234-0.094,0.469-0.188,0.688-0.312c0.062-0.031,0.125-0.062,0.188-0.094c0.25-0.094,0.469-0.25,0.719-0.375
			c0.031-0.031,0.047-0.031,0.078-0.062c0.797-0.469,1.531-1.062,2.203-1.75l143.124-150.779c0.031-0.031,0.031-0.031,0.062-0.062
			c0.062-0.062,0.109-0.125,0.156-0.188c0.109-0.109,0.203-0.219,0.281-0.328c0.062-0.062,0.125-0.141,0.172-0.203
			c0.078-0.109,0.172-0.219,0.25-0.344c0.047-0.062,0.109-0.125,0.156-0.219c0.078-0.109,0.156-0.219,0.234-0.344
			c0.031-0.062,0.094-0.141,0.125-0.219c0.078-0.125,0.156-0.25,0.219-0.406c0.031-0.062,0.078-0.125,0.109-0.188
			c0.078-0.156,0.172-0.344,0.25-0.5c0.016-0.031,0.016-0.062,0.047-0.094c0.078-0.219,0.156-0.422,0.25-0.625
			c0-0.062,0.031-0.109,0.031-0.156c0.062-0.156,0.125-0.312,0.156-0.484c0.031-0.078,0.062-0.156,0.062-0.234
			c0.047-0.141,0.094-0.281,0.125-0.406c0-0.094,0.031-0.188,0.047-0.281c0.016-0.125,0.047-0.25,0.078-0.406
			c0-0.078,0.016-0.156,0.031-0.25c0.016-0.156,0.031-0.281,0.047-0.422c0.016-0.078,0.016-0.172,0.016-0.266
			c0.016-0.156,0.031-0.312,0.031-0.469c0-0.062,0-0.125,0-0.203C431.153,345.033,431.153,344.814,431.138,344.596z
			 M186.155,372.878l6.047,45.341l-63.016-90.404l23.242-11.562L186.155,372.878z M108.155,293.971l22.547,9.25l-14.883,7.406
			l-14.82-16.25L108.155,293.971z M83.342,326.768l2.282-17.594l10.328,11.328l-9.93,4.938L83.342,326.768z M87.874,348.346
			l11.359-5.657l10.641-5.281l88.477,126.936l0.055,0.438L87.874,348.346z M234.663,485.343h-11.992l-39.82-298.677h51.812V485.343z
			 M235.913,165.338H191l29.686-42.968l22.125-12.227L235.913,165.338z M382.529,293.971l7.155,0.406l-14.812,16.25l-14.891-7.406
			L382.529,293.971z M338.264,316.252l23.234,11.562l-63.031,90.404l6.031-45.295L338.264,316.252z M263.31,118.19l35.344,47.148
			h-41.242L263.31,118.19z M267.99,485.343h-11.992V186.666h51.812L267.99,485.343z M292.248,464.812l0.062-0.468l88.5-126.936
			l10.64,5.281l11.359,5.656L292.248,464.812z M405.622,325.908l-10.891-5.406l10.328-11.328l2.281,17.594L405.622,325.908z"/>
	</g>
</g>
<g>
</g>
<g>
</g>
<g>
</g>
<g>
</g>
<g>
</g>
<g>
</g>
<g>
</g>
<g>
</g>
<g>
</g>
<g>
</g>
<g>
</g>
<g>
</g>
<g>
</g>
<g>
</g>
<g>
</g>
</svg>
