<?xml version="1.0" encoding="iso-8859-1"?>
<!-- Generator: Adobe Illustrator 18.1.1, SVG Export Plug-In . SVG Version: 6.00 Build 0)  -->
<svg version="1.1" id="Capa_1" xmlns="http://www.w3.org/2000/svg" xmlns:xlink="http://www.w3.org/1999/xlink" x="0px" y="0px"
	 viewBox="0 0 366.79 366.79" style="enable-background:new 0 0 366.79 366.79;" xml:space="preserve">
<g>
	<g id="Layer_5_38_">
		<path d="M331.82,63.705c1.444,3.582-0.534,6.512-4.395,6.512H39.364c-3.861,0-5.92-2.961-4.575-6.58L55.981,6.581
			C57.326,2.962,61.585,0,65.445,0h233.676c3.861,0,8.201,2.929,9.646,6.51L331.82,63.705z"/>
		<path d="M32.344,106.039c0,14.053,11.392,25.444,25.445,25.444c10.579,0,19.647-6.455,23.484-15.642
			c0.761-1.821,2.52-1.795,3.288,0.038c3.846,9.167,12.906,15.604,23.469,15.604c10.609,0,19.701-6.494,23.52-15.724
			c0.742-1.796,2.419-1.94,3.12-0.203c3.768,9.337,12.915,15.927,23.603,15.927c10.687,0,19.832-6.588,23.6-15.926
			c0.701-1.737,2.341-1.737,3.042,0c3.769,9.338,12.915,15.926,23.601,15.926c10.687,0,19.833-6.588,23.6-15.926
			c0.703-1.737,2.34-1.737,3.039,0c3.769,9.337,12.916,15.927,23.604,15.927c10.688,0,19.834-6.588,23.602-15.926
			c0.699-1.737,2.339-1.737,3.038,0c3.769,9.337,12.914,15.927,23.603,15.927c14.053,0,25.445-11.392,25.445-25.444V95.285
			c0,0,0-5.021-5.302-5.021c-72.441,0-215.995,0-289.76,0c-7.04,0-7.04,5.219-7.04,5.219L32.344,106.039z"/>
		<path d="M327.065,342.699c0-0.005,0.001-0.009,0.001-0.013V241.792c0-6.12-5.009-11.128-11.127-11.128H50.851
			c-6.12,0-11.128,5.008-11.128,11.128v100.894c0,0.658,0,3.59,0,4.445c0,10.858,8.802,19.659,19.659,19.659
			c7.443,0,13.904-4.144,17.237-10.247c0.476-0.873,0.818-2.729,5.548-2.729h202.764c4.451,0,5.272,1.833,5.74,2.693
			c3.327,6.122,9.799,10.283,17.256,10.283c10.857,0,19.14-8.801,19.14-19.659C327.067,345.605,327.065,345.217,327.065,342.699z"/>
		<path d="M91.226,148.782c-0.133-1.813-1.642-3.258-3.485-3.258H77.602c-1.931,0-3.51,1.579-3.51,3.51v0.046v58.106v0.046
			c0,1.932,1.58,3.51,3.51,3.51h10.139c1.844,0,3.353-1.445,3.485-3.258c0.009-0.03,0.025-0.06,0.025-0.091v-0.161v-58.199v-0.161
			C91.251,148.841,91.235,148.812,91.226,148.782z"/>
		<path d="M293.63,148.782c-0.133-1.813-1.642-3.258-3.485-3.258h-10.139c-1.932,0-3.511,1.579-3.511,3.51v0.046v58.106v0.046
			c0,1.932,1.579,3.51,3.511,3.51h10.139c1.844,0,3.353-1.445,3.485-3.258c0.009-0.03,0.025-0.06,0.025-0.091v-0.161v-58.199v-0.161
			C293.656,148.841,293.638,148.812,293.63,148.782z"/>
	</g>
</g>
<g>
</g>
<g>
</g>
<g>
</g>
<g>
</g>
<g>
</g>
<g>
</g>
<g>
</g>
<g>
</g>
<g>
</g>
<g>
</g>
<g>
</g>
<g>
</g>
<g>
</g>
<g>
</g>
<g>
</g>
</svg>
