<?xml version="1.0" encoding="utf-8"?>
<!-- Svg Vector Icons : http://www.onlinewebfonts.com/icon -->
<!DOCTYPE svg PUBLIC "-//W3C//DTD SVG 1.1//EN" "http://www.w3.org/Graphics/SVG/1.1/DTD/svg11.dtd">
<svg version="1.1" xmlns="http://www.w3.org/2000/svg" xmlns:xlink="http://www.w3.org/1999/xlink" x="0px" y="0px" viewBox="0 0 1000 1000" enable-background="new 0 0 1000 1000" xml:space="preserve">
<metadata> Svg Vector Icons : http://www.onlinewebfonts.com/icon </metadata>
<g><g transform="translate(0.000000,511.000000) scale(0.100000,-0.100000)"><path d="M4567.5,4990.3C2800,4824,1260.9,3597.6,695.3,1905.4c-122-359.3-192.9-718.5-224-1126.6c-24.4-314.9-22.2-350.4,13.3-425.8c71-148.6,232.9-208.5,374.8-139.7c133.1,62.1,155.2,119.7,175.2,439.1c20,363.7,71,652,164.1,960.3c383.7,1275.2,1381.7,2273.2,2656.9,2656.9c416.9,126.4,632.1,155.2,1144.4,155.2c512.3,0,727.4-28.8,1144.4-155.2c1273-383.7,2273.2-1383.9,2656.9-2656.9c93.1-308.3,144.2-596.6,164.1-960.3c20-319.4,42.1-377,175.2-439.1c141.9-68.8,303.8-8.9,374.8,139.7c35.5,75.4,37.7,110.9,13.3,414.7c-57.7,749.6-252.8,1381.7-612.1,1993.8C8020.6,4282.8,6321.8,5154.4,4567.5,4990.3z"/><path d="M4802.6,2151.6c-283.9-55.4-570-277.2-689.7-536.7c-168.5-357.1-133.1-716.3,99.8-1033.5l99.8-133.1l-472.4-239.5L3370-30.7L2835.5-1093L2301-2155.3l-698.6-350.4c-738.5-370.3-767.3-390.3-787.3-550c-17.7-153,128.6-312.7,286.1-312.7c35.5,0,394.8,168.5,842.7,394.8l782.9,392.5l390.3,776.2l392.5,776.2l33.3-110.9c17.7-62.1,135.3-474.6,261.7-918.1c248.4-869.4,266.1-911.5,419.2-944.8c150.8-33.3,317.1,73.2,343.8,217.3c11.1,55.4-68.8,359.3-317.1,1230.9L3917.7-394.4l541.1,270.5L5000,146.7l541.1-270.6l541.1-270.5l-332.7-1159.9c-248.4-871.6-328.2-1175.4-317.1-1230.9c26.6-144.2,193-250.6,343.8-217.3c153,33.3,170.8,75.4,419.2,944.8c126.4,443.6,244,856,261.7,918.1l33.3,110.9l392.5-776.2l390.3-776.2l782.9-394.8c448-224,807.3-392.5,842.7-392.5c157.5,0,303.8,159.7,286.1,312.7c-20,159.7-48.8,179.6-787.3,550L7699-2155.3L7164.5-1093L6630.1-30.7l-470.2,239.5l-472.4,239.5l99.8,133.1c53.2,73.2,117.5,186.3,141.9,250.6C6197.6,1552.8,5561.1,2300.2,4802.6,2151.6z M5239.5,1528.4c261.7-175.2,232.9-589.9-51-727.4c-135.3-66.5-303.8-55.4-428,28.8c-257.3,168.6-232.9,583.3,44.4,723C4935.7,1619.3,5115.3,1608.2,5239.5,1528.4z"/><path d="M1320.7-3541.4c-82.1-44.4-157.5-161.9-157.5-244c0-77.6,62.1-197.4,124.2-237.3c33.3-22.2,802.8-186.3,1885.1-401.4L5000-4790l1827.5,365.9c1082.3,215.1,1851.8,379.2,1885.1,401.4c28.8,20,70.9,71,90.9,115.3c68.8,141.9,8.9,303.8-139.7,374.8l-82.1,40l-1796.4-359.3L4988.9-4209l-1763.1,352.6c-969.2,195.2-1778.6,354.8-1796.4,354.8S1360.7-3519.2,1320.7-3541.4z"/></g></g>
</svg>