<?xml version="1.0" encoding="utf-8"?>
<!-- Svg Vector Icons : http://www.onlinewebfonts.com/icon -->
<!DOCTYPE svg PUBLIC "-//W3C//DTD SVG 1.1//EN" "http://www.w3.org/Graphics/SVG/1.1/DTD/svg11.dtd">
<svg version="1.1" xmlns="http://www.w3.org/2000/svg" xmlns:xlink="http://www.w3.org/1999/xlink" x="0px" y="0px" viewBox="0 0 1000 1000" enable-background="new 0 0 1000 1000" xml:space="preserve">
<metadata> Svg Vector Icons : http://www.onlinewebfonts.com/icon </metadata>
<g><g transform="translate(0.000000,511.000000) scale(0.100000,-0.100000)"><path d="M8952,4998.1c-81-32.9-94.2-92-94.2-442.4v-335.1l-175.2-175.2l-175.2-175.2v168.6c0,210.2-37.2,269.4-175.2,269.4c-70.1,0-102.9-13.1-133.6-52.6c-37.2-46-41.6-89.8-41.6-394.2v-341.7l-332.9-332.9L7489,2854l-142.4,120.5c-359.2,306.6-935.2,628.6-1401.7,784.1c-891.4,295.7-1892.2,271.6-2766.1-65.7C1764.1,3149.7,747.8,1901.3,498.2,407.7c-52.6-321.9-52.6-979,2.2-1290c105.1-617.6,313.2-1143.2,648.3-1649.2l151.1-227.8L704-3648.4c-392-586.9-595.7-915.5-602.3-961.5c-6.6-52.5,4.4-83.2,48.2-124.8l54.8-56.9h538.8c332.9,0,556.3,8.8,582.6,21.9c24.1,13.1,221.2,273.8,438,580.4c219,306.6,400.8,558.5,409.5,558.5c6.6,0,100.7-56.9,210.2-129.2c1395.1-902.3,3142.8-902.3,4535.7,0c177.4,113.9,214.6,131.4,238.7,105.1c15.3-17.5,197.1-269.4,403-560.7c208.1-291.3,396.4-541,418.3-554.1c26.3-13.1,254-21.9,582.6-21.9h538.8l54.8,56.9c43.8,41.6,54.8,72.3,48.2,124.8c-6.6,46-210.2,374.5-602.3,961.5l-595.7,889.2l144.6,216.8c821.3,1222.1,930.8,2772.7,289.1,4102.1c-144.6,300-385.5,674.5-576,897.9L7743,2600l332.9,335.1l332.9,332.9h335.1c184,0,352.6,8.8,374.5,21.9c67.9,35,100.7,142.4,67.9,219c-37.2,92-81,109.5-267.2,109.5h-159.9l175.2,175.2l175.2,175.2h335.1c184,0,352.6,8.8,374.5,21.9c21.9,10.9,52.5,50.4,67.9,87.6c32.9,76.7,0,184-67.9,219c-21.9,13.1-166.5,21.9-324.2,21.9h-286.9v293.5c0,247.5-6.6,300-37.2,339.5C9125,5004.7,9022.1,5028.8,8952,4998.1z M5287.9,3568c678.9-118.3,1314.1-403,1822.2-821.3l151.1-122.6L6880.1,2243L6499,1864.1l-184,138c-322,243.1-729.3,427.1-1143.2,514.7c-249.7,54.8-790.6,52.6-1044.7,0c-880.4-188.3-1598.8-749-1995.2-1559.4c-385.5-788.4-374.5-1655.7,30.7-2450.7c392-768.7,1108.2-1311.9,1971.1-1495.8c247.5-52.5,790.6-52.5,1038.1,0C6319.5-2743.9,7188.9-1863.5,7414.5-718c37.2,184,37.2,779.7,0,963.6c-81,407.4-280.3,858.5-523.4,1180.5l-138,184l378.9,381.1l381.1,381.1l122.7-151.1c643.9-781.9,952.7-1822.2,849.8-2853.7c-133.6-1320.7-917.7-2461.7-2091.6-3048.6c-1086.3-541-2396-543.1-3473.5-2.2C1792.5-3120.6,1045.7-2089.1,839.8-816.6c-37.2,227.8-37.2,933,0,1160.8c177.4,1103.8,764.3,2028,1666.7,2632.5c444.6,297.8,1049.1,527.8,1565.9,595.7c96.4,13.1,205.9,28.5,240.9,32.9C4444.7,3624.9,5106.2,3598.7,5287.9,3568z M5167.5,2164.1c230-50.4,455.5-131.4,657-240.9c175.2-92,427.1-267.2,427.1-295.7c0-6.6-168.6-181.8-376.7-389.8L5500.4,861l-67.9,52.6c-113.9,83.2-293.5,164.3-468.7,210.2c-455.6,116.1-924.2-24.1-1285.6-385.5c-567.2-567.2-567.2-1381.9,0-1949.2c350.4-352.6,788.4-490.6,1248.4-394.2c400.8,83.2,788.4,385.5,972.4,755.6c148.9,302.2,186.2,580.4,122.6,884.8c-35,164.2-135.8,398.6-219,508.1l-52.5,67.9l383.3,381.1l383.3,381.1l54.8-65.7c413.9-501.5,606.7-1233,501.5-1918.5c-221.2-1474-1668.9-2391.6-3118.7-1977.7c-880.4,251.9-1513.4,946.1-1714.9,1881.3c-37.2,173-37.2,770.9,0,941.7c197.1,908.9,790.6,1583.4,1636,1857.2c96.4,30.7,234.3,67.9,306.6,78.8c72.3,13.1,155.5,28.5,186.2,32.9C4482,2223.3,5020.7,2197,5167.5,2164.1z M4874,793.1c65.7-13.1,181.8-52.6,258.4-89.8l142.4-65.7L4968.2,331L4663.8,26.6l-11,177.4c-8.8,153.3-17.5,181.8-63.5,219c-59.1,48.2-116.1,52.6-184,15.3c-96.4-50.4-100.7-74.5-102.9-505.9c0-411.7,0-411.7,54.8-466.5l54.8-54.8l418.3,6.6l418.3,6.6l52.6,61.3c63.5,74.5,67.9,146.7,10.9,214.6c-37.2,46-65.7,54.7-219,63.5l-177.4,11L5220,79.2l304.4,304.4l57-111.7C5796-153,5712.8-691.8,5384.3-1002.8C4885-1475.8,4015.5-1333.5,3722-731.2C3319,90.1,3980.4,961.8,4874,793.1z M1875.8-3422.8c-8.8-15.3-173-249.7-365.8-521.2l-350.4-495l-280.3-2.2H601.1l464.3,698.7l466.5,700.8l179.6-177.4C1821-3328.7,1884.5-3407.5,1875.8-3422.8z M8242.4-3744.8l462.1-696.4h-278.2l-280.3,2.2l-367.9,516.9l-367.9,519.1l181.8,181.8c98.6,98.6,181.8,177.4,184,175.2C7778.1-3048.3,7986.1-3363.7,8242.4-3744.8z"/></g></g>
</svg>