<?xml version="1.0" encoding="iso-8859-1"?>
<!-- Generator: Adobe Illustrator 19.0.0, SVG Export Plug-In . SVG Version: 6.00 Build 0)  -->
<svg version="1.1" id="Layer_1" xmlns="http://www.w3.org/2000/svg" xmlns:xlink="http://www.w3.org/1999/xlink" x="0px" y="0px"
	 viewBox="0 0 512 512" style="enable-background:new 0 0 512 512;" xml:space="preserve">
<g>
	<g>
		<path d="M488.727,372.364h-7.758v-69.818c0-12.853-10.42-23.273-23.273-23.273h-7.758v-69.818
			c0-12.853-10.42-23.273-23.273-23.273h-93.428c5.382-12.702,8.094-27.74,8.094-44.994c0-58.885-61.325-126.299-68.318-133.793
			C268.612,2.678,262.451,0,256,0c-6.451,0-12.612,2.678-17.015,7.395c-6.993,7.494-68.318,74.909-68.318,133.793
			c0,17.254,2.712,32.292,8.094,44.994H85.333c-12.853,0-23.273,10.42-23.273,23.273v69.818h-7.758
			c-12.853,0-23.273,10.42-23.273,23.273v69.818h-7.758C10.42,372.364,0,382.784,0,395.636v93.091C0,501.58,10.42,512,23.273,512
			h465.455C501.58,512,512,501.58,512,488.727v-93.091C512,382.784,501.58,372.364,488.727,372.364z M255.998,59.51
			c18.981,24.902,38.789,58.377,38.789,81.678c0,39.542-18.643,44.994-38.788,44.994c-20.145,0-38.788-5.452-38.788-44.994
			C217.212,117.886,237.023,84.407,255.998,59.51z M108.606,232.727h294.788v46.545H108.606V232.727z M77.576,325.818h7.758h341.333
			h7.758v46.545H77.576V325.818z M465.455,465.455H46.545v-46.545h7.758h403.394h7.758V465.455z"/>
	</g>
</g>
<g>
</g>
<g>
</g>
<g>
</g>
<g>
</g>
<g>
</g>
<g>
</g>
<g>
</g>
<g>
</g>
<g>
</g>
<g>
</g>
<g>
</g>
<g>
</g>
<g>
</g>
<g>
</g>
<g>
</g>
</svg>
