<?xml version="1.0" encoding="iso-8859-1"?>
<!-- Generator: Adobe Illustrator 19.0.0, SVG Export Plug-In . SVG Version: 6.00 Build 0)  -->
<svg version="1.1" id="Layer_1" xmlns="http://www.w3.org/2000/svg" xmlns:xlink="http://www.w3.org/1999/xlink" x="0px" y="0px"
	 viewBox="0 0 503.607 503.607" style="enable-background:new 0 0 503.607 503.607;" xml:space="preserve">
<g>
	<g>
		<g>
			<rect x="100.721" y="310.557" width="58.754" height="25.18"/>
			<rect x="344.131" y="310.557" width="58.754" height="25.18"/>
			<path d="M495.213,0c-4.633,0-8.393,3.76-8.393,8.393c0,18.516-15.058,33.574-33.574,33.574c-0.134,0-0.252,0.067-0.386,0.076
				c-0.126,0.008-0.243-0.05-0.369-0.042C338.029,52.35,149.554,54.851,51.443,42.034c-0.176-0.017-0.344,0.059-0.52,0.05
				c-0.193-0.017-0.361-0.117-0.562-0.117c-18.516,0-33.574-15.058-33.574-33.574C16.787,3.76,13.027,0,8.393,0S0,3.76,0,8.393
				c0,25.13,18.524,45.962,42.622,49.706c3.744,24.098,24.576,42.622,49.706,42.622h8.393v41.967H83.934
				c-4.633,0-8.393,3.76-8.393,8.393v41.967c0,4.633,3.76,8.393,8.393,8.393h16.787v92.328h58.754v-92.328h184.656v92.328h58.754
				v-92.328h16.787c4.633,0,8.393-3.76,8.393-8.393v-41.967c0-4.633-3.76-8.393-8.393-8.393h-16.787v-41.967h8.393
				c25.13,0,45.963-18.524,49.706-42.622c24.098-3.744,42.622-24.576,42.622-49.706C503.607,3.76,499.846,0,495.213,0z
				 M411.279,83.934h-16.787h-41.967h-67.148h-67.148h-67.148h-41.967H92.328c-15.167,0-28.009-10.106-32.164-23.93
				c98.589,11.088,271.528,8.931,383.387-0.378C439.523,73.644,426.58,83.934,411.279,83.934z"/>
			<path d="M218.229,352.525c-4.633,0-8.393,3.76-8.393,8.393v33.574h-50.361v-41.967h-58.754v41.967H50.361v-67.148
				c0-4.633-3.76-8.393-8.393-8.393s-8.393,3.76-8.393,8.393v167.869c0,4.633,3.76,8.393,8.393,8.393s8.393-3.76,8.393-8.393
				v-83.934h50.361v44.225c-14.764,5.212-25.18,19.339-25.18,35.404c0,7,5.699,12.699,12.699,12.699h83.716
				c7,0,12.699-5.699,12.699-12.699c0-16.065-10.416-30.191-25.18-35.404v-44.225h50.361v83.934c0,4.633,3.76,8.393,8.393,8.393
				s8.393-3.76,8.393-8.393V360.918C226.623,356.285,222.863,352.525,218.229,352.525z"/>
			<path d="M461.639,318.951c-4.633,0-8.393,3.76-8.393,8.393v67.148h-50.361v-41.967h-58.754v41.967h-50.361v-33.574
				c0-4.633-3.76-8.393-8.393-8.393c-4.633,0-8.393,3.76-8.393,8.393v134.295c0,4.633,3.76,8.393,8.393,8.393
				c4.633,0,8.393-3.76,8.393-8.393v-83.934h50.361v44.225c-14.764,5.212-25.18,19.339-25.18,35.404c0,7,5.699,12.699,12.699,12.699
				h83.716c7,0,12.699-5.699,12.699-12.699c0-16.065-10.416-30.191-25.18-35.404v-44.225h50.361v83.934
				c0,4.633,3.76,8.393,8.393,8.393s8.393-3.76,8.393-8.393V327.344C470.033,322.711,466.273,318.951,461.639,318.951z"/>
		</g>
	</g>
</g>
<g>
</g>
<g>
</g>
<g>
</g>
<g>
</g>
<g>
</g>
<g>
</g>
<g>
</g>
<g>
</g>
<g>
</g>
<g>
</g>
<g>
</g>
<g>
</g>
<g>
</g>
<g>
</g>
<g>
</g>
</svg>
