<?xml version="1.0" encoding="utf-8"?>
<!-- Generated by IcoMoon.io -->
<!DOCTYPE svg PUBLIC "-//W3C//DTD SVG 1.1//EN" "http://www.w3.org/Graphics/SVG/1.1/DTD/svg11.dtd">
<svg version="1.1" xmlns="http://www.w3.org/2000/svg" xmlns:xlink="http://www.w3.org/1999/xlink" width="512" height="512" viewBox="0 0 512 512">
<g>
</g>
	<path d="M7029.965 37002.681c0 15.394-12.48 27.874-27.873 27.874-15.394 0-27.873-12.48-27.873-27.874 0-15.394 12.48-27.874 27.873-27.874 15.394 0 27.873 12.48 27.873 27.874z" fill="#000000" />
	<path d="M6832.282 37085.624l-1.218 0.215-1.177 0.563z" fill="#000000" />
	<path d="M6870.681 37069.957l-0.051-0.502c-0.113-0.942-0.072-1.863-0.041-2.775l-39.526 19.149 1.218-0.215-2.386 0.778 1.167-0.563-20.89 3.645 30.966 5.56 34.498-12.165-4.792-12.462-0.164-0.45z" fill="#000000" />
	<path d="M6844.068 37101.056l-2.233-0.399-2.099 0.707z" fill="#000000" />
	<path d="M6877.44 37088.921l-35.605 11.735 2.233 0.399-4.332 0.297 2.099-0.696-72.212-12.861-2.663 1.382-26.276 23.327 29.757-6.533-0.973-0.185 5.611-0.84-4.639 1.024 72.704 12.944 2.15-0.696 47.626-15.719c-3.123-0.717-6.073-2.038-8.663-4.065-3.175-2.519-5.448-5.817-6.82-9.513z" fill="#000000" />
	<path d="M6769.48 37105.797l0.973 0.185 4.639-1.024z" fill="#000000" />
	<path d="M6878.535 37067.366c0 0.297-0.113 0.573-0.092 0.912l4.598 11.981 1.813-0.645-6.318-12.247z" fill="#000000" />
	<path d="M6885.079 37086.402c0.87 2.253 2.119 4.321 4.065 5.857 2.898 2.304 6.502 3.318 10.168 2.898 0 0 2.498-0.297 6.38-0.738l-4.403-13.363-16.21 5.346z" fill="#000000" />
	<path d="M6997.391 37038.622h-0.092l0.020 0.082z" fill="#000000" />
	<path d="M6876.16 37083.904c0.041 0.256 0.133 0.522 0.174 0.778l0.072 0.185-0.246-0.963z" fill="#000000" />
	<path d="M6978.887 37030.635l0.123 0.020 0.409-0.103z" fill="#000000" />
	<path d="M6878.434 37068.575c-0.020-0.113 0.020-0.215 0.020-0.287l-0.246-0.676 0.225 0.963z" fill="#000000" />
	<path d="M7061.985 37029.868l-63.815 12.585-24.167 5.264c5.427 6.082 18.473 16.589 31.181 29.122l60.877-32.082 184.709 7.004 2.078-11.315-190.864-10.578z" fill="#000000" />
	<path d="M7081.626 37082.696l-6.451-4.188-5.52 5.468z" fill="#000000" />
	<path d="M7102.331 37051.556l-27.157 26.952 6.451 4.188-11.971 1.28 5.52-5.468-27.648-17.838-19.671 10.086 49.89 32.226 5.499-5.478 43.12-44.964z" fill="#000000" />
	<path d="M7029.637 37089.065l-5.673-4.649-6.492 5.223z" fill="#000000" />
	<path d="M7066.736 37050.204l-42.773 34.212 5.673 4.649-12.165 0.573 6.492-5.223-8.766-7.137-10.834 5.56-3.4-2.704-34.97-33.26-8.468 11.796 66.959 50.463 5.878-5.315 58.675-52.9z" fill="#000000" />
	<path d="M6970.43 37040.702l-3.789 5.274 7.711-2.079z" fill="#000000" />
	<path d="M6965.412 37046.302l0.583 0.573 0.645-0.901z" fill="#000000" />
	<path d="M6966.641 37045.975l7.711-2.079c0 0 16.773-3.881 18.821-4.423-2.222-5.683-7.824-9.503-14.162-8.817l-88.412 22.518c-7.178 0.84-12.267 7.096-12.052 14.192l6.318 12.247-1.813 0.645 0.686 1.792 0.185 0.45 0.051 0.502c0.133 1.198 0.666 2.304 1.106 3.399l16.22-5.335 4.403 13.363c19.763-2.304 79.544-9.277 79.565-9.277 2.058-0.215 3.953-1.116 5.703-2.283l-12.913-24.535-12.052-11.448 0.635-0.912z" fill="#000000" />
	<path d="M335.012 137.595c0 0 1.024 4.649 2.642 12.053l61.604 2.918c0.778 0 92.211-5.12 92.211-5.12l-2.027-27.095-90.041 2.816c0.594 0-50.596-2.406-76.288-3.605 6.041 4.382 10.312 10.67 11.899 18.032z" fill="#000000" />
	<path d="M439.603 477.358l-0.758-1.997-13.097-7.741z" fill="#000000" />
	<path d="M439.603 477.358l-13.854-9.738 13.097 7.741-39.404-110.131-0.533-1.003-44.339-81.244c-4.311 5.14-10.066 8.796-16.722 10.24l-9.984 2.181 44.697 81.899-0.399-1.096 0.942 2.079-0.543-0.983 42.813 119.716h60.18l-36.721-21.657 0.768 1.997z" fill="#000000" />
	<path d="M372.183 376.197l0.399 1.106 0.543 0.973z" fill="#000000" />
	<path d="M348.979 272.691c2.161-4.127 2.867-8.786 1.874-13.404 0 0-26.071-119.47-26.071-119.481-1.137-5.171-4.219-9.625-8.694-12.493-4.475-2.867-9.789-3.85-15.002-2.704l-37.509 8.192c-5.192 1.116-9.625 4.208-12.513 8.673-2.877 4.485-3.83 9.82-2.703 14.992l26.071 119.501c1.137 5.192 4.219 9.625 8.694 12.514 4.475 2.857 9.789 3.84 14.991 2.704l37.499-8.202c5.212-1.116 9.656-4.219 12.524-8.694 0.317-0.471 0.512-1.003 0.758-1.474l0.072-0.154 0.010 0.031z" fill="#000000" />
	<path d="M348.969 272.671l-0.072 0.154 0.082-0.133z" fill="#000000" />
	<path d="M252.324 138.721c-4.629 8.469-39.168 59.709-61.225 92.089l23.275-1.28-67.492-78.736-27.955 11.51 73.154 86.354 12.482 14.572 10.814-15.851c5.694-8.376 55.972-82.125 62.771-94.587l-25.826-14.070z" fill="#000000" />
	<path d="M276.091 269.507l-48.62 113.817 0.573 4.055 14.889 104.745 14.172-16.743-43.561 30.474 60.785-1.515-2.325-16.343-14.868-104.734-1.045 7.813 46.991-110.019z" fill="#000000" />
	<path d="M20.541 196.679l12.196 7.742 203.151-89.487c-2.375-1.403-4.588-3.001-6.636-4.813-106.424 44.554-207.145 86.558-208.712 86.558zM477.051 6.144c0 0-82.309 34.601-177.019 74.311-0.123 2.212-0.246 4.413-0.686 6.523l179.272-78.971-1.567-1.864zM257.464 120.965c20.613 0 37.817-14.582 41.882-33.977l-63.447 27.945c6.349 3.737 13.66 6.031 21.565 6.031zM300.257 78.192c0-23.614-19.17-42.773-42.803-42.773-23.624 0-42.773 19.159-42.773 42.773 0 12.759 5.703 24.084 14.571 31.928 23.654-9.902 47.575-19.938 70.769-29.655 0.051-0.768 0.236-1.495 0.236-2.273z" fill="#000000" />
</svg>
