<?xml version="1.0" encoding="iso-8859-1"?>
<!-- Generator: Adobe Illustrator 18.1.1, SVG Export Plug-In . SVG Version: 6.00 Build 0)  -->
<svg version="1.1" id="Capa_1" xmlns="http://www.w3.org/2000/svg" xmlns:xlink="http://www.w3.org/1999/xlink" x="0px" y="0px"
	 viewBox="0 0 285 285" style="enable-background:new 0 0 285 285;" xml:space="preserve">
<g>
	<g>
		<path d="M280.492,124.251L150.948,12.848c-4.861-4.175-12.035-4.175-16.896,0L4.508,124.251
			c-5.431,4.667-6.036,12.846-1.373,18.27c4.663,5.424,12.853,6.034,18.265,1.376L142.5,39.756l121.101,104.142
			c2.443,2.103,5.443,3.129,8.437,3.129c3.644,0,7.268-1.528,9.828-4.506C286.528,137.098,285.923,128.918,280.492,124.251z"/>
		<path d="M178.564,197.379c-6.55,0-8.548,7.549-8.548,16.103c0,9.12,1.998,16.105,8.548,16.105c6.556,0,8.56-6.986,8.56-16.105
			C187.124,204.928,185.12,197.379,178.564,197.379z"/>
		<path d="M106.454,148.632c-6.556,0-8.548,7.558-8.548,16.109c0,9.123,1.992,16.103,8.548,16.103s8.548-6.98,8.548-16.103
			C115.002,156.19,113.01,148.632,106.454,148.632z"/>
		<path d="M146.73,57.918c-2.425-2.094-6.036-2.094-8.461,0l-97.623,84.208c-1.423,1.228-2.245,3.018-2.245,4.901v121.778
			c0,3.578,2.9,6.479,6.481,6.479h195.234c3.581,0,6.481-2.9,6.481-6.479V147.027c0-1.883-0.822-3.674-2.245-4.901L146.73,57.918z
			 M82.513,164.741c0-15.395,6.698-27.223,23.941-27.223c17.25,0,23.942,11.829,23.942,27.223c0,15.388-6.692,27.217-23.942,27.217
			C89.211,191.958,82.513,180.129,82.513,164.741z M116.152,244.406c-3.143,0-5.566-2.421-5.566-4.846
			c0-1.422,0.575-2.99,1.564-4.846l51.316-96.909c0.996-1.855,2.703-3.996,5.555-3.996c3.129,0,5.554,2.425,5.554,4.849
			c0,1.422-0.569,2.99-1.564,4.843l-51.305,96.915C120.698,242.272,118.991,244.406,116.152,244.406z M178.564,240.701
			c-17.244,0-23.942-11.829-23.942-27.22c0-15.395,6.698-27.223,23.942-27.223c17.243,0,23.948,11.829,23.948,27.223
			C202.513,228.873,195.808,240.701,178.564,240.701z"/>
	</g>
</g>
<g>
</g>
<g>
</g>
<g>
</g>
<g>
</g>
<g>
</g>
<g>
</g>
<g>
</g>
<g>
</g>
<g>
</g>
<g>
</g>
<g>
</g>
<g>
</g>
<g>
</g>
<g>
</g>
<g>
</g>
</svg>
