<?xml version="1.0" encoding="iso-8859-1"?>
<!-- Generator: Adobe Illustrator 19.0.0, SVG Export Plug-In . SVG Version: 6.00 Build 0)  -->
<svg version="1.1" id="Layer_1" xmlns="http://www.w3.org/2000/svg" xmlns:xlink="http://www.w3.org/1999/xlink" x="0px" y="0px"
	 viewBox="0 0 512.001 512.001" style="enable-background:new 0 0 512.001 512.001;" xml:space="preserve">
<g>
	<g>
		<path d="M432.545,79.425c-13.412-13.412-31.265-20.797-50.272-20.797c-19.008,0-36.861,7.385-50.271,20.797
			c-27.721,27.72-27.721,72.823,0,100.545c13.412,13.412,31.265,20.797,50.272,20.797s36.861-7.385,50.271-20.797
			c13.412-13.412,20.797-31.265,20.797-50.272C453.343,110.689,445.956,92.837,432.545,79.425z M411.034,158.459
			c-7.665,7.665-17.879,11.887-28.76,11.887s-21.096-4.222-28.761-11.887c-15.859-15.86-15.859-41.664,0-57.523
			c7.665-7.665,17.879-11.887,28.76-11.887c10.881,0,21.096,4.222,28.761,11.887C426.892,116.795,426.892,142.6,411.034,158.459z"/>
	</g>
</g>
<g>
	<g>
		<path d="M474.026,37.944c-0.791-0.791-1.589-1.569-2.394-2.334c-23.367-22.208-53.045-34.029-83.13-35.462
			C386.426,0.05,384.349,0,382.272,0c-33.229,0-66.457,12.647-91.753,37.944l-87.58,87.581l-51.038-51.038l-46.986,46.986
			l16.242,85.833l-83.184,83.183c-50.592,50.594-50.592,132.914,0,183.506c24.508,24.508,57.093,38.006,91.753,38.006
			s67.246-13.498,91.754-38.006l252.545-252.544C524.619,170.858,524.619,88.537,474.026,37.944z M199.97,452.483
			c-18.762,18.762-43.708,29.095-70.242,29.095s-51.479-10.332-70.241-29.095c-38.731-38.731-38.73-101.752,0-140.484l94.553-94.552
			l-16.242-85.833l14.105-14.106l51.038,51.038l50.131-50.132c-1.666,19.265,0.937,38.835,7.826,57.148L58.722,377.739
			l21.511,21.511l195.484-195.484c4.328,6.219,9.263,12.142,14.803,17.684c25.296,25.296,58.525,37.944,91.753,37.944
			c3.764,0,7.528-0.171,11.281-0.496L199.97,452.483z M456.041,196.228c-0.004,0.004-0.009,0.01-0.014,0.015
			c-1.134,1.254-2.304,2.487-3.513,3.696c-19.369,19.368-44.8,29.05-70.242,29.049c-25.434-0.003-50.878-9.685-70.241-29.049
			C273.3,161.208,273.3,98.187,312.03,59.456c1.529-1.529,3.109-2.976,4.71-4.384c23.462-20.628,54.391-28.307,83.421-23.032
			c17.456,3.172,34.22,11.018,48.25,23.555c1.393,1.244,2.765,2.525,4.102,3.862c1.209,1.209,2.38,2.441,3.513,3.696
			c0.005,0.006,0.01,0.011,0.015,0.017C490.068,100.855,490.068,158.542,456.041,196.228z"/>
	</g>
</g>
<g>
	<g>
		
			<rect x="136.326" y="323.914" transform="matrix(0.7071 -0.7071 0.7071 0.7071 -173.3543 259.7346)" width="181.05" height="30.422"/>
	</g>
</g>
<g>
</g>
<g>
</g>
<g>
</g>
<g>
</g>
<g>
</g>
<g>
</g>
<g>
</g>
<g>
</g>
<g>
</g>
<g>
</g>
<g>
</g>
<g>
</g>
<g>
</g>
<g>
</g>
<g>
</g>
</svg>
