<svg xmlns="http://www.w3.org/2000/svg" viewBox="0 0 472 471" width="472" height="471">
	<style>
		tspan { white-space:pre }
		.shp0 { fill: #7d7d7d } 
		.shp1 { fill: #acacac } 
		.shp2 { fill: #000000 } 
	</style>
	<path id="Layer" class="shp0" d="M388.36 125.29L461.06 311.29L415.39 391.48L348.38 226.16L388.36 125.29Z" />
	<path id="Layer" class="shp0" d="M348.38 226.16L415.39 391.48L308.66 411.73L265.62 294.39L348.38 226.16Z" />
	<path id="Layer" class="shp1" d="M388.36 125.29L348.38 226.16L265.62 294.39L238.43 220.29L277.73 119.72L388.36 125.29Z" />
	<path id="Layer" class="shp1" d="M265.62 294.39L308.66 411.73L97.7 382.16L166.01 302.13L238.43 220.29L265.62 294.39Z" />
	<path id="Layer" class="shp0" d="M124.26 161.05L80.38 276.9L166.01 302.13L97.7 382.16L10 305.22L22.27 95.73L135.64 92.45C160.54 86.52 210.96 60.04 210.96 60.04L277.73 119.72L238.43 220.29L124.26 161.05Z" />
	<path id="Layer" class="shp1" d="M238.43 220.29L166.01 302.13L80.38 276.9L124.26 161.05L238.43 220.29Z" />
	<path id="Layer" fill-rule="evenodd" class="shp2" d="M470.38 307.65C471.48 310.46 471.25 313.62 469.75 316.24L424.09 396.43C424.04 396.5 423.99 396.57 423.95 396.64C423.83 396.84 423.7 397.04 423.57 397.23C423.5 397.33 423.43 397.42 423.35 397.52C423.21 397.71 423.07 397.89 422.92 398.06C422.84 398.15 422.76 398.23 422.68 398.32C422.52 398.49 422.36 398.65 422.18 398.81C422.1 398.89 422.02 398.96 421.93 399.04C421.75 399.19 421.57 399.34 421.38 399.48C421.29 399.55 421.2 399.62 421.1 399.69C420.92 399.81 420.73 399.93 420.54 400.04C420.43 400.11 420.31 400.18 420.2 400.25C420.02 400.34 419.83 400.43 419.64 400.52C419.51 400.58 419.38 400.65 419.24 400.71C419.21 400.72 419.18 400.74 419.15 400.75C418.96 400.83 418.77 400.89 418.58 400.95C418.48 400.98 418.38 401.03 418.28 401.05C417.94 401.16 417.59 401.25 417.25 401.31L310.53 421.56L310.48 421.57C310.2 421.62 309.93 421.66 309.65 421.68L309.59 421.69C309.29 421.72 308.97 421.74 308.66 421.74C308.21 421.73 307.77 421.7 307.32 421.64L307.28 421.64L307.2 421.62L307.13 421.62L96.31 392.06C96.28 392.05 96.25 392.04 96.22 392.04C95.79 391.98 95.36 391.89 94.95 391.77C94.9 391.75 94.85 391.73 94.8 391.72C93.95 391.46 93.13 391.09 92.38 390.62C92.31 390.57 92.24 390.53 92.17 390.48C91.84 390.27 91.52 390.03 91.21 389.77C91.19 389.75 91.16 389.72 91.15 389.71C91.13 389.7 91.12 389.69 91.11 389.68L3.41 312.74C1.09 310.71 -0.16 307.71 0.02 304.64L12.29 95.15C12.59 89.97 16.8 85.89 21.98 85.74L134.29 82.48C158.04 76.46 205.83 51.43 206.31 51.18C210.01 49.24 214.52 49.8 217.63 52.58L281.77 109.91L388.86 115.3C388.88 115.3 388.9 115.3 388.91 115.3C389.36 115.33 389.81 115.38 390.25 115.47C390.32 115.48 390.39 115.5 390.46 115.52C390.81 115.59 391.16 115.69 391.5 115.8C391.61 115.84 391.72 115.88 391.83 115.91C391.9 115.94 391.98 115.96 392.05 115.99C392.37 116.12 392.69 116.26 393 116.42C393.01 116.43 393.02 116.44 393.03 116.44C393.4 116.64 393.75 116.86 394.09 117.1C394.17 117.15 394.25 117.21 394.32 117.27C394.64 117.5 394.95 117.76 395.24 118.03C395.26 118.05 395.29 118.07 395.31 118.09C395.62 118.39 395.91 118.71 396.18 119.05C396.23 119.13 396.29 119.2 396.34 119.27C396.57 119.57 396.77 119.88 396.97 120.21C397 120.26 397.04 120.32 397.07 120.38C397.28 120.75 397.46 121.14 397.62 121.54C397.64 121.57 397.66 121.61 397.68 121.64L470.38 307.65ZM401.54 383.93L344.23 242.54L277.45 297.6L315.13 400.33L401.54 383.93ZM93.55 270.36L162.73 290.74L222.45 223.27L129.63 175.11L93.55 270.36ZM117.14 374.79L293.53 399.52L234.82 239.47L173.56 308.69L117.14 374.79ZM373.92 134.57L284.42 130.07L249.12 220.4L270.14 277.7L340.03 220.08L373.92 134.57ZM53.68 104.83L129.24 152.37L233.16 206.3L265.89 122.55L209.42 72.07C194.93 79.44 158.72 97.23 137.95 102.17C137.29 102.33 136.61 102.42 135.93 102.44L53.68 104.83ZM20.27 300.93L96.68 367.96L148.39 307.37L77.55 286.5C74.89 285.71 72.66 283.84 71.43 281.35C70.19 278.86 70.04 275.96 71.03 273.36L112.01 165.16L31.2 114.31L20.27 300.93ZM450.01 310.49L388.3 152.59L359.15 226.12L416.91 368.61L450.01 310.49Z" />
</svg>