<?xml version="1.0" encoding="iso-8859-1"?>
<!-- Generator: Adobe Illustrator 18.1.1, SVG Export Plug-In . SVG Version: 6.00 Build 0)  -->
<svg version="1.1" id="Capa_1" xmlns="http://www.w3.org/2000/svg" xmlns:xlink="http://www.w3.org/1999/xlink" x="0px" y="0px"
	 viewBox="0 0 512.5 512.5" style="enable-background:new 0 0 512.5 512.5;" xml:space="preserve">
<g>
	<g>
		<g>
			<path style="fill:#010002;" d="M216.75,109c11.333,0,21-4.167,29-12.5s12-18.333,12-30s-4-21.667-12-30s-17.667-12.5-29-12.5
				s-21,4.167-29,12.5s-12,18.333-12,30s4,21.667,12,30S205.417,109,216.75,109z"/>
			<path style="fill:#010002;" d="M241.75,146c2.667-5.333,2.667-10.5,0-15.5s-7-7.5-13-7.5h-123c-6.667,0-11.333,2.5-14,7.5
				s-2.667,10.167,0,15.5s7.333,8,14,8h123C234.75,154,239.083,151.333,241.75,146z"/>
			<path style="fill:#010002;" d="M376.75,9l-8-9l-116,119l-2,2l0.5,0.5c0.333,0.333,0.5,0.833,0.5,1.5c2,2.667,3,6,3,10v5
				c0,3.333-0.667,6.333-2,9c0,0.667-0.167,1.167-0.5,1.5l-0.5,0.5l-0.5,0.5c-0.333,0.333-0.5,0.833-0.5,1.5
				c-5.333,8.667-13.333,13-24,13h-70v154v10l-22,156c-1.333,6,0,11.833,4,17.5s9.167,9.167,15.5,10.5s13.167-0.167,20.5-4.5
				s11.667-9.5,13-15.5l20-175h11l34,176c1.333,6,5.667,11,13,15s14,5.333,20,4c6.667-1.333,11.5-4.833,14.5-10.5
				s3.833-11.5,2.5-17.5l-33-167V178l95,93l10-8c32-38.667,48-81,48-127C422.75,87.333,407.417,45,376.75,9z M268.75,123
				c7.333-9.333,16.667-19.833,28-31.5s24-24.167,38-37.5s23.333-22.333,28-27c23.333,28,36.333,60,39,96H268.75z M357.75,249
				c-2-2-15.167-14.5-39.5-37.5s-40.5-39.833-48.5-50.5v-7h132C398.417,186,383.75,217.667,357.75,249z"/>
		</g>
	</g>
</g>
<g>
</g>
<g>
</g>
<g>
</g>
<g>
</g>
<g>
</g>
<g>
</g>
<g>
</g>
<g>
</g>
<g>
</g>
<g>
</g>
<g>
</g>
<g>
</g>
<g>
</g>
<g>
</g>
<g>
</g>
</svg>
