<?xml version="1.0" encoding="utf-8"?>
<!-- Svg Vector Icons : http://www.onlinewebfonts.com/icon -->
<!DOCTYPE svg PUBLIC "-//W3C//DTD SVG 1.1//EN" "http://www.w3.org/Graphics/SVG/1.1/DTD/svg11.dtd">
<svg version="1.1" xmlns="http://www.w3.org/2000/svg" xmlns:xlink="http://www.w3.org/1999/xlink" x="0px" y="0px" viewBox="0 0 1000 1000" enable-background="new 0 0 1000 1000" xml:space="preserve">
<metadata> Svg Vector Icons : http://www.onlinewebfonts.com/icon </metadata>
<g><g transform="translate(0.000000,511.000000) scale(0.100000,-0.100000)"><path d="M4855.5,3333.9C4476.4,2951,3971,2533.7,3524.9,2235c-407.8-271.9-798.3-492-1552.6-871.1l-645.2-325.5l-13.4-118.7C1164.4-517.9,747.1-2015,212.9-3033.5L100-3249.8h1229.1h1229.1l277.6,256.5C3846.5-2064.8,4593.2-933.4,4928.2,177c74.7,245,70.8,248.9,118.7-86.1c93.8-635.6,308.2-1416.7,578.1-2105.9c99.6-250.8,472.9-1035.7,559-1171.6l40.2-63.2h1837.9H9900l-84.2,168.5c-419.3,836.6-806,2174.8-1074,3721.7c-36.4,212.5-72.8,392.5-80.4,398.2c-9.6,5.7-187.6,84.2-398.2,172.3c-1288.4,538-2035,976.4-2647.7,1560.3c-176.1,168.5-407.8,430.7-536,608.8c-36.4,49.8-70.8,90-78.5,90C4995.2,3469.8,4928.2,3408.6,4855.5,3333.9z M3161.2-292v-717.9h-612.6h-612.6V-292v717.9h612.6h612.6V-292z M8062.1-292v-717.9h-612.6h-612.6V-292v717.9h612.6h612.6V-292z"/></g></g>
</svg>