<?xml version="1.0" encoding="UTF-8" standalone="no"?>
<!-- Created with Inkscape (http://www.inkscape.org/) -->

<svg
   xmlns:dc="http://purl.org/dc/elements/1.1/"
   xmlns:cc="http://creativecommons.org/ns#"
   xmlns:rdf="http://www.w3.org/1999/02/22-rdf-syntax-ns#"
   xmlns:svg="http://www.w3.org/2000/svg"
   xmlns="http://www.w3.org/2000/svg"
   xmlns:sodipodi="http://sodipodi.sourceforge.net/DTD/sodipodi-0.dtd"
   xmlns:inkscape="http://www.inkscape.org/namespaces/inkscape"
   width="451.74527"
   height="450.88531"
   id="svg3031"
   version="1.1"
   inkscape:version="0.48.4 r9939"
   sodipodi:docname="Новый документ 4">
  <defs
     id="defs3033" />
  <sodipodi:namedview
     id="base"
     pagecolor="#ffffff"
     bordercolor="#666666"
     borderopacity="1.0"
     inkscape:pageopacity="0.0"
     inkscape:pageshadow="2"
     inkscape:zoom="0.49497475"
     inkscape:cx="196.28248"
     inkscape:cy="257.98337"
     inkscape:document-units="px"
     inkscape:current-layer="layer1"
     showgrid="false"
     fit-margin-top="0"
     fit-margin-left="0"
     fit-margin-right="0"
     fit-margin-bottom="0"
     inkscape:window-width="1280"
     inkscape:window-height="1002"
     inkscape:window-x="1912"
     inkscape:window-y="-8"
     inkscape:window-maximized="1" />
  <metadata
     id="metadata3036">
    <rdf:RDF>
      <cc:Work
         rdf:about="">
        <dc:format>image/svg+xml</dc:format>
        <dc:type
           rdf:resource="http://purl.org/dc/dcmitype/StillImage" />
        <dc:title></dc:title>
      </cc:Work>
    </rdf:RDF>
  </metadata>
  <g
     inkscape:label="Layer 1"
     inkscape:groupmode="layer"
     id="layer1"
     transform="translate(-216.98452,-309.77667)">
    <path
       style="fill:#000000"
       d="m 222.27989,758.62936 c -5.8604,-4.9531 -6.6321,-13.3558 -3.4195,-28.9246 2.9876,-14.4785 6.1478,-20.1288 15.7983,-28.2472 11.4949,-9.6699 14.5733,-13.1586 20.744,-23.5081 6.1047,-10.2388 17.9112,-25.5014 21.5927,-27.9137 1.3389,-0.8772 4.2162,-0.7511 5.6279,0.5552 10.0444,-3.7299 0.2606,-7.0587 -4.9206,-12.2575 -5.7225,-5.742 -6.1155,-7.4217 -8.905,-25.0208 -6.869,-43.3368 -4.9535,-69.23227 8.2847,-112.00136 9.683,-31.28363 19.0438,-48.31624 43.9047,-79.88855 23.97722,-30.44972 34.21682,-40.56038 54.21197,-53.52888 18.93304,-12.27969 34.19024,-18.63091 51.71523,-21.52801 16.76192,-2.77092 25.40489,-3.02171 37.07186,-1.07545 7.52988,1.25612 15.90496,2.33505 19.55907,1.04139 0.003,-1.84975 -0.88578,-2.12075 2.58783,-5.2354 3.18952,-2.85992 8.7607,-7.44319 10.08866,-8.35169 3.10304,-2.12288 5.22835,-4.10904 8.28559,-1.96766 2.0815,1.45794 7.05428,7.12463 12.05956,11.01682 4.07022,-4.63934 7.23941,-10.58504 11.37121,-14.27198 0.48154,-0.42969 -0.97605,-2.29082 -0.48383,-2.7549 3.52909,-3.32733 7.70373,-8.03239 12.45986,-10.75765 1.28349,-0.73544 2.63289,0.65907 3.97023,0.2262 2.76757,-0.8958 5.48353,-3.23435 7.45699,-3.73129 13.00897,-3.27583 47.38153,4.98269 63.70287,15.30539 9.24581,5.84771 13.01559,17.42536 13.02973,40.0173 0.009,15.20128 -1.27585,19.38708 -9.85838,32.10558 -2.84231,4.21203 -3.88435,3.82558 -6.23719,7.23969 0.39391,0.52104 0.5005,1.81601 0.24439,2.30083 -2.52587,4.7817 -8.98058,9.40439 -11.12881,11.24669 -1.26802,1.08743 -2.01631,0.48013 -3.40638,-0.62 -7.32681,3.31862 -8.05283,8.74204 -12.94194,13.97568 -2.62784,5.01729 -5.55184,9.02878 -11.78666,4.52055 -1.96735,-1.59299 -2.27544,-2.55044 -4.88147,-1.4653 -4.56906,3.54558 -21.11996,6.17233 -26.03625,5.39805 -6.13324,1.73298 -14.37354,2.69249 -20.50505,-0.71872 -1.19812,0.78354 -4.62035,4.41478 -4.96113,5.45227 0.88149,1.891 5.58726,4.60823 7.83545,9.36284 19.74225,13.53586 -17.86274,64.35582 -10.58234,75.57964 2.54986,-0.58325 4.31099,2.40507 3.82232,5.7893 0.27918,-1.59696 3.18635,-1.72244 4.42558,-0.30122 1.92325,2.20569 3.63302,2.55752 6.23318,3.26246 19.36258,5.24949 41.64506,10.51638 54.03942,16.43048 6.35308,3.0314 15.03069,13.2264 7.11526,20.7817 2.17821,1.1337 6.12363,0.3268 4.30417,8.1603 4.01711,-0.5931 8.93441,-5.2845 16.95997,-5.4231 10.39551,-0.1795 19.08962,0.2152 24.18794,8.9473 2.45711,4.2084 4.29676,7.4882 12.04135,9.1542 9.42809,2.0282 10.16036,0.2059 10.95582,3.8277 0.28436,1.2946 -1.94779,6.5474 -6.76994,6.5833 1.73874,2.1291 4.77399,3.7317 7.49128,4.3151 1.29288,-0.6396 2.1761,-2.0182 3.56846,-2.8817 7.80354,-4.8394 10.25593,7.0763 -1.97258,19.8387 -11.04702,11.5488 -17.8344,7.0999 -31.17192,8.77 -7.26733,0.91 -18.89853,-3.0083 -30.18071,-10.3249 -3.44015,-2.2309 -9.04268,-4.2331 -10.07343,-4.2331 -0.60568,0 0.0709,1.8114 -2.18597,1.8812 -1.61557,0.05 -2.8698,-0.6505 -4.53899,-0.1651 -0.69859,5.6394 -2.71234,8.5764 -11.32238,11.267 -14.72705,4.6019 -68.57656,-19.786 -102.82809,-10.0353 11.02957,21.0778 29.15807,44.5404 44.2365,57.0351 11.45937,9.4959 14.17644,12.7689 17.84223,21.7349 2.53026,6.1887 2.79794,7.945 2.82786,18.5543 0.0401,14.2298 -0.24606,15.9115 -11.19699,20.8496 -39.80504,17.9496 -98.35138,17.4401 -135.93419,3.4141 -14.38827,-5.6336 -22.58795,-7.0936 -40.81938,-7.1494 -13.95275,-0.043 -43.78304,-5.799 -46.29534,-8.8261 -0.4991,0.5636 -0.5663,0.7072 -1.1718,1.4012 -1.8025,1.8023 -3.2156,1.7078 -8.5657,0.9854 -9.5187,-1.2855 -15.2191,-0.8079 -23.5678,1.9745 -10.037,3.345 -13.9,5.9414 -19.1848,12.8944 -8.1419,10.7121 -18.074,14.7684 -23.8197,9.9123 z"
       id="path2409"
       inkscape:connector-curvature="0"
       sodipodi:nodetypes="csssscssssssscssscsscssssscssccccccccccsssccssssccscsscscscsssscsccssssc" />
  </g>
</svg>
