<?xml version="1.0" encoding="iso-8859-1"?>
<!-- Generator: Adobe Illustrator 19.0.0, SVG Export Plug-In . SVG Version: 6.00 Build 0)  -->
<svg version="1.1" id="Capa_1" xmlns="http://www.w3.org/2000/svg" xmlns:xlink="http://www.w3.org/1999/xlink" x="0px" y="0px"
	 viewBox="0 0 491.3 491.3" style="enable-background:new 0 0 491.3 491.3;" xml:space="preserve">
<g>
	<path d="M470.2,393.922c-11.4,0-19.7,8.3-20.7,18.7c-6.5,8.5-37.9,20.6-90.1,28.4c45.6-44,75.4-113.3,76.6-191.1
		c0-66.3-20.1-128-58-173.1c-12.9-15.3-32.4-5.2-35.2,6.2c-4.3,17.4-11.6,40-20,64.6c-23-54.8-58.7-135-58.7-135
		c-5.1-13.7-30-17.5-37.3,0c0,0-35.1,79.2-58.4,135.2c-11.5-32.3-19.5-58.2-20.4-64.7c-6.2-18.5-27.9-15.6-35.2-6.2
		c-36.4,46.4-58,106.7-58,173.1c0,77.7,29.2,146.9,74.4,190.8c-51.2-7.9-82.1-19.8-87.8-28.1c-1-10.4-10.4-18.7-20.7-18.7
		c-11.4,0-20.7,9.3-20.7,20.7c0,73.6,219.7,75.7,244.6,75.7s244.6-2.1,246.7-75.7C490.9,403.222,481.6,393.922,470.2,393.922z
		 M245.3,69.522c0,0,44.6,99.5,56,133.7c0.2,0.4,0.4,0.8,0.5,1.1c-17.7,44.5-38,86.5-56.5,106.6c-15.8-15.3-37.2-60.7-55.8-107.2
		C202.5,165.722,245.3,69.522,245.3,69.522z M96.1,249.822c0-40.4,9.3-79.8,25.9-113c16,53.9,48.3,153.2,105.7,222.8
		c6.9,9.5,21.4,14,33.2,0c69.1-89.3,90.2-167.6,106.7-222.8c16.6,33.2,25.9,72.5,25.9,113c0,109.9-67.4,200-149.2,200
		S95,359.722,96.1,249.822z"/>
</g>
<g>
</g>
<g>
</g>
<g>
</g>
<g>
</g>
<g>
</g>
<g>
</g>
<g>
</g>
<g>
</g>
<g>
</g>
<g>
</g>
<g>
</g>
<g>
</g>
<g>
</g>
<g>
</g>
<g>
</g>
</svg>
