<?xml version="1.0" encoding="iso-8859-1"?>
<!-- Generator: Adobe Illustrator 16.0.0, SVG Export Plug-In . SVG Version: 6.00 Build 0)  -->
<!DOCTYPE svg PUBLIC "-//W3C//DTD SVG 1.1//EN" "http://www.w3.org/Graphics/SVG/1.1/DTD/svg11.dtd">
<svg version="1.1" id="Capa_1" xmlns="http://www.w3.org/2000/svg" xmlns:xlink="http://www.w3.org/1999/xlink" x="0px" y="0px"
	 width="485.211px" height="485.211px" viewBox="0 0 485.211 485.211" style="enable-background:new 0 0 485.211 485.211;"
	 xml:space="preserve">
<g>
	<path d="M454.889,15.163v30.327h-30.327V15.163h-30.326v30.327h-30.327V15.163h-30.322v30.327v60.651l30.322,30.326v121.305
		h-30.322v-30.327h-60.653v30.327h-60.65v-30.327h-60.654v30.327h-30.324V136.467l30.324-30.326V45.489V15.163h-30.324v30.327
		H90.978V15.163H60.651v30.327H30.327V15.163H0v30.327v60.651l30.327,30.326v121.305v212.277h151.628v-60.653
		c0-33.523,27.156-60.648,60.651-60.648c33.495,0,60.648,27.125,60.648,60.648v60.653h151.634V257.771V136.467l30.322-30.326V45.489
		V15.163H454.889z M60.651,257.771v-45.49c0-8.412,6.781-15.163,15.166-15.163c8.38,0,15.161,6.751,15.161,15.163v45.49H60.651z
		 M394.235,257.771v-45.49c0-8.412,6.781-15.163,15.163-15.163s15.163,6.751,15.163,15.163v45.49H394.235z"/>
</g>
<g>
</g>
<g>
</g>
<g>
</g>
<g>
</g>
<g>
</g>
<g>
</g>
<g>
</g>
<g>
</g>
<g>
</g>
<g>
</g>
<g>
</g>
<g>
</g>
<g>
</g>
<g>
</g>
<g>
</g>
</svg>
