<?xml version="1.0"?>
<svg xmlns="http://www.w3.org/2000/svg" viewBox="0 0 24 24">
    <path d="M 9 2 L 7.46875 3 C 7.46875 3 7.456 5.88975 12 7.71875 C 16.539 5.87575 16.53125 3 16.53125 3 L 15 2 C 15 2 14.336 3.1265 13 3.5625 L 12 6 L 11 3.5625 C 9.664 3.1265 9 2 9 2 z M 6.46875 3.1875 C 4.83375 3.5995 3.06825 4.6995 2.03125 6.8125 C 3.07325 7.1345 4.71875 8.4635 4.71875 10.1875 C 6.98275 10.1875 8.69325 8.728 9.65625 7.625 C 6.97525 5.907 6.53475 3.8325 6.46875 3.1875 z M 17.53125 3.1875 C 17.46525 3.8325 17.02475 5.907 14.34375 7.625 C 15.30675 8.728 17.01725 10.1875 19.28125 10.1875 C 19.28125 8.4635 20.92675 7.1345 21.96875 6.8125 C 20.93175 4.6995 19.16625 3.5995 17.53125 3.1875 z M 10.53125 8.125 C 10.53125 8.125 8.64525 11.15625 5.15625 11.15625 C 4.46425 15.47725 6.3125 17.25 6.3125 17.25 C 6.3125 17.25 8.203 19 12 19 C 15.797 19 17.6875 17.25 17.6875 17.25 C 17.6875 17.25 19.53575 15.47725 18.84375 11.15625 C 15.35475 11.15625 13.46875 8.125 13.46875 8.125 C 13.13175 8.299 12.011 8.77625 12 8.78125 C 11.989 8.77625 10.86825 8.299 10.53125 8.125 z M 2.5625 8.25 C 2.2475 8.938 2 11.74575 2 12.59375 C 2.708 12.73675 3.625 13.147 4 13.625 C 4.148 9.275 3.4605 8.883 2.5625 8.25 z M 21.4375 8.25 C 20.5395 8.883 19.852 9.275 20 13.625 C 20.375 13.147 21.292 12.73675 22 12.59375 C 22 11.74575 21.7525 8.938 21.4375 8.25 z M 5.78125 18.125 L 5 19.65625 C 5 19.65625 7.456 22 12 22 C 16.544 22 19 19.65625 19 19.65625 L 18.21875 18.125 C 17.67175 18.561 15.593 20 12 20 C 8.424 20 6.35025 18.579 5.78125 18.125 z"/>
</svg>
