<?xml version="1.0" encoding="utf-8"?>
<!-- Svg Vector Icons : http://www.onlinewebfonts.com/icon -->
<!DOCTYPE svg PUBLIC "-//W3C//DTD SVG 1.1//EN" "http://www.w3.org/Graphics/SVG/1.1/DTD/svg11.dtd">
<svg version="1.1" xmlns="http://www.w3.org/2000/svg" xmlns:xlink="http://www.w3.org/1999/xlink" x="0px" y="0px" viewBox="0 0 1000 1000" enable-background="new 0 0 1000 1000" xml:space="preserve">
<metadata> Svg Vector Icons : http://www.onlinewebfonts.com/icon </metadata>
<g><g><path d="M404.5,255.9c-8.9-15.6-2.8-36-2.8-36s20.7,4.9,29.7,20.4c6.5,11.3,5,25.1,3.7,31.8c-1.4-2.8-2.8-5.6-4.5-8.6c-8.2-14-17.6-23.9-17.6-23.9s3.8,13,11.9,27.1c1.8,3,3.5,5.8,5.2,8.3C423.7,272.8,411,267.2,404.5,255.9z M569.4,263.5c8.1-14,17.6-23.9,17.6-23.9s-3.8,13.1-11.9,27.1c-1.7,3-3.5,5.8-5.2,8.4c6.4-2.2,19.1-7.9,25.6-19.1c9-15.6,2.8-36,2.8-36s-20.7,4.9-29.8,20.4c-6.4,11.3-5,25.1-3.7,31.8C566.2,269.3,567.7,266.5,569.4,263.5z M492.8,178.7c0-36.2,7.3-65.5,7.3-65.5s7.3,29.3,7.3,65.5c0,7.7-0.4,14.9-0.9,21.7c9.9-11.5,28.2-36.3,28.2-65.4c0-40-34.6-72.3-34.6-72.3s-34.5,32.4-34.5,72.3c0,29,18.1,53.9,28.1,65.4C493.1,193.6,492.8,186.4,492.8,178.7z M261.8,292.5c25.2,14.5,55.8,11.2,70.7,8.3c-6.2-2.9-12.6-6.3-19.2-10.1c-31.3-18.1-53.1-39-53.1-39s29,8.3,60.4,26.4c6.6,3.8,12.7,7.8,18.4,11.7c-5-14.4-17.4-42.6-42.6-57.1c-34.6-20-79.8-6.2-79.8-6.2S227.2,272.6,261.8,292.5z M338.8,490.6c-5.7,3.8-11.7,7.8-18.3,11.6c-31.3,18.1-60.4,26.5-60.4,26.5s21.8-21,53.1-39.1c6.7-3.8,13.1-7.1,19.3-10.1c-15-3-45.6-6.2-70.7,8.4c-34.6,19.9-45.4,66.1-45.4,66.1s45.3,13.8,79.9-6.2C321.5,533.2,333.8,505,338.8,490.6z M661.2,289.8c5.7-3.8,11.8-7.8,18.4-11.6c31.3-18.1,60.4-26.4,60.4-26.4s-21.7,20.9-53.1,39c-6.6,3.8-13.1,7.2-19.2,10.1c15,2.9,45.5,6.2,70.7-8.3c34.7-20,45.3-66.1,45.3-66.1s-45.2-13.7-79.8,6.2C678.6,247.2,666.1,275.4,661.2,289.8z M365.4,174.2c-5.2-7.6-10.4-15.8-15.6-24.7c-24.2-42-35.4-80.9-35.4-80.9s28.1,29.2,52.3,71.2c5.1,8.9,9.6,17.5,13.5,25.8c3.9-19.9,8.3-61-11.1-94.8C342.3,24.5,280.6,10,280.6,10s-18.4,60.8,8.4,107.1C308.4,150.9,346.2,167.5,365.4,174.2z M634.6,606.3c5.2,7.6,10.5,15.7,15.6,24.6c24.3,42.1,35.5,80.9,35.5,80.9s-28.2-29.2-52.4-71.2c-5.1-8.9-9.6-17.6-13.5-25.8c-3.9,20-8.4,61,11.1,94.8c26.8,46.4,88.4,60.8,88.4,60.8s18.4-60.7-8.4-107C691.6,629.6,653.9,612.9,634.6,606.3z M216.4,400c-48.5,0-87.8-9.8-87.8-9.8s39.3-9.8,87.8-9.8c10.3,0,20,0.5,29.2,1.2c-15.4-13.4-48.7-37.7-87.7-37.7c-53.5,0-96.9,46.3-96.9,46.3s43.4,46.3,96.9,46.3c39,0,72.3-24.3,87.7-37.7C236.4,399.5,226.7,400,216.4,400z M842.1,344c-39,0-72.3,24.3-87.7,37.7c9.1-0.7,18.9-1.2,29.2-1.2c48.4,0,87.7,9.7,87.7,9.7s-39.3,9.8-87.7,9.8c-10.3,0-20-0.5-29.2-1.2c15.4,13.3,48.8,37.7,87.7,37.7c53.5,0,96.9-46.3,96.9-46.3S895.6,344,842.1,344z M380.2,614.8c-4,8.3-8.4,16.8-13.6,25.8c-24.2,42-52.4,71.2-52.4,71.2s11.2-38.9,35.4-80.9c5.2-8.9,10.5-17,15.7-24.7c-19.2,6.7-57,23.4-76.5,57c-26.8,46.4-8.4,107.1-8.4,107.1s61.8-14.4,88.5-60.8C388.5,675.9,384.1,634.8,380.2,614.8z M633.3,139.7c24.2-42,52.4-71.1,52.4-71.1s-11.2,38.9-35.5,80.9c-5.1,8.8-10.4,17.1-15.6,24.6c19.3-6.7,57-23.3,76.4-57C737.9,70.8,719.5,10,719.5,10s-61.7,14.5-88.5,60.8c-19.5,33.7-15.1,74.8-11.1,94.8C623.8,157.4,628.2,148.7,633.3,139.7z M295.9,371.9c-8.6,17,1.6,39.6,22.8,50.3c21.3,10.8,45.5,5.7,54.1-11.3c8.6-17-1.6-39.5-22.9-50.3C328.8,349.8,304.6,354.8,295.9,371.9z M664.6,347.6c-32.7,17-48.2,52.1-34.5,78.3c13.6,26.3,51.3,33.6,83.9,16.6c32.8-17.1,48.2-52.2,34.6-78.4C735,338,697.4,330.5,664.6,347.6z M914.3,482.8c-58-0.8-110.3,8.1-155.7,22.5c18.6,21.6,25.1,48.7,25.1,48.7s-45.2,13.7-79.9-6.3c-6.2-3.5-11.7-8-16.4-12.8c-61.4,31.9-102.5,72.4-117.8,102.9c-30,59.6,51.8,352.2,51.8,352.2H376.8c0,0,83.6-298.7,77.2-352.3c-6.4-53.6-62.3-193.1-264-188c99.9-37.8,210.9,6.5,210.9,6.5s11-106.6-65.4-178.4c81.6,48.4,126.2,167.4,148.4,251.6c38-117.3,101.1-249,202-310.5c-117,112.8-98.2,277.7-98.2,277.7S758.8,425.9,914.3,482.8z M739.9,528.7c0,0-5.1-4.8-13.6-11.8c-3,1.2-5.8,2.5-8.8,3.7C730.8,526.1,739.9,528.7,739.9,528.7z M500,377.1c24.5,0,44.4-25.6,44.4-57.2s-19.9-57.2-44.4-57.2c-24.5,0-44.4,25.6-44.4,57.2S475.5,377.1,500,377.1z"/></g><g></g><g></g><g></g><g></g><g></g><g></g><g></g><g></g><g></g><g></g><g></g><g></g><g></g><g></g><g></g></g>
</svg>