<?xml version="1.0"?>
<svg xmlns="http://www.w3.org/2000/svg" viewBox="0 0 16 16">
    <path style="line-height:normal;text-indent:0;text-align:start;text-decoration-line:none;text-decoration-style:solid;text-decoration-color:#000;text-transform:none;block-progression:tb;isolation:auto;mix-blend-mode:normal" d="M 10 1 C 8.9755974 1 8.0461381 1.1727488 7.328125 1.4804688 C 6.9691184 1.6343287 6.6610021 1.820177 6.4199219 2.0644531 C 6.1788417 2.3087293 6 2.6352649 6 3 L 6 6.0644531 C 5.6786048 6.0260948 5.3478514 6 5 6 C 3.9755974 6 3.0461381 6.1727488 2.328125 6.4804688 C 1.9691184 6.6343287 1.6610021 6.820177 1.4199219 7.0644531 C 1.1788417 7.3087293 1 7.6352649 1 8 L 1 10 L 1 12 C 1 12.364709 1.1788587 12.691315 1.4199219 12.935547 C 1.6609851 13.179779 1.9691292 13.365646 2.328125 13.519531 C 3.0461166 13.827303 3.975559 14 5 14 C 6.024441 14 6.9538834 13.827303 7.671875 13.519531 C 8.0308708 13.365646 8.3390149 13.179779 8.5800781 12.935547 C 8.8211413 12.691315 9 12.364709 9 12 L 9 10.933594 C 9.3213296 10.972217 9.6530664 11 10 11 C 11.024441 11 11.953883 10.827303 12.671875 10.519531 C 13.030871 10.365646 13.339015 10.179779 13.580078 9.9355469 C 13.821141 9.6913149 14 9.3647093 14 9 L 14 3 C 14 2.6352649 13.821158 2.3087293 13.580078 2.0644531 C 13.338998 1.820177 13.030882 1.6343287 12.671875 1.4804688 C 11.953862 1.1727488 11.024403 1 10 1 z M 10 2 C 10.908594 2 11.728606 2.1632642 12.277344 2.3984375 C 12.551713 2.5160241 12.756002 2.6529392 12.869141 2.7675781 C 12.98228 2.882217 13 2.9505216 13 3 C 13 3.0494784 12.98228 3.117783 12.869141 3.2324219 C 12.756002 3.3470608 12.551713 3.4839759 12.277344 3.6015625 C 11.728606 3.8367358 10.908594 4 10 4 C 9.091406 4 8.2713941 3.8367358 7.7226562 3.6015625 C 7.4482874 3.4839759 7.2439984 3.3470608 7.1308594 3.2324219 C 7.0177203 3.117783 7 3.0494784 7 3 C 7 2.9505216 7.0177203 2.882217 7.1308594 2.7675781 C 7.2439984 2.6529392 7.4482874 2.5160241 7.7226562 2.3984375 C 8.2713941 2.1632642 9.091406 2 10 2 z M 7 4.3496094 C 7.1066475 4.4081858 7.2098539 4.4688436 7.328125 4.5195312 C 8.0461381 4.8272512 8.9755974 5 10 5 C 11.024403 5 11.953862 4.8272512 12.671875 4.5195312 C 12.790146 4.4688436 12.893352 4.4081858 13 4.3496094 L 13 5 C 13 5.049291 12.9823 5.1177789 12.869141 5.2324219 C 12.755985 5.3470649 12.551723 5.4839482 12.277344 5.6015625 C 11.728585 5.8367911 10.908559 6 10 6 C 9.091441 6 8.2714147 5.8367911 7.7226562 5.6015625 C 7.4482772 5.4839482 7.2440149 5.3470649 7.1308594 5.2324219 C 7.0177038 5.1177789 7 5.0492907 7 5 L 7 4.3496094 z M 13 6.3496094 L 13 7 C 13 7.049291 12.9823 7.1177789 12.869141 7.2324219 C 12.755985 7.3470649 12.551723 7.4839482 12.277344 7.6015625 C 11.728585 7.8367911 10.908559 8 10 8 C 9.6462027 8 9.3076804 7.9754122 8.9921875 7.9316406 C 8.9711145 7.5951308 8.8056537 7.2930192 8.5800781 7.0644531 C 8.4847967 6.9679086 8.3710867 6.8865641 8.2558594 6.8066406 C 8.7860423 6.9280055 9.3713658 7 10 7 C 11.024441 7 11.953883 6.8273028 12.671875 6.5195312 C 12.790143 6.4688351 12.893351 6.4081907 13 6.3496094 z M 5 7 C 5.908594 7 6.728606 7.1632642 7.2773438 7.3984375 C 7.5517126 7.5160241 7.7560016 7.6529392 7.8691406 7.7675781 C 7.9822797 7.882217 8 7.9505216 8 8 C 8 8.0494784 7.9822797 8.117783 7.8691406 8.2324219 C 7.7560016 8.3470608 7.5517126 8.4839759 7.2773438 8.6015625 C 6.7286061 8.8367358 5.908594 9 5 9 C 4.091406 9 3.2713939 8.8367358 2.7226562 8.6015625 C 2.4482876 8.4839759 2.2439984 8.3470608 2.1308594 8.2324219 C 2.0177203 8.117783 2 8.0494784 2 8 C 2 7.9505216 2.0177203 7.882217 2.1308594 7.7675781 C 2.2439984 7.6529392 2.4482875 7.5160241 2.7226562 7.3984375 C 3.2713941 7.1632642 4.091406 7 5 7 z M 13 8.3496094 L 13 9 C 13 9.049291 12.9823 9.1177789 12.869141 9.2324219 C 12.755985 9.3470649 12.551723 9.4839482 12.277344 9.6015625 C 11.728585 9.8367911 10.908559 10 10 10 C 9.6499458 10 9.3132155 9.9766214 9 9.9335938 L 9 8.9335938 C 9.3212754 8.9722234 9.6526521 9 10 9 C 11.024441 9 11.953883 8.8273028 12.671875 8.5195312 C 12.790143 8.4688352 12.893351 8.4081907 13 8.3496094 z M 2 9.3496094 C 2.1066475 9.4081858 2.2098539 9.4688437 2.328125 9.5195312 C 3.0461381 9.8272512 3.9755974 10 5 10 C 6.0244026 10 6.9538619 9.8272512 7.671875 9.5195312 C 7.7901461 9.4688437 7.8933525 9.4081858 8 9.3496094 L 8 10 C 8 10.04929 7.982296 10.117779 7.8691406 10.232422 C 7.7559851 10.347065 7.5517229 10.48395 7.2773438 10.601562 C 6.7285854 10.836793 5.908559 11 5 11 C 4.091441 11 3.2714147 10.836791 2.7226562 10.601562 C 2.4482773 10.48395 2.2440149 10.347065 2.1308594 10.232422 C 2.0177038 10.117779 2 10.049291 2 10 L 2 9.3496094 z M 2 11.349609 C 2.1066494 11.408191 2.2098574 11.468835 2.328125 11.519531 C 3.0461166 11.827303 3.975559 12 5 12 C 6.024441 12 6.9538834 11.827303 7.671875 11.519531 C 7.7901426 11.468835 7.8933506 11.408191 8 11.349609 L 8 12 C 8 12.04929 7.982296 12.117779 7.8691406 12.232422 C 7.7559851 12.347065 7.5517229 12.48395 7.2773438 12.601562 C 6.7285854 12.836793 5.908559 13 5 13 C 4.091441 13 3.2714147 12.836791 2.7226562 12.601562 C 2.4482773 12.48395 2.2440149 12.347065 2.1308594 12.232422 C 2.0177038 12.117779 2 12.049291 2 12 L 2 11.349609 z"/>
</svg>
