<?xml version="1.0" encoding="utf-8"?>
<!-- Svg Vector Icons : http://www.onlinewebfonts.com/icon -->
<!DOCTYPE svg PUBLIC "-//W3C//DTD SVG 1.1//EN" "http://www.w3.org/Graphics/SVG/1.1/DTD/svg11.dtd">
<svg version="1.1" xmlns="http://www.w3.org/2000/svg" xmlns:xlink="http://www.w3.org/1999/xlink" x="0px" y="0px" viewBox="0 0 1000 1000" enable-background="new 0 0 1000 1000" xml:space="preserve">
<metadata> Svg Vector Icons : http://www.onlinewebfonts.com/icon </metadata>
<g><g transform="translate(0.000000,512.000000) scale(0.100000,-0.100000)"><path d="M3001.6,5003.7c-255.1-63.3-467.9-232.1-586.8-467.9c-182.2-364.4-122.7-753.7,159.2-1047.1c368.2-383.6,939.7-397,1306-32.6c356.7,358.6,356.7,949.3,0,1307.9c-59.5,59.5-153.4,130.4-209,159.2C3473.4,5022.8,3212.6,5053.5,3001.6,5003.7z"/><path d="M957.3,2023.4L100,1166.1l703.8-703.8c527.4-525.5,726.9-713.4,792.1-742.2c232.1-105.5,523.6,5.8,625.2,237.8c21.1,47.9,24.9-308.8,26.8-2124.9c0-1469.1,5.8-2209.3,21.1-2263c28.8-120.8,132.3-251.2,239.7-301.1c266.6-130.4,577.3-23,636.7,216.7c17.3,63.3,23,515.9,23,1593.7v1507.4h95.9h95.9v-1528.5c0-1718.3-7.7-1622.5,143.8-1745.2c232.1-191.8,604.1-92.1,732.6,195.6c32.6,72.9,34.5,197.5,40.3,2036.7l3.8,1961.9h978.1H6237l1831.5,1680C9075.3,2109.7,9900,2869.1,9900,2874.9c0,3.8-1171.8,7.7-2602.5,7.7H4693.1l859.2-859.2l861.1-861.1l-151.5-124.7c-84.4-69-245.5-232.1-360.5-362.5c-303-347.1-385.5-429.6-552.3-558.1C5262.7,50,5186-24.8,5168.8-61.3c-17.3-36.4-55.6-74.8-88.2-88.2c-30.7-13.4-80.5-44.1-109.3-69.1c-168.8-141.9-356.7-134.2-575.3,23c-105.5,76.7-115.1,99.7-115.1,272.3c0,126.6,9.6,178.4,40.3,241.6c24.9,46,201.4,241.6,421.9,464.1l381.6,385.5l-421.9,420L4280.8,2010v435.3v437.3H3047.7H1816.4L957.3,2023.4z M2305.5,1127.8c0-807.4-3.8-949.3-26.8-949.3c-15.3,0-32.6,24.9-40.3,55.6c-5.7,32.6-36.4,90.1-67.1,132.3c-28.8,40.3-67.1,101.7-84.4,134.2c-17.3,32.6-182.2,195.6-366.3,362.5l-335.6,303l454.5,454.5c251.2,251.2,458.4,456.4,460.3,456.4C2303.6,2077.1,2305.5,1649.4,2305.5,1127.8z"/></g></g>
</svg>