<?xml version="1.0"?>
<svg xmlns="http://www.w3.org/2000/svg" version="1" viewBox="0 0 24 24" enable-background="new 0 0 24 24">
    <path style="text-indent:0;text-align:start;line-height:normal;text-transform:none;block-progression:tb;-inkscape-font-specification:Bitstream Vera Sans" d="M 12 2 L 12 4 C 16.466667 4 20 7.5333333 20 12 C 20 16.466667 16.466667 20 12 20 C 7.5333333 20 4 16.466667 4 12 C 4 10.308254 4.5299182 8.7424071 5.4375 7.4375 L 7.59375 9.59375 L 9 2.5 L 2 4 L 4.03125 6.03125 C 2.7731486 7.7064434 2 9.7599441 2 12 C 2 17.533333 6.4666667 22 12 22 C 17.533333 22 22 17.533333 22 12 C 22 6.4666667 17.533333 2 12 2 z" overflow="visible" enable-background="accumulate" font-family="Bitstream Vera Sans"/>
</svg>
