<?xml version="1.0" encoding="utf-8"?>
<!-- Svg Vector Icons : http://www.onlinewebfonts.com/icon -->
<!DOCTYPE svg PUBLIC "-//W3C//DTD SVG 1.1//EN" "http://www.w3.org/Graphics/SVG/1.1/DTD/svg11.dtd">
<svg version="1.1" xmlns="http://www.w3.org/2000/svg" xmlns:xlink="http://www.w3.org/1999/xlink" x="0px" y="0px" viewBox="0 0 1000 1000" enable-background="new 0 0 1000 1000" xml:space="preserve">
<metadata> Svg Vector Icons : http://www.onlinewebfonts.com/icon </metadata>
<g><g transform="translate(0.000000,511.000000) scale(0.100000,-0.100000)"><path d="M6152.5,4951.8c-74.7-72.4-70-126.1,49-429.6c123.7-310.5,198.4-695.7,203.1-1027.2l2.3-268.5l-424.9-922.2c-233.5-506.6-434.2-931.5-445.9-943.2c-16.3-16.3-23.3-2.3-23.3,37.3c0,95.7-109.7,490.3-196.1,709.7l-79.4,198.4l142.4,667.7c130.7,611.7,140.1,672.4,107.4,726.1c-18.7,35-67.7,70-109.7,84.1c-63,16.3-88.7,14-140.1-25.7c-65.4-49-65.4-49-228.8-796.1l-37.4-170.4l-93.4,135.4c-163.4,231.1-324.5,413.2-394.6,443.6c-79.4,35-170.4,9.3-205.4-60.7c-51.4-95.7-28-165.8,112.1-336.2c256.8-312.9,473.9-686.4,618.7-1064.6l39.7-102.7l-67.7,14c-35,7-177.4,25.7-312.9,42c-219.5,25.7-254.5,25.7-305.8-9.3c-74.7-49-95.7-140.1-51.4-224.1c42-84.1,35-81.7,466.9-142.4c191.4-28,357.2-63,366.6-77c28-46.7,53.7-322.2,53.7-576.7V588.4l-312.9-684C4712-469.2,4562.6-770.4,4555.6-761c-9.3,11.7-39.7,128.4-67.7,263.8l-53.7,247.5l107.4,476.3c119.1,518.3,119.1,574.3,0,628c-84,37.3-116.7,32.7-182.1-25.7c-46.7-42-72.4-107.4-114.4-287.2l-53.7-231.1l-98,179.8c-235.8,429.6-716.7,966.5-1172,1309.7c-238.1,179.8-303.5,203.1-399.2,151.8c-58.4-30.4-95.7-123.7-77-196.1c9.3-32.7,100.4-121.4,238.1-224.1c207.8-156.4,768.1-688.7,747.1-709.7c-4.7-4.7-254.5,28-555.6,70c-301.2,44.4-579,81.7-614,81.7c-81.7,0-179.8-93.4-179.8-172.8c0-32.7,23.3-84.1,53.7-116.7c49-56,93.4-65.4,800.8-165.8c413.2-58.4,761.1-105.1,772.8-105.1c35,0,252.1-431.9,333.9-665.4c116.7-333.9,163.4-576.7,179.8-933.9l11.7-326.9l-322.2-707.4c-226.5-497.3-329.2-695.7-338.5-665.4c-9.3,23.3-39.7,142.4-67.7,263.8c-28,121.4-81.7,301.2-119.1,396.9c-37.4,95.7-67.7,196.1-67.7,221.8c0,25.7,53.7,336.2,119.1,688.7c77,401.6,116.7,667.7,105.1,707.4c-32.7,135.4-231.1,170.4-305.8,56c-16.3-28-63-228.8-105.1-448.3c-39.7-217.1-79.4-420.2-86.4-448.3c-9.3-44.4-32.7-23.4-156.4,151.7C2641.2-943.2,1938.5-277.8,1700.3-168c-121.4,56-275.5-93.4-228.8-219.5c11.7-30.4,114.4-128.4,228.8-214.8c242.8-189.1,537-450.6,555.6-495c9.3-28-65.4-30.4-431.9-16.3c-382.9,14-448.3,11.7-497.3-21c-102.7-67.7-100.4-238.1,4.7-294.2c23.3-14,315.2-35,644.4-46.7c392.2-16.4,611.7-32.7,632.7-51.4c49-39.7,256.8-392.2,340.9-574.3c63-140.1,205.4-530,205.4-565c0-7-289.5-11.7-642-7l-642,7l-60.7-60.7c-49-49-58.4-74.7-46.7-135.4c28-147.1,37.4-149.4,782.1-168.1c786.8-18.7,702.7,25.7,702.7-375.9v-261.5l-212.5-462.3c-144.7-317.5-205.4-478.6-198.4-513.6c18.7-70,72.4-121.4,147.1-140.1c123.7-32.7,158.8,23.3,639.7,1076.3l457.6,1001.5l168.1,135.4c91,74.7,184.4,144.7,207.8,156.4c32.7,16.4,116.7-93.4,553.3-737.7c282.5-417.9,532.3-768.1,553.3-779.8c116.7-63,261.5,16.3,261.5,144.7c0,65.4-95.7,219.5-508.9,824.1c-287.2,422.6-497.3,754.1-485.6,765.8c84,84,800.8,301.2,1104.3,333.8l154.1,16.3l544-586c523-565,544-586,628-586c133,0,221.8,128.4,163.4,238.1c-16.3,30.4-212.5,252.1-436.6,492.6c-224.1,240.5-403.9,441.3-399.2,445.9c23.3,16.4,476.3-39.7,737.8-91c312.8-63,375.9-56,424.9,51.4c35,79.4,32.7,109.7-21,177.4c-119.1,151.8-1204.7,277.8-1779,205.5c-74.7-9.3-135.4-11.7-135.4-4.7c0,9.4,126.1,170.4,277.8,361.9c154.1,191.5,284.8,375.9,294.2,406.2c16.3,67.7-37.3,158.8-116.7,196.1c-107.4,49-170.4-11.7-607-565l-420.2-532.3l-198.5-74.7c-109.7-42-296.5-126.1-413.2-186.8c-119.1-60.7-217.1-102.7-217.1-93.4c0,7,142.4,324.5,315.2,702.7c294.2,644.4,319.9,693.4,436.6,800.8c338.5,315.2,952.5,614,1468.5,714.4l154.1,30.4L7191.4-91c219.4-191.4,422.6-354.8,448.2-364.2c65.4-25.7,161.1,23.3,205.5,100.4c53.7,98,4.6,170.4-282.5,417.9l-256.8,221.8l193.8,7c224.1,7,485.6-21,831.2-91c130.7-28,263.8-44.4,296.5-35c133.1,32.7,165.8,231.1,53.7,305.8c-74.7,46.7-586,144.7-926.9,175.1c-336.2,32.7-688.7,16.3-1062.3-46.7c-140.1-23.3-259.1-42-261.5-39.7c-2.3,2.4,58.4,88.7,135.4,189.1c156.4,210.1,172.8,284.8,79.4,375.9c-56,58.4-114.4,72.4-189.1,42c-21-7-175.1-196.1-338.5-420.2l-301.2-403.9l-210.1-105.1c-116.7-58.4-210.1-98-210.1-88.7c0,9.4,144.8,329.2,319.9,714.4l319.8,698.1l151.7,123.7c84,67.7,221.8,165.8,303.5,219.5c147.1,93.4,151.8,95.7,198.4,53.7c28-23.3,133.1-116.7,235.8-205.4c340.8-298.8,382.9-315.2,492.6-207.8c107.4,107.4,77.1,177.5-177.4,406.2c-121.4,109.7-224.1,205.4-228.8,214.8c-9.3,21,394.5,151.8,607,193.8c221.8,46.7,562.6,84,761.1,84c126.1,0,156.4,9.4,207.8,60.7c46.7,46.7,56,72.4,44.3,133.1c-7,42-37.3,93.4-67.7,119.1c-46.7,39.7-81.7,42-408.6,30.3c-273.2-11.7-352.5-7-338.5,14c9.3,16.3,128.4,177.4,268.5,361.9c205.4,270.8,252.1,345.5,252.1,410.9c0,121.4-126.1,207.8-240.5,163.4c-21-7-219.5-256.8-445.9-553.3l-408.6-541.6l-193.8-67.7c-107.4-37.4-305.8-123.8-443.6-191.5l-249.8-126.1l65.4,147.1c35,79.4,282.5,618.7,546.3,1197.7c296.5,644.4,483.3,1083.3,483.3,1125.3c0,142.4-168.1,219.5-275.5,128.4c-28-23.3-135.4-231.1-240.5-462.3c-105.1-231.1-191.4-422.6-196.1-427.2c-2.3-2.3-32.7,112.1-65.4,254.5c-79.4,326.8-212.5,670-287.2,740.1C6308.9,5028.9,6224.9,5026.6,6152.5,4951.8z"/></g></g>
</svg>