<?xml version="1.0" encoding="utf-8"?>
<!-- Svg Vector Icons : http://www.onlinewebfonts.com/icon -->
<!DOCTYPE svg PUBLIC "-//W3C//DTD SVG 1.1//EN" "http://www.w3.org/Graphics/SVG/1.1/DTD/svg11.dtd">
<svg version="1.1" xmlns="http://www.w3.org/2000/svg" xmlns:xlink="http://www.w3.org/1999/xlink" x="0px" y="0px" viewBox="0 0 1000 1000" enable-background="new 0 0 1000 1000" xml:space="preserve">
<metadata> Svg Vector Icons : http://www.onlinewebfonts.com/icon </metadata>
<g><g transform="translate(0.000000,511.000000) scale(0.100000,-0.100000)"><path d="M1767.9,4358.7C1634.4,4191.3,100,2188.7,100,2178.7c0-4,599.8-8,1333.1-8h1333.1l12-73.7c6-41.8,15.9-271,23.9-508.1l13.9-434.4l-1349-4l-1351-6l2447-2696.1c1982.7-2187.9,2449-2692.1,2468.9-2670.2C5639.6-3556.2,9884,1136.6,9884,1144.5c0,6-605.8,8-1347,6l-1347.1-6l-1088-2325.4c-597.8-1281.3-1092-2327.4-1098-2327.4c-12,2-2158.1,4587.1-2170,4636.9c-6,21.9,370.6,25.9,2174,25.9h2180l13.9,284.9c6,155.4,17.9,384.6,23.9,508.1l12,223.2H5013.9c-1223.5,0-2223.8,8-2223.8,15.9c0,10,173.4,378.6,384.6,823l384.6,805l1444.7,6l1444.7,4l390.6-821l390.6-823l1339.1-6c858.8-2,1337.1,2,1331.1,15.9c-2,10-390.6,520.1-862.8,1135.8l-856.8,1115.9H5007.9H1835.6L1767.9,4358.7z"/></g></g>
</svg>