<?xml version="1.0"?>
<svg xmlns="http://www.w3.org/2000/svg" viewBox="0 0 32 32">
    <path style="text-indent:0;text-align:start;line-height:normal;text-transform:none;block-progression:tb;-inkscape-font-specification:Bitstream Vera Sans" d="M 12.59375 4 L 12.34375 4.1875 L 11.125 5 C 7.0030946 5.1834067 5.125 8.53125 5.125 8.53125 L 4.75 9.21875 L 5.34375 9.75 C 5.4426928 9.8383664 5.5285563 9.9388026 5.625 10.03125 C 4.9352328 10.919134 4 12.530357 4 14.6875 L 4 15.09375 L 4.28125 15.375 C 4.28125 15.375 4.747905 15.859068 5.53125 16.25 C 6.1474589 16.557522 7.018661 16.828686 8.09375 16.9375 C 8.2842075 19.030444 8.7229962 20.467626 8.9375 21.03125 L 8.03125 24.40625 L 7.875 24.96875 L 8.3125 25.40625 C 8.3125 25.40625 11.113717 28 16 28 C 20.886283 28 23.6875 25.40625 23.6875 25.40625 L 24.125 24.96875 L 23.96875 24.40625 L 23.0625 21.0625 C 23.242747 20.577743 23.710158 19.102804 23.90625 16.9375 C 24.981339 16.828686 25.852541 16.557522 26.46875 16.25 C 27.252095 15.859068 27.71875 15.375 27.71875 15.375 L 28 15.09375 L 28 14.6875 C 28 12.530357 27.064767 10.919134 26.375 10.03125 C 26.471444 9.9388026 26.557307 9.8383664 26.65625 9.75 L 27.25 9.21875 L 26.875 8.53125 C 26.875 8.53125 24.996906 5.1834067 20.875 5 L 19.65625 4.1875 L 19.40625 4 L 19.09375 4 L 19 4 L 18.40625 4 L 18.125 4.53125 C 18.125 4.53125 17.27029 6 16 6 C 14.72971 6 13.875 4.53125 13.875 4.53125 L 13.59375 4 L 13 4 L 12.90625 4 L 12.59375 4 z M 12.75 6.3125 C 13.318003 7.0639331 14.249888 8 16 8 C 17.750112 8 18.681997 7.0639331 19.25 6.3125 L 19.375 6.40625 C 19.34594 6.5849569 19.41833 6.667116 19.125 7.15625 C 18.7064 7.8542847 17.768003 8.7543765 16 9.5625 C 14.231369 8.7599723 13.292775 7.8549622 12.875 7.15625 C 12.582252 6.6666412 12.653891 6.5861642 12.625 6.40625 L 12.75 6.3125 z M 10.5625 7.0625 C 10.591619 7.0586437 10.626651 7.0659965 10.65625 7.0625 C 10.757725 7.4041685 10.910695 7.7768059 11.15625 8.1875 C 11.502512 8.7666094 12.006249 9.390211 12.75 10 C 12.408916 10.68059 11.909786 11.120316 11.3125 11.4375 C 10.696082 11.764844 10.054654 11.819942 9.5 11.875 C 8.9427889 10.84119 8.1898394 9.8679991 7.3125 8.96875 C 7.6961708 8.4043348 8.5827593 7.3246842 10.5625 7.0625 z M 21.34375 7.0625 C 23.385721 7.303715 24.298186 8.3960332 24.6875 8.96875 C 23.810161 9.8679991 23.057211 10.84119 22.5 11.875 C 21.945346 11.819942 21.303918 11.764844 20.6875 11.4375 C 20.090214 11.120316 19.591084 10.68059 19.25 10 C 19.994181 9.3907169 20.497308 8.7652074 20.84375 8.1875 C 21.08944 7.7778002 21.242282 7.4042189 21.34375 7.0625 z M 14.4375 11.09375 C 14.805607 11.288818 15.189625 11.481008 15.625 11.65625 L 16 11.78125 L 16.375 11.65625 C 16.807504 11.480637 17.196196 11.288365 17.5625 11.09375 C 18.116451 12.059418 18.923239 12.748456 19.75 13.1875 C 20.488187 13.579508 21.227 13.796573 21.90625 13.90625 C 22.276158 17.310642 21.252578 20.044668 21.125 20.375 C 20.880578 20.586407 19.203733 22 16 22 C 12.749807 22 11.044364 20.519581 10.84375 20.34375 C 10.708268 20.011135 9.6928745 17.385743 10.09375 13.90625 C 10.773 13.796573 11.511813 13.579508 12.25 13.1875 C 13.076761 12.748456 13.883549 12.059418 14.4375 11.09375 z M 7 11.5625 C 7.4591736 12.17988 7.8277901 12.806868 8.09375 13.40625 L 8.125 13.5 C 8.0651118 13.97951 8.0151234 14.451441 8 14.90625 C 7.3346484 14.801204 6.806747 14.621775 6.4375 14.4375 C 6.1543364 14.296186 6.1724209 14.27046 6.0625 14.1875 C 6.174281 13.034181 6.6083207 12.152041 7 11.5625 z M 25 11.5625 C 25.391679 12.152041 25.825719 13.034181 25.9375 14.1875 C 25.827579 14.27046 25.84566 14.296186 25.5625 14.4375 C 25.187565 14.624613 24.649342 14.802447 23.96875 14.90625 C 23.955092 14.458665 23.899986 14.00075 23.84375 13.53125 L 23.90625 13.40625 C 24.17221 12.806868 24.540826 12.17988 25 11.5625 z M 10.59375 22.59375 C 11.733509 23.232246 13.577228 24 16 24 C 18.422772 24 20.266491 23.232246 21.40625 22.59375 L 21.84375 24.25 C 21.310951 24.692932 19.578292 26 16 26 C 12.421708 26 10.689049 24.692932 10.15625 24.25 L 10.59375 22.59375 z" overflow="visible" font-family="Bitstream Vera Sans"/>
</svg>
