<?xml version="1.0" encoding="utf-8"?>
<!-- Svg Vector Icons : http://www.onlinewebfonts.com/icon -->
<!DOCTYPE svg PUBLIC "-//W3C//DTD SVG 1.1//EN" "http://www.w3.org/Graphics/SVG/1.1/DTD/svg11.dtd">
<svg version="1.1" xmlns="http://www.w3.org/2000/svg" xmlns:xlink="http://www.w3.org/1999/xlink" x="0px" y="0px" viewBox="0 0 1000 1000" enable-background="new 0 0 1000 1000" xml:space="preserve">
<metadata> Svg Vector Icons : http://www.onlinewebfonts.com/icon </metadata>
<g><g transform="translate(0.000000,512.000000) scale(0.100000,-0.100000)"><path d="M5285.2,4995.7c-124.5-40.2-235.6-164.7-264.3-295c-13.4-61.3-21.1-333.3-21.1-710.6v-612.9h-2040h-2040v-402.2v-402.2h2038h2040l5.7-664.7l5.7-666.6l53.6-90c59.4-103.4,124.5-155.1,233.7-185.8c55.6-17.2,379.3-21.1,1179.9-17.2l1101.4,5.7l80.5,53.6c44.1,28.7,103.4,88.1,132.2,132.2l53.6,80.4l5.7,1735.4l3.8,1735.4l-51.7,103.4c-40.2,78.5-76.6,118.8-147.5,162.8l-93.8,57.5l-1093.7,3.8C5561,5022.5,5357.9,5018.7,5285.2,4995.7z M7049.3,2984.5V1749h-622.5h-622.5v1235.5V4220h622.5h622.5V2984.5z"/><path d="M4444.3,492.5c-128.3-55.5-249-212.6-249-321.8v-47.9L2705,117.1l-1492.1-5.8L1119,53.8C958.1-45.8,879.6-260.3,946.7-423.1c13.4-34.5,224.1-360.1,467.4-724c337.1-505.7,457.8-672.3,511.4-704.9c57.5-36.4,266.2-76.6,1170.3-227.9l1101.4-183.9l-5.8-114.9l-5.7-114.9l-747-375.4c-666.6-335.2-752.8-385-800.7-452.1c-78.5-111.1-88.1-182-90-649.3c0-505.7,13.4-576.6,141.7-693.4c61.3-57.5,109.2-82.4,185.8-97.7c74.7-15.3,927.1-21.1,3007.3-17.2l2903.8,5.7l93.8,57.5c70.9,44.1,107.3,84.3,145.6,160.9l53.6,105.4v478.9c-1.9,360.1-7.7,499.9-28.7,557.4c-53.6,155.1-105.4,182-1093.7,576.5l-917.5,367.8v137.9v137.9l919.4,367.8c835.1,333.3,927.1,373.5,999.9,446.3c46,46,88.1,109.2,99.6,153.2c28.7,97.7,28.7,1367.6,0,1467.2c-26.8,99.6-160.9,233.7-256.7,260.5c-53.6,15.3-710.6,21.1-2183.6,21.1C4779.5,521.2,4503.7,517.4,4444.3,492.5z M8275.2-557.2V-833l-921.3-367.8c-515.3-206.9-946.2-390.8-976.9-417.6c-32.6-24.9-76.6-82.4-99.6-126.4c-40.2-74.7-42.1-99.6-42.1-586.1c0-486.5,1.9-511.4,42.1-586.1c23-44.1,67-101.5,99.6-126.4c30.6-26.8,461.6-210.7,976.9-417.6l921.3-367.8v-74.7v-74.7l-2455.6,3.8l-2457.5,5.8l-5.7,80.4l-5.8,80.4l733.6,367.8c404.2,201.1,754.7,385,777.7,408c24.9,21.1,65.1,74.7,86.2,116.8c42.1,76.6,42.1,88.1,47.9,1356.1l5.8,1277.6h1635.8h1637.7V-557.2z M4195.3-1068.6v-385l-51.7,11.5c-30.6,5.8-419.5,70.9-867.7,145.6c-448.2,72.8-833.2,137.9-856.2,143.7c-28.7,7.7-90,80.5-178.1,210.7c-74.7,111.1-139.8,214.5-147.5,229.9c-7.7,24.9,124.5,28.7,1045.8,28.7h1055.4V-1068.6z"/></g></g>
</svg>