<svg xmlns="http://www.w3.org/2000/svg" viewBox="0 0 72 72">
  <path d="M64.11,48.72A64.35,64.35,0,0,1,54,45.17a9.32,9.32,0,0,1-1.07-3.88,11.8,11.8,0,0,0,2.83-6.18.64.64,0,0,0,.39.14c.52,0,1.22-.77,2-3.67.95-3.64.06-4.36-.8-4.35a1,1,0,0,0-.4.05V27.2S59.43,18.7,53.29,15a2.83,2.83,0,0,0,1-2.13s-2.81.32-5.51.33a17.51,17.51,0,0,1-3.33-.25,4.73,4.73,0,0,0-1.08-.09c-2.53.07-5,2-5.38,3.94h-.1c-.8,0-5.83.38-3.41,10.49v0a1.87,1.87,0,0,0-.36,0c-.86,0-1.77.7-.81,4.35.76,2.91,1.48,3.67,2,3.67a.7.7,0,0,0,.46-.2,11.81,11.81,0,0,0,2.85,6.25h-.09a10.81,10.81,0,0,1-.79,3.39c-12.81,3.76-21,2.51-23.5,1.7-.7-1.81-1.55-7.2-1-14.92A5.17,5.17,0,0,0,9.57,26V16c1.62-2.07,3.08-3.2,4.75-3.2,3.76,0,5,3.23,10.07,3.23s7.09-5.24,8.28-13.25C31.38,4.5,28.08,5,26.1,5,20.25,5,20.49.54,14.81.54A9.68,9.68,0,0,0,9.57,2V0H7.8V26.07a5.17,5.17,0,0,0-3.91,4.65,67.25,67.25,0,0,0,.34,13.83c.82,5.66,2.51,9,5.31,10.59,2.16,1.21,6.57,2.47,13,2.47A59.33,59.33,0,0,0,32,56.8v7.88a47.64,47.64,0,0,0,11.38,2L45.5,53.43l-2.66-3.49,4-2.24,4,2.24-2.66,3.49,2.1,13.14c11-.9,17.42-5.07,17.42-5.07a17.63,17.63,0,0,0,.48-4.61C68.45,54.54,68.25,49.77,64.11,48.72Z"/>
</svg>