<?xml version="1.0" encoding="iso-8859-1"?>
<!-- Generator: Adobe Illustrator 19.0.0, SVG Export Plug-In . SVG Version: 6.00 Build 0)  -->
<svg version="1.1" id="Layer_1" xmlns="http://www.w3.org/2000/svg" xmlns:xlink="http://www.w3.org/1999/xlink" x="0px" y="0px"
	 viewBox="0 0 461.724 461.724" style="enable-background:new 0 0 461.724 461.724;" xml:space="preserve">
<g>
	<g>
		<g>
			<path d="M93.746,60.483c-1.26,3.609-1.953,7.484-1.953,11.523c0,19.304,15.649,34.953,34.953,34.953s34.953-15.649,34.953-34.953
				c0-4.039-0.693-7.914-1.953-11.523c-6.765-2.557-17.188-7.03-33-7.03C110.962,53.453,100.51,57.927,93.746,60.483z"/>
			<path d="M95.351,49.187c10.116-3.823,20.756-5.734,31.395-5.734c10.64,0,21.279,1.911,31.395,5.734
				c4.664-12.343,9.328-24.687,13.993-37.03c0.364-0.964,0.321-2.035-0.117-2.967s-1.235-1.648-2.209-1.983
				C155.857,2.402,141.302,0,126.746,0C112.19,0,97.635,2.402,83.684,7.206c-0.974,0.335-1.772,1.05-2.21,1.983
				c-0.438,0.933-0.48,2.003-0.116,2.967C86.022,24.5,90.687,36.843,95.351,49.187z M115.996,17.425h5.75v-5.75h10v5.75h5.75v10
				h-5.75v5.75h-10v-5.75h-5.75V17.425z"/>
			<path d="M412.888,327.555h-8.75V302.16c0-2.451-1.987-4.439-4.439-4.439h-0.657c1.669-1.176,2.762-3.115,2.762-5.312
				c0-3.59-2.91-6.5-6.5-6.5h-17c-3.59,0-6.5,2.91-6.5,6.5c0,2.197,1.093,4.135,2.762,5.312h-0.656
				c-2.451,0-4.439,1.987-4.439,4.439v25.395h-9.375V292.16c0-2.451-1.987-4.439-4.439-4.439h-5.395v-37.873
				c0-2.451-1.987-4.439-4.439-4.439h-6.121c-2.452,0-4.439,1.987-4.439,4.439v37.873h-5.395c-2.451,0-4.439,1.987-4.439,4.439
				v35.395h-9.292V282.16c0-2.451-1.987-4.439-4.439-4.439h-0.657c1.669-1.176,2.762-3.115,2.762-5.312c0-3.59-2.91-6.5-6.5-6.5h-17
				c-3.59,0-6.5,2.91-6.5,6.5c0,2.197,1.093,4.135,2.762,5.312h-0.656c-2.451,0-4.439,1.987-4.439,4.439v45.395h-13.583v-45
				c0-5.523-4.478-10-10-10h-17.55c-0.017-0.045-0.028-0.091-0.046-0.137c-0.331-0.845-33.271-84.897-45.335-120.005
				c-7.825-22.769-20.945-34.313-38.995-34.313c-25.363,0-33.117,0-58.434,0c-18.052,0-31.171,11.545-38.994,34.314
				c-5.278,15.357-13.215,37.545-18.691,52.771c-3.881,10.795,3.94,22.264,15.426,22.566c0.332,0.009,57.628,1.522,57.961,1.522
				c9.107-0.001,16.608-7.262,16.851-16.421c0.245-9.311-7.103-17.058-16.415-17.303l-34.222-0.902
				c1.456-4.086,2.82-7.93,4.093-11.531l0.164,0.004l16.396,0.432l3.477-24.351c0.347-2.427,2.595-4.113,5.022-3.767l50.609,7.226
				c2.427,0.347,4.113,2.595,3.767,5.022l-8.93,62.544c-0.346,2.427-2.595,4.113-5.022,3.767l-14.965-2.137
				c-5.57,5.962-13.381,9.261-21.583,9.042l-39.441-1.04l-13.195,68.129c-0.532,2.746,0.192,5.585,1.971,7.743
				s4.43,3.418,7.227,3.418c3.628,0,7.998,0,12.869,0v122.335c0,11.177,9.062,20.238,20.238,20.238
				c11.177,0,20.238-9.061,20.238-20.238V319.15c2.909,0,5.828,0,8.737,0v122.335c0,11.177,9.061,20.238,20.238,20.238
				s20.238-9.061,20.238-20.238V319.15c4.872,0,9.242,0,12.868,0c2.799,0,5.451-1.251,7.231-3.411c1.78-2.16,2.5-5.002,1.967-7.75
				c-26.145-134.99-23.053-118.223-24.024-126.162c14.541,39.835,38.094,99.941,39.257,102.906c3.4,8.67,13.184,12.945,21.857,9.544
				c1.174-0.46,2.258-1.046,3.263-1.721h13.878v45v114.168c0,5.523,4.478,10,10,10c5.522,0,10-4.477,10-10v-30.647h135v30.647
				c0,5.523,4.478,10,10,10c5.522,0,10-4.477,10-10V337.555C422.888,332.032,418.411,327.555,412.888,327.555z"/>
		</g>
	</g>
</g>
<g>
</g>
<g>
</g>
<g>
</g>
<g>
</g>
<g>
</g>
<g>
</g>
<g>
</g>
<g>
</g>
<g>
</g>
<g>
</g>
<g>
</g>
<g>
</g>
<g>
</g>
<g>
</g>
<g>
</g>
</svg>
