<?xml version="1.0" encoding="iso-8859-1"?>
<!-- Generator: Adobe Illustrator 18.0.0, SVG Export Plug-In . SVG Version: 6.00 Build 0)  -->
<!DOCTYPE svg PUBLIC "-//W3C//DTD SVG 1.1//EN" "http://www.w3.org/Graphics/SVG/1.1/DTD/svg11.dtd">
<svg version="1.1" id="Capa_1" xmlns="http://www.w3.org/2000/svg" xmlns:xlink="http://www.w3.org/1999/xlink" x="0px" y="0px"
	 viewBox="0 0 296.999 296.999" style="enable-background:new 0 0 296.999 296.999;" xml:space="preserve">
<g>
	<path d="M134.057,192.879c1.52,1.943,6.95,4.887,10.45,1.387l1.07-1.069c3.5-3.5,2.966-8.568-1.188-11.262
		c0,0-9.008-5.844-16.25-13.086c-7.164-7.164-13.1-16.224-13.1-16.224c-2.712-4.141-7.796-4.665-11.296-1.165l-1.023,1.023
		c-3.5,3.5-0.623,8.914,1.345,10.439c1.968,1.525,6.441,5.638,9.942,9.138l10.922,10.923
		C128.431,186.483,132.538,190.937,134.057,192.879z"/>
	<path d="M270.048,157.024c17.959-17.959,26.941-41.503,26.941-65.041c0-23.543-8.978-47.079-26.941-65.042
		c-35.922-35.921-94.162-35.921-130.082,0c-17.961,17.961-26.941,41.501-26.941,65.042c0,23.54,8.98,47.08,26.941,65.041
		C175.888,192.945,234.127,192.945,270.048,157.024z M163.892,132.991c-11.354-11.323-17.029-26.169-17.029-41.009
		c0-14.844,5.674-29.684,17.029-41.009c22.709-22.648,59.521-22.649,82.232,0c11.352,11.323,17.027,26.166,17.027,41.008
		c0,14.843-5.676,29.685-17.027,41.01C223.416,155.64,186.599,155.64,163.892,132.991z"/>
	<path d="M44.572,293.413l75.686-75.686c2.299-2.3,3.566-5.38,3.566-8.671c0-3.292-1.268-6.372-3.566-8.672l-23.652-23.65
		c-2.299-2.301-5.379-3.568-8.672-3.568c-3.291,0-6.371,1.268-8.67,3.568L3.576,252.419c-2.299,2.3-3.566,5.38-3.566,8.671v0.002
		c0,3.29,1.268,6.369,3.566,8.67l23.652,23.652C32.01,298.195,39.791,298.195,44.572,293.413z"/>
</g>
<g>
</g>
<g>
</g>
<g>
</g>
<g>
</g>
<g>
</g>
<g>
</g>
<g>
</g>
<g>
</g>
<g>
</g>
<g>
</g>
<g>
</g>
<g>
</g>
<g>
</g>
<g>
</g>
<g>
</g>
</svg>
