<svg version="1.1" xmlns="http://www.w3.org/2000/svg" xmlns:xlink="http://www.w3.org/1999/xlink" x="0px" y="0px"
	 viewBox="0 0 342.481 342.481" style="enable-background:new 0 0 342.481 342.481;" xml:space="preserve">
<g>
	<path d="M340.101,156.218L300.813,68.66c-4.417-9.844-13.854-15.959-24.63-15.959c-11.446,0-21.404,6.929-25.368,17.653
		l-32.361,87.559c-3.063,8.286-1.876,17.561,3.173,24.81c5.05,7.249,13.338,11.577,22.173,11.577h28.326v27.337h-18.571
		c-4.143,0-7.5,3.357-7.5,7.5v61.04c0,18.367,14.943,33.311,33.311,33.311h0.521c18.367,0,33.311-14.943,33.311-33.311v-61.04
		c0-4.143-3.357-7.5-7.5-7.5h-18.571v-27.337h28.321c9.202,0,17.683-4.612,22.684-12.337
		C343.131,174.238,343.867,164.614,340.101,156.218z M298.197,290.176c0,10.097-8.214,18.311-18.311,18.311h-0.521
		c-10.097,0-18.311-8.214-18.311-18.311v-53.54h37.143V290.176z M325.539,173.811c-2.259,3.488-5.937,5.488-10.092,5.488H243.8
		c-3.989,0-7.585-1.877-9.864-5.15c-2.279-3.272-2.794-7.296-1.411-11.037l32.361-87.558c2.14-5.791,7.239-7.854,11.298-7.854
		c4.858,0,8.949,2.653,10.944,7.1l39.287,87.559C328.116,166.149,327.796,170.324,325.539,173.811z"/>
	<path d="M229.92,236.636c4.143,0,7.5-3.357,7.5-7.5s-3.357-7.5-7.5-7.5H116.197c-4.143,0-7.5,3.357-7.5,7.5v79.688
		c0,4.143,3.357,7.5,7.5,7.5H229.92c4.143,0,7.5-3.357,7.5-7.5s-3.357-7.5-7.5-7.5H123.697v-64.688H229.92z"/>
	<path d="M229.92,200.003h-39.162v-64.688h28.577c4.143,0,7.5-3.357,7.5-7.5c0-4.143-3.357-7.5-7.5-7.5h-36.077
		c-4.143,0-7.5,3.357-7.5,7.5v79.688c0,4.143,3.357,7.5,7.5,7.5h46.662c4.143,0,7.5-3.357,7.5-7.5S234.063,200.003,229.92,200.003z"
		/>
	<path d="M116.197,113.682h104.468c4.143,0,7.5-3.357,7.5-7.5s-3.357-7.5-7.5-7.5h-96.968V33.995h191.275v46.154
		c0,4.143,3.357,7.5,7.5,7.5s7.5-3.357,7.5-7.5V26.495c0-4.143-3.357-7.5-7.5-7.5H116.197c-4.143,0-7.5,3.357-7.5,7.5v79.688
		C108.697,110.325,112.055,113.682,116.197,113.682z"/>
	<path d="M168.546,207.503v-79.688c0-4.143-3.357-7.5-7.5-7.5H7.5c-4.143,0-7.5,3.357-7.5,7.5v79.688c0,4.143,3.357,7.5,7.5,7.5
		h153.546C165.188,215.003,168.546,211.646,168.546,207.503z M153.546,200.003H15v-64.688h138.546V200.003z"/>
</g>
<g>
</g>
<g>
</g>
<g>
</g>
<g>
</g>
<g>
</g>
<g>
</g>
<g>
</g>
<g>
</g>
<g>
</g>
<g>
</g>
<g>
</g>
<g>
</g>
<g>
</g>
<g>
</g>
<g>
</g>
</svg>
