<?xml version="1.0" encoding="iso-8859-1"?>
<!-- Generator: Adobe Illustrator 19.0.0, SVG Export Plug-In . SVG Version: 6.00 Build 0)  -->
<svg version="1.1" id="Layer_1" xmlns="http://www.w3.org/2000/svg" xmlns:xlink="http://www.w3.org/1999/xlink" x="0px" y="0px"
	 viewBox="0 0 511.999 511.999" style="enable-background:new 0 0 511.999 511.999;" xml:space="preserve">
<g>
	<g>
		<path d="M359.132,210.769l-44.452-35.976c-2.966-2.401-7.321-1.943-9.723,1.025c-2.402,2.968-1.943,7.321,1.025,9.723
			l35.298,28.568l-61.171-9.216c-2.555-0.385-4.939,1.375-5.324,3.93l-4.417,29.317c17.16-3.914,35.806,2.165,47.168,17.079
			c15.501,20.346,11.578,49.411-8.772,64.917l-11.699,8.913l42.012,6.33c2.555,0.385,4.939-1.375,5.324-3.93l17.218-114.276
			l-0.006-0.001C361.963,214.828,361.107,212.366,359.132,210.769z"/>
	</g>
</g>
<g>
	<g>
		<circle cx="130.132" cy="181.525" r="60.222"/>
	</g>
</g>
<g>
	<g>
		<path d="M470.454,482.615c1.402-2.438,2.502-5.1,3.192-7.973c3.875-16.147-6.072-32.379-22.219-36.254l-163.718-39.294
			c-3.969-0.952-8.09-1.087-12.111-0.396l-79.85,13.727l-4.727-31.098l-76.689-48.154c18.606,5.5,71.429,21.118,89.972,26.601
			c7.451,2.302,15.876,1.106,22.576-3.984c0.009-0.007,0.018-0.013,0.026-0.02l68.968-52.549
			c11.008-8.388,13.131-24.109,4.745-35.115c-8.387-11.008-24.108-13.131-35.115-4.745l-58.862,44.849
			c-15.272-4.515-85.079-25.155-92.486-27.344l61.267,3.37c-2.832-7.758-7.914-14.573-14.687-19.513
			c-9.04-6.595-20.341-9.305-31.39-7.529l-38.108,6.128c-11.058,1.778-20.946,7.903-27.462,17.012
			c-1.385,1.935-2.581,3.975-3.608,6.088V14.932C60.17,6.686,53.485,0,45.238,0S30.306,6.686,30.306,14.932v482.135
			c0,8.246,6.685,14.932,14.932,14.932h421.523c8.246,0,14.932-6.686,14.932-14.932
			C481.693,490.098,476.911,484.261,470.454,482.615z M60.17,482.135V333.032L80.525,452.09
			c2.133,12.471,9.883,23.762,21.817,30.045H60.17z M153.089,482.135l126.599-23.125l96.348,23.125H153.089z"/>
	</g>
</g>
<g>
</g>
<g>
</g>
<g>
</g>
<g>
</g>
<g>
</g>
<g>
</g>
<g>
</g>
<g>
</g>
<g>
</g>
<g>
</g>
<g>
</g>
<g>
</g>
<g>
</g>
<g>
</g>
<g>
</g>
</svg>
