<?xml version="1.0" encoding="iso-8859-1"?>
<!-- Generator: Adobe Illustrator 18.0.0, SVG Export Plug-In . SVG Version: 6.00 Build 0)  -->
<!DOCTYPE svg PUBLIC "-//W3C//DTD SVG 1.1//EN" "http://www.w3.org/Graphics/SVG/1.1/DTD/svg11.dtd">
<svg version="1.1" id="Capa_1" xmlns="http://www.w3.org/2000/svg" xmlns:xlink="http://www.w3.org/1999/xlink" x="0px" y="0px"
	 viewBox="0 0 491.455 491.455" style="enable-background:new 0 0 491.455 491.455;" xml:space="preserve">
<path id="XMLID_129_" d="M399.308,83.336c-20.438-23.271-52.618-31.931-81.952-22.103l-15.568,5.221l6.156-33.699h2.993
	c9.043,0,16.377-7.334,16.377-16.378C327.314,7.334,319.981,0,310.937,0H179.916c-9.045,0-16.378,7.334-16.378,16.377
	c0,9.044,7.332,16.378,16.378,16.378h2.991l6.156,33.699l-31.092-10.428l11.709,24.006l-3.32,13.354l27.82,9.334
	c-10.164,5.326-19.824,12.034-28.819,19.887l40.631,29.229l7.333,5.278l-3.215,6.708l-24.383,50.836l31.548,51.477l-41.504-48.157
	l-1.543-1.792l0.896-3.071l14.018-47.693l-44.03-21.928c-8.812,10.604-16.521,22.376-23.207,34.699l-15.642-32.092l-12.33,11.021
	l-20.865-4.383l31.909,65.494c-5.422,17.681-8.485,35.665-8.485,52.939c0,13.556,1.936,26.622,5.334,39.089l46.789-10.938
	l5.206-1.217l3.015,2.041l62.44,42.278l2.238,1.52l-0.169,2.03l-4.07,49.134l-3.847-46.431l-61.838-28.34L111.99,336.86
	c11.163,22.567,27.717,41.999,48.221,56.313c21.624,15.091,33.659,39.849,33.171,65.527h-8.269c-9.044,0-16.378,7.334-16.378,16.377
	c0,9.046,7.334,16.378,16.378,16.378h120.64c9.045,0,16.378-7.332,16.378-16.378c0-9.043-7.333-16.377-16.378-16.377h-8.267
	c-0.488-25.679,11.531-50.428,33.163-65.535c38.503-26.878,63.71-71.45,63.71-121.992c0-17.257-3.086-35.249-8.485-52.947
	l24.735-50.764C424.172,139.634,419.741,106.606,399.308,83.336z M296.566,102.759l31.205-10.467
	c16.801-5.655,35.241-0.665,46.924,12.65c11.7,13.332,14.236,32.236,6.47,48.173l-12.067,24.766
	C351.696,145.751,326.322,118.218,296.566,102.759z"/>
<g>
</g>
<g>
</g>
<g>
</g>
<g>
</g>
<g>
</g>
<g>
</g>
<g>
</g>
<g>
</g>
<g>
</g>
<g>
</g>
<g>
</g>
<g>
</g>
<g>
</g>
<g>
</g>
<g>
</g>
</svg>
