<?xml version="1.0" encoding="utf-8"?>
<!-- Svg Vector Icons : http://www.onlinewebfonts.com/icon -->
<!DOCTYPE svg PUBLIC "-//W3C//DTD SVG 1.1//EN" "http://www.w3.org/Graphics/SVG/1.1/DTD/svg11.dtd">
<svg version="1.1" xmlns="http://www.w3.org/2000/svg" xmlns:xlink="http://www.w3.org/1999/xlink" x="0px" y="0px" viewBox="0 0 1000 1000" enable-background="new 0 0 1000 1000" xml:space="preserve">
<metadata> Svg Vector Icons : http://www.onlinewebfonts.com/icon </metadata>
<g><g transform="matrix(1 0 0 -1 0 1920)"><path d="M607.6,1713.8c-27,0-50,9.6-69.3,28.8c-19.2,19.2-28.8,42.3-28.8,69.3c0,27,9.6,50,28.8,69.3c19.2,19.2,42.3,28.8,69.3,28.8c27,0,50-9.6,69.3-28.8c19.2-19.2,28.8-42.3,28.8-69.3c0-27-9.6-50-28.8-69.3C657.6,1723.4,634.5,1713.8,607.6,1713.8z M221.7,930c-6,0-11.1,2-15.3,6c-4.2,4-6.4,9-6.7,15.1c-0.6,4-0.9,10.5-0.9,19.4v278.3c0,81.5,3.6,147,10.8,196.6c3.4,26.1,11.5,54.3,24.3,84.5c12.8,30.3,27.9,58.5,45.4,84.8c17.5,26.2,37.1,49.7,58.7,70.3c21.7,20.7,42.4,34.6,62.2,41.7c20.9,7.5,39.7,11.2,56.4,11.2c29.3,0,51.3-12.2,66.3-36.6L635.5,1522l112.7-64.1c1.4-1.1,3.3-2.6,5.6-4.3c2.3-1.7,6.5-5.4,12.7-11c6.2-5.6,11.5-11.3,16.1-17c4.6-5.7,8.8-12.6,12.7-20.6c3.9-8,5.8-15.8,5.8-23.2V951.5c0-6-2.1-11.1-6.2-15.3s-9.2-6.2-15.3-6.2s-11.1,2.1-15.3,6.2c-4.2,4.2-6.2,9.3-6.2,15.3v430.2c0,7.5-1.5,14-4.5,19.6c-3,5.6-6.8,9.8-11.4,12.5c-4.6,2.7-9.3,4.7-14,6c-4.7,1.3-9.4,1.9-14,1.9c-11.2,0-21-3.3-29.5-9.9c-8.5-6.6-12.7-16.6-12.7-30.1c0-6-2.1-11.1-6.2-15.3s-9.2-6.2-15.3-6.2s-11.1,2.1-15.3,6.2c-4.2,4.2-6.2,9.2-6.2,15.3c0,22.7,7.3,41.4,21.9,56.4c-43.9,8.9-66.4,14.1-67.5,15.5l-89.9,75.7l-58.9-145.4l57.6-166.5l-3.9-222.8l72.3-13.8c5.4-1.1,9.9-4.2,13.3-9.2c3.4-5,5.2-10.5,5.2-16.6s-2.5-11.3-7.5-15.9c-5-4.6-10.5-6.9-16.6-6.9l-118.7-0.9c-6,0-11.2,2.1-15.5,6.2c-4.3,4.2-6.5,9.1-6.5,14.8l2.2,46.9l-32.7,200.5l-46.9,95.9l-33.1-111.4l-27.1-191.9l68.8-11.6c5.4-1.1,9.9-4.2,13.3-9.2c3.4-5,5.2-10.5,5.2-16.6s-2.5-11.3-7.5-15.9c-5-4.6-10.5-6.9-16.6-6.9L221.7,930z"/></g></g>
</svg>