<?xml version="1.0" encoding="iso-8859-1"?>
<!-- Uploaded to: SVG Repo, www.svgrepo.com, Generator: SVG Repo Mixer Tools -->
<svg fill="#000000" height="800px" width="800px" version="1.1" id="Layer_1" xmlns="http://www.w3.org/2000/svg" xmlns:xlink="http://www.w3.org/1999/xlink" 
	 viewBox="0 0 512 512" xml:space="preserve">
<g>
	<g>
		<g>
			<path d="M504.176,239.489l-95.424-78.08C319.89,88.718,192.11,88.718,103.25,161.408L7.824,239.489
				c-10.432,8.536-10.431,24.488,0.002,33.023l96.491,78.933c88.241,72.199,215.126,72.199,303.369-0.001l96.489-78.932
				C514.608,263.977,514.609,248.026,504.176,239.489z M380.668,318.421c-72.527,59.342-176.81,59.342-249.335,0.001l-76.31-62.424
				l75.243-61.567c73.143-59.832,178.323-59.832,251.468,0.002l75.241,61.566L380.668,318.421z"/>
			<path d="M256,170.667c-47.131,0-85.333,38.202-85.333,85.333s38.202,85.333,85.333,85.333s85.333-38.202,85.333-85.333
				S303.131,170.667,256,170.667z M256,298.667c-23.567,0-42.667-19.099-42.667-42.667s19.099-42.667,42.667-42.667
				s42.667,19.099,42.667,42.667S279.567,298.667,256,298.667z"/>
			<path d="M240.915,79.085c8.331,8.331,21.839,8.331,30.17,0l42.667-42.667c8.331-8.331,8.331-21.839,0-30.17
				c-8.331-8.331-21.839-8.331-30.17,0L256,33.83L228.418,6.248c-8.331-8.331-21.839-8.331-30.17,0
				c-8.331,8.331-8.331,21.839,0,30.17L240.915,79.085z"/>
			<path d="M271.085,432.915c-8.331-8.331-21.839-8.331-30.17,0l-42.667,42.667c-8.331,8.331-8.331,21.839,0,30.17
				c8.331,8.331,21.839,8.331,30.17,0L256,478.17l27.582,27.582c8.331,8.331,21.839,8.331,30.17,0c8.331-8.331,8.331-21.839,0-30.17
				L271.085,432.915z"/>
		</g>
	</g>
</g>
</svg>