<?xml version="1.0" encoding="utf-8"?><!-- Uploaded to: SVG Repo, www.svgrepo.com, Generator: SVG Repo Mixer Tools -->
<svg width="800px" height="800px" viewBox="0 0 16 16" fill="none" xmlns="http://www.w3.org/2000/svg">
<path d="M2 4C2 2.34315 3.34315 1 5 1H11C12.6569 1 14 2.34315 14 4V5C12.1362 5 10.5701 6.27477 10.126 8H5.87398C5.42994 6.27477 3.86384 5 2 5V4Z" fill="#000000"/>
<path d="M12 9C12 7.89543 12.8954 7 14 7C15.1046 7 16 7.89543 16 9C16 10.1046 15.1046 11 14 11V15H2V11C0.895431 11 0 10.1046 0 9C0 7.89543 0.895431 7 2 7C3.10457 7 4 7.89543 4 9V10H12V9Z" fill="#000000"/>
</svg>