<?xml version="1.0" encoding="utf-8"?>
<!-- Uploaded to: SVG Repo, www.svgrepo.com, Generator: SVG Repo Mixer Tools -->
<svg fill="#000000" width="800px" height="800px" viewBox="0 0 32 32" version="1.1" xmlns="http://www.w3.org/2000/svg">
<title>hand-holding-globe</title>
<path d="M29.064 19.701c-0.421-0.177-0.91-0.28-1.423-0.28-0.577 0-1.123 0.13-1.611 0.362l0.023-0.010-5.778 2.595c0.003-0.047 0.026-0.087 0.026-0.134-0.015-1.371-1.129-2.476-2.502-2.476-0.069 0-0.137 0.003-0.204 0.008l0.009-0.001h-3.783l-4.76-1.395c-0.062-0.020-0.133-0.031-0.207-0.031-0.001 0-0.003 0-0.004 0h-2.169v-0.757c-0-0.414-0.336-0.75-0.75-0.75h-3.883c-0.414 0-0.75 0.336-0.75 0.75v0 12.208c0 0.414 0.336 0.75 0.75 0.75h3.883c0.414-0 0.75-0.336 0.75-0.75v0-1.005c1.818 0.284 3.445 0.742 4.987 1.367l-0.149-0.054c1.15 0.416 2.478 0.656 3.862 0.656 0.007 0 0.014 0 0.021-0h-0.001c0.005 0 0.011 0 0.017 0 1.604 0 3.133-0.319 4.528-0.898l-0.078 0.029c1.243-0.553 2.298-1.136 3.297-1.799l-0.082 0.051c0.338-0.209 0.674-0.418 1.014-0.619 1.633-0.967 2.945-1.816 4.129-2.672 0.579-0.412 1.083-0.819 1.563-1.253l-0.014 0.013c0.373-0.302 0.671-0.682 0.871-1.116l0.008-0.019c0.031-0.079 0.048-0.17 0.048-0.266 0-0.057-0.006-0.112-0.018-0.165l0.001 0.005c-0.146-1.017-0.755-1.866-1.603-2.337l-0.016-0.008zM5.181 29.041h-2.383v-10.709h2.383zM28.719 22.541c-0.412 0.37-0.86 0.729-1.328 1.062l-0.047 0.032c-1.143 0.826-2.418 1.65-4.014 2.596-0.348 0.205-0.691 0.418-1.037 0.631-0.854 0.573-1.837 1.12-2.864 1.586l-0.13 0.053c-1.152 0.474-2.49 0.748-3.892 0.748-1.203 0-2.359-0.203-3.436-0.575l0.074 0.022c-1.555-0.648-3.363-1.145-5.248-1.407l-0.117-0.013v-7.436h2.062l4.76 1.395c0.062 0.020 0.133 0.031 0.207 0.031 0.001 0 0.003 0 0.004 0h3.89c0.883 0 1.197 0.521 1.197 0.969s-0.314 0.969-1.197 0.969h-6.809c-0.414 0-0.75 0.336-0.75 0.75s0.336 0.75 0.75 0.75v0h7.781c0.001 0 0.003 0 0.004 0 0.11 0 0.214-0.024 0.307-0.068l-0.004 0.002 7.795-3.5c0.288-0.132 0.625-0.209 0.98-0.209 0.265 0 0.52 0.043 0.758 0.122l-0.017-0.005c0.383 0.23 0.658 0.604 0.752 1.046l0.002 0.011c-0.136 0.159-0.278 0.302-0.429 0.435l-0.005 0.004zM17 17.767c4.549-0 8.236-3.688 8.236-8.237s-3.688-8.237-8.237-8.237c-4.549 0-8.237 3.687-8.237 8.236v0c0.005 4.547 3.69 8.232 8.237 8.237h0zM10.669 11.75h2.575c0.262 1.578 0.855 2.981 1.707 4.189l-0.021-0.032c-1.997-0.663-3.55-2.182-4.246-4.111l-0.015-0.047zM18.96 6.264l-3.919-0.019c0.397-1.27 1.071-2.356 1.956-3.23l0.001-0.001c0.887 0.881 1.563 1.973 1.947 3.195l0.015 0.055zM19.311 7.766c0.092 0.528 0.146 1.138 0.148 1.761v0.003c0 0.255-0.025 0.482-0.040 0.721h-4.839c-0.015-0.239-0.040-0.466-0.040-0.721 0.003-0.633 0.057-1.25 0.16-1.852l-0.009 0.066zM23.736 9.529c-0.012 0.267-0.038 0.515-0.078 0.759l0.005-0.038h-2.758c0.014-0.245 0.053-0.462 0.053-0.721-0.003-0.622-0.051-1.231-0.139-1.826l0.009 0.070 2.65 0.013c0.155 0.52 0.249 1.119 0.257 1.738l0 0.005zM14.766 11.75h4.468c-0.304 1.693-1.101 3.163-2.234 4.296l-0 0c-1.134-1.133-1.93-2.603-2.227-4.247l-0.007-0.049zM13.094 10.25h-2.759c-0.034-0.206-0.060-0.454-0.072-0.706l-0.001-0.015c0.010-0.647 0.11-1.267 0.289-1.853l-0.012 0.047 2.634 0.013c-0.082 0.537-0.13 1.158-0.133 1.79v0.003c0 0.259 0.040 0.475 0.053 0.721zM19.070 15.907c0.831-1.176 1.424-2.58 1.678-4.098l0.008-0.059h2.574c-0.711 1.975-2.263 3.494-4.213 4.143l-0.047 0.014zM22.866 6.283l-2.349-0.011c-0.32-1.188-0.816-2.228-1.467-3.151l0.021 0.031c1.64 0.545 2.967 1.657 3.778 3.097l0.017 0.034zM14.929 3.152c-0.624 0.882-1.117 1.91-1.422 3.017l-0.016 0.069-2.327-0.011c0.832-1.446 2.145-2.536 3.718-3.061l0.047-0.014z"></path>
</svg>