<?xml version="1.0" encoding="utf-8"?>
<!-- Uploaded to: SVG Repo, www.svgrepo.com, Generator: SVG Repo Mixer Tools -->
<svg fill="#000000" width="800px" height="800px" viewBox="0 0 32 32" version="1.1" xmlns="http://www.w3.org/2000/svg">
<title>aura</title>
<path d="M30.863 22.62c-1.838-1.206-4.709-2.787-4.709-4.563s2.871-3.43 4.709-4.636c-2.117 0.027-4.892-0.685-5.658-2.226-0.77-1.549 0.625-3.64 1.716-5.767-1.825 1.258-3.599 2.899-4.928 2.008s-1.962-4.134-1.934-6.607l-0-0c-1.040 2.161-2.403 3.76-3.942 3.76-1.533 0-2.94-1.578-3.979-3.723 0.023 2.46-0.608 5.68-1.934 6.57s-3.103-0.75-4.928-2.008c1.091 2.128 2.631 4.218 1.862 5.767-0.763 1.536-3.697 2.247-5.804 2.226 1.834 1.206 4.928 2.862 4.928 4.636s-3.094 3.357-4.928 4.563c2.106-0.021 5.040 0.727 5.804 2.263 0.764 1.538-0.564 3.519-2.109 5.348 2.802-0.963 4.071-0.359 5.335 0.675h1.984c-2.671-2.213-4.503-6.739-4.503-11.972-0-7.414 3.682-13.432 8.213-13.432h0c4.53 0 8.213 6.019 8.213 13.432 0 5.233-1.832 9.759-4.503 11.972h1.705c1.24-0.914 2.488-1.604 5.606-0.581-1.64-1.891-2.637-3.904-1.873-5.442 0.766-1.542 3.541-2.29 5.658-2.263zM18.212 13.042c0.586-0.736 0.964-1.758 0.964-2.89-0-2.236-1.424-4.042-3.173-4.042-0.109 0-0.222-0.014-0.329 0l0 0c-1.597 0.208-2.844 1.945-2.844 4.042 0 1.161 0.398 2.198 1.011 2.937-3.321 0.625-3.572 6.222-3.572 10.151h2.303l0.611 8.201h5.852l0.541-8.201h2.186c0-3.94 0.079-9.635-3.549-10.198z"></path>
</svg>