<?xml version="1.0" encoding="iso-8859-1"?>
<!-- Uploaded to: SVG Repo, www.svgrepo.com, Generator: SVG Repo Mixer Tools -->
<svg fill="#000000" height="800px" width="800px" version="1.1" id="Layer_1" xmlns="http://www.w3.org/2000/svg" xmlns:xlink="http://www.w3.org/1999/xlink" 
	 viewBox="0 0 512 512" xml:space="preserve">
<g>
	<g>
		<g>
			<path d="M85.333,170.667c39.765,0,73.173-27.193,82.645-64h322.688c11.782,0,21.333-9.551,21.333-21.333
				C512,73.551,502.449,64,490.667,64H167.979c-9.472-36.807-42.88-64-82.645-64C38.202,0,0,38.202,0,85.333
				S38.202,170.667,85.333,170.667z M85.333,42.667c23.567,0,42.667,19.099,42.667,42.667S108.901,128,85.333,128
				s-42.667-19.099-42.667-42.667S61.766,42.667,85.333,42.667z"/>
			<path d="M426.667,341.333c-39.765,0-73.173,27.193-82.645,64H21.333C9.551,405.333,0,414.885,0,426.667S9.551,448,21.333,448
				h322.688c9.472,36.807,42.88,64,82.645,64C473.798,512,512,473.798,512,426.667S473.798,341.333,426.667,341.333z
				 M426.667,469.333c-23.567,0-42.667-19.099-42.667-42.667S403.099,384,426.667,384s42.667,19.099,42.667,42.667
				S450.234,469.333,426.667,469.333z"/>
			<path d="M490.667,234.667H338.645c-9.472-36.807-42.88-64-82.645-64s-73.173,27.193-82.645,64H21.333
				C9.551,234.667,0,244.218,0,256s9.551,21.333,21.333,21.333h152.021c9.472,36.807,42.88,64,82.645,64s73.173-27.193,82.645-64
				h152.021c11.782,0,21.333-9.551,21.333-21.333S502.449,234.667,490.667,234.667z M256,298.667
				c-23.567,0-42.667-19.099-42.667-42.667s19.099-42.667,42.667-42.667s42.667,19.099,42.667,42.667S279.567,298.667,256,298.667z"
				/>
		</g>
	</g>
</g>
</svg>