<?xml version="1.0" encoding="utf-8"?><!-- Uploaded to: SVG Repo, www.svgrepo.com, Generator: SVG Repo Mixer Tools -->
<svg version="1.1" id="designs" xmlns="http://www.w3.org/2000/svg" xmlns:xlink="http://www.w3.org/1999/xlink" 
	 width="800px" height="800px" viewBox="0 0 32 32" xml:space="preserve">
<style type="text/css">
	.sketchy_een{fill:#111918;}
</style>
<path class="sketchy_een" d="M25.033,14.779c-0.05-0.342-0.164-0.698-0.348-0.992c-0.22-0.354-0.56-0.662-0.934-0.852
	c-0.236-0.12-0.494-0.206-0.754-0.258c-0.18-0.036-0.364-0.064-0.546-0.07c-0.011,0-0.021,0-0.032,0
	c-0.128,0-0.259,0.022-0.389,0.045c-0.097-0.221-0.211-0.432-0.384-0.614c-0.188-0.2-0.424-0.372-0.676-0.484
	c-0.304-0.136-0.584-0.222-0.92-0.242c-0.027-0.002-0.054-0.003-0.081-0.003c-0.239,0-0.476,0.067-0.711,0.101
	c-0.047,0.007-0.091,0.038-0.136,0.061c-0.109-0.181-0.205-0.369-0.323-0.543c-0.27-0.402-0.52-0.816-0.774-1.228
	c-0.032-0.052-0.086-0.078-0.127-0.121c0.032-0.049,0.063-0.099,0.095-0.147c0.21-0.316,0.424-0.63,0.63-0.95
	c0.198-0.308,0.376-0.63,0.56-0.948c0.386-0.672,0.71-1.384,0.982-2.109c0.126-0.336,0.222-0.68,0.284-1.034
	c0.034-0.198,0.062-0.396,0.04-0.596c-0.016-0.132-0.034-0.266-0.056-0.398c-0.03-0.17-0.1-0.336-0.174-0.492
	c-0.16-0.338-0.43-0.594-0.714-0.828c-0.13-0.106-0.258-0.216-0.392-0.316c-0.134-0.102-0.298-0.164-0.456-0.216
	c-0.135-0.045-0.272-0.062-0.409-0.062c-0.192,0-0.385,0.034-0.574,0.072c-0.202,0.042-0.402,0.092-0.596,0.16
	c-0.624,0.222-1.138,0.622-1.608,1.074c-0.357,0.343-0.671,0.73-0.978,1.12c-0.16-0.229-0.321-0.458-0.479-0.688
	c-0.248-0.36-0.512-0.72-0.798-1.05c-0.07-0.078-0.152-0.146-0.228-0.218c-0.118-0.112-0.236-0.224-0.358-0.332
	c-0.178-0.158-0.368-0.338-0.588-0.434c-0.252-0.112-0.414-0.15-0.69-0.182C11.342,1.002,11.292,1,11.241,1
	c-0.176,0-0.359,0.03-0.523,0.07c-0.228,0.054-0.448,0.17-0.64,0.304C9.63,1.69,9.27,2.127,9.116,2.661
	C9.002,3.063,8.962,3.499,8.96,3.915C8.956,4.377,8.984,4.827,9.124,5.269C9.268,5.722,9.46,6.166,9.656,6.6
	c0.174,0.386,0.372,0.766,0.56,1.146c0.21,0.428,0.42,0.858,0.64,1.284c0.018,0.035,0.051,0.056,0.075,0.086
	c-0.179,0.285-0.354,0.572-0.509,0.871c-0.386,0.748-0.746,1.513-1.074,2.287c-0.182,0.43-0.352,0.862-0.504,1.306
	c-0.146,0.426-0.274,0.858-0.414,1.286c-0.036,0.112-0.038,0.226-0.02,0.337c-0.103,0.114-0.199,0.236-0.286,0.358
	c-0.1,0.142-0.2,0.284-0.294,0.43c-0.172,0.262-0.302,0.544-0.434,0.826c-0.174,0.378-0.31,0.76-0.4,1.166
	c-0.078,0.348-0.106,0.684-0.084,1.038c0.016,0.3,0.076,0.6,0.14,0.894c0.062,0.294,0.132,0.592,0.234,0.876
	c0.108,0.304,0.218,0.604,0.306,0.914c0.196,0.704,0.43,1.399,0.672,2.089c-0.266,0.136-0.454,0.407-0.457,0.724
	c-0.004,0.53,0.006,1.058,0.012,1.588c0.006,0.512,0,1.022,0.002,1.534c0.004,0.466,0.016,0.93,0.018,1.396
	c0,0.186,0.008,0.372,0.01,0.556c0.004,0.162,0,0.324,0.016,0.484c0.02,0.218,0.072,0.402,0.232,0.562
	c0.031,0.031,0.073,0.047,0.109,0.073c0.15,0.176,0.365,0.295,0.61,0.294c0.412-0.004,0.822-0.02,1.232-0.03
	c0.168-0.002,0.336-0.002,0.506-0.002c0.186,0,0.374,0,0.564-0.006c0.762-0.022,1.524-0.054,2.287-0.066
	c0.676-0.008,1.352-0.004,2.027,0c0.786,0.004,1.572,0.008,2.357-0.008c0.754-0.016,1.512-0.042,2.265-0.012
	c0.163,0.006,0.307-0.059,0.432-0.15c0.198-0.007,0.388-0.085,0.53-0.225c0.096-0.098,0.164-0.214,0.202-0.348
	c0.038-0.14,0.038-0.278,0-0.418c-0.008-0.044-0.016-0.087-0.023-0.13c-0.031-0.332-0.032-0.666-0.049-0.997
	c-0.02-0.41-0.03-0.82-0.054-1.228c-0.026-0.414-0.05-0.828-0.058-1.242c-0.01-0.496-0.002-0.994,0.002-1.49
	c0.003-0.323-0.202-0.604-0.485-0.725c-0.123-0.163-0.301-0.273-0.507-0.284c0.055-0.158,0.119-0.311,0.172-0.473
	c0.13-0.402,0.272-0.796,0.384-1.204c0.1-0.358,0.218-0.708,0.308-1.068c0.084-0.339,0.168-0.677,0.251-1.015
	c0.272,0.058,0.554,0.082,0.821,0.003c0.26-0.074,0.514-0.23,0.736-0.38c0.148-0.1,0.3-0.186,0.454-0.276
	c0.206-0.122,0.396-0.274,0.562-0.446c0.244-0.25,0.44-0.532,0.614-0.834c0.17-0.294,0.334-0.584,0.464-0.898
	c0.056-0.136,0.108-0.274,0.152-0.414c0.06-0.188,0.076-0.39,0.102-0.584C25.117,15.629,25.097,15.203,25.033,14.779z
	 M19.869,12.889c0.059-0.003,0.117-0.003,0.176,0c0.081,0.017,0.16,0.038,0.238,0.065c0.058,0.03,0.113,0.063,0.167,0.1
	c0.049,0.042,0.096,0.087,0.141,0.135c0.03,0.048,0.057,0.097,0.082,0.148c0.059,0.156,0.107,0.315,0.144,0.479
	c0.01,0.183-0.008,0.369-0.029,0.55c-0.027,0.16-0.065,0.309-0.122,0.461c-0.128,0.278-0.274,0.55-0.426,0.818
	c-0.132,0.236-0.273,0.469-0.43,0.69c-0.073,0.086-0.147,0.169-0.231,0.245c-0.082,0.058-0.167,0.113-0.256,0.16
	c-0.073,0.024-0.146,0.044-0.221,0.06c-0.039,0.001-0.079,0-0.118-0.002c-0.069-0.015-0.137-0.034-0.204-0.057
	c-0.023-0.012-0.045-0.024-0.067-0.038c-0.018-0.017-0.036-0.035-0.053-0.053c-0.004-0.007-0.008-0.014-0.012-0.021
	c-0.019-0.057-0.034-0.115-0.047-0.175c-0.013-0.18-0.005-0.356,0.016-0.537c-0.002,0.013-0.004,0.027-0.006,0.041
	c0.022-0.177,0.043-0.354,0.066-0.531c0.039-0.229,0.099-0.455,0.143-0.683c0.04-0.208,0.084-0.416,0.132-0.622
	c0.06-0.268,0.124-0.538,0.226-0.792c0.052-0.13,0.106-0.26,0.161-0.39c0.108,0.014,0.218,0.006,0.335-0.014
	C19.74,12.914,19.804,12.901,19.869,12.889z M10.588,4.509c-0.038-0.379-0.041-0.763-0.002-1.143
	c0.02-0.099,0.043-0.196,0.074-0.292c0.026-0.049,0.053-0.096,0.083-0.143c0.05-0.058,0.102-0.113,0.158-0.165
	c0.057-0.037,0.115-0.071,0.175-0.103c0.036-0.011,0.073-0.02,0.11-0.028c0.052-0.003,0.104-0.004,0.156-0.003
	c0.025,0.015,0.049,0.03,0.073,0.047c0.347,0.289,0.653,0.602,0.938,0.953c0.397,0.532,0.754,1.091,1.161,1.614
	c-0.217,0.29-0.442,0.575-0.65,0.87c-0.334,0.472-0.635,0.965-0.943,1.455c-0.125-0.226-0.25-0.452-0.372-0.678
	c-0.208-0.382-0.387-0.781-0.563-1.178C10.825,5.323,10.669,4.924,10.588,4.509z M10.763,12.845c0.252-0.585,0.51-1.167,0.806-1.731
	c0.338-0.648,0.706-1.278,1.104-1.89c0.374-0.574,0.738-1.156,1.116-1.727c0.339-0.513,0.703-1.01,1.077-1.497
	c0.352-0.451,0.717-0.898,1.103-1.322c0.342-0.374,0.693-0.739,1.086-1.061c0.167-0.121,0.344-0.233,0.529-0.324
	c0.212-0.078,0.429-0.137,0.651-0.18c0.009,0,0.017,0,0.026-0.001c0.001,0,0.003,0.001,0.004,0.001
	c0.032,0.019,0.062,0.04,0.091,0.062c0.154,0.124,0.305,0.251,0.437,0.4c0.01,0.017,0.02,0.035,0.029,0.052
	c0.025,0.076,0.044,0.153,0.059,0.231c0.006,0.081,0.006,0.161,0.001,0.244c-0.053,0.323-0.129,0.634-0.237,0.948
	c-0.111,0.328-0.243,0.65-0.377,0.969c-0.45,0.992-1.055,1.913-1.631,2.836c-0.28,0.448-0.562,0.888-0.87,1.32
	c-0.281,0.395-0.572,0.786-0.866,1.171c-0.127,0.161-0.253,0.318-0.41,0.45c-0.31,0.262-0.268,0.782,0,1.05
	c0.276,0.276,0.776,0.298,1.05,0c0.228-0.248,0.422-0.53,0.628-0.798c0.218-0.286,0.432-0.574,0.642-0.866
	c0.054-0.075,0.107-0.152,0.161-0.228c0.173,0.246,0.344,0.493,0.493,0.752c0.142,0.25,0.264,0.504,0.428,0.74
	c0.001,0.001,0.002,0.002,0.003,0.004c-0.079,0.212-0.163,0.421-0.228,0.637c-0.088,0.288-0.152,0.586-0.216,0.88
	c-0.054,0.244-0.1,0.49-0.158,0.734c-0.084,0.352-0.114,0.714-0.162,1.072c-0.034,0.268-0.056,0.54-0.02,0.81
	c0.044,0.328,0.1,0.662,0.3,0.938c0.234,0.324,0.53,0.55,0.902,0.696c0.284,0.11,0.622,0.17,0.924,0.134
	c0.084-0.01,0.16-0.038,0.241-0.055c0.067,0.223,0.156,0.437,0.281,0.63c-0.016,0.038-0.04,0.072-0.049,0.114
	c-0.096,0.442-0.188,0.886-0.274,1.33c-0.062,0.314-0.154,0.616-0.244,0.922c-0.193,0.664-0.372,1.342-0.629,1.986
	c-0.033,0.07-0.068,0.139-0.103,0.209c-0.03,0.06-0.041,0.123-0.057,0.186c-0.126,0.004-0.252,0.008-0.378,0.01
	c-0.706,0.01-1.41,0.018-2.115,0.016c-0.268,0-0.536,0-0.804,0.002c-0.482,0-0.964,0.002-1.446-0.006
	c-0.774-0.01-1.548-0.052-2.321-0.074c-0.471-0.013-0.941-0.038-1.412-0.059c-0.006-0.028,0.002-0.057-0.009-0.085
	c-0.17-0.462-0.342-0.922-0.508-1.384c-0.136-0.386-0.248-0.778-0.368-1.166c-0.106-0.338-0.23-0.666-0.32-1.008
	c-0.069-0.266-0.138-0.533-0.183-0.803c-0.021-0.184-0.03-0.367-0.017-0.55c0.06-0.323,0.137-0.636,0.257-0.942
	c0.188-0.433,0.416-0.863,0.692-1.246c0.057-0.07,0.117-0.138,0.181-0.201c0.078-0.05,0.158-0.096,0.24-0.139
	c0.267-0.095,0.545-0.161,0.826-0.206c0.662-0.077,1.317-0.127,1.983-0.125c0.296,0,0.59,0.02,0.884,0.028
	c0.223,0.007,0.452,0.01,0.674,0.032c0.085,0.013,0.171,0.028,0.253,0.052c0.005,0.003,0.01,0.006,0.016,0.009
	c0.009,0.009,0.017,0.018,0.025,0.027c0.019,0.031,0.038,0.062,0.055,0.094c0.032,0.094,0.058,0.188,0.078,0.285
	c0.004,0.077,0.003,0.154-0.004,0.232c-0.024,0.123-0.057,0.244-0.099,0.363c-0.055,0.107-0.121,0.207-0.191,0.304
	c-0.097,0.111-0.211,0.203-0.328,0.293c-0.197,0.144-0.407,0.268-0.63,0.369c-0.267,0.113-0.539,0.224-0.823,0.273
	c-0.279,0.034-0.542,0.073-0.797,0.222c-0.226,0.132-0.418,0.352-0.61,0.526c-0.31,0.282-0.286,0.802,0,1.086
	c0.282,0.282,0.808,0.314,1.084,0c0.1-0.112,0.202-0.226,0.314-0.327c0.006-0.004,0.013-0.007,0.019-0.011
	c0.041-0.012,0.084-0.021,0.127-0.029c0.213-0.027,0.422-0.057,0.628-0.13c0.2-0.07,0.4-0.15,0.596-0.234
	c0.38-0.158,0.706-0.348,1.028-0.606c0.124-0.098,0.25-0.196,0.368-0.302c0.122-0.112,0.222-0.262,0.32-0.39
	c0.324-0.424,0.464-0.954,0.506-1.478c0.022-0.278-0.026-0.57-0.104-0.836c-0.124-0.418-0.372-0.782-0.724-1.038
	c-0.222-0.16-0.482-0.224-0.746-0.278c-0.286-0.058-0.582-0.072-0.874-0.09c-0.355-0.021-0.71-0.034-1.065-0.034
	c-0.246,0-0.493,0.006-0.741,0.02c-0.306,0.016-0.606,0.048-0.908,0.086c-0.257,0.033-0.513,0.069-0.767,0.113
	c0.031-0.114,0.062-0.228,0.095-0.341C10.476,13.605,10.609,13.225,10.763,12.845z M14.631,16.724
	c-0.007,0.018-0.014,0.036-0.022,0.054c-0.001,0.002-0.002,0.004-0.003,0.005C14.615,16.763,14.623,16.743,14.631,16.724z
	 M14.604,16.789c-0.014,0.034-0.028,0.068-0.043,0.102c0.012-0.028,0.023-0.056,0.035-0.085
	C14.599,16.801,14.602,16.795,14.604,16.789z M14.561,16.891c-0.001,0.002-0.002,0.005-0.003,0.008
	c-0.007,0.016-0.014,0.033-0.021,0.049C14.545,16.929,14.553,16.91,14.561,16.891z M12.633,19.549c-0.001,0-0.002,0-0.003,0v0
	C12.63,19.549,12.632,19.549,12.633,19.549z M12.623,19.55L12.623,19.55c-0.017,0.002-0.033,0.005-0.05,0.006
	C12.59,19.555,12.607,19.552,12.623,19.55z M18.99,29.354c-0.336,0.004-0.672,0.006-1.008,0.01
	c-0.722,0.006-1.444-0.004-2.163-0.008c-0.742-0.004-1.482,0.012-2.221,0.014c-0.762,0.004-1.524,0.01-2.287,0.024
	c-0.625,0.012-1.249-0.005-1.873-0.017c0.001-0.103,0.002-0.205,0.002-0.308c0-0.458-0.012-0.918-0.024-1.376
	c-0.025-0.871-0.004-1.743,0.02-2.614c0.635,0.009,1.27-0.001,1.906-0.001c0.774,0,1.548,0.044,2.321,0.052
	c0.75,0.008,1.5,0.012,2.249,0.012c0.31,0,0.62,0.004,0.93,0.006c0.394,0.004,0.79,0.01,1.186,0.004
	c0.484-0.006,0.968-0.028,1.453-0.026c0.025,0.814,0.078,1.628,0.115,2.443c0.02,0.452,0.026,0.904,0.038,1.356
	c0.003,0.14,0.005,0.281,0.009,0.421c-0.099,0.001-0.198,0.008-0.297,0.008C19.226,29.354,19.108,29.352,18.99,29.354z
	 M23.515,15.994c-0.035,0.191-0.09,0.375-0.157,0.556c-0.08,0.175-0.173,0.341-0.266,0.511c-0.084,0.151-0.165,0.305-0.262,0.449
	c-0.098,0.118-0.205,0.23-0.32,0.332c-0.192,0.129-0.403,0.229-0.597,0.357c-0.107,0.071-0.215,0.142-0.329,0.202
	c-0.005,0.001-0.009,0.003-0.014,0.004c-0.023,0-0.046,0-0.069-0.001c-0.072-0.016-0.143-0.035-0.214-0.059
	c-0.046-0.023-0.09-0.048-0.134-0.075c-0.035-0.032-0.068-0.065-0.099-0.1c-0.021-0.033-0.04-0.067-0.058-0.101
	c-0.056-0.165-0.094-0.335-0.133-0.505c-0.004-0.015-0.015-0.025-0.019-0.039c0.134-0.155,0.26-0.317,0.376-0.484
	c0.368-0.532,0.684-1.114,0.926-1.711c0.145-0.356,0.174-0.733,0.186-1.115c0.049-0.002,0.097-0.01,0.145-0.009
	c0.139,0.026,0.273,0.061,0.407,0.105c0.093,0.048,0.181,0.106,0.267,0.167c0.058,0.051,0.111,0.105,0.162,0.163
	c0.031,0.046,0.059,0.093,0.084,0.141c0.056,0.159,0.098,0.321,0.127,0.487C23.543,15.511,23.539,15.752,23.515,15.994z"/>
</svg>