<?xml version="1.0" encoding="utf-8"?>
<!-- Uploaded to: SVG Repo, www.svgrepo.com, Generator: SVG Repo Mixer Tools -->
<svg fill="#000000" width="800px" height="800px" viewBox="0 0 32 32" version="1.1" xmlns="http://www.w3.org/2000/svg">
<title>splash</title>
<path d="M1.001 10.375c3.107 0 5.625 2.518 5.625 5.625s-2.518 5.625-5.625 5.625v-11.25zM28.187 13.187c0 0 2.813 0 2.813 2.813s-2.813 2.813-2.813 2.813l-19.688-1.875v-1.875l19.688-1.874zM21.172 2.189c0 0 1.624-0.937 2.562 0.686s-0.686 2.562-0.686 2.562l-15.083 7.626-0.937-1.624 14.145-9.25zM23.047 26.564c0 0 1.624 0.937 0.686 2.562s-2.562 0.686-2.562 0.686l-14.146-9.249 0.937-1.624 15.084 7.625zM10.124 28.053c0 0 0.937 1.624-0.686 2.562s-2.562-0.686-2.562-0.686l-2.938-6.964 1.624-0.937 4.562 6.026zM6.876 2.072c0 0 0.937-1.624 2.562-0.686s0.686 2.562 0.686 2.562l-4.562 6.027-1.624-0.937 2.937-6.965z"></path>
</svg>