<?xml version="1.0" encoding="iso-8859-1"?>
<!-- Uploaded to: SVG Repo, www.svgrepo.com, Generator: SVG Repo Mixer Tools -->
<svg fill="#000000" height="800px" width="800px" version="1.1" id="Layer_1" xmlns="http://www.w3.org/2000/svg" xmlns:xlink="http://www.w3.org/1999/xlink" 
	 viewBox="0 0 512 512" xml:space="preserve">
<g>
	<g>
		<path d="M330.667,181.333H181.333c-5.867,0-10.667,4.8-10.667,10.667s4.8,10.667,10.667,10.667h149.333
			c5.867,0,10.667-4.8,10.667-10.667C341.333,186.133,336.533,181.333,330.667,181.333z"/>
	</g>
</g>
<g>
	<g>
		<path d="M501.333,181.333H440.32c-3.413-8.213-7.893-15.893-13.333-22.827C411.627,139.093,390.08,128,368,128H144
			c-22.08,0-43.52,11.093-58.987,30.507c-5.44,6.933-10.027,14.613-13.333,22.827H10.667C4.8,181.333,0,186.133,0,192v96
			c0,5.867,4.8,10.667,10.667,10.667h69.867l11.627,50.347C96.853,369.6,115.2,384.106,136.32,384h239.253
			c21.12,0.107,39.36-14.4,44.16-34.987l11.627-50.347h69.973c5.867,0,10.667-4.8,10.667-10.667v-96
			C512,186.133,507.2,181.333,501.333,181.333z M21.333,277.332v-74.666h44.16c-2.027,11.093-1.813,22.507,0.64,33.493l9.6,41.173
			H21.333z M352,362.666H160v-53.333h160v21.333c0,5.867,4.8,10.667,10.667,10.667s10.667-4.8,10.667-10.667v-21.333H352V362.666z
			 M352,269.866V288H160v-18.24c0-1.707,0.213-2.667,0.213-2.773c0.96-0.213,1.92-0.427,2.88-0.32h185.813
			c1.707,0,2.56,0.32,2.773,0.213C352,267.84,352.107,268.8,352,269.866z M425.067,231.36l-26.133,112.853
			c-2.56,10.88-12.16,18.453-23.36,18.453h-2.24V269.76c0-13.547-10.987-24.427-24.427-24.427H163.093
			c-15.253,0-24.427,9.173-24.427,24.427v92.907h-2.24c-11.093,0.107-20.8-7.573-23.36-18.453L86.827,231.36
			c-4.48-19.52,1.173-42.347,14.827-59.627c11.52-14.507,26.453-22.4,42.24-22.4H368c15.787,0,30.72,8,42.24,22.4
			C423.893,189.013,429.653,211.84,425.067,231.36z M490.667,277.333L490.667,277.333h-54.293l9.6-41.173
			c2.453-10.987,2.667-22.4,0.64-33.493h44.053V277.333z"/>
	</g>
</g>
</svg>