<?xml version="1.0" encoding="UTF-8" standalone="no"?>
<!-- Uploaded to: SVG Repo, www.svgrepo.com, Generator: SVG Repo Mixer Tools -->

<svg
   fill="#000000"
   version="1.1"
   id="Capa_1"
   width="800px"
   height="800px"
   viewBox="0 0 573.846 573.845"
   xml:space="preserve"
   sodipodi:docname="gears3.svg"
   inkscape:version="1.4.2 (f4327f4, 2025-05-13)"
   xmlns:inkscape="http://www.inkscape.org/namespaces/inkscape"
   xmlns:sodipodi="http://sodipodi.sourceforge.net/DTD/sodipodi-0.dtd"
   xmlns="http://www.w3.org/2000/svg"
   xmlns:svg="http://www.w3.org/2000/svg"><defs
   id="defs1">
	
</defs><sodipodi:namedview
   id="namedview1"
   pagecolor="#ffffff"
   bordercolor="#000000"
   borderopacity="0.25"
   inkscape:showpageshadow="2"
   inkscape:pageopacity="0.0"
   inkscape:pagecheckerboard="0"
   inkscape:deskcolor="#d1d1d1"
   inkscape:zoom="0.71329397"
   inkscape:cx="260.06108"
   inkscape:cy="454.93165"
   inkscape:window-width="1920"
   inkscape:window-height="1009"
   inkscape:window-x="1912"
   inkscape:window-y="-8"
   inkscape:window-maximized="1"
   inkscape:current-layer="Capa_1" />
<path
   d="m 306,195.235 v -40.8 l -52.612,-11.689 c -1.795,-5.61 -4.08,-10.989 -6.746,-16.15 L 275.61,81.07 246.757,52.218 201.231,81.186 c -5.161,-2.666 -10.54,-4.95 -16.15,-6.746 L 173.4,21.835 h -40.8 l -11.689,52.611 c -5.61,1.795 -10.989,4.08 -16.15,6.746 L 59.235,52.225 30.382,81.077 59.35,126.603 c -2.666,5.161 -4.951,10.54 -6.746,16.15 L 0,154.435 v 40.8 l 52.612,11.689 c 1.795,5.61 4.08,10.989 6.746,16.15 L 30.39,268.6 l 28.853,28.852 45.526,-28.968 c 5.161,2.666 10.54,4.95 16.15,6.746 l 11.683,52.605 h 40.8 l 11.689,-52.612 c 5.61,-1.795 10.989,-4.08 16.15,-6.746 l 45.526,28.968 28.853,-28.852 -28.968,-45.526 c 2.666,-5.162 4.951,-10.54 6.746,-16.15 z m -153,30.6 c -28.166,0 -51,-22.834 -51,-51 0,-28.166 22.834,-51 51,-51 28.166,0 51,22.834 51,51 0,28.166 -22.834,51 -51,51 z m 218.77,265.894 12.859,-31.402 -36.815,-25.582 c 0.388,-4.882 0.319,-9.744 -0.103,-14.552 l 36.646,-25.915 -13.117,-31.3 -44.173,7.956 c -3.135,-3.673 -6.549,-7.134 -10.302,-10.282 l 7.582,-44.18 -31.402,-12.858 -25.582,36.815 c -4.882,-0.388 -9.744,-0.32 -14.552,0.102 l -25.915,-36.646 -31.3,13.117 7.956,44.173 c -3.672,3.135 -7.133,6.549 -10.282,10.303 l -44.18,-7.582 -12.858,31.402 36.815,25.581 c -0.388,4.883 -0.32,9.744 0.102,14.552 l -36.645,25.915 13.117,31.301 44.172,-7.956 c 3.135,3.672 6.549,7.133 10.302,10.281 l -7.582,44.18 31.402,12.858 25.582,-36.814 c 4.882,0.388 9.745,0.319 14.552,-0.103 l 25.915,36.646 31.301,-13.117 -7.956,-44.173 c 3.672,-3.128 7.133,-6.549 10.281,-10.302 z M 244.351,467.065 c -21.678,-8.874 -32.062,-33.646 -23.188,-55.331 8.874,-21.686 33.646,-32.062 55.332,-23.188 21.678,8.874 32.062,33.646 23.188,55.332 -8.874,21.684 -33.646,32.068 -55.332,23.187 z m 329.495,-300.451 -10.819,-33.361 -46.124,4.393 c -2.951,-4.114 -6.256,-7.901 -9.799,-11.417 l 11.614,-44.907 -31.246,-15.939 -29.546,35.761 c -4.924,-0.809 -9.928,-1.258 -14.994,-1.231 l -23.515,-39.923 -33.36,10.819 4.393,46.124 c -4.114,2.951 -7.901,6.256 -11.417,9.799 l -44.907,-11.614 -15.939,31.246 35.761,29.546 c -0.809,4.923 -1.258,9.928 -1.23,14.994 l -39.918,23.507 10.819,33.361 46.124,-4.393 c 2.951,4.114 6.249,7.901 9.799,11.417 l -11.614,44.907 31.246,15.939 29.546,-35.761 c 4.923,0.809 9.928,1.258 14.994,1.23 l 23.515,39.923 33.36,-10.819 -4.393,-46.124 c 4.114,-2.951 7.901,-6.256 11.417,-9.799 l 44.907,11.614 15.939,-31.246 -35.762,-29.546 c 0.81,-4.923 1.258,-9.928 1.231,-14.994 z m -116.994,65.6 c -23.032,7.473 -47.764,-5.148 -55.23,-28.179 -7.473,-23.032 5.148,-47.764 28.18,-55.23 23.031,-7.473 47.764,5.148 55.229,28.179 7.466,23.032 -5.148,47.763 -28.179,55.23 z"
   id="path1" />
</svg>
