<?xml version="1.0" encoding="utf-8"?>
<!-- Uploaded to: SVG Repo, www.svgrepo.com, Generator: SVG Repo Mixer Tools -->
<svg fill="#000000" width="800px" height="800px" viewBox="0 0 32 32" version="1.1" xmlns="http://www.w3.org/2000/svg">
<title>aware</title>
<path d="M18.786 10.376c0.675-0.84 1.109-2.010 1.109-3.305 0-2.557-1.639-4.621-3.652-4.621-0.126 0-0.256-0.016-0.379 0-1.838 0.237-3.274 2.224-3.274 4.621 0 1.328 0.458 2.513 1.163 3.359-3.823 0.714-4.112 7.114-4.112 11.606h2.651l0.704 9.376h6.736l0.622-9.376h2.516c0-4.505 0.091-11.017-4.085-11.66zM24.872 1.143c2.124 1.375 3.491 3.44 3.491 5.767 0 2.314-1.348 4.392-3.451 5.767 3.602-1.039 6.089-3.235 6.089-5.767-0.001-2.541-2.504-4.733-6.128-5.767zM22.283 11.218c2.69-0.777 4.547-2.416 4.547-4.307 0-1.899-1.869-3.535-4.575-4.307 1.588 1.027 2.606 2.569 2.606 4.307 0 1.728-1.007 3.281-2.578 4.307zM21.623 6.911c0 1.252-0.729 2.377-1.868 3.121 1.949-0.563 3.295-1.751 3.295-3.121 0-1.376-1.354-2.561-3.317-3.121 1.15 0.745 1.889 1.861 1.889 3.121zM4.097 6.911c0-2.328 1.367-4.393 3.491-5.767-3.624 1.035-6.128 3.226-6.128 5.767 0 2.532 2.487 4.728 6.089 5.767-2.104-1.376-3.451-3.454-3.451-5.767zM5.63 6.911c0 1.891 1.857 3.531 4.547 4.307-1.571-1.027-2.578-2.579-2.578-4.307 0-1.739 1.019-3.281 2.606-4.307-2.706 0.772-4.577 2.408-4.575 4.307zM12.704 10.032c-1.139-0.745-1.868-1.869-1.868-3.121 0-1.26 0.74-2.377 1.889-3.121-1.961 0.561-3.317 1.745-3.317 3.121 0 1.37 1.346 2.558 3.295 3.121z"></path>
</svg>