<?xml version="1.0" encoding="utf-8"?>

<!DOCTYPE svg PUBLIC "-//W3C//DTD SVG 1.1//EN" "http://www.w3.org/Graphics/SVG/1.1/DTD/svg11.dtd">
<!-- Uploaded to: SVG Repo, www.svgrepo.com, Generator: SVG Repo Mixer Tools -->
<svg version="1.1" id="_x32_" xmlns="http://www.w3.org/2000/svg" xmlns:xlink="http://www.w3.org/1999/xlink" 
	 width="800px" height="800px" viewBox="0 0 512 512"  xml:space="preserve">
<style type="text/css">
<![CDATA[
	.st0{fill:#000000;}
]]>
</style>
<g>
	<path class="st0" d="M416.156,406.563l-51.359-4.719l-22.625-65.172l-31.188-1.516l-6.656-157.563l41.484-10.688
		c0.313,24.969,6.359,44.906,13.75,44.906c7.609,0,13.781-21.031,13.781-47c0-25.938-6.172-46.969-13.781-46.969
		c-5.031,0-9.453,9.25-11.844,23.031l-72.453-11.625V71.938c9.703-7.281,15.984-18.906,15.984-31.969
		C291.25,17.906,273.359,0,251.281,0c-22.063,0-39.969,17.906-39.969,39.969c0,13.063,6.281,24.688,15.984,31.969v57.313
		l-72.453,11.625c-2.391-13.781-6.797-23.031-11.844-23.031c-7.609,0-13.766,21.031-13.766,46.969c0,25.969,6.156,47,13.766,47
		c7.406,0,13.438-19.938,13.766-44.906l41.469,10.688l-6.844,162.125l-78.172,32.844L59.656,512h27.766l46.031-119.813
		l71.719-30.141l70.531-2.719l1.391,0.078l46.328,2.281l13.031,37.547l-0.25-0.016l23.766,67.75l0.078,0.219v0.047l24.484-8.547
		l-0.016-0.031l-0.016-0.031l-10.375-29.891l22.953,2.109L424.938,512h27.406L416.156,406.563z M245.75,17.25
		c7.719,0,13.969,6.25,13.969,13.938c0,7.719-6.25,13.969-13.969,13.969c-7.703,0-13.953-6.25-13.953-13.969
		C231.797,23.5,238.047,17.25,245.75,17.25z M275.297,333.406l-18.063,0.688v-88.75h-10.797v89.172l-28.922,1.109l5.875-139.156
		h55.797l5.797,137.406L275.297,333.406z"/>
	<polygon class="st0" points="181.922,429.922 146.828,512 172.859,512 199.391,449.938 235.391,440.063 250.094,512 274.531,512 
		253.703,410.219 	"/>
</g>
</svg>