<!DOCTYPE svg PUBLIC "-//W3C//DTD SVG 1.1//EN" "http://www.w3.org/Graphics/SVG/1.1/DTD/svg11.dtd">
<!-- Uploaded to: SVG Repo, www.svgrepo.com, Transformed by: SVG Repo Mixer Tools -->
<svg width="800px" height="800px" viewBox="0 0 512 512" xmlns="http://www.w3.org/2000/svg" fill="#000000" transform="rotate(0)matrix(1, 0, 0, 1, 0, 0)">
<g id="SVGRepo_bgCarrier" stroke-width="0"/>
<g id="SVGRepo_tracerCarrier" stroke-linecap="round" stroke-linejoin="round"/>
<g id="SVGRepo_iconCarrier">
<path fill="#000000" d="M20.72 19.34v39.72L151.6 132.9l94.9-45.12L151 19.34H20.72zm196.98.1L313 76.78C226.5 118 135.1 161.4 57.53 198.3l161.57 86.1 59.6-39.2-39.4-34.9c82.3-40.6 168.3-83.5 241.8-119.93l-93.6-70.93H217.7zM361.9 170.5l-76.5 37.9 44.9 25.3c-54.2 35.6-111.8 73.6-160.6 105.7l325.2 154.8L307.5 347c57.6-32.3 117.5-65.9 168.8-94.6l-114.4-81.9zm13.2 160.1l-33.9 18.9 139.3 74.3c-35.1-31.1-70.3-62.2-105.4-93.2z"/>
</g>
</svg>