<?xml version="1.0" encoding="iso-8859-1"?>
<!-- Uploaded to: SVG Repo, www.svgrepo.com, Generator: SVG Repo Mixer Tools -->
<svg fill="#000000" height="800px" width="800px" version="1.1" id="Layer_1" xmlns="http://www.w3.org/2000/svg" xmlns:xlink="http://www.w3.org/1999/xlink" 
	 viewBox="0 0 511.998 511.998" xml:space="preserve">
<g>
	<g>
		<path d="M444.502,109.036v208.49h-41.217V197.59h-75.308V77.655H146.942V197.59H71.634v119.936H0v72.953h41.331
			c-0.401,2.182-0.622,4.427-0.622,6.723c0,20.479,16.661,37.14,37.14,37.14c20.479,0,37.14-16.662,37.14-37.14
			c0-2.297-0.22-4.541-0.622-6.723h246.179c-0.4,2.182-0.622,4.427-0.622,6.723c0,20.479,16.661,37.14,37.14,37.14
			c20.48,0,37.141-16.662,37.141-37.14c0-2.297-0.22-4.541-0.622-6.723h41.331v-57.744v-15.209V139.453h37.081v-30.417
			C511.998,109.036,444.502,109.036,444.502,109.036z M327.976,258.469v-30.462h44.891v89.519H252.668v-89.519h44.891v30.462
			H327.976z M177.359,108.073h44.891v30.461h30.417v-30.461h44.891v89.518h-44.891H222.25h-44.891V108.073z M102.052,228.008h44.891
			v30.462h30.417v-30.462h44.891v89.519H102.052V228.008z M77.851,403.925c-3.708,0-6.723-3.016-6.723-6.723
			s3.016-6.723,6.723-6.723c3.707,0,6.723,3.015,6.723,6.723C84.574,400.909,81.558,403.925,77.851,403.925z M397.068,403.925
			c-3.707,0-6.723-3.016-6.723-6.723s3.016-6.723,6.723-6.723c3.709,0,6.724,3.015,6.724,6.723
			C403.792,400.909,400.776,403.925,397.068,403.925z M444.502,360.062H30.417v-12.118h41.217h150.617h30.417h150.617h41.217
			V360.062z"/>
	</g>
</g>
</svg>