<?xml version="1.0" encoding="utf-8"?>
<!-- Uploaded to: SVG Repo, www.svgrepo.com, Generator: SVG Repo Mixer Tools -->
<svg fill="#000000" height="800px" width="800px" version="1.1" id="_x31_" xmlns="http://www.w3.org/2000/svg" xmlns:xlink="http://www.w3.org/1999/xlink" 
	 viewBox="0 0 256 190" xml:space="preserve">
<path d="M128.1,96.7H94.7c-5.4,0-9.7,4.3-9.7,9.7c0,5.4,4.3,9.7,9.7,9.7h33.2c5.4,0,9.7-4.3,9.7-9.7
	C137.8,101,133.5,96.7,128.1,96.7z M94.7,61.5h23.5V41.9H94.7c-5.4,0-9.7,4.3-9.7,9.7S89.3,61.5,94.7,61.5z M128.1,124h-23.5
	c-5.4,0-9.7,4.3-9.7,9.7s4.3,9.7,9.7,9.7h23.5c5.4,0,9.7-4.3,9.7-9.7S133.5,124,128.1,124z M200.3,65.5l-30.2-30.4l0,0
	c-1.8-1.8-4.3-2.9-6.8-2.9h-27.5c-5.4,0-9.7,4.3-9.7,9.7v37.2c0,5.4,4.3,9.7,9.7,9.7c5.4,0,9.7-4.3,9.7-9.7V57.6l0,0
	c0-2.2,1.8-4,4-4s4,1.8,4,4l0,0l0,0c0,23.7,19.4,42.9,42.9,42.9c2.2,0,4,1.8,4,4c0,2.2-1.8,4-4,4c-18.5,0-34.7-9.9-43.5-24.8
	c-1.3,4.1-3.8,7.5-7.2,10.1c0,0,0,34.7,0,40.1c0,3.6-1.3,7-2.9,9.7h28.4c12,0,22.8-6.3,29.3-15.6h54.6V65.5H200.3z M94.7,88.8h26.4
	c-2-2.7-2.9-6.3-2.9-9.7v-9.7H94.7c-5.4,0-9.7,4.3-9.7,9.7C84.9,84.5,89.3,88.8,94.7,88.8z M17.9,134.9c-1-1.9-0.2-4.3,1.7-5.3
	l40.9-21c1.9-1,4.3-0.2,5.3,1.7c1,1.9,0.2,4.3-1.7,5.3l-40.9,21C21.3,137.6,18.9,136.8,17.9,134.9z M2.7,37.3
	c-0.6-1.1-0.7-2.5,0-3.9c1-1.9,3.5-2.6,5.2-1.7l49.4,27.4c1.9,1,2.6,3.5,1.7,5.2c-1,1.9-3.5,2.6-5.2,1.7L4.4,38.9
	C3.6,38.6,3.1,37.9,2.7,37.3z M60,185c-0.4-0.8-0.6-1.9-0.1-3l13.9-43.7c0.7-2.2,2.8-3.2,4.8-2.5c2.2,0.7,3.2,2.8,2.5,4.8L67,184.5
	c-0.7,2.2-2.8,3.2-4.8,2.5C61.2,186.6,60.5,186,60,185z M18.2,83.9c-0.3-0.6-0.6-1.5-0.4-2.4c0.5-2.3,2.4-3.6,4.5-3.1L51,83
	c2.3,0.5,3.6,2.4,3.1,4.5s-2.4,3.6-4.5,3.1L20.9,86C19.7,85.7,18.7,84.9,18.2,83.9z M66,48.8L44.9,7.7c-1-1.9-0.2-4.3,1.7-5.3
	S51,2.2,52,4.1l21.1,41.1c1,1.9,0.2,4.3-1.7,5.3C69.4,51.4,67,50.7,66,48.8z"/>
</svg>