<?xml version="1.0" encoding="utf-8"?>
<!-- Uploaded to: SVG Repo, www.svgrepo.com, Generator: SVG Repo Mixer Tools -->
<svg fill="#000000" height="800px" width="800px" version="1.2" baseProfile="tiny" id="Layer_1" xmlns="http://www.w3.org/2000/svg" xmlns:xlink="http://www.w3.org/1999/xlink"
	  viewBox="-351 153 256 256" xml:space="preserve">
<path d="M-224,211.1c11.7,0,21.3,9.5,21.3,21.3c0,11.7-9.5,21.3-21.3,21.3s-21.3-9.5-21.3-21.3C-245.3,220.6-235.7,211.1-224,211.1z
	 M-296.3,350.8c3.8,0,7.1-1.8,9.2-4.6c0.2-0.2,0.4-0.3,0.5-0.5l25.5-23.8c0.9-0.9,1.8-2.1,2.3-3.2l8.1-17.4l-0.4,30.8l-35.6,19.5
	c-6.5,3.5-9.5,11.3-7.2,18.2c2.3,7,9.3,11.4,16.7,10.4l53.3-13.9l53.3,13.9c7.3,1,14.3-3.3,16.7-10.4c2.3-7-0.7-14.7-7.2-18.2
	l-35.6-19.5l-0.4-30.8l8.1,17.4c0.5,1.3,1.4,2.3,2.3,3.2l25.5,23.8c0.2,0.2,0.4,0.3,0.5,0.5c2.1,2.7,5.4,4.6,9.2,4.6
	c6.4,0,11.6-5.1,11.6-11.6c0-3.5-1.6-6.6-4.1-8.8c-0.3-0.4-0.6-0.7-0.9-1.1l-24.1-22.4l-15.5-33.5c-4.3-8.5-10.3-13.9-19.6-13.9
	h-39.3c-9.2,0-15.3,5.3-19.6,13.9l-15.5,33.5l-24.1,22.5c-0.3,0.3-0.6,0.7-0.9,1.1c-2.5,2.1-4.1,5.2-4.1,8.8
	C-307.8,345.6-302.7,350.8-296.3,350.8z M-111.7,184.9v200.7h-224.5V184.9H-347v216.3h246V184.9H-111.7z"/>
</svg>