<?xml version="1.0" encoding="iso-8859-1"?>
<!-- Uploaded to: SVG Repo, www.svgrepo.com, Generator: SVG Repo Mixer Tools -->
<!DOCTYPE svg PUBLIC "-//W3C//DTD SVG 1.1//EN" "http://www.w3.org/Graphics/SVG/1.1/DTD/svg11.dtd">
<svg fill="#000000" version="1.1" id="Capa_1" xmlns="http://www.w3.org/2000/svg" xmlns:xlink="http://www.w3.org/1999/xlink" 
	 width="800px" height="800px" viewBox="0 0 433.323 433.323"
	 xml:space="preserve">
<g>
	<g>
		<circle cx="240.688" cy="193.274" r="8.854"/>
		<circle cx="291.282" cy="131.15" r="11.732"/>
		<circle cx="189.684" cy="115.971" r="15.73"/>
		<path d="M353.976,64.246C334.904,40.384,285.367,0,220.67,0c-43.258,0-84.421,18.085-122.343,53.752
			c-0.065,0.062-0.129,0.124-0.191,0.188c-36.981,38.043-32.149,73.185-26.028,117.7c0.376,2.738,0.758,5.514,1.136,8.332
			c1.014,7.565-5.607,19.235-12.011,30.522c-9.623,16.958-19.572,34.494-7.417,42.777c20.771,14.156,24.38,42.019,27.873,68.978
			c0.83,6.402,1.688,13.022,2.76,19.458c1.85,11.104,11.219,16.501,28.642,16.501c7.747,0,16.02-0.957,24.027-1.882
			c6.861-0.792,13.342-1.542,18.53-1.542c2.9,0,5.166,0.231,6.925,0.708c20.933,5.673,39.22,47.999,45.831,73.345
			c0.536,2.058,2.121,3.677,4.166,4.257c0.541,0.154,1.092,0.229,1.639,0.229c1.522,0,3.012-0.58,4.143-1.66L325.643,329.27
			c1.661-1.586,2.271-3.979,1.573-6.168c-9.474-29.639,10.213-58.566,27.587-84.1c7.581-11.141,14.741-21.662,19.638-32.027
			C397.029,159.167,380.757,97.755,353.976,64.246z M205.644,165.186l-3.996-6.342c-2.963,0.826-5.976,1.34-8.992,1.537
			l-1.659,7.312c-0.596,2.625-3.208,4.271-5.833,3.674l-15.319-3.478c-2.626-0.597-4.271-3.208-3.676-5.833l1.66-7.312
			c-2.636-1.48-5.131-3.244-7.447-5.268l-6.341,3.995c-2.278,1.435-5.289,0.752-6.724-1.526l-8.373-13.291
			c-1.435-2.279-0.752-5.289,1.526-6.724l6.341-3.995c-0.826-2.963-1.34-5.976-1.536-8.992l-7.313-1.66
			c-2.624-0.596-4.27-3.208-3.674-5.833l3.478-15.319c0.596-2.626,3.208-4.271,5.834-3.675l7.312,1.66
			c1.479-2.637,3.244-5.132,5.268-7.448l-3.995-6.341c-1.435-2.278-0.752-5.288,1.526-6.723l13.291-8.373
			c2.278-1.436,5.288-0.753,6.724,1.525l3.995,6.341c2.963-0.825,5.976-1.34,8.993-1.536l1.659-7.312
			c0.596-2.625,3.207-4.271,5.833-3.674l15.318,3.477c2.626,0.597,4.271,3.209,3.675,5.833l-1.659,7.312
			c2.636,1.48,5.132,3.245,7.448,5.269l6.341-3.995c2.278-1.435,5.288-0.752,6.725,1.526l8.372,13.291
			c1.437,2.278,0.752,5.289-1.525,6.724l-6.341,3.995c0.824,2.963,1.339,5.976,1.536,8.993l7.311,1.659
			c2.625,0.596,4.271,3.208,3.675,5.833l-3.478,15.319c-0.598,2.626-3.208,4.271-5.833,3.675l-7.312-1.66
			c-1.479,2.636-3.244,5.132-5.269,7.448l3.995,6.342c1.436,2.277,0.751,5.288-1.526,6.723l-13.291,8.373
			C210.087,168.147,207.078,167.463,205.644,165.186z M269.809,192.88l-4.075,1.094c-0.045,1.701-0.27,3.407-0.668,5.091
			l3.654,2.108c1.312,0.757,1.763,2.435,1.006,3.749l-4.419,7.659c-0.759,1.313-2.437,1.763-3.748,1.005l-3.654-2.108
			c-1.259,1.188-2.624,2.236-4.074,3.126l1.094,4.076c0.395,1.465-0.476,2.97-1.938,3.361l-8.539,2.292
			c-1.465,0.394-2.97-0.476-3.362-1.938l-1.094-4.077c-1.701-0.044-3.407-0.267-5.092-0.667l-2.108,3.654
			c-0.757,1.312-2.435,1.763-3.748,1.004l-7.659-4.418c-1.312-0.758-1.764-2.436-1.007-3.749l2.108-3.654
			c-1.189-1.259-2.235-2.625-3.126-4.074l-4.076,1.094c-1.463,0.393-2.969-0.476-3.361-1.939l-2.292-8.541
			c-0.393-1.464,0.477-2.97,1.94-3.362l4.076-1.094c0.045-1.7,0.268-3.406,0.666-5.091l-3.653-2.108
			c-1.313-0.757-1.764-2.436-1.006-3.749l4.418-7.659c0.758-1.313,2.437-1.763,3.749-1.006l3.653,2.108
			c1.26-1.189,2.624-2.236,4.073-3.126l-1.094-4.076c-0.393-1.464,0.478-2.969,1.939-3.361l8.541-2.292
			c1.464-0.392,2.969,0.476,3.36,1.94l1.095,4.076c1.7,0.044,3.406,0.268,5.093,0.667l2.105-3.654
			c0.759-1.313,2.438-1.763,3.749-1.006l7.659,4.418c1.313,0.758,1.763,2.436,1.006,3.748l-2.107,3.654
			c1.188,1.259,2.235,2.624,3.126,4.075l4.076-1.094c1.464-0.393,2.969,0.477,3.36,1.939l2.292,8.54
			C272.141,190.982,271.271,192.488,269.809,192.88z M329.868,130.628l-5.4,1.449c-0.06,2.254-0.354,4.515-0.884,6.747l4.842,2.793
			c1.74,1.004,2.336,3.227,1.333,4.967l-5.854,10.149c-1.005,1.74-3.228,2.336-4.967,1.333l-4.842-2.793
			c-1.669,1.576-3.479,2.963-5.399,4.143l1.45,5.401c0.521,1.939-0.631,3.934-2.57,4.454l-11.315,3.036
			c-1.94,0.521-3.936-0.629-4.455-2.569l-1.449-5.402c-2.254-0.059-4.514-0.354-6.746-0.883l-2.793,4.842
			c-1.004,1.739-3.228,2.336-4.967,1.332l-10.149-5.854c-1.74-1.004-2.336-3.229-1.333-4.966l2.794-4.843
			c-1.576-1.668-2.964-3.477-4.144-5.398l-5.4,1.449c-1.938,0.521-3.935-0.63-4.454-2.569l-3.036-11.316
			c-0.521-1.94,0.629-3.935,2.569-4.455l5.401-1.449c0.059-2.254,0.354-4.515,0.884-6.747l-4.843-2.793
			c-1.739-1.003-2.335-3.227-1.332-4.966l5.854-10.149c1.004-1.74,3.229-2.336,4.968-1.333l4.842,2.793
			c1.669-1.576,3.478-2.963,5.398-4.143l-1.448-5.4c-0.521-1.94,0.63-3.934,2.568-4.455l11.316-3.037
			c1.939-0.521,3.934,0.63,4.455,2.571l1.449,5.4c2.254,0.059,4.515,0.354,6.746,0.884l2.794-4.842
			c1.003-1.74,3.227-2.336,4.966-1.333l10.148,5.854c1.74,1.004,2.336,3.228,1.333,4.966l-2.794,4.842
			c1.576,1.668,2.964,3.477,4.145,5.399l5.399-1.449c1.939-0.521,3.935,0.63,4.454,2.57l3.037,11.316
			C332.959,128.114,331.809,130.108,329.868,130.628z"/>
	</g>
</g>
</svg>