<?xml version="1.0" encoding="utf-8"?><!-- Uploaded to: SVG Repo, www.svgrepo.com, Generator: SVG Repo Mixer Tools -->
<svg fill="#000000" width="800px" height="800px" viewBox="0 -13.65 42.007 42.007" xmlns="http://www.w3.org/2000/svg">
  <path id="Glasses" d="M800.5,294.3c-.1-.1-.1-.1-.2-.1a71.557,71.557,0,0,0-20-2.8,61.936,61.936,0,0,0-19.1,2.8c-.1,0-.1.1-.2.1a3.848,3.848,0,0,0-1.1,2.5,1.889,1.889,0,0,0,.7,1.3.367.367,0,0,0,.3.1s.9.1.9.6a8.018,8.018,0,0,0,1.9,5.3,6.932,6.932,0,0,0,5.3,2h0a11.869,11.869,0,0,0,10-8.8s.3-.9,1.9-.9a2.124,2.124,0,0,1,1.9.9,11.869,11.869,0,0,0,10,8.8h0a7.085,7.085,0,0,0,5.3-2,7.959,7.959,0,0,0,1.9-5.2c0-.5.9-.6.9-.6a.367.367,0,0,0,.3-.1,2.091,2.091,0,0,0,.7-1.3A4.865,4.865,0,0,0,800.5,294.3Z" transform="translate(-759.894 -291.4)"/>
</svg>