<?xml version="1.0" ?>
<!DOCTYPE svg  PUBLIC '-//W3C//DTD SVG 1.0//EN'  'http://www.w3.org/TR/2001/REC-SVG-20010904/DTD/svg10.dtd'>
<!-- Uploaded to: SVG Repo, www.svgrepo.com, Generator: SVG Repo Mixer Tools -->
<svg fill="#000000" width="800px" height="800px" viewBox="0 0 100 100" version="1.0" xml:space="preserve" xmlns="http://www.w3.org/2000/svg" xmlns:xlink="http://www.w3.org/1999/xlink">
<g id="_x31_"/>
<g id="_x32_"/>
<g id="_x33_"/>
<g id="_x34_"/>
<g id="_x35_"/>
<g id="_x36_"/>
<g id="_x37_"/>
<g id="_x38_"/>
<g id="_x39_"/>
<g id="_x31_0"/>
<g id="_x31_1"/>
<g id="_x31_2">
<path d="M20.9,23.6c-1.1,0-2-0.9-2-2v-0.7c0-1.1,0.9-2,2-2c0.6,0,1.2,0.3,1.6,0.7c0.4,0.5,0.6,1.1,0.4,1.7c0,0.1,0,0.2,0,0.3   C22.9,22.7,22,23.6,20.9,23.6z M81.1,50.7v9.8c0,1.1-0.9,2-2,2h-3.3v22.1c0,1.1-0.9,2-2,2H32.1h-6c-3.9,0-7.1-3.2-7.1-7.1V21.6   c0-1.1,0.9-2,2-2s2,0.9,2,2c0,1.5,1.2,2.6,2.6,2.6h6.5h41.8c1.1,0,2,0.9,2,2v22.5h3.3C80.2,48.7,81.1,49.6,81.1,50.7z M26,82.6h4   V28.3h-4.5c-0.9,0-1.8-0.2-2.6-0.5v51.8C22.9,81.2,24.3,82.6,26,82.6z M71.8,62.5h-3.3c-1.1,0-2-0.9-2-2v-9.8c0-1.1,0.9-2,2-2h3.3   V28.3H34.1v54.4h37.8V62.5z M77.1,52.7h-3.3h-3.3v5.8h3.3h3.3V52.7z M75.6,27.3c-0.4,0.6-1,1-1.7,1H25.5c-3.7,0-6.6-3.3-6.6-7.4   c0,0,0-0.1,0-0.1c0,0,0,0,0,0c0,0,0-0.1,0-0.1c0-0.3,0-0.6,0.1-0.9c0.2-1.4,0.8-2.8,1.7-3.9c1.2-1.5,3-2.3,4.8-2.3h48.3   c0.7,0,1.4,0.4,1.7,1c0.4,0.6,0.4,1.4,0,2l-2.4,4.6l2.4,4.4C75.9,25.9,75.9,26.7,75.6,27.3z M23.8,18.3c-0.1,0.1-0.2,0.2-0.3,0.4   h46.3l0.7-1.3h-45C24.9,17.4,24.3,17.7,23.8,18.3z M70.5,24.3l-0.9-1.6H23.3c0.5,1,1.3,1.6,2.2,1.6H70.5z M65.5,58.9   c0.4,0.6,0.4,1.4,0,2c-0.4,0.6-1,1-1.7,1h-5.3l-5.2,9c-0.4,0.6-1,1-1.7,1s-1.4-0.4-1.7-1l-5.2-9h-5.3c-0.7,0-1.4-0.4-1.7-1   c-0.4-0.6-0.4-1.4,0-2l2.7-4.6l-2.7-4.6c-0.4-0.6-0.4-1.4,0-2c0.4-0.6,1-1,1.7-1h5.3l5.2-9c0.4-0.6,1-1,1.7-1s1.4,0.4,1.7,1l5.2,9   h5.3c0.7,0,1.4,0.4,1.7,1c0.4,0.6,0.4,1.4,0,2l-2.7,4.6L65.5,58.9z M47,57.9h9.2l2.1-3.6l-2.1-3.6H47l-2.1,3.6L47,57.9z M49.3,46.7   h4.6l-2.3-4L49.3,46.7z M53.9,61.9h-4.6l2.3,4L53.9,61.9z"/>
</g>
<g id="_x31_3"/>
<g id="_x31_4"/>
<g id="_x31_5"/>
<g id="_x31_6"/>
<g id="_x31_7"/>
<g id="_x31_8"/>
<g id="_x31_9"/>
<g id="_x32_0"/>
<g id="_x32_1"/>
<g id="_x32_2"/>
<g id="_x32_3"/>
</svg>