<?xml version="1.0" encoding="iso-8859-1"?>
<!-- Uploaded to: SVG Repo, www.svgrepo.com, Generator: SVG Repo Mixer Tools -->
<svg fill="#000000" version="1.1" id="Layer_1" xmlns="http://www.w3.org/2000/svg" xmlns:xlink="http://www.w3.org/1999/xlink" 
	 viewBox="0 0 512 512" xml:space="preserve">
<g>
	<g>
		<path d="M439.858,377.131V15.692h13.6V0H108.234C80.835,0,58.543,22.292,58.543,49.691v394.392h0.15
			c-0.089,1.21-0.15,2.429-0.15,3.661c0,27.399,22.292,49.691,49.691,49.691h44.984V512l41.845-25.752L236.908,512v-14.564h213.411
			v-15.692h-31.907v-67.999h31.907v-15.692H108.234c-13.144,0-25.103,5.14-33.999,13.501V49.691
			c0-18.747,15.253-33.999,33.999-33.999h26.153v361.439h15.692V15.692h274.087v361.439H439.858z M221.216,483.918l-26.153-16.094
			l-26.153,16.094V455.59h52.307V483.918z M150.079,413.745H402.72v12.815H283.984v15.692H402.72v10.984H263.061v15.692H402.72
			v12.815H236.908v-41.845h-83.691v41.845h-3.138c-18.747,0-33.999-15.253-33.999-33.999S131.332,413.745,150.079,413.745z
			 M108.234,413.745h5.655c-8.363,8.896-13.501,20.856-13.501,33.999c0,13.144,5.139,25.103,13.501,33.999h-5.655
			c-18.747,0-33.999-15.253-33.999-33.999S89.487,413.745,108.234,413.745z"/>
	</g>
</g>
<g>
	<g>
		<rect x="247.368" y="426.56" width="26.153" height="15.692"/>
	</g>
</g>
<g>
	<g>
		<rect x="235.861" y="301.809" width="104.613" height="15.692"/>
	</g>
</g>
<g>
	<g>
		<rect x="256.784" y="327.962" width="62.768" height="15.692"/>
	</g>
</g>
<g>
	<g>
		<rect x="258.876" y="275.656" width="94.152" height="15.692"/>
	</g>
</g>
<g>
	<g>
		<rect x="222.261" y="275.656" width="26.153" height="15.692"/>
	</g>
</g>
<g>
	<g>
		<polygon points="171.002,36.092 171.002,70.614 186.694,70.614 186.694,51.784 389.643,51.784 389.643,69.568 405.335,69.568 
			405.335,36.092 		"/>
	</g>
</g>
<g>
	<g>
		<polygon points="389.643,100.952 389.643,361.439 186.694,361.439 186.694,101.998 171.002,101.998 171.002,377.131 
			405.335,377.131 405.335,100.952 		"/>
	</g>
</g>
<g>
	<g>
		<path d="M327.68,76.818h-14.582c-8.116,20.424-13.888,26.196-34.313,34.313v14.582c20.425,8.116,26.197,13.888,34.313,34.313
			h14.582c8.117-20.425,13.888-26.197,34.313-34.313v-14.582C341.569,103.014,335.797,97.242,327.68,76.818z M320.389,138.71
			c-5.225-9.019-11.269-15.063-20.288-20.288c9.019-5.225,15.062-11.27,20.288-20.289c5.225,9.019,11.27,15.062,20.289,20.289
			C331.659,123.648,325.615,129.692,320.389,138.71z"/>
	</g>
</g>
<g>
	<g>
		<path d="M295.773,152.557h-14.582c-5.705,14.357-9.495,18.146-23.852,23.852v14.582c14.357,5.706,18.147,9.495,23.852,23.852
			h14.582c5.706-14.357,9.495-18.146,23.852-23.852v-14.582C305.268,170.704,301.478,166.915,295.773,152.557z M288.482,194.544
			c-2.988-4.421-6.422-7.855-10.843-10.843c4.421-2.988,7.854-6.422,10.843-10.843c2.989,4.42,6.423,7.855,10.843,10.843
			C294.906,186.69,291.47,190.124,288.482,194.544z"/>
	</g>
</g>
<g>
	<g>
		<path d="M250.163,108.621h-14.582c-5.706,14.357-9.495,18.146-23.852,23.852v14.582c14.357,5.706,18.146,9.495,23.852,23.852
			h14.582c5.705-14.357,9.495-18.146,23.852-23.852v-14.583C259.657,126.767,255.867,122.977,250.163,108.621z M242.871,150.606
			c-2.988-4.42-6.423-7.855-10.843-10.843c4.42-2.988,7.855-6.423,10.843-10.843c2.988,4.42,6.423,7.855,10.843,10.843
			C249.294,142.752,245.859,146.186,242.871,150.606z"/>
	</g>
</g>
</svg>