<svg id="Capa_1" enable-background="new 0 0 512 512" height="512" viewBox="0 0 512 512" width="512" xmlns="http://www.w3.org/2000/svg"><g><path d="m512 418.25c0-16.861-3.19-31.61-8.96-43.84-9.511-20.33-25.311-30.5-36.901-35.45-5.963-2.561-12.474-4.536-19.388-5.888 0 0 45.029-80.937 45.038-80.974 1.578-2.92 1.627-6.439.074-9.396l-32.547-61.965c-2.021-3.846-6.297-5.946-10.57-5.202l-65.52 11.414s33.128-59.839 33.139-59.861c1.409-2.583 1.613-5.655.548-8.401 0 0-43.574-112.314-43.576-112.321-.83-2.126-2.38-3.958-4.471-5.116-2.089-1.157-4.463-1.5-6.705-1.076-.004.001-118.235 22.524-118.235 22.524-2.895.551-5.392 2.353-6.837 4.917-.014.023-76.375 137.914-76.375 137.914-3.024-2.017-6.221-3.822-9.592-5.381-11.59-5.4-24.861-8.14-39.441-8.15-10.54.01-21.1 1.5-29.751 4.2-14.98 4.69-28.06 10.51-38.871 17.3-10.36 6.52-18.97 14.13-25.56 22.62-11.67 14.97-17.55 33.36-17.5 54.66.03 21.95 5.73 43.3 12.07 65.06.57 1.92 6.231 21.08 7.921 27.91 2.239 8.96 3.369 16.2 3.35 21.53 0 20.42 3.89 39.1 11.58 55.53 5.42 11.6 12.77 22.11 21.85 31.23 8.611 8.64 18.721 15.99 30.05 21.86 21.311 11.05 46.821 16.89 73.782 16.9 15.12 0 30.331-1.82 45.211-5.42 14.731-3.56 28.811-5.37 41.851-5.37 23.92.03 40.89 5.93 53.011 11.07 5.08 2.16 30.571 14.2 36.741 15.58 4.08.88 25.86 5.32 54.41 5.34 14.071 0 27.261-1.13 39.212-3.36 5.42-1.01 9-6.24 7.989-11.66-.88-4.74-5.01-8.17-9.82-8.17-.61 0-1.23.06-1.841.17-10.705 1.995-35.711 3.02-35.711 3.02-22.05 0-41.77-3.07-49.95-4.88-3.07-.65-36.491-16.37-48.951-20.29-14.611-4.59-32.751-6.82-45.121-6.82-14.6 0-30.251 2-46.521 5.93-13.329 3.22-26.95 4.86-40.48 4.86h-.13c-32.101 0-61.192-9.23-81.921-25.99-11.04-8.92-19.63-19.84-25.541-32.47-6.431-13.76-9.691-29.59-9.7-47.06-.01-7.33-1.19-15.21-3.941-26.35-1.859-7.46-10.52-36.77-12.35-43.68-4.82-18.1-7.06-32.23-7.05-44.47.05-17.25 4.27-30.72 13.29-42.39 10.88-14.01 29.251-25.15 54.621-33.11 6.52-2.05 15.379-3.846 23.65-3.28 10.458.716 30.221 4.16 40.261 11.72 6.181 4.62 10.941 10.38 14.571 17.59 4.17 8.34 6.641 18.53 7.33 30.29.16 2.68 1.36 5.14 3.37 6.91 2 1.76 4.63 2.66 7.28 2.48 0 0 47.152.944 78.061 9.914.278.092 12.684 3.976 18.691 6.316 20.84 8.1 39.131 19.03 54.371 32.47 18.22 16.07 32.36 36.01 42.03 59.26 1.55 3.74 5.181 6.16 9.24 6.16 4.334 0 24.491-3.935 35.961-4.25 13.195-.363 31.89 2.14 45.991 12.36 7.05 5.09 12.36 11.54 16.241 19.72 4.52 9.6 7.04 21.549 7.04 35.51 0 5.425-1.25 18.83-3.721 26.25-1.739 5.23 1.101 10.91 6.33 12.65 1.021.34 2.09.52 3.16.52 4.31 0 8.12-2.75 9.49-6.85 3.152-9.468 4.743-23.768 4.743-32.768zm-253.585-189.141c-9.859-2.461-20.031-4.384-30.336-5.768l46.631-116.406 54.525 30.254-67.67 92.749c-1.05-.275-2.09-.564-3.15-.829zm91.301-193.281-13.329 82.453-49.455-27.443zm0 107.225 38.893-7.112-66.137 119.442c-12.439-7.613-26.024-14.035-40.682-19.232zm116.744 94.296h-52.74l-29.134-30.335 60.413-10.524zm-110.342-115.798 11.899-73.603 25.874 66.696zm-26.335-94.849-56.062 49.119-14.169-35.739zm-145.51 165.647c-2.335-4.689-5.14-9.028-8.355-12.989l68.378-123.492 14.587 36.792-51.539 128.658c-4.954-.302-9.836-.477-14.59-.499-1.46-10.57-4.311-20.15-8.481-28.47zm164.453 82.33c-3.122-2.75-6.351-5.397-9.677-7.947l27.487-49.637 30.6 31.864-26.825 48.455c-6.502-8.196-13.703-15.792-21.585-22.735zm34.316 41.035 32.31-58.362h50.647l-40.933 73.558c-.883-.016-1.754-.05-2.647-.05-12.281.01-22.981 1.5-29.791 2.76-2.892-6.197-6.097-12.163-9.586-17.906z"/><path d="m117.002 258.499c2.572 0 5.144-.986 7.099-2.957 3.89-3.92 3.865-10.252-.056-14.142-17.53-17.392-35.412-17.429-47.322-14.398-12.284 3.126-20.43 10.054-21.319 10.834-4.15 3.643-4.563 9.961-.919 14.112 3.642 4.15 9.961 4.563 14.113.919.835-.734 20.721-17.745 41.361 2.731 1.951 1.935 4.498 2.901 7.043 2.901z"/><path d="m373.825 398.298c-19.937-4.891-37.352 5.701-38.085 6.154-4.694 2.908-6.17 9.089-3.262 13.784 2.909 4.695 9.043 6.16 13.74 3.251.112-.067 11.303-6.679 22.999-3.727 7.414 1.871 13.87 7.368 19.189 16.339 1.868 3.151 5.195 4.902 8.611 4.902 1.733 0 3.49-.451 5.09-1.399 4.751-2.816 6.318-8.951 3.502-13.702-8.196-13.826-18.891-22.44-31.784-25.602z"/><path d="m117.213 373.487c.112-.067 11.303-6.677 22.999-3.727 7.414 1.871 13.87 7.368 19.189 16.339 1.868 3.151 5.195 4.902 8.611 4.902 1.733 0 3.49-.451 5.09-1.399 4.751-2.816 6.318-8.951 3.502-13.702-8.196-13.826-18.891-22.44-31.785-25.603-19.937-4.89-37.352 5.701-38.085 6.154-4.694 2.908-6.17 9.089-3.262 13.784 2.91 4.696 9.044 6.16 13.741 3.252z"/><path d="m252.822 307.297c-19.938-4.891-37.352 5.701-38.085 6.154-4.694 2.908-6.17 9.089-3.262 13.784s9.043 6.16 13.74 3.251c.112-.067 11.303-6.679 22.999-3.727 7.414 1.871 13.87 7.368 19.189 16.339 1.868 3.151 5.195 4.902 8.611 4.902 1.733 0 3.49-.451 5.09-1.399 4.751-2.816 6.318-8.951 3.502-13.702-8.195-13.825-18.89-22.44-31.784-25.602z"/><circle cx="470.956" cy="482.875" r="10"/></g></svg>