<?xml version="1.0" encoding="iso-8859-1"?>
<!-- Generator: Adobe Illustrator 18.1.1, SVG Export Plug-In . SVG Version: 6.00 Build 0)  -->
<svg version="1.1" id="Capa_1" xmlns="http://www.w3.org/2000/svg" xmlns:xlink="http://www.w3.org/1999/xlink" x="0px" y="0px"
	 viewBox="0 0 791.91 791.91" style="enable-background:new 0 0 791.91 791.91;" xml:space="preserve">
<g>
	<path d="M532.659,322.978c0,9.671-7.701,17.371-17.371,17.371H220.336c-9.671,0-17.371-7.701-17.371-17.371
		s7.701-17.371,17.371-17.371h293.967C523.973,304.622,532.659,312.323,532.659,322.978z M197.144,214.722v-78.349
		c0-15.491,12.536-29.012,29.012-29.012h279.461c15.491,0,29.012,12.536,29.012,29.012v78.349c0,15.491-12.536,29.012-29.012,29.012
		H226.156C209.68,243.734,197.144,231.108,197.144,214.722z M232.872,207.917h265.94v-64.828h-265.94L232.872,207.917
		L232.872,207.917z M651.66,612.11l-0.985,147.028c0,29.997-20.326,31.877-24.176,31.877c-5.82,0-12.536-1.97-18.356-6.805
		l-48.353-40.652l-46.383,38.682c-4.835,3.85-12.536,9.671-21.311,9.671c-10.656,0-21.311-7.701-23.191-23.191
		c0-0.985,0-0.985,0-1.97v-28.922H145.837c-26.146,0-47.368-21.311-47.368-47.368V47.368C98.469,21.221,119.78,0,145.837,0h449.681
		c26.146,0,47.368,21.311,47.368,47.368v362.646c14.506,10.656,26.146,25.161,34.832,41.548
		C706.728,505.734,694.193,572.532,651.66,612.11z M645.84,469.022c-7.701-14.506-19.341-27.042-32.862-35.817
		c-2.865-1.97-5.82-2.865-7.701-4.835c-0.985,0-1.97-0.985-2.865-0.985c-3.85-1.97-6.805-2.865-10.656-4.835c0,0,0,0-0.985,0
		c-20.326-6.805-43.517-6.805-63.844,0.985h-0.985c-3.85,1.97-7.701,2.865-11.64,5.82c-32.862,17.371-51.218,51.218-51.218,86.05
		l0,0l0,0c0,15.491,3.85,30.982,11.64,46.383c1.97,3.85,3.85,6.805,6.805,10.656c0.985,0.985,0.985,1.97,1.97,2.865
		c1.97,2.865,3.85,4.835,5.82,6.805c0.985,0.985,0.985,0.985,1.97,1.97c2.865,2.865,5.82,5.82,8.686,7.701l0.985,0.985
		c2.865,1.97,4.835,3.85,7.701,5.82l0.985,0.985c0.985,0,0.985,0.985,1.97,0.985s1.97,0.985,2.865,0.985
		c0.985,0.985,2.865,0.985,3.85,1.97c22.206,10.656,47.368,12.536,71.544,5.82c0.985,0,2.865-0.985,3.85-0.985
		c0.985,0,0.985,0,1.97-0.985c0.985,0,1.97-0.985,2.865-0.985c2.865-0.985,5.82-2.865,8.686-3.85c2.865-1.97,5.82-2.865,7.701-4.835
		c2.865-1.97,4.835-3.85,7.701-5.82C657.48,561.877,669.031,510.569,645.84,469.022z M468.905,700.13v-68.679H220.336
		c-9.671,0-17.371-7.701-17.371-17.371c0-9.671,7.701-17.371,17.371-17.371h233.078l0,0c-0.985-1.97-1.97-2.865-3.85-4.835
		c-0.985-0.985-1.97-1.97-1.97-2.865c-1.97-1.97-2.865-4.835-4.835-7.701l-0.985-0.985c-1.97-3.85-3.85-7.701-5.82-12.536l0,0
		c-3.85-10.656-6.805-21.311-8.686-31.877H220.336c-9.671,0-17.371-7.701-17.371-17.371c0-9.671,7.701-17.371,17.371-17.371h206.932
		c0.985-6.805,1.97-13.521,3.85-20.326c4.835-14.506,11.64-28.027,20.326-39.667H220.336c-9.671,0-17.371-7.701-17.371-17.371
		s7.701-17.371,17.371-17.371h269.79c1.97-0.985,3.85-1.97,5.82-3.85c3.85-1.97,7.701-3.85,12.536-5.82h0.985
		c15.491-6.805,32.862-9.671,50.323-9.671c16.476,0,31.877,2.865,46.383,8.686l0,0V47.368c0-6.805-4.835-11.64-11.64-11.64H145.837
		c-6.805,0-11.64,4.835-11.64,11.64v640.226c0,6.805,4.835,11.64,11.64,11.64h322.978v0.895H468.905z M615.843,637.271
		c-0.985,0-0.985,0-1.97,0.985c0,0-0.985,0-0.985,0.985h-0.985c-1.97,0.985-3.85,0.985-5.82,1.97c-0.985,0-0.985,0-1.97,0.985
		c-0.985,0-1.97,0.985-2.865,0.985c0,0,0,0-0.985,0c0,0,0,0-0.985,0s-0.985,0-1.97,0.985h-0.985c-0.985,0-1.97,0-2.865,0.985
		c-0.985,0-2.865,0.985-4.835,0.985c-0.985,0-2.865,0.985-3.85,0.985l0,0l0,0c-1.97,0-3.85,0.985-6.805,0.985
		c-0.985,0-2.865,0-3.85,0.985h-0.985c-0.985,0-0.985,0-1.97,0l0,0c-0.985,0-0.985,0-1.97,0c-2.865,0-5.82,0-7.701,0l0,0l0,0
		c-0.985,0-0.985,0-1.97,0c-0.985,0-0.985,0-1.97,0l0,0l0,0c-2.865,0-6.805,0-9.671-0.985l0,0l0,0l0,0h-0.985h-0.985
		c-12.536-0.985-25.161-4.835-35.817-9.671l0,0l0,0c-0.985-0.985-2.865-0.985-3.85-1.97l0,0l-0.985,105.391l43.517-36.712
		c2.865-2.865,7.701-3.85,11.641-3.85s8.686,0.985,11.641,3.85l43.517,36.712L615.843,637.271z"/>
</g>
<g>
</g>
<g>
</g>
<g>
</g>
<g>
</g>
<g>
</g>
<g>
</g>
<g>
</g>
<g>
</g>
<g>
</g>
<g>
</g>
<g>
</g>
<g>
</g>
<g>
</g>
<g>
</g>
<g>
</g>
</svg>
