<?xml version="1.0" encoding="iso-8859-1"?>
<!-- Generator: Adobe Illustrator 19.0.0, SVG Export Plug-In . SVG Version: 6.00 Build 0)  -->
<svg version="1.1" id="Capa_1" xmlns="http://www.w3.org/2000/svg" xmlns:xlink="http://www.w3.org/1999/xlink" x="0px" y="0px"
	 viewBox="0 0 512.002 512.002" style="enable-background:new 0 0 512.002 512.002;" xml:space="preserve">
<g>
	<g>
		<g>
			<path d="M237.726,429.714c-5.049,0-9.143,4.093-9.143,9.143c0,5.049,4.093,9.143,9.143,9.143s9.143-4.093,9.143-9.143
				C246.853,433.814,242.769,429.729,237.726,429.714z"/>
			<path d="M228.583,54.857h54.857c5.049,0,9.143-4.093,9.143-9.143V9.143C292.568,4.1,288.483,0.015,283.44,0h-54.857
				c-5.043,0.015-9.128,4.1-9.143,9.143v36.571C219.44,50.764,223.533,54.857,228.583,54.857z"/>
			<path d="M210.297,109.714h91.429c5.049,0,9.143-4.093,9.143-9.143V82.286c0-5.049-4.093-9.143-9.143-9.143h-91.429
				c-5.049,0-9.143,4.093-9.143,9.143v18.286C201.154,105.621,205.248,109.714,210.297,109.714z"/>
			<path d="M332.628,312.32c-13.453-12.859-31.402-19.947-50.011-19.749h-53.303c-17.996-0.234-35.411,6.366-48.731,18.469
				c-19.409,17.943-31.492,42.434-33.92,68.754c-3.1,37.171,13.176,73.316,43.063,95.634h132.48
				c25.434-18.664,41.291-47.637,43.303-79.12S355.48,334.069,332.628,312.32z M237.726,466.286
				c-15.148,0-27.429-12.28-27.429-27.429s12.28-27.429,27.429-27.429s27.429,12.28,27.429,27.429
				C265.11,453.987,252.856,466.241,237.726,466.286z M299.074,445.349c-1.753,1.67-4.071,2.617-6.491,2.651
				c-0.613-0.02-1.224-0.081-1.829-0.183c-0.573-0.099-1.128-0.284-1.646-0.549c-0.583-0.2-1.136-0.477-1.646-0.823l-1.371-1.097
				c-1.67-1.753-2.616-4.071-2.651-6.491c0.013-1.195,0.262-2.375,0.731-3.474c0.442-1.119,1.094-2.143,1.92-3.017
				c3.593-3.539,9.368-3.518,12.934,0.049C302.592,435.981,302.613,441.756,299.074,445.349z M283.44,402.286
				c-25.247,0-45.714-20.467-45.714-45.714s20.467-45.714,45.714-45.714c25.247,0,45.714,20.467,45.714,45.714
				C329.145,381.815,308.683,402.277,283.44,402.286z"/>
			<path d="M401.981,378.263c-3.497-53.089-35.556-100.089-83.707-122.72c-15.766-7.581-25.765-23.557-25.691-41.051v-77.349
				c0-5.049-4.093-9.143-9.143-9.143h-54.857c-5.049,0-9.143,4.093-9.143,9.143v78.517c-0.228,17.294-10.403,32.907-26.133,40.098
				c-47.975,22.754-79.855,69.716-83.295,122.703c-3.44,52.986,22.1,103.677,66.731,132.443c1.241,0.746,2.667,1.126,4.114,1.097
				h150.4c1.36,0.021,2.696-0.36,3.84-1.097C379.863,482.151,405.478,431.352,401.981,378.263z M383.64,399.146
				c-2.888,37.39-22.422,71.505-53.206,92.923c-1.553,1.087-3.407,1.663-5.303,1.646H186.8c-1.896,0.017-3.75-0.558-5.303-1.646
				c-36.599-25.864-56.774-69.169-53.029-113.829c2.791-30.838,16.931-59.542,39.68-80.549
				c16.674-15.29,38.544-23.659,61.166-23.406h53.303c23.355-0.236,45.873,8.692,62.72,24.869
				C372.466,325.046,386.528,361.756,383.64,399.146z"/>
			<path d="M283.44,329.143c-15.148,0-27.429,12.28-27.429,27.429c0,15.148,12.28,27.429,27.429,27.429s27.429-12.28,27.429-27.429
				C310.824,341.441,298.57,329.187,283.44,329.143z"/>
		</g>
	</g>
</g>
<g>
</g>
<g>
</g>
<g>
</g>
<g>
</g>
<g>
</g>
<g>
</g>
<g>
</g>
<g>
</g>
<g>
</g>
<g>
</g>
<g>
</g>
<g>
</g>
<g>
</g>
<g>
</g>
<g>
</g>
</svg>
