<?xml version="1.0" encoding="iso-8859-1"?>
<!-- Generator: Adobe Illustrator 19.0.0, SVG Export Plug-In . SVG Version: 6.00 Build 0)  -->
<svg version="1.1" id="Capa_1" xmlns="http://www.w3.org/2000/svg" xmlns:xlink="http://www.w3.org/1999/xlink" x="0px" y="0px"
	 viewBox="0 0 511.745 511.745" style="enable-background:new 0 0 511.745 511.745;" xml:space="preserve">
<g>
	<g>
		<g>
			<path d="M362.778,70.663C294.773,17.502,220.181-7.863,166.8,2.146c53.349,13.213,113.394,46.231,170.368,94.123L362.778,70.663z
				"/>
			<path d="M5.448,480.004c-7.261,7.261-7.261,19.034,0,26.295c7.261,7.261,19.034,7.261,26.295,0l326.964-326.964l-26.295-26.295
				L5.448,480.004z"/>
			<path d="M441.083,148.968l-25.607,25.607l0,0c47.891,56.972,80.909,117.015,94.124,170.363
				C519.601,291.554,494.235,216.97,441.083,148.968z"/>
			<path d="M443.627,107.344l-39.223-39.223c-3.655-3.643-9.568-3.643-13.223,0l-52.304,52.304
				c-1.755,1.753-2.741,4.131-2.741,6.612s0.986,4.859,2.741,6.612l39.223,39.223c3.697,3.531,9.517,3.531,13.214,0l52.313-52.304
				C447.27,116.912,447.27,110.999,443.627,107.344z"/>
		</g>
	</g>
</g>
<g>
</g>
<g>
</g>
<g>
</g>
<g>
</g>
<g>
</g>
<g>
</g>
<g>
</g>
<g>
</g>
<g>
</g>
<g>
</g>
<g>
</g>
<g>
</g>
<g>
</g>
<g>
</g>
<g>
</g>
</svg>
