<svg xmlns="http://www.w3.org/2000/svg" viewBox="0 0 12.77 12.7"><title>Asset 1</title><g id="Layer_2" data-name="Layer 2"><g id="Layer_1-2" data-name="Layer 1"><path d="M9.85,12.7A.79.79,0,0,1,9,11.85.79.79,0,0,1,9.85,11v-.3H4.75A1.37,1.37,0,0,1,3.4,9.43l-.9-8.3A.71.71,0,0,0,1.85.7H0V0H1.85A1.25,1.25,0,0,1,3.11,1l.31,2h9.35l-1,4.62A1.43,1.43,0,0,1,10.45,8.7H4l.13.77a.61.61,0,0,0,.65.53H10.7v.7H9.85V11a.79.79,0,0,1,.85.85A.79.79,0,0,1,9.85,12.7ZM3.91,8h6.64a.61.61,0,0,0,.65-.55l.73-3.75H3.48Zm.94,4.7A.79.79,0,0,1,4,11.85.79.79,0,0,1,4.85,11a.79.79,0,0,1,.85.85A.79.79,0,0,1,4.85,12.7Z"/></g></g></svg>