<?xml version="1.0" encoding="utf-8"?>
<!-- Generator: Adobe Illustrator 23.0.0, SVG Export Plug-In . SVG Version: 6.00 Build 0)  -->
<svg version="1.1" id="Layer_1" xmlns="http://www.w3.org/2000/svg" xmlns:xlink="http://www.w3.org/1999/xlink" x="0px" y="0px"
	 viewBox="0 0 226 218" style="enable-background:new 0 0 226 218;" xml:space="preserve">
<g>
	<g>
		<path d="M178,216c-43.7,0-87.3,0-131,0c-4.5-1.9-8.4-4.7-11-9c0-59.7,0-119.3,0-179c4.4-7.1,10.9-9.6,19.1-9.1
			C60.7,19.3,66.4,19,72,19c1.8,0,3.9,0.3,5.1-1.4c3.8-5.3,9.2-5.9,15.1-5.6c2.5,0.1,5,0.3,7-1.7c2.2-2.3,5.1-3.6,7.8-5.3
			c3.7,0,7.3,0,11,0c2,1.2,4.3,2.1,5.8,3.7c2.9,2.9,6.2,3.6,10,3.3c1.8-0.1,3.7-0.1,5.5,0.1c3.1,0.3,6,1.3,7.6,4
			c1.5,2.6,3.7,3,6.3,2.9c6.1-0.1,12.3,0.1,18.4,0c7.5-0.1,13.7,2.1,17.4,9c0,59.7,0,119.3,0,179C186.5,211.4,182.6,214.2,178,216z
			 M57,117.5c0,23.3,0,46.6,0,70c0,1.3,0,2.7,0,4c0,2.2,1,3.4,3.3,3.5c1,0,2,0.1,3,0.1c32.8,0,65.6,0,98.4,0c0.8,0,1.7,0,2.5,0
			c2.5,0,3.6-1.3,3.6-3.7c0-1.2,0-2.3,0-3.5c0-46.5,0-93,0-139.4c0-0.7,0-1.3,0-2c-0.1-4.8-0.5-5.2-5.1-5.3c-3.3-0.1-6.7,0.1-10,0
			c-2.5-0.1-4.4,0.6-6.1,2.6c-2.3,2.8-5.5,4.4-9.2,4.4c-16.5,0-33,0.1-49.5-0.1c-3.3,0-6.9-0.4-9-3.5c-2-2.9-4.5-3.6-7.7-3.4
			c-2.7,0.1-5.3,0-8,0c-6.3,0-6.4,0.1-6.4,6.5C57,70.8,57,94.2,57,117.5z M183,117.7c0-3.8,0-7.7,0-11.5c0-23.2,0-46.3,0-69.5
			c0-8.3-2.4-10.6-10.8-10.7c-6.2,0-12.3-0.1-18.5,0c-3.8,0.1-4.6,1-4.6,4.2c0,3.3,2,3.8,4.6,3.7c5,0,10-0.1,15,0
			c4.5,0.1,5.2,0.9,5.4,5.3c0,1,0,2,0,3c0,50.2,0,100.3,0,150.5c0,1.3,0,2.7,0,4c0,2.9-1.5,4.2-4.4,4.2c-1,0-2,0-3,0
			c-36.2,0-72.3,0-108.5,0c-1,0-2,0-3,0c-2.6-0.1-4-1.3-4.1-4c0-1.5-0.1-3-0.1-4.5c0-27.7,0-55.3,0-83c0-23,0-46,0-69
			c0-6.1,0.5-6.5,6.6-6.6c5.2,0,10.3-0.1,15.5,0c2.7,0,3.9-1.3,3.9-4c0-2.7-1.2-4-3.9-4c-7.7,0-15.3-0.1-23,0.1
			c-3.5,0.1-5.8,2.1-7,5.4c-0.7,2.1-1,4.2-1,6.4c0,53.2,0,106.3,0,159.5c0,8.5,3.3,11.6,11.8,11.6c39.2,0,78.3,0,117.5,0
			c1.2,0,2.3,0,3.5,0c5.2-0.4,7.8-3,8.1-8.3c0.1-1.5,0-3,0-4.5C183,170,183,143.8,183,117.7z M112.5,41c8.1,0,16.3,0.1,24.4,0
			c4.6-0.1,5.8-1.3,6-6c0.1-3.5,0.1-7,0-10.5c-0.2-4-1.4-5.2-5.5-5.4c-1.8-0.1-3.7-0.1-5.5,0c-4.3,0.2-7.9-0.4-11.1-4.1
			c-3.6-4.2-12.4-4.3-15.4-0.4c-3.1,4-6.9,4.7-11.4,4.5c-2-0.1-4,0-6,0c-3.2,0.1-4.9,1.8-5,5c-0.1,3.5-0.1,7,0,10.5
			c0.1,5.2,1.2,6.4,6.6,6.5C97.2,41,104.9,41,112.5,41z"/>
		<path d="M72.4,151.1c2.7,0,4.1,2,5.7,3.6c6,5.8,4.5,6.1,10.6,0.1c3.1-3,6.1-6.1,9.2-9.1c1.8-1.7,3.9-3,6-0.7
			c1.9,2.1,0.5,4.1-1.1,5.6c-5.7,5.4-11.3,10.7-17.1,16c-2,1.8-4.4,1.9-6.3,0.1c-3.2-2.9-6.2-6-9.2-9.2c-1.3-1.4-1.6-3.3-0.8-5.1
			C70,151.2,71.2,151.1,72.4,151.1z"/>
		<path d="M104.9,73.5c0,1.6-0.8,2.9-1.9,3.9c-5.7,5.4-11.4,10.8-17.1,16.1c-2.2,2-4.6,2-6.7,0c-3-2.8-6-5.8-8.8-8.9
			c-1.6-1.8-2.1-4.1-0.1-5.8c1.9-1.7,3.7-0.3,5.3,1.1c1.6,1.5,3.2,3,4.6,4.6c2,2.3,3.7,2.2,5.8,0c4-4.2,8.2-8.3,12.4-12.4
			c1.3-1.3,2.8-2.5,4.8-1.5C104.3,71.3,104.8,72.3,104.9,73.5z"/>
		<path d="M104.8,109.9c0,1.5-0.7,2.5-1.5,3.3c-5.8,5.8-11.5,11.6-17.3,17.3c-2,2-4.2,1.8-6.2-0.1c-3.1-3-6.2-6.1-9.2-9.2
			c-1.7-1.8-2.3-3.8-0.3-5.7c2-1.9,3.7-0.5,5.2,0.8c1.6,1.4,3.1,3,4.7,4.5c3.3,3.2,3.3,3.2,6.7-0.2c3.7-3.6,7.3-7.3,10.9-10.9
			c0.9-0.9,1.8-2,3.2-2.3C103.2,106.9,104.6,107.8,104.8,109.9z"/>
		<path d="M135.1,95c-5.1,0-10.3,0-15.4,0c-1.3,0-2.7,0.1-3.9-0.6c-1.2-0.6-1.6-1.6-1.6-2.9c0.1-1.3,0.8-2.2,2.1-2.4
			c1-0.2,2-0.2,3-0.2c10.4,0,20.9,0,31.3,0c0.5,0,1,0,1.5,0c1.9,0.1,3.8,0.4,3.7,2.9c-0.1,2.3-1.8,3-3.8,3
			C146.3,95,140.7,95,135.1,95C135.1,95,135.1,95,135.1,95z"/>
		<path d="M134.7,131c-5.5,0-10.9,0-16.4,0c-1.8,0-3.9,0-4.1-2.5c-0.2-2.6,1.7-3.4,3.9-3.4c11.3,0,22.6,0,33.8,0
			c2.2,0,4,0.9,3.9,3.5c-0.2,2.5-2.3,2.5-4.1,2.5C146,131.1,140.4,131,134.7,131z"/>
		<path d="M135.5,162c5.3,0,10.6,0,15.9,0c2.1,0,4.3,0.3,4.3,3c0,2.7-2.3,3-4.3,3c-10.9,0-21.9,0-32.8,0c-2.1,0-4.3-0.3-4.3-3
			c0-2.7,2.3-2.9,4.3-3C124.2,162,129.9,162,135.5,162z"/>
		<path d="M127.9,117c-3.3,0-6.6,0-10,0c-1.7,0-3.5-0.2-3.7-2.4c-0.2-2.3,1.2-3.5,3.3-3.5c7-0.1,13.9-0.1,20.9,0
			c1.8,0,3.3,0.8,3.3,2.9c0,2.1-1.5,2.8-3.4,2.9C134.9,117,131.4,117,127.9,117C127.9,117,127.9,117,127.9,117z"/>
		<path d="M127.9,154c-3.3,0-6.6,0.1-10,0c-2,0-3.7-0.7-3.8-3.1c-0.1-2.6,1.9-2.8,3.8-2.8c6.5,0,12.9,0,19.4,0c2.1,0,4.3,0.2,4.3,3
			c0,2.7-2.2,2.9-4.3,3C134.2,154,131.1,154,127.9,154C127.9,154,127.9,154,127.9,154z"/>
		<path d="M127.8,75c3.5,0,7,0,10.4,0c1.6,0,3.2,0.5,3.3,2.3c0.1,2-1.3,3.2-3,3.3c-7.1,0.5-14.2,0.5-21.3,0c-1.8-0.1-3.2-1.3-3-3.3
			c0.2-2.2,2-2.4,3.7-2.4C121.2,75,124.5,75,127.8,75C127.8,75,127.8,75,127.8,75z"/>
		<path d="M113,27c4.8,0,9.6,0,14.4,0c2.1,0,4.3,0.3,4.3,3c0,2.7-2.2,3-4.3,3c-9.6,0-19.2,0-28.8,0c-2.1,0-4.3-0.3-4.3-3
			c0-2.7,2.3-2.9,4.3-3C103.4,27,108.2,27,113,27z"/>
	</g>
</g>
</svg>
