<?xml version="1.0" encoding="utf-8"?>
<!-- Generator: Adobe Illustrator 22.1.0, SVG Export Plug-In . SVG Version: 6.00 Build 0)  -->
<svg version="1.1" id="Layer_1" xmlns="http://www.w3.org/2000/svg" xmlns:xlink="http://www.w3.org/1999/xlink" x="0px" y="0px"
	 viewBox="0 0 443.4 504.5" style="enable-background:new 0 0 443.4 504.5;" xml:space="preserve">
<title>checkWalls</title>
<path d="M161,50.5c-17.8,0.6-35.3,16.5-42.9,38.8c-9.4,27.4-0.7,55.2,19.4,62.1c20.1,6.8,44-9.9,53.3-37.3
	c9.4-27.4,0.7-55.2-19.4-62.1C168.1,50.9,164.5,50.4,161,50.5z M90.5,167C44.6,192.7-5.4,275.1,60.3,402.5
	c11.3,22-34.6,77.3-60.3,102h43.7c29.8-31.7,53.3-66.2,63.5-103.6c1.6-5.6-16.8-34.7-27.8-62.1c27.9,14.1,73.1,58.4,70.5,76.6
	c-5.1,35.3-17.6,57.4-32.8,89.1h48.8c11.2-24.1,18.9-52.5,25.6-97.3c2-13.8-23.8-47-61.8-85.1c-13.7-13.8-27.1-56.4,10.7-107.9
	c47.7,18.3,78.8,43.9,118.4,67.6l18.4-21.7c-38.5-30-79.5-65-129.8-88C129.4,163.9,107.4,157.5,90.5,167L90.5,167z"/>
<polygon points="344.6,274.4 164.4,504.5 443.4,504.5 443.4,0 331.2,152.9 "/>
</svg>
