<svg id="Layer_5" enable-background="new 0 0 64 64" height="512" viewBox="0 0 64 64" width="512" xmlns="http://www.w3.org/2000/svg"><g><path d="m1 61h62v2h-62z"/><path d="m4 51v6h16v-6zm14 4h-12v-2h12z"/><path d="m24 51v6h16v-6zm14 4h-12v-2h12z"/><path d="m44 51v6h16v-6zm14 4h-12v-2h12z"/><path d="m63 19v-5.46l-14.63-12.54h-2.74l-13.63 11.683-13.63-11.683h-2.74l-14.63 12.54v5.46h2v18h-2v2h2v6h-2v2h62v-2h-2v-6h2v-2h-2v-18zm-30-2v-2h28v2zm-14 22v6h-6v-6zm6-2h-8v-12h8zm-4 2h6v6h-6zm8 0h6v6h-6zm8 0h6v6h-6zm8 0h6v6h-6zm2-2h-8v-12h8zm-14 0h-2v-18h2zm-30-20v-2h28v2zm7.771-4 6.229-5.17 6.229 5.17zm30.765 0 5.464-5.102 5.464 5.102zm4.834-10h1.26l11.667 10h-3.903l-8.394-7.838-8.394 7.838h-3.903zm-30 0h1.26l11.667 10h-2.936l-9.361-7.77-9.361 7.77h-2.936zm-11.37 16h24v18h-2v-14h-12v14h-10zm0 20h6v6h-6zm54 6h-6v-6h6zm0-8h-10v-14h-12v14h-2v-18h24z"/><path d="m57 21h-6v6h6zm-2 4h-2v-2h2z"/><path d="m57 29h-6v6h6zm-2 4h-2v-2h2z"/><path d="m7 21v6h6v-6zm4 4h-2v-2h2z"/><path d="m7 35h6v-6h-6zm2-4h2v2h-2z"/></g></svg>