<?xml version="1.0" encoding="iso-8859-1"?>
<!-- Generator: Adobe Illustrator 16.0.0, SVG Export Plug-In . SVG Version: 6.00 Build 0)  -->
<!DOCTYPE svg PUBLIC "-//W3C//DTD SVG 1.1//EN" "http://www.w3.org/Graphics/SVG/1.1/DTD/svg11.dtd">
<svg version="1.1" id="Capa_1" xmlns="http://www.w3.org/2000/svg" xmlns:xlink="http://www.w3.org/1999/xlink" x="0px" y="0px"
	 width="499.502px" height="499.502px" viewBox="0 0 499.502 499.502" style="enable-background:new 0 0 499.502 499.502;"
	 xml:space="preserve">
<g>
	<g>
		<g>
			<path d="M210.231,499.502c0.17-2.487,0.541-4.97,0.834-7.448l31.575,2.697c-0.092,1.585-0.197,3.168-0.295,4.751h81.587
				c0,0-0.471-10.909,6.877-22.547c6.425-10.172,13.707-19.914,20.123-30.094c15.132-24.018,25.615-50.56,26.896-78.17
				c0.274-6.01,2.387-33.174-10.644-69.115c-2.379-6.551-5.37-12.926-8.774-19.118c-6.496-11.817-14.723-22.883-24.381-32.898
				c-9.414-9.769-20.203-18.393-31.267-26.688c-9.777-7.335-20.141-14.471-27.877-23.588c-3.893-4.586-6.963-9.662-9.244-15.016
				c-1.838-4.305-9.672-19.975-6.059-45.334c1.979-13.912,9.445-26.346,17.318-38.368c8.137-12.419,16.752-24.584,22.707-37.978
				c5.241-11.79,7.842-24.001,8.473-36.609c0.404-8.037-0.734-16.037-1.978-23.979c-0.004,4.621-0.104,9.207-0.397,13.82
				l-0.793-0.071c0.561-4.583,0.922-9.146,1.19-13.749c-2.37,10.819-5.405,21.377-10.896,31.344
				c-6.719,12.197-16.496,22.521-27.75,31.703c-11.137,9.091-23.145,17.33-33.832,26.851c-10.551,9.4-19.631,19.954-26.525,31.698
				c-5.027,8.564-21.385,37.381-17.639,78.618c1.268,13.978,4.791,27.697,10.598,40.751c5.555,12.495,13.037,24.152,20.826,35.657
				c3.686,5.442,7.451,10.853,10.721,16.498c19.775,34.165,0.275,54.802-3.611,58.739c-4.17,4.227-9.783,7.168-14.797,10.565
				c-11.654,7.894-22.807,16.429-32.99,25.769c-10.732,9.848-20.541,20.664-28.488,32.39c-7.957,11.739-14.48,24.06-19.537,36.979
				c-2.688,6.862-4.779,13.889-6.652,20.951c-1.838,6.937-2.637,14.005-4.15,20.989H210.231L210.231,499.502z M294.197,273
				c6.884,8.796,12.441,18.543,16.138,28.712c3.766,10.157,5.721,20.906,6.336,31.562l-21.405,0.5
				c-0.003-18.357-5.054-36.596-16.199-52.252L294.197,273z M262.423,408.212c6.851-6.991,13.332-14.291,18.563-22.305
				l21.907,10.294c-10.571,18.271-26.549,33.312-40.024,49.883l-22.797-14.696C247.237,423.445,254.915,415.906,262.423,408.212
				C267.792,402.731,257.081,413.687,262.423,408.212z M238.325,112.25c6.162-8.601,13.141-16.532,20.696-24.221
				c6.73-6.846,13.551-13.6,19.963-20.678l3.414,2.198c-13.028,15.974-28.682,30.507-38.796,48.172l-6.762-3.177
				C236.841,114.543,237.382,113.709,238.325,112.25C238.833,111.542,237.382,113.709,238.325,112.25z M239.417,233.37
				c-6.279-8.879-11.209-18.655-14.291-28.753c-3.117-9.977-4.457-20.466-4.482-30.799l11.1-0.312
				c0.59,9.842,2.498,19.749,6.123,29.091c1.975,5.082,4.475,10.017,7.408,14.728c1.359,2.188,2.809,4.336,4.332,6.438
				c0.201,0.281,1.633,2.714,2.051,2.714L239.417,233.37z"/>
		</g>
	</g>
</g>
<g>
</g>
<g>
</g>
<g>
</g>
<g>
</g>
<g>
</g>
<g>
</g>
<g>
</g>
<g>
</g>
<g>
</g>
<g>
</g>
<g>
</g>
<g>
</g>
<g>
</g>
<g>
</g>
<g>
</g>
</svg>
