<?xml version="1.0" encoding="iso-8859-1"?>
<!-- Generator: Adobe Illustrator 19.0.0, SVG Export Plug-In . SVG Version: 6.00 Build 0)  -->
<svg version="1.1" id="Capa_1" xmlns="http://www.w3.org/2000/svg" xmlns:xlink="http://www.w3.org/1999/xlink" x="0px" y="0px"
	 viewBox="0 0 512 512" style="enable-background:new 0 0 512 512;" xml:space="preserve">
<g>
	<g>
		<path d="M402.797,46.429h-28.168c-4.143,0-7.5,3.357-7.5,7.5c0,4.142,3.357,7.5,7.5,7.5h28.168c4.143,0,7.5-3.357,7.5-7.5
			S406.94,46.429,402.797,46.429z"/>
	</g>
</g>
<g>
	<g>
		<path d="M463.634,46.429h-32.17c-4.143,0-7.5,3.357-7.5,7.5s3.357,7.5,7.5,7.5h32.17c4.143,0,7.5-3.357,7.5-7.5
			S467.777,46.429,463.634,46.429z"/>
	</g>
</g>
<g>
	<g>
		<path d="M433.467,82.43h-58.837c-4.143,0-7.5,3.358-7.5,7.5c0,4.142,3.357,7.5,7.5,7.5h58.837c4.143,0,7.5-3.357,7.5-7.5
			C440.967,85.788,437.61,82.43,433.467,82.43z"/>
	</g>
</g>
<g>
	<g>
		<path d="M463.634,82.43h-0.166c-4.143,0-7.5,3.358-7.5,7.5c0,4.143,3.357,7.5,7.5,7.5h0.166c4.143,0,7.5-3.357,7.5-7.5
			S467.777,82.43,463.634,82.43z"/>
	</g>
</g>
<g>
	<g>
		<path d="M489.971,0.001H348.294c-12.149,0-22.03,9.883-22.03,22.029v129.496c0,10.485,12.546,15.733,20.053,8.647
			c22.002-20.457,20.732-20.283,22.408-20.283h77.408c4.143,0,7.5-3.357,7.5-7.5s-3.357-7.5-7.5-7.5h-77.408
			c-4.438,0-8.659,1.678-11.886,4.724l-15.575,14.701V22.03c0-3.875,3.153-7.028,7.029-7.028h141.677
			c3.875,0,7.028,3.153,7.028,7.028v93.893c0,4.944-4.022,8.967-8.969,8.967h-6.896c-4.143,0-7.5,3.357-7.5,7.5s3.357,7.5,7.5,7.5
			h6.896c13.217,0,23.969-10.753,23.969-23.968V22.03C512,9.883,502.118,0.001,489.971,0.001z"/>
	</g>
</g>
<g>
	<g>
		<path d="M190.759,330.425c0.026,0.018,0.049,0.034,0.073,0.051C190.806,330.458,190.782,330.441,190.759,330.425z"/>
	</g>
</g>
<g>
	<g>
		<path d="M191.373,330.852c-0.007-0.005-0.015-0.01-0.024-0.017C191.356,330.841,191.365,330.847,191.373,330.852z"/>
	</g>
</g>
<g>
	<g>
		<path d="M190.832,330.476c0.051,0.035,0.105,0.073,0.16,0.112C190.944,330.554,190.891,330.517,190.832,330.476z"/>
	</g>
</g>
<g>
	<g>
		<path d="M191.399,330.871L191.399,330.871L191.399,330.871z"/>
	</g>
</g>
<g>
	<g>
		<path d="M358.848,481.544l-4.827-29.961c-0.658-4.089-4.491-6.873-8.599-6.211c-4.089,0.659-6.87,4.508-6.211,8.598l4.828,29.961
			c1.105,6.856-4.194,13.067-11.131,13.067h-44.022v-68.026c0-4.143-3.357-7.5-7.5-7.5c-4.143,0-7.5,3.357-7.5,7.5v68.026H219.48
			l-19.195-117.281l7.72-19.012c0.311,0.078,6.843,6.123,16.154,2.994c5.465-1.835,9.335-6.212,10.695-10.997l10.04-35.773
			l58.297,19.086c22.29,9.535,20.562,24.656,30.45,83.394c0.658,4.089,4.503,6.874,8.598,6.211c4.089-0.659,6.87-4.508,6.211-8.599
			c-9.449-58.617-6.939-43.659-7.439-46.135c-3.1-15.718-5.646-37.622-32.277-48.816c-0.188-0.079-0.379-0.15-0.572-0.214
			l-64.868-21.236l-15.269-11.418v-14.609c21.681-12.21,39.433-33.049,45.297-62.786c36.489,4.808,56.061-38.913,26.168-59.121
			c0.007-35.658,0.003-34.888-0.176-38.339C292.396-22.146,98.426-43.264,62.097,88.36c-5.344,19.43-4.438,30.974-4.415,64.358
			c-28.04,19.021-12.673,59.426,21.175,59.426c1.73,0,3.466-0.122,5.195-0.357c0.372,1.675,0.792,3.378,1.281,5.156
			c8.108,29.38,25.71,48.722,46.592,59.637l0.01,12.591l-15.887,11.688c-67.273,21.863-62.522,20.31-62.827,20.422
			c-10.478,3.914-19.037,10.66-24.755,19.509c-6.363,9.847-3.488,6.23-28.022,138.991C-2.592,496.577,10.325,512,27.362,512h67.134
			c4.142,0,7.5-3.357,7.5-7.5s-3.358-7.5-7.5-7.5H82.877v-68.026c0-4.143-3.358-7.5-7.5-7.5c-4.142,0-7.5,3.357-7.5,7.5v68.026
			H27.362c-7.706,0-13.524-6.978-12.156-14.55c22.973-127.169,22.021-121.75,22.076-122.285c1.247-12.14,10.281-20.679,21.13-24.805
			l55.651-18.084c5.82,24.973,8.187,35.239,8.344,35.724c3.487,10.707,16.289,14.991,25.518,8.568l1.24-0.863l7.72,19.013
			l-19.195,117.281h-8.194c-4.142,0-7.5,3.357-7.5,7.5c0,4.143,3.358,7.5,7.5,7.5c12.079,0,192.827,0,203.412,0
			C349.096,511.999,361.42,497.501,358.848,481.544z M231.176,310.292c-11.319,38.696-10.032,38.595-11.792,39.186
			c-1.585,0.535-1.969-0.899-10.508-6.443c-11.332-7.886-15.856-11.035-17.478-12.164c0.002,0.001,0.001,0.001-0.002-0.002
			l0.002,0.001c-0.004-0.003-0.008-0.006-0.013-0.009c-0.002-0.002-0.005-0.004-0.008-0.006c-0.002-0.001-0.004-0.003-0.005-0.004
			h0.001c-0.008-0.005-0.017-0.012-0.029-0.02c0.002,0.001,0.003,0.002,0.005,0.003c-0.006-0.004-0.011-0.008-0.017-0.012
			c-0.029-0.02-0.068-0.047-0.119-0.083c0.003,0.002,0.006,0.004,0.009,0.006c-0.019-0.013-0.04-0.028-0.058-0.041
			c-0.038-0.027-0.083-0.057-0.132-0.092c-0.136-0.095-0.236-0.164-0.305-0.213c0.01,0.007,0.021,0.015,0.032,0.022
			c-0.051-0.036-0.105-0.073-0.164-0.114l30.395-27.636L231.176,310.292z M195.383,351.92l-7.889,19.428h-17.815l-7.888-19.428
			l16.796-11.689L195.383,351.92z M146.935,289.794l-0.005-6.934c20.505,6.657,44.098,6.678,66.094-1.332v8.117l-34.261,31.151
			L146.935,289.794z M291.455,193.044c-4.653,3.281-10.407,4.636-16.078,3.908v-35.513
			C295.885,158.824,307.738,181.559,291.455,193.044z M65.762,193.044c-16.231-11.447-4.544-34.235,16.061-31.605
			c-0.007,33.333,0.006,12.673,0.017,35.513C76.165,197.679,70.414,196.325,65.762,193.044z M83.648,146.565
			c-3.67-0.46-7.362-0.387-10.966,0.202c0.018-27.112-0.816-37.36,3.876-54.422c31.907-115.604,201.725-96.52,207.775,22.761
			c0.149,2.889,0.162,1.878,0.158,31.655c-3-0.486-6.06-0.615-9.12-0.377l-0.002-18.294c0-6.167-4.646-11.267-10.808-11.86
			c0,0,0,0,0-0.001c-12.231-1.18-19.087-9.153-22.685-15.633c-2.187-3.938-5.972-6.651-10.388-7.446
			c-4.406-0.795-8.896,0.425-12.314,3.346c-32.606,27.871-70.154,29.291-95.909,25.571
			C105.826,119.544,89.126,129.888,83.648,146.565z M99.795,212.958c-1.465-5.328-2.268-9.885-2.685-15.242
			c-0.411-5.197-0.229-27.989-0.268-39.871c0-12.932,11.492-22.778,24.283-20.932c28.794,4.155,70.839,2.505,107.697-28.929
			c7.077,12.68,18.203,20.701,31.547,22.824c0.014,71.105,0.034,61.501-0.116,64.562
			C255.602,287.134,124.426,302.199,99.795,212.958z M139.358,349.255c-0.959,0.667-2.196,0.226-2.613-0.712l-8.802-37.813
			l10.818-7.958l28.084,27.355C150.777,341.308,145.774,344.79,139.358,349.255z M152.893,496.998l18.109-110.649h15.169
			l18.109,110.649H152.893z"/>
	</g>
</g>
<g>
	<g>
		<path d="M191.164,330.707c-0.033-0.023-0.063-0.044-0.094-0.065c0.051,0.035,0.099,0.068,0.143,0.099
			C191.198,330.73,191.182,330.72,191.164,330.707z"/>
	</g>
</g>
<g>
	<g>
		<path d="M191.032,330.615c-0.013-0.009-0.027-0.019-0.04-0.028c0.025,0.018,0.05,0.035,0.074,0.052
			C191.055,330.631,191.043,330.622,191.032,330.615z"/>
	</g>
</g>
<g>
	<g>
		<path d="M191.067,330.639c0.001,0.001,0.003,0.002,0.004,0.003C191.07,330.641,191.068,330.64,191.067,330.639z"/>
	</g>
</g>
<g>
</g>
<g>
</g>
<g>
</g>
<g>
</g>
<g>
</g>
<g>
</g>
<g>
</g>
<g>
</g>
<g>
</g>
<g>
</g>
<g>
</g>
<g>
</g>
<g>
</g>
<g>
</g>
<g>
</g>
</svg>
