<svg id="Layer_1" data-name="Layer 1" xmlns="http://www.w3.org/2000/svg" viewBox="0 0 100 100"><defs><style>.cls-1,.cls-3{fill:none;stroke:#fff;stroke-linecap:round;stroke-miterlimit:10;}.cls-1{stroke-width:1.26px;}.cls-2{fill:#fff;}.cls-3{stroke-width:0.81px;}</style></defs><title>curse</title><rect x="32.16" y="18.24" width="31.85" height="53.67" rx="9.5" ry="9.5" transform="translate(-17.79 47.2) rotate(-45)"/><rect x="56.33" y="59.87" width="13.21" height="41.57" rx="6.6" ry="6.6" transform="translate(-29.03 35.85) rotate(-26.06)"/><rect x="73.29" y="42.91" width="13.21" height="41.57" rx="6.6" ry="6.6" transform="translate(-21.64 75.15) rotate(-45)"/><rect x="21.2" y="32.76" width="13.21" height="41.57" rx="6.6" ry="6.6" transform="translate(-4.54 2.62) rotate(-4.98)"/><rect x="42.47" y="-4.55" width="13.21" height="41.57" rx="6.6" ry="6.6" transform="translate(27.65 -30.81) rotate(47.21)"/><circle cx="17.1" cy="17.93" r="15.92"/><line class="cls-1" x1="9.86" y1="20.9" x2="11.55" y2="27.39"/><line class="cls-1" x1="13.95" y1="23.3" x2="7.46" y2="24.99"/><line class="cls-1" x1="18.17" y1="6.71" x2="19.87" y2="13.2"/><line class="cls-1" x1="22.26" y1="9.11" x2="15.77" y2="10.8"/><circle class="cls-2" cx="39" cy="10.1" r="3.46"/><rect class="cls-2" x="30.06" y="18.77" width="17.58" height="1.5" rx="0.75" ry="0.75" transform="translate(19.23 58.32) rotate(-89.85)"/><circle class="cls-2" cx="7.68" cy="58.05" r="3.46"/><rect class="cls-2" x="8.2" y="55.89" width="17.58" height="1.5" rx="0.75" ry="0.75" transform="translate(42.98 109.75) rotate(170.63)"/><circle class="cls-2" cx="95.37" cy="54.48" r="3.46"/><rect class="cls-2" x="78.26" y="58.14" width="17.58" height="1.5" rx="0.75" ry="0.75" transform="translate(-17.58 48.99) rotate(-28.67)"/><line class="cls-1" x1="32.44" y1="39.39" x2="34.14" y2="45.88"/><line class="cls-1" x1="36.53" y1="41.79" x2="30.04" y2="43.48"/><line class="cls-1" x1="62.95" y1="45.67" x2="64.64" y2="52.16"/><line class="cls-1" x1="67.04" y1="48.07" x2="60.55" y2="49.76"/><line class="cls-1" x1="65.02" y1="83.41" x2="66.72" y2="89.9"/><line class="cls-1" x1="69.12" y1="85.81" x2="62.62" y2="87.5"/><path class="cls-3" d="M26.57,18.75a3.79,3.79,0,0,0-3.71,6.61"/></svg>