<?xml version="1.0" encoding="iso-8859-1"?>
<!-- Generator: Adobe Illustrator 16.0.0, SVG Export Plug-In . SVG Version: 6.00 Build 0)  -->
<!DOCTYPE svg PUBLIC "-//W3C//DTD SVG 1.1//EN" "http://www.w3.org/Graphics/SVG/1.1/DTD/svg11.dtd">
<svg version="1.1" id="Capa_1" xmlns="http://www.w3.org/2000/svg" xmlns:xlink="http://www.w3.org/1999/xlink" x="0px" y="0px"
	 width="234.502px" height="234.502px" viewBox="0 0 234.502 234.502" style="enable-background:new 0 0 234.502 234.502;"
	 xml:space="preserve">
<g>
	<path d="M117.251,0C52.598,0,0,52.597,0,117.251c0,64.651,52.598,117.251,117.251,117.251c64.653,0,117.251-52.6,117.251-117.251
		C234.502,52.597,181.904,0,117.251,0z M117.251,15.562c18.649,0,36.125,5.071,51.167,13.867l-50.527,38.416L66.118,29.407
		C81.151,20.624,98.617,15.562,117.251,15.562z M79.94,62.268l22.915,17.01L88.542,89.687L79.94,62.268z M84.023,137.314
		l-30.605,0.301l25.226-18.317L84.023,137.314z M113.22,94.19l4.647-3.378l13.971,9.981l8.721,6.476l-9.281,29.581l-27.853,0.274
		l-8.99-28.655L113.22,94.19z M133.061,79.105l21.447-16.308l-8.175,26.062l-3.649-2.608L133.061,79.105z M156.294,118.271
		l25.304,18.086l-30.798,0.302L156.294,118.271z M15.563,117.251c0-31.893,14.77-60.389,37.814-79.047l19.68,62.728l-54.738,39.751
		C16.535,133.154,15.563,125.314,15.563,117.251z M23.274,156.055l66.153-0.646l18.854,63.113
		C69.834,215.143,37.464,190.295,23.274,156.055z M117.308,181.374l-8.208-26.161l16.466-0.161L117.308,181.374z M126.337,218.514
		l19.024-63.656l66.598-0.653C198.195,189.357,165.421,215.031,126.337,218.514z M161.867,99.958l19.35-61.68
		c22.994,18.658,37.723,47.122,37.723,78.973c0,7.481-0.834,14.771-2.375,21.795L161.867,99.958z"/>
</g>
<g>
</g>
<g>
</g>
<g>
</g>
<g>
</g>
<g>
</g>
<g>
</g>
<g>
</g>
<g>
</g>
<g>
</g>
<g>
</g>
<g>
</g>
<g>
</g>
<g>
</g>
<g>
</g>
<g>
</g>
</svg>
