<svg id="Capa_1" enable-background="new 0 0 512 512" height="512" viewBox="0 0 512 512" width="512" xmlns="http://www.w3.org/2000/svg"><g><path d="m428.5 0h-345c-20.678 0-37.5 16.822-37.5 37.5v437c0 20.678 16.822 37.5 37.5 37.5h345c20.678 0 37.5-16.822 37.5-37.5v-437c0-20.678-16.822-37.5-37.5-37.5zm-262.5 45h180v17c0 4.136-3.364 7.5-7.5 7.5h-165c-4.136 0-7.5-3.364-7.5-7.5zm180-15h-180v-15h180zm105 444.5c0 12.407-10.093 22.5-22.5 22.5h-345c-12.407 0-22.5-10.093-22.5-22.5v-437c0-12.407 10.093-22.5 22.5-22.5h67.5v47c0 12.407 10.093 22.5 22.5 22.5h165c12.407 0 22.5-10.093 22.5-22.5v-24.481c0-.038 0-22.519 0-22.519h67.5c12.407 0 22.5 10.093 22.5 22.5z"/><path d="m428.5 30h-45c-4.142 0-7.5 3.358-7.5 7.5s3.358 7.5 7.5 7.5h37.5v257c0 20.678-16.822 37.5-37.5 37.5h-82.5c-4.142 0-7.5 3.358-7.5 7.5v82.5c0 20.678-16.822 37.5-37.5 37.5h-165v-422h37.5c4.142 0 7.5-3.358 7.5-7.5s-3.358-7.5-7.5-7.5h-45c-4.142 0-7.5 3.358-7.5 7.5v437c0 4.142 3.358 7.5 7.5 7.5h172.5c14.43 0 27.517-5.854 37.016-15.309.037-.021 127.723-127.708 127.776-127.781 9.395-9.491 15.208-22.533 15.208-36.91v-264.5c0-4.142-3.358-7.5-7.5-7.5zm-120 324.5h75c.183 0 .364-.012.547-.014l-75.561 75.561c.002-.183.014-.364.014-.547z"/><path d="m151 264.5h52.5v52.5c0 4.142 3.358 7.5 7.5 7.5h90c4.142 0 7.5-3.358 7.5-7.5v-52.5h52.5c4.142 0 7.5-3.358 7.5-7.5v-90c0-4.142-3.358-7.5-7.5-7.5h-52.5v-52.5c0-4.142-3.358-7.5-7.5-7.5h-90c-4.142 0-7.5 3.358-7.5 7.5v52.5h-52.5c-4.142 0-7.5 3.358-7.5 7.5v90c0 4.142 3.358 7.5 7.5 7.5zm7.5-90h52.5c4.142 0 7.5-3.358 7.5-7.5v-52.5h75v52.5c0 4.142 3.358 7.5 7.5 7.5h52.5v75h-52.5c-4.142 0-7.5 3.358-7.5 7.5v52.5h-75v-52.5c0-4.142-3.358-7.5-7.5-7.5h-52.5z"/></g></svg>