<?xml version="1.0" encoding="utf-8"?>
<!-- Generator: Adobe Illustrator 23.0.2, SVG Export Plug-In . SVG Version: 6.00 Build 0)  -->
<svg version="1.1" id="Layer_1" xmlns="http://www.w3.org/2000/svg" xmlns:xlink="http://www.w3.org/1999/xlink" x="0px" y="0px"
	 viewBox="0 0 272.1924 163.1702" enable-background="new 0 0 272.1924 163.1702" xml:space="preserve">
<g>
	<path d="M142.0872,36.1405l-21.4227-14.9497c-3.6235-2.5288-8.6104-1.6426-11.1387,1.9824
		c-0.037,0.053-0.0662,0.1091-0.1017,0.1627l20.4472,14.269C134.1304,36.8465,138.1412,36.3684,142.0872,36.1405z"/>
	<path d="M117.7833,81.6878l-0.083,0.0186c-2.6963,0.6104-4.9668,0.9619-6.9023,1.0684L95.9185,98.6033l-1.356,7.0309
		c-0.6587,3.416,0.1357,6.9517,2.1929,9.7578l31.248,42.6255c2.4487,3.3403,6.2441,5.1104,10.0913,5.1104
		c2.5649,0,5.1528-0.7871,7.3804-2.4199c5.5674-4.0815,6.7725-11.9038,2.6904-17.4717l-28.022-38.2251l4.8385-25.0883
		c-2.5221,0.4816-4.8881,1.0578-7.1168,1.7396L117.7833,81.6878z"/>
	<path d="M63.3506,162.9222c0.833,0.168,1.6621,0.248,2.4805,0.248c5.8301,0,11.0459-4.1006,12.2402-10.0352l9.9639-49.5039
		l21.7363-23.123c1.9727-0.0205,4.4014-0.3613,7.4209-1.0447c16.5859-5.0745,37.1836-3.55,51.4414-3.1267
		c10.2847,1.21,21.4258-4.4343,22.1362-13.2021c0.7075-8.7698-5.8809-20.2244-21.1484-22.8071
		c-14.2753-2.3286-24.9467-2.7473-37.0609-0.8456l4.0106,2.7988l33.7285,6.2607c2.7041,0.502,5.0518,2.0273,6.6104,4.2949
		c1.5576,2.2686,2.1387,5.0068,1.6367,7.7119c-0.9053,4.8789-5.1602,8.4209-10.1182,8.4209c-0.6318,0-1.2676-0.0586-1.8896-0.1748
		l-35.916-6.666c-1.4531-0.2705-2.8047-0.8359-4.0146-1.6807l-19.238-13.4251c-0.6885,0.4679-1.3442,1.0022-1.9456,1.6238
		c-0.8008,0.7153-1.5005,1.4604-2.1099,2.2305l-35.938,38.23c-1.5967,1.6982-2.6865,3.8096-3.1465,6.0947l-10.667,53
		C52.2012,154.97,56.5831,161.5609,63.3506,162.9222z"/>
	<ellipse transform="matrix(0.3933 -0.9194 0.9194 0.3933 78.5034 235.7948)" cx="217.9149" cy="58.4149" rx="22.5" ry="22.5"/>
	<path d="M127.9249,58.5618c0.9346,0.6523,1.998,1.0967,3.1182,1.3047l35.917,6.667c0.4932,0.0918,0.9844,0.1357,1.4688,0.1357
		c3.7803,0,7.1426-2.6904,7.8564-6.541c0.8066-4.3438-2.0615-8.5195-6.4053-9.3252l-34.2168-6.3516l-33.332-23.2607
		c-3.6221-2.5264-8.6094-1.6406-11.1387,1.9824c-2.5283,3.623-1.6406,8.6104,1.9824,11.1387L127.9249,58.5618z"/>
	<path d="M254.9424,5.5h14.5c1.5125,0,2.75-1.2375,2.75-2.75S270.9549,0,269.4424,0h-14.5C253.4299,0,253.4299,5.5,254.9424,5.5z"/>
	<rect y="1.7499" width="5" height="2"/>
	<rect x="240" y="1.7499" width="5" height="2"/>
	<rect x="10" y="1.7499" width="5" height="2"/>
	<rect x="220" y="1.7499" width="5" height="2"/>
	<rect x="230" y="1.7499" width="5" height="2"/>
	<rect x="20" y="1.7499" width="5" height="2"/>
	<rect x="80" y="1.7499" width="5" height="2"/>
	<rect x="70" y="1.7499" width="5" height="2"/>
	<rect x="60" y="1.7499" width="5" height="2"/>
	<rect x="40" y="1.7499" width="5" height="2"/>
	<rect x="30" y="1.7499" width="5" height="2"/>
	<rect x="50" y="1.7499" width="5" height="2"/>
	<rect x="120" y="1.7499" width="5" height="2"/>
	<rect x="130" y="1.7499" width="5" height="2"/>
	<rect x="140" y="1.7499" width="5" height="2"/>
	<rect x="210" y="1.7499" width="5" height="2"/>
	<rect x="160" y="1.7499" width="5" height="2"/>
	<rect x="150" y="1.7499" width="5" height="2"/>
	<rect x="200" y="1.7499" width="5" height="2"/>
	<rect x="100" y="1.7499" width="5" height="2"/>
	<rect x="180" y="1.7499" width="5" height="2"/>
	<rect x="90" y="1.7499" width="5" height="2"/>
	<rect x="110" y="1.7499" width="5" height="2"/>
	<rect x="170" y="1.7499" width="5" height="2"/>
	<rect x="190" y="1.7499" width="5" height="2"/>
</g>
</svg>
