<svg height="512" viewBox="0 0 60 60" width="512" xmlns="http://www.w3.org/2000/svg"><g id="014---Bear-Trap" transform="translate(-1 -1)"><path id="Shape" d="m59 1c-10.939 0-10.1-.022-10.316.051l-12 4c-.4103745.13488359-.6877501.5180268-.6877501.95s.2773756.81511641.6877501.95l9.153 3.049-9.153 3.051c-.4103745.1348836-.6877501.5180268-.6877501.95s.2773756.8151164.6877501.95l9.153 3.049-9.153 3.051c-.4103745.1348836-.6877501.5180268-.6877501.95s.2773756.8151164.6877501.95l9.153 3.049-9.153 3.051c-.4103745.1348836-.6877501.5180268-.6877501.95s.2773756.8151164.6877501.95l11.316 3.77v8.369c-2.5125124.4294053-4.4805947 2.3974876-4.91 4.91h-8.369l-3.772-11.316c-.1348836-.4103745-.5180268-.6877501-.95-.6877501s-.8151164.2773756-.95.6877501l-3.049 9.153-3.051-9.153c-.1348836-.4103745-.5180268-.6877501-.95-.6877501s-.8151164.2773756-.95.6877501l-3.049 9.153-3.051-9.153c-.1348836-.4103745-.5180268-.6877501-.95-.6877501s-.8151164.2773756-.95.6877501l-3.049 9.153-3.051-9.153c-.13488359-.4103745-.5180268-.6877501-.95-.6877501s-.81511641.2773756-.95.6877501c-4.327 12.987-4.049 12.08-4.049 12.316v9c0 1.6568542 1.34314575 3 3 3h42c1.6568542 0 3-1.3431458 3-3v-3c3.3123376-.0033074 5.9966926-2.6876624 6-6h3c1.6568542 0 3-1.3431458 3-3v-42.248c.1199685-.78826638-.0889934-1.59121519-.578-2.221-.3810707-.36460263-.8952223-.55659595-1.422-.531zm-12 57c0 .5522847-.4477153 1-1 1h-42c-.55228475 0-1-.4477153-1-1v-8.838l3-9 2.1 6.308c.27256597.8161221 1.03656549 1.3664457 1.897 1.3664457.8604345 0 1.624434-.5503236 1.897-1.3664457l2.106-6.308 2.1 6.308c.272566.8161221 1.0365655 1.3664457 1.897 1.3664457s1.624434-.5503236 1.897-1.3664457l2.106-6.308 2.1 6.308c.272566.8161221 1.0365655 1.3664457 1.897 1.3664457s1.624434-.5503236 1.897-1.3664457l2.106-6.308 2.823 8.471c.2724905.8166903 1.0370505 1.3673508 1.898 1.367h8.369c.3664751 2.1430557 1.8616308 3.9211821 3.91 4.65zm2-5c-2.209139 0-4-1.790861-4-4s1.790861-4 4-4 4 1.790861 4 4-1.790861 4-4 4zm10-7c0 .5522847-.4477153 1-1 1h-3.35c-.7288179-2.0483692-2.5069443-3.5435249-4.65-3.91v-8.369c.0012125-.8616854-.5496106-1.6272771-1.367-1.9l-8.471-2.821 6.308-2.1c.8161221-.272566 1.3664457-1.0365655 1.3664457-1.897s-.5503236-1.624434-1.3664457-1.897l-6.308-2.106 6.308-2.1c.8161221-.272566 1.3664457-1.0365655 1.3664457-1.897s-.5503236-1.624434-1.3664457-1.897l-6.308-2.106 6.308-2.1c.8161221-.272566 1.3664457-1.0365655 1.3664457-1.897 0-.86043451-.5503236-1.62443403-1.3664457-1.897l-6.308-2.106 9-3h9.819c.031.245.019-2.434.019 43z"/><path id="Shape" d="m7 55h-1c-.55228475 0-1 .4477153-1 1s.44771525 1 1 1h1c.55228475 0 1-.4477153 1-1s-.44771525-1-1-1z"/><path id="Shape" d="m44 55h-33c-.5522847 0-1 .4477153-1 1s.4477153 1 1 1h33c.5522847 0 1-.4477153 1-1s-.4477153-1-1-1z"/><circle id="Oval" cx="49" cy="49" r="1"/></g></svg>