<svg height="512" viewBox="0 0 128 128" width="512" xmlns="http://www.w3.org/2000/svg"><g><path d="m121.5 119.75h-15.94v-30.468h2.748a1.75 1.75 0 0 0 1.75-1.75v-9a1.75 1.75 0 0 0 -1.75-1.75h-9.748v-54.032h14.094a1.749 1.749 0 0 0 1.686-2.22l-4.04-14.5a1.75 1.75 0 0 0 -1.686-1.28h-89.225a1.75 1.75 0 0 0 -1.689 1.28l-4.04 14.5a1.749 1.749 0 0 0 1.686 2.22h14.094v54.032h-9.748a1.75 1.75 0 0 0 -1.75 1.75v9a1.75 1.75 0 0 0 1.75 1.75h2.748v30.468h-15.94a1.75 1.75 0 0 0 0 3.5h115a1.75 1.75 0 0 0 0-3.5zm-26.44-42.968h-2.5v-54.032h2.5zm-6-54.032v9h-14.6v-.167a4.756 4.756 0 0 0 -4.75-4.75 4.707 4.707 0 0 0 -3 1.1 4.647 4.647 0 0 0 -6 0 4.647 4.647 0 0 0 -6 0 4.707 4.707 0 0 0 -3-1.1 4.756 4.756 0 0 0 -4.75 4.75v.167h-8.02v-9zm-15.265 38-.768 8.5h-6.634l-.768-8.5zm-.845-3.5h-6.48v-.01a3.24 3.24 0 0 1 6.48 0zm-1.99-22.667a1.251 1.251 0 0 1 -1.24 1.248h-.02a1.251 1.251 0 0 1 -1.24-1.248v-3a1.25 1.25 0 0 1 2.5 0zm-8.5-3a1.25 1.25 0 1 1 2.5 0v3a1.25 1.25 0 0 1 -2.5 0zm-6 0a1.25 1.25 0 0 1 2.5 0v3a1.25 1.25 0 0 1 -2.5 0zm-6 0a1.25 1.25 0 0 1 2.5 0v3a1.25 1.25 0 0 1 -2.5 0zm-11.52 3.667h8.087a4.7 4.7 0 0 0 7.683 2.985 4.647 4.647 0 0 0 6 0 4.647 4.647 0 0 0 6 0 4.7 4.7 0 0 0 1.25.754v11.75a6.745 6.745 0 0 0 -4.99 6.5v.011h-1.615a1.75 1.75 0 0 0 0 3.5h.756l.939 10.407a1.75 1.75 0 0 0 1.743 1.593h9.833a1.75 1.75 0 0 0 1.743-1.593l.94-10.407h.754a1.75 1.75 0 0 0 0-3.5h-1.613v-.01a6.746 6.746 0 0 0 -4.99-6.5v-11.751a4.743 4.743 0 0 0 2.933-3.739h14.667v41.532h-50.12zm-18.222-27h86.564l3.068 11h-92.7zm12.222 14.5h2.5v54.032h-2.5zm-11.5 57.532h85.116v5.5h-2.729-.019-.02-79.578-.02-.019-2.729zm4.5 39.468v-30.468h76.12v30.468z"/><path d="m35.25 14.25h9a1.75 1.75 0 0 0 0-3.5h-9a1.75 1.75 0 0 0 0 3.5z"/><path d="m44.333 103.808a1.749 1.749 0 0 0 -1.75-1.75h-9a1.75 1.75 0 0 0 0 3.5h9a1.75 1.75 0 0 0 1.75-1.75z"/><path d="m93.812 100.933a1.75 1.75 0 0 0 0-3.5h-9a1.75 1.75 0 0 0 0 3.5z"/><path d="m66.71 104.583h-9a1.75 1.75 0 0 0 0 3.5h9a1.75 1.75 0 1 0 0-3.5z"/><path d="m64.043 96.083h9a1.75 1.75 0 0 0 0-3.5h-9a1.75 1.75 0 0 0 0 3.5z"/><path d="m95.312 107.75h-9a1.75 1.75 0 0 0 0 3.5h9a1.75 1.75 0 1 0 0-3.5z"/><path d="m76.043 112.083h-6a1.75 1.75 0 0 0 0 3.5h6a1.75 1.75 0 0 0 0-3.5z"/><path d="m44.083 112.083h-6a1.75 1.75 0 0 0 0 3.5h6a1.75 1.75 0 0 0 0-3.5z"/><path d="m50.522 92.583h-6a1.75 1.75 0 1 0 0 3.5h6a1.75 1.75 0 0 0 0-3.5z"/></g></svg>