<?xml version="1.0" encoding="iso-8859-1"?>
<!-- Generator: Adobe Illustrator 19.0.0, SVG Export Plug-In . SVG Version: 6.00 Build 0)  -->
<svg version="1.1" id="Capa_1" xmlns="http://www.w3.org/2000/svg" xmlns:xlink="http://www.w3.org/1999/xlink" x="0px" y="0px"
	 viewBox="0 0 480.005 480.005" style="enable-background:new 0 0 480.005 480.005;" xml:space="preserve">
<g>
	<g>
		<path d="M344.003,168.005c0,13.255-10.745,24-24,24s-24-10.745-24-24h-16c0.026,22.08,17.92,39.974,40,40
			c22.08-0.026,39.974-17.92,40-40H344.003z"/>
	</g>
</g>
<g>
	<g>
		<path d="M477.171,40.981c-73.281-61.879-182.85-52.636-244.729,20.644c-23.438,27.756-37.581,62.164-40.439,98.38v33.648
			l-16,0.552v-18.2c0-4.418-3.582-8-8-8h-128c-4.418,0-8,3.582-8,8v23.2l-24.272,0.8c-4.312,0.147-7.731,3.686-7.728,8v128
			c-0.003,4.314,3.416,7.853,7.728,8l8.272,0.28v127.72c0,4.418,3.582,8,8,8h104c4.418,0.004,8.003-3.575,8.007-7.993
			c0-0.586-0.063-1.17-0.191-1.743l-3.816-17.328c-7.631-34.508-11.605-69.723-11.856-105.064l71.896,2.48v25.648
			c0,4.418,3.582,8,8,8h103.96v88c0,4.418,3.582,8,8,8h144c4.418,0,8-3.582,8-8V315.573c4.552-3.16,8.968-6.552,13.168-10.112
			c1.795-1.519,2.831-3.752,2.832-6.104V47.085C480.002,44.733,478.966,42.501,477.171,40.981z M176.003,224.005v-13.784l56-1.936
			v116.408l-76.992-76.992C166.974,246.211,175.966,236.061,176.003,224.005z M144.003,184.005h16v40c0,4.418-3.582,8-8,8
			s-8-3.582-8-8V184.005z M112.003,184.005h16v40c0,4.418-3.582,8-8,8s-8-3.582-8-8V184.005z M80.003,184.005h16v40
			c0,4.418-3.582,8-8,8s-8-3.582-8-8V184.005z M48.003,184.005h16v40c0,4.418-3.582,8-8,8s-8-3.582-8-8V184.005z M32.003,464.005
			v-119.2l72.088,2.488c0.215,36.701,4.32,73.276,12.248,109.112l1.688,7.6H32.003z M152.003,332.965l-32-1.104v-19.856
			c0-8.837,7.163-16,16-16s16,7.163,16,16V332.965z M168.003,333.517v-21.512c0-17.673-14.327-32-32-32s-32,14.327-32,32v19.304
			l-76.848-2.648c-0.995-0.43-2.068-0.653-3.152-0.656c-0.787,0.039-1.563,0.196-2.304,0.464l-5.696-0.192V215.733l16-0.528v8.8
			c-0.058,13.197,10.593,23.943,23.79,24.002c5.995,0.027,11.781-2.201,16.21-6.242c9.044,8.32,22.956,8.32,32,0
			c7.203,6.673,17.803,8.145,26.552,3.688l-0.208,0.208l89.656,89.648L168.003,333.517z M464.003,295.589
			c-4,3.2-8.136,6.248-12.4,9.064c-2.247,1.48-3.6,3.99-3.6,6.68v152.672h-128v-88c0-4.418-3.582-8-8-8h-104v-17.096l31.728,1.096
			h0.272c4.418,0,8-3.582,8-8v-144c-0.002-2.17-0.886-4.246-2.448-5.752c-1.57-1.486-3.662-2.294-5.824-2.248l-31.728,1.096v-32.456
			c7.215-86.789,83.42-151.297,170.209-144.083c31.379,2.608,61.259,14.551,85.791,34.291V295.589z"/>
	</g>
</g>
<g>
</g>
<g>
</g>
<g>
</g>
<g>
</g>
<g>
</g>
<g>
</g>
<g>
</g>
<g>
</g>
<g>
</g>
<g>
</g>
<g>
</g>
<g>
</g>
<g>
</g>
<g>
</g>
<g>
</g>
</svg>
