<svg enable-background="new 0 0 24 24" height="512" viewBox="0 0 24 24" width="512" xmlns="http://www.w3.org/2000/svg"><path d="m21.5 24h-19c-1.379 0-2.5-1.122-2.5-2.5v-19c0-1.378 1.121-2.5 2.5-2.5h19c1.379 0 2.5 1.122 2.5 2.5v19c0 1.378-1.121 2.5-2.5 2.5zm-19-23c-.827 0-1.5.673-1.5 1.5v19c0 .827.673 1.5 1.5 1.5h19c.827 0 1.5-.673 1.5-1.5v-19c0-.827-.673-1.5-1.5-1.5z"/><path d="m8.5 16h-2c-1.379 0-2.5-1.122-2.5-2.5v-3c0-1.378 1.121-2.5 2.5-2.5h2c.276 0 .5.224.5.5s-.224.5-.5.5h-2c-.827 0-1.5.673-1.5 1.5v3c0 .827.673 1.5 1.5 1.5h2c.276 0 .5.224.5.5s-.224.5-.5.5z"/><path d="m20.5 16h-2c-1.379 0-2.5-1.122-2.5-2.5v-3c0-1.378 1.121-2.5 2.5-2.5h2c.276 0 .5.224.5.5s-.224.5-.5.5h-2c-.827 0-1.5.673-1.5 1.5v3c0 .827.673 1.5 1.5 1.5h2c.276 0 .5.224.5.5s-.224.5-.5.5z"/><path d="m8.5 12.5h-4c-.276 0-.5-.224-.5-.5s.224-.5.5-.5h4c.276 0 .5.224.5.5s-.224.5-.5.5z"/><path d="m12.75 16h-2.25c-.276 0-.5-.224-.5-.5s.224-.5.5-.5h2.25c.689 0 1.25-.561 1.25-1.25s-.561-1.25-1.25-1.25h-.5c-1.24 0-2.25-1.009-2.25-2.25s1.01-2.25 2.25-2.25h2.25c.276 0 .5.224.5.5s-.224.5-.5.5h-2.25c-.689 0-1.25.561-1.25 1.25s.561 1.25 1.25 1.25h.5c1.24 0 2.25 1.009 2.25 2.25s-1.01 2.25-2.25 2.25z"/></svg>