<svg height="512pt" viewBox="-56 0 512 512" width="512pt" xmlns="http://www.w3.org/2000/svg"><path d="m32.238281 40c-4.421875 0-8.039062-3.574219-8.039062-8s3.535156-8 7.953125-8h.085937c4.417969 0 8 3.574219 8 8s-3.582031 8-8 8zm0 0"/><path d="m32.238281 488c-4.421875 0-8.039062-3.574219-8.039062-8s3.535156-8 7.953125-8h.085937c4.417969 0 8 3.574219 8 8s-3.582031 8-8 8zm0 0"/><path d="m368.238281 40c-4.421875 0-8.039062-3.574219-8.039062-8s3.535156-8 7.953125-8h.085937c4.417969 0 8 3.574219 8 8s-3.582031 8-8 8zm0 0"/><path d="m368.238281 488c-4.421875 0-8.039062-3.574219-8.039062-8s3.535156-8 7.953125-8h.085937c4.417969 0 8 3.574219 8 8s-3.582031 8-8 8zm0 0"/><path d="m392 512h-384c-4.425781 0-8-3.574219-8-8v-496c0-4.425781 3.574219-8 8-8h384c4.425781 0 8 3.574219 8 8v496c0 4.425781-3.574219 8-8 8zm-376-16h368v-480h-368zm0 0"/><path d="m344 392h-288c-4.425781 0-8-3.574219-8-8v-328c0-4.425781 3.574219-8 8-8h288c4.425781 0 8 3.574219 8 8v328c0 4.425781-3.574219 8-8 8zm-280-16h272v-312h-272zm0 0"/><path d="m104 368c-4.425781 0-8-3.574219-8-8 0-26.472656 21.527344-48 48-48 4.425781 0 8 3.574219 8 8s-3.574219 8-8 8c-17.648438 0-32 14.351562-32 32 0 4.425781-3.574219 8-8 8zm0 0"/><path d="m168 328h-24c-4.425781 0-8-3.574219-8-8s3.574219-8 8-8h24c4.425781 0 8 3.574219 8 8s-3.574219 8-8 8zm0 0"/><path d="m296 368c-4.425781 0-8-3.574219-8-8 0-17.648438-14.351562-32-32-32-4.425781 0-8-3.574219-8-8s3.574219-8 8-8c26.472656 0 48 21.527344 48 48 0 4.425781-3.574219 8-8 8zm0 0"/><path d="m256 328h-24c-4.425781 0-8-3.574219-8-8s3.574219-8 8-8h24c4.425781 0 8 3.574219 8 8s-3.574219 8-8 8zm0 0"/><path d="m128 239.984375c-4.425781 0-8-3.578125-8-8v-28.65625c0-4.425781 3.574219-8 8-8s8 3.574219 8 8v28.65625c0 4.421875-3.574219 8-8 8zm0 0"/><path d="m272 239.984375c-4.425781 0-8-3.578125-8-8v-28.65625c0-4.425781 3.574219-8 8-8s8 3.574219 8 8v28.65625c0 4.421875-3.574219 8-8 8zm0 0"/><path d="m128 192.007812c-.480469 0-.953125-.039062-1.441406-.136718-4.351563-.792969-7.230469-4.949219-6.4375-9.296875l16-88.007813c.78125-4.351562 4.96875-7.285156 9.292968-6.4375 4.355469.792969 7.234376 4.949219 6.441407 9.296875l-16 88.007813c-.6875 3.871094-4.054688 6.574218-7.855469 6.574218zm0 0"/><path d="m272 192.007812c-3.800781 0-7.167969-2.703124-7.855469-6.566406l-16-88.007812c-.800781-4.34375 2.085938-8.503906 6.441407-9.296875 4.34375-.855469 8.511718 2.085937 9.292968 6.4375l16 88.011719c.800782 4.34375-2.085937 8.503906-6.4375 9.292968-.488281.089844-.960937.128906-1.441406.128906zm0 0"/><path d="m200 120c-13.886719 0-23.289062-4.695312-31.574219-8.839844-7.691406-3.847656-14.320312-7.160156-24.433593-7.160156-4.425782 0-8-3.574219-8-8s3.574218-8 8-8c13.886718 0 23.289062 4.695312 31.574218 8.839844 7.691406 3.847656 14.320313 7.160156 24.433594 7.160156s16.742188-3.3125 24.433594-7.160156c8.285156-4.144532 17.6875-8.839844 31.574218-8.839844 4.425782 0 8 3.574219 8 8s-3.574218 8-8 8c-10.113281 0-16.742187 3.3125-24.433593 7.160156-8.285157 4.144532-17.6875 8.839844-31.574219 8.839844zm0 0"/><path d="m104 392c-4.425781 0-8-3.574219-8-8v-24c0-4.425781 3.574219-8 8-8s8 3.574219 8 8v24c0 4.425781-3.574219 8-8 8zm0 0"/><path d="m296 392c-4.425781 0-8-3.574219-8-8v-24c0-4.425781 3.574219-8 8-8s8 3.574219 8 8v24c0 4.425781-3.574219 8-8 8zm0 0"/><path d="m152 392c-4.425781 0-8-3.574219-8-8v-64c0-4.425781 3.574219-8 8-8s8 3.574219 8 8v64c0 4.425781-3.574219 8-8 8zm0 0"/><path d="m248 392c-4.425781 0-8-3.574219-8-8v-64c0-4.425781 3.574219-8 8-8s8 3.574219 8 8v64c0 4.425781-3.574219 8-8 8zm0 0"/><path d="m200 311.910156c-44.113281 0-80-35.886718-80-80 0-4.421875 3.574219-8 8-8s8 3.578125 8 8c0 35.289063 28.710938 64 64 64s64-28.710937 64-64c0-4.421875 3.574219-8 8-8s8 3.578125 8 8c0 44.113282-35.886719 80-80 80zm0 0"/><path d="m168 328c-4.425781 0-8-3.574219-8-8v-23.585938c0-4.421874 3.574219-8 8-8s8 3.578126 8 8v23.585938c0 4.425781-3.574219 8-8 8zm0 0"/><path d="m232 328c-4.425781 0-8-3.574219-8-8v-23.585938c0-4.421874 3.574219-8 8-8s8 3.578126 8 8v23.585938c0 4.425781-3.574219 8-8 8zm0 0"/><path d="m200 216.007812c-28.152344 0-120-2.015624-120-28 0-7.726562 5.59375-17.382812 49.191406-23.574218 4.351563-.664063 8.425782 2.421875 9.046875 6.796875.617188 4.378906-2.421875 8.425781-6.796875 9.050781-18.984375 2.695312-28.234375 5.78125-32.554687 7.78125 11.097656 4.984375 45.527343 11.953125 101.113281 11.953125s90.015625-6.96875 101.113281-11.953125c-4.328125-2-13.578125-5.09375-32.59375-7.789062-4.375-.625-7.414062-4.671876-6.800781-9.050782.625-4.375 4.65625-7.421875 9.050781-6.796875 43.636719 6.191407 49.230469 15.855469 49.230469 23.582031 0 25.984376-91.847656 28-120 28zm0 0"/><path d="m272.007812 192.007812h-144.015624c-4.425782 0-8-3.574218-8-8 0-4.421874 3.574218-8 8-8h144.015624c4.425782 0 8 3.578126 8 8 0 4.425782-3.574218 8-8 8zm0 0"/><path d="m184 344c-2.046875 0-4.097656-.785156-5.65625-2.34375l-16-16c-3.128906-3.128906-3.128906-8.183594 0-11.3125s8.183594-3.128906 11.3125 0l16 16c3.128906 3.128906 3.128906 8.183594 0 11.3125-1.558594 1.558594-3.609375 2.34375-5.65625 2.34375zm0 0"/><path d="m184.007812 344c-2.9375 0-5.761718-1.617188-7.167968-4.425781-1.976563-3.949219-.375-8.757813 3.574218-10.734375l16-8c3.945313-1.960938 8.753907-.375 10.738282 3.574218 1.976562 3.953126.375 8.761719-3.578125 10.738282l-16 8c-1.140625.574218-2.367188.847656-3.566407.847656zm0 0"/><path d="m215.992188 344c-1.199219 0-2.425782-.273438-3.566407-.839844l-16-8c-3.953125-1.976562-5.554687-6.785156-3.578125-10.734375 1.984375-3.953125 6.792969-5.539062 10.738282-3.578125l16 8c3.949218 1.976563 5.550781 6.785156 3.574218 10.738282-1.40625 2.796874-4.230468 4.414062-7.167968 4.414062zm0 0"/><path d="m216 344c-2.046875 0-4.097656-.785156-5.65625-2.34375-3.128906-3.128906-3.128906-8.183594 0-11.3125l16-16c3.128906-3.128906 8.183594-3.128906 11.3125 0s3.128906 8.183594 0 11.3125l-16 16c-1.558594 1.558594-3.609375 2.34375-5.65625 2.34375zm0 0"/><path d="m104 480c-4.425781 0-8-3.574219-8-8v-24c0-4.425781 3.574219-8 8-8s8 3.574219 8 8v24c0 4.425781-3.574219 8-8 8zm0 0"/><path d="m140 480c-11.03125 0-20-8.96875-20-20s8.96875-20 20-20 20 8.96875 20 20-8.96875 20-20 20zm0-24c-2.199219 0-4 1.800781-4 4s1.800781 4 4 4 4-1.800781 4-4-1.800781-4-4-4zm0 0"/><path d="m188 480c-11.03125 0-20-8.96875-20-20s8.96875-20 20-20 20 8.96875 20 20-8.96875 20-20 20zm0-24c-2.199219 0-4 1.800781-4 4s1.800781 4 4 4 4-1.800781 4-4-1.800781-4-4-4zm0 0"/><path d="m236 480c-11.03125 0-20-8.96875-20-20s8.96875-20 20-20 20 8.96875 20 20-8.96875 20-20 20zm0-24c-2.199219 0-4 1.800781-4 4s1.800781 4 4 4 4-1.800781 4-4-1.800781-4-4-4zm0 0"/><path d="m296 456h-16c-4.425781 0-8-3.574219-8-8s3.574219-8 8-8h16c4.425781 0 8 3.574219 8 8s-3.574219 8-8 8zm0 0"/><path d="m296.007812 480c-2.582031 0-5.128906-1.246094-6.664062-3.558594l-16-24c-2.457031-3.679687-1.464844-8.640625 2.214844-11.097656 3.679687-2.457031 8.640625-1.464844 11.097656 2.214844l16 24c2.457031 3.679687 1.464844 8.640625-2.214844 11.097656-1.371094.902344-2.914062 1.34375-4.433594 1.34375zm0 0"/><path d="m296 480h-16c-4.425781 0-8-3.574219-8-8s3.574219-8 8-8h16c4.425781 0 8 3.574219 8 8s-3.574219 8-8 8zm0 0"/><path d="m296 424h-192c-4.425781 0-8-3.574219-8-8s3.574219-8 8-8h192c4.425781 0 8 3.574219 8 8s-3.574219 8-8 8zm0 0"/></svg>