<?xml version="1.0"?>
<svg xmlns="http://www.w3.org/2000/svg" id="Layer_2" data-name="Layer 2" viewBox="0 0 128 128" width="512" height="512"><title>TUNNEL</title><path d="M125.826,47.478c0-.014,0-.029-.007-.043s-.015-.036-.021-.056a63.594,63.594,0,0,0-6.244-15.094,1.535,1.535,0,0,0-.306-.532,64.392,64.392,0,0,0-9.764-12.725,1.724,1.724,0,0,0-.512-.512A64.4,64.4,0,0,0,96.248,8.753a1.538,1.538,0,0,0-.533-.307A63.593,63.593,0,0,0,80.62,2.2c-.019-.006-.036-.016-.055-.021s-.029,0-.044-.007a63.875,63.875,0,0,0-33.042,0c-.014,0-.029,0-.043.007S47.4,2.2,47.38,2.2a63.594,63.594,0,0,0-15.1,6.245,1.527,1.527,0,0,0-.531.306,64.4,64.4,0,0,0-12.724,9.764,1.724,1.724,0,0,0-.512.512A64.391,64.391,0,0,0,8.752,31.754a1.533,1.533,0,0,0-.306.532A63.594,63.594,0,0,0,2.2,47.38c-.006.019-.016.036-.021.056s0,.029-.007.043A63.846,63.846,0,0,0,0,64v62.25A1.75,1.75,0,0,0,1.75,128h124.5a1.75,1.75,0,0,0,1.75-1.75V64A63.846,63.846,0,0,0,125.826,47.478ZM64,36.583a26.726,26.726,0,0,0-26.7,26.7V97.128L13.5,121.9V65.144l0-.019,0-.019V64a50.5,50.5,0,0,1,101,0v1.106l0,.019,0,.019,0,56.759L90.7,97.128V63.279A26.726,26.726,0,0,0,64,36.583Zm23.2,26.7v32.8H40.8v-32.8a23.2,23.2,0,1,1,46.393,0ZM5.143,50.041l6.281,1.683a53.9,53.9,0,0,0-1.409,11.651h-6.5A60.389,60.389,0,0,1,5.143,50.041Zm5.619-14.757L16.4,38.537a53.674,53.674,0,0,0-4.073,9.8L6.045,46.659A60.144,60.144,0,0,1,10.763,35.284Zm9.27-12.777L24.626,27.1a54.334,54.334,0,0,0-6.471,8.41l-5.632-3.252A60.872,60.872,0,0,1,20.032,22.507Zm12.227-9.983,3.252,5.632a54.333,54.333,0,0,0-8.41,6.471l-4.594-4.594A60.875,60.875,0,0,1,32.259,12.524Zm14.4-6.478,1.682,6.278a53.675,53.675,0,0,0-9.8,4.073l-3.253-5.634A60.144,60.144,0,0,1,46.659,6.045Zm46.056,4.717L89.463,16.4a53.675,53.675,0,0,0-9.8-4.073l1.682-6.278A60.144,60.144,0,0,1,92.716,10.763Zm12.777,9.27L100.9,24.626a54.333,54.333,0,0,0-8.41-6.471l3.252-5.632A60.875,60.875,0,0,1,105.493,20.032Zm9.983,12.227-5.632,3.252a54.334,54.334,0,0,0-6.471-8.41l4.594-4.594A60.875,60.875,0,0,1,115.476,32.259Zm6.478,14.4-6.278,1.682a53.674,53.674,0,0,0-4.073-9.8l5.634-3.253A60.144,60.144,0,0,1,121.955,46.659ZM118,91.875h6.5v9H118Zm0-3.5v-9h6.5v9Zm0-12.5v-9h6.5v9Zm6.485-12.5h-6.5a53.9,53.9,0,0,0-1.409-11.651l6.281-1.683A60.389,60.389,0,0,1,124.484,63.375ZM76.276,11.424a53.848,53.848,0,0,0-10.526-1.38v-6.5a60.337,60.337,0,0,1,12.209,1.6ZM62.25,10.044a53.848,53.848,0,0,0-10.526,1.38L50.041,5.143a60.337,60.337,0,0,1,12.209-1.6ZM10,88.375H3.5v-9H10Zm0,3.5v9H3.5v-9Zm0-25v9H3.5v-9Zm-6.5,37.5H10v9H3.5Zm114.5,0h6.5v9H118ZM3.5,116.875H10V124.5H3.5ZM15.859,124.5,39.8,99.583H88.2L112.139,124.5ZM118,124.5v-7.625h6.5V124.5Z"/></svg>
