<svg height="512pt" viewBox="0 0 512 512" width="512pt" xmlns="http://www.w3.org/2000/svg"><path d="m320.484375 0h-128.96875c-45.277344 0-89.785156 16.09375-124.914063 46.347656-3.136718 2.703125-3.488281 7.4375-.789062 10.574219 2.703125 3.140625 7.4375 3.492187 10.574219.789063 11.613281-10 24.398437-18.367188 38-24.972657l30.621093 41.625c-28.964843 12.324219-53.0625 33.929688-68.542968 61.058594l-43.765625-20.945313c6.546875-13.5 14.832031-26.199218 24.722656-37.746093 2.695313-3.144531 2.328125-7.878907-.816406-10.570313-3.144531-2.695312-7.878907-2.332031-10.570313.8125-29.71875 34.683594-46.035156 78.929688-46.035156 124.542969v312.863281c0 4.140625 3.355469 7.496094 7.5 7.496094h497c4.144531 0 7.5-3.355469 7.5-7.496094v-312.863281c0-105.824219-86.085938-191.515625-191.515625-191.515625zm176.519531 312.925781h-42.753906v-68.484375h42.753906zm-42.753906 14.996094h42.753906v79.105469h-42.753906zm42.753906-98.476563h-42.753906c-.988281-14.5625 4.230469-43.675781-11.972656-80.621093l43-20.585938c16.515625 42.867188 10.371094 74.554688 11.726562 101.207031zm-17.714844-114.964843-43.75 20.941406c-15.480468-27.128906-39.582031-48.734375-68.542968-61.058594l30.609375-41.613281c35.507812 17.320312 64.382812 46.207031 81.683593 81.730469zm-95.792968-87.863281-31.203125 42.425781c-30.390625-9.136719-49.867188-4.945313-88.792969-6.027344v-48.019531c43.625 1.789062 75.050781-5.609375 119.996094 11.621094zm-254.988282.007812c44.96875-17.179688 76.910157-9.90625 119.992188-11.628906v48.019531c-38.851562 1.082031-58.449219-3.097656-88.792969 6.027344zm72.339844 51.386719h110.304688c70.632812 0 128.101562 57.46875 128.101562 128.101562v272.804688l-83.398437-129.304688v-34.03125c0-4.144531-3.355469-7.5-7.5-7.5-4.140625 0-7.496094 3.355469-7.496094 7.5v28.742188h-169.714844v-91.910157c0-46.792968 38.066407-84.859374 84.855469-84.859374 46.792969 0 84.859375 38.066406 84.859375 84.859374v35.171876c0 4.140624 3.355469 7.5 7.496094 7.5 4.144531 0 7.5-3.359376 7.5-7.5v-35.171876c0-55.0625-44.796875-99.855468-99.855469-99.855468s-99.851562 44.792968-99.851562 99.855468v97.199219l-83.402344 129.304688v-272.800781c0-70.636719 57.464844-128.105469 128.101562-128.105469zm9.757813 336.941406 7.441406-28.898437h75.90625l7.441406 28.898437zm94.652343 14.996094 7.441407 28.898437h-113.398438l7.441407-28.898437zm-83.347656-58.890625 3.023438-11.738282h62.132812l3.023438 11.738282zm-164.160156-58.132813h-42.753906v-68.484375h42.753906zm-42.753906 14.996094h42.753906v79.105469h-42.753906zm11.734375-199.679687 42.992187 20.578124c-16.144531 36.8125-10.953125 65.582032-11.972656 80.625h-42.753906c1.308594-26.296874-4.71875-58.339843 11.734375-101.203124zm-11.734375 293.78125h42.753906v74.855468h-42.753906zm152.734375-62.703126h41.71875l-3.023438 11.734376h-6.746093c-4.140626 0-7.496094 3.359374-7.496094 7.5 0 4.140624 3.355468 7.496093 7.496094 7.496093h2.882812l-7.445312 28.902344h-9.101563c-4.140625 0-7.5 3.355469-7.5 7.496094s3.359375 7.5 7.5 7.5h5.242187l-7.445312 28.898437h-9.292969c-4.144531 0-7.5 3.355469-7.5 7.496094s3.355469 7.5 7.5 7.5h5.429688l-5.929688 23.035156h-95.011719zm21.773437 137.558594 5.933594-23.035156h121.125l5.933594 23.035156zm148.476563 0-5.933594-23.035156h5.433594c4.140625 0 7.496093-3.355469 7.496093-7.496094 0-4.144531-3.355468-7.5-7.496093-7.5h-9.292969l-7.445312-28.898437h5.242187c4.140625 0 7.496094-3.359375 7.496094-7.5s-3.355469-7.496094-7.496094-7.496094h-9.101563l-7.445312-28.898437h2.882812c4.140626 0 7.496094-3.359376 7.496094-7.5 0-4.140626-3.355468-7.496094-7.496094-7.496094h-6.746093l-3.023438-11.738282h41.71875l88.722657 137.558594zm116.269531 0v-74.855468h42.753906v74.855468zm0 0"/></svg>