<?xml version="1.0" encoding="iso-8859-1"?>
<!-- Generator: Adobe Illustrator 18.0.0, SVG Export Plug-In . SVG Version: 6.00 Build 0)  -->
<!DOCTYPE svg PUBLIC "-//W3C//DTD SVG 1.1//EN" "http://www.w3.org/Graphics/SVG/1.1/DTD/svg11.dtd">
<svg version="1.1" id="Capa_1" xmlns="http://www.w3.org/2000/svg" xmlns:xlink="http://www.w3.org/1999/xlink" x="0px" y="0px"
	 viewBox="0 0 456.091 456.091" style="enable-background:new 0 0 456.091 456.091;" xml:space="preserve">
<g>
	<path d="M377.62,260.854c0-4.694-3.806-8.5-8.5-8.5c-19.724,0-37.481,8.571-49.753,22.18c0.892-64.126-2.681-112.816-2.747-113.688
		c-0.354-4.681-4.419-8.186-9.118-7.833c-4.681,0.355-8.188,4.437-7.833,9.118c0.089,1.179,6.677,91.085-0.473,187.062
		c-12.309-108.164-42.748-181.356-62.643-219.447c-2.173-4.162-7.312-5.772-11.469-3.599c-4.161,2.173-5.773,7.308-3.6,11.469
		c19.169,36.702,48.414,107.035,60.563,211.2c-28.324-90.619-66.432-143.041-93.429-171.063c-3.256-3.381-8.638-3.481-12.019-0.225
		c-3.381,3.257-3.481,8.638-0.224,12.019c14.194,14.735,26.632,31.268,37.506,48.496c-22.948-6.862-48.863-1.198-66.873,16.964
		c-3.305,3.333-3.282,8.715,0.051,12.021c12.64,12.534,29.38,19.425,47.169,19.425c0.096,0,0.193,0,0.29,0
		c14.33-0.06,27.948-4.597,39.278-12.922c14.191,28.402,24.63,56.698,32.019,80.336c16.472,52.691,21.841,94.373,21.893,94.788
		c0.542,4.296,4.202,7.438,8.423,7.438c0.354,0,0.712-0.022,1.072-0.067c4.278-0.539,7.403-4.171,7.43-8.369c0,0,0-0.001,0-0.002
		c0.034-4.155,0.364-8.31,1.107-12.398c6.34-34.894,9.944-72.226,11.861-107.765C351.277,323.985,377.62,295.439,377.62,260.854z
		 M194.448,269.452c-0.072,0-0.144,0-0.216,0c-10.094,0-19.736-2.974-27.925-8.511c16.846-11.561,39.268-11.654,56.209-0.236
		C214.317,266.35,204.62,269.409,194.448,269.452z M320.001,309.971c3.823-20.063,19.673-35.911,39.735-39.735
		C355.914,290.299,340.064,306.147,320.001,309.971z"/>
	<path d="M106.184,95.612c1.214,0.616,2.478,1.144,3.787,1.575v5.612c0,4.694,3.806,8.5,8.5,8.5s8.5-3.806,8.5-8.5v-5.611
		c1.309-0.431,2.574-0.959,3.788-1.575l3.968,3.972c1.66,1.662,3.837,2.493,6.014,2.493c2.174,0,4.348-0.829,6.007-2.486
		c3.321-3.317,3.324-8.699,0.007-12.021l-3.974-3.978c0.618-1.216,1.146-2.483,1.578-3.795h5.612c4.694,0,8.5-3.806,8.5-8.5
		s-3.806-8.5-8.5-8.5h-5.615c-0.431-1.309-0.959-2.573-1.575-3.786l3.973-3.978c3.317-3.321,3.314-8.703-0.007-12.021
		s-8.703-3.315-12.021,0.007l-3.967,3.971c-1.214-0.616-2.479-1.144-3.789-1.575V39.81c0-4.694-3.806-8.5-8.5-8.5
		s-8.5,3.806-8.5,8.5v5.61c-1.31,0.431-2.574,0.959-3.788,1.576l-3.969-3.973c-3.319-3.322-8.701-3.325-12.021-0.007
		c-3.321,3.317-3.324,8.699-0.007,12.021l3.976,3.981c-0.615,1.212-1.142,2.475-1.573,3.782h-5.619c-4.694,0-8.5,3.806-8.5,8.5
		s3.806,8.5,8.5,8.5h5.616c0.431,1.311,0.96,2.577,1.576,3.792l-3.977,3.981c-3.317,3.321-3.314,8.703,0.007,12.021
		c1.659,1.658,3.833,2.486,6.007,2.486c2.177,0,4.354-0.831,6.014-2.493L106.184,95.612z M118.424,61.057
		c0.016,0,0.031,0.002,0.047,0.002c0.017,0,0.033-0.002,0.049-0.002c5.625,0.026,10.195,4.605,10.201,10.235
		c0,0.002,0,0.005,0,0.007c0,0.004,0,0.008,0,0.012c-0.004,5.637-4.582,10.222-10.216,10.24c-0.012,0-0.023-0.002-0.035-0.002
		c-0.011,0-0.022,0.001-0.033,0.002c-5.635-0.019-10.214-4.608-10.214-10.247C108.224,65.669,112.795,61.084,118.424,61.057z"/>
	<path d="M305.237,88.135v-5.609c0-4.694-3.806-8.5-8.5-8.5s-8.5,3.806-8.5,8.5v5.61c-1.309,0.431-2.574,0.959-3.788,1.575
		l-3.968-3.973c-3.319-3.322-8.701-3.325-12.021-0.007c-3.321,3.317-3.324,8.699-0.007,12.021l3.976,3.98
		c-0.615,1.212-1.143,2.475-1.573,3.783h-5.619c-4.694,0-8.5,3.806-8.5,8.5s3.806,8.5,8.5,8.5h5.616
		c0.431,1.311,0.96,2.578,1.577,3.793l-3.976,3.981c-3.317,3.321-3.314,8.703,0.007,12.021c1.659,1.658,3.833,2.486,6.007,2.486
		c2.177,0,4.354-0.831,6.014-2.493l3.969-3.974c1.213,0.616,2.478,1.144,3.787,1.575v5.612c0,4.694,3.806,8.5,8.5,8.5
		s8.5-3.806,8.5-8.5v-5.611c1.31-0.431,2.575-0.959,3.789-1.575l3.968,3.973c1.66,1.662,3.837,2.493,6.014,2.493
		c2.174,0,4.348-0.829,6.007-2.486c3.321-3.317,3.324-8.699,0.007-12.021l-3.974-3.979c0.617-1.216,1.146-2.483,1.578-3.795h5.612
		c4.694,0,8.5-3.806,8.5-8.5s-3.806-8.5-8.5-8.5h-5.615c-0.431-1.308-0.958-2.572-1.574-3.785l3.974-3.978
		c3.317-3.321,3.314-8.703-0.007-12.021s-8.703-3.315-12.021,0.007l-3.967,3.972C307.812,89.095,306.547,88.567,305.237,88.135z
		 M306.987,114.028c-0.004,5.637-4.582,10.222-10.216,10.24c-0.012,0-0.023-0.002-0.035-0.002c-0.011,0-0.022,0.001-0.033,0.002
		c-5.635-0.019-10.214-4.608-10.214-10.247c0-5.635,4.571-10.219,10.2-10.247c0.016,0,0.031,0.002,0.047,0.002
		c0.017,0,0.033-0.002,0.049-0.002c5.625,0.026,10.195,4.605,10.201,10.235c0,0.002,0,0.005,0,0.007
		C306.987,114.02,306.987,114.024,306.987,114.028z"/>
	<path d="M149.996,175.601l-0.546-5.584c1.261-0.556,2.469-1.205,3.617-1.936l4.336,3.568c1.814,1.492,4.061,2.108,6.228,1.896
		c2.164-0.212,4.246-1.248,5.736-3.059c2.982-3.625,2.461-8.981-1.163-11.964l-4.343-3.573c0.496-1.27,0.899-2.583,1.201-3.93
		l5.586-0.546c4.672-0.457,8.089-4.615,7.632-9.287c-0.457-4.672-4.615-8.089-9.287-7.632l-5.589,0.547
		c-0.556-1.26-1.204-2.467-1.935-3.614l3.568-4.346c2.978-3.628,2.451-8.984-1.177-11.963c-3.629-2.978-8.985-2.452-11.963,1.177
		l-3.562,4.339c-1.269-0.495-2.579-0.898-3.925-1.199l-0.546-5.582c-0.457-4.672-4.615-8.089-9.287-7.632s-8.089,4.615-7.632,9.287
		l0.546,5.584c-1.261,0.556-2.469,1.205-3.616,1.936l-4.336-3.567c-3.627-2.983-8.983-2.462-11.964,1.164
		c-2.983,3.625-2.462,8.981,1.163,11.964l4.344,3.574c-0.494,1.266-0.896,2.575-1.198,3.918l-5.593,0.547
		c-4.672,0.457-8.089,4.615-7.632,9.287c0.457,4.672,4.615,8.089,9.287,7.632l5.59-0.547c0.557,1.263,1.206,2.472,1.938,3.621
		l-3.57,4.349c-2.978,3.629-2.451,8.985,1.177,11.963c1.813,1.488,4.057,2.101,6.22,1.89c2.166-0.212,4.252-1.251,5.742-3.067
		l3.564-4.341c1.268,0.495,2.577,0.897,3.922,1.199l0.546,5.585c0.457,4.672,4.615,8.089,9.287,7.632
		C147.035,184.431,150.453,180.273,149.996,175.601z M139.502,155.277c-0.012,0.001-0.023,0-0.035,0.002
		c-0.011,0.001-0.021,0.004-0.032,0.005c-5.61,0.53-10.614-3.592-11.163-9.204c-0.549-5.608,3.555-10.616,9.154-11.191
		c0.016-0.001,0.031,0,0.047-0.002c0.017-0.002,0.032-0.006,0.049-0.007c5.601-0.522,10.594,3.59,11.149,9.193
		c0,0.002,0,0.005,0,0.007c0,0.004,0.001,0.008,0.001,0.011C149.217,149.702,145.107,154.711,139.502,155.277z"/>
	<path d="M241.394,48.49h5.616c0.431,1.311,0.96,2.577,1.577,3.792l-3.976,3.981c-3.317,3.321-3.314,8.703,0.007,12.021
		c1.659,1.658,3.833,2.486,6.007,2.486c2.177,0,4.354-0.831,6.014-2.493l3.969-3.974c1.213,0.616,2.478,1.144,3.787,1.575v5.612
		c0,4.694,3.806,8.5,8.5,8.5s8.5-3.806,8.5-8.5v-5.611c1.309-0.431,2.574-0.959,3.788-1.575l3.969,3.973
		c1.66,1.662,3.837,2.493,6.014,2.493c2.174,0,4.348-0.829,6.007-2.486c3.321-3.318,3.324-8.7,0.007-12.021l-3.974-3.978
		c0.617-1.216,1.146-2.483,1.578-3.794h5.612c4.694,0,8.5-3.806,8.5-8.5s-3.806-8.5-8.5-8.5h-5.615
		c-0.431-1.308-0.958-2.572-1.574-3.785l3.973-3.978c3.317-3.321,3.314-8.703-0.007-12.021c-3.32-3.317-8.702-3.315-12.021,0.006
		l-3.968,3.972c-1.214-0.616-2.479-1.144-3.789-1.575V8.5c0-4.694-3.806-8.5-8.5-8.5s-8.5,3.806-8.5,8.5v5.61
		c-1.309,0.431-2.574,0.959-3.788,1.575l-3.968-3.972c-3.318-3.323-8.7-3.325-12.021-0.007c-3.321,3.317-3.324,8.699-0.007,12.021
		l3.976,3.98c-0.615,1.212-1.143,2.476-1.573,3.783h-5.619c-4.694,0-8.5,3.806-8.5,8.5S236.7,48.49,241.394,48.49z M272.847,29.748
		c0.016,0,0.031,0.002,0.047,0.002c0.017,0,0.033-0.002,0.049-0.002c5.625,0.026,10.195,4.605,10.201,10.235
		c0,0.003,0,0.005,0,0.008c0,0.004,0,0.008,0,0.012c-0.004,5.638-4.585,10.224-10.221,10.24c-0.01,0-0.02-0.001-0.03-0.001
		c-0.01,0-0.019,0.001-0.028,0.001c-5.638-0.017-10.219-4.606-10.219-10.248C262.647,34.359,267.218,29.775,272.847,29.748z"/>
	<path d="M168.914,87.656l5.41,1.507c0.064,1.379,0.233,2.741,0.501,4.077l-4.898,2.768c-4.087,2.309-5.529,7.494-3.219,11.581
		c1.153,2.042,3.025,3.424,5.119,4.007c2.097,0.584,4.417,0.368,6.462-0.788l4.89-2.763c1.004,0.919,2.08,1.767,3.225,2.533
		l-1.506,5.406c-1.26,4.522,1.385,9.21,5.907,10.469c4.522,1.26,9.209-1.385,10.469-5.907l1.506-5.405
		c1.377-0.064,2.738-0.233,4.072-0.5l2.757,4.892c1.153,2.047,3.027,3.431,5.124,4.016c2.094,0.583,4.411,0.368,6.454-0.783
		c4.09-2.304,5.537-7.488,3.232-11.578l-2.761-4.899c0.921-1.006,1.77-2.084,2.538-3.232l5.406,1.506
		c4.522,1.26,9.209-1.385,10.469-5.907s-1.385-9.209-5.907-10.469l-5.409-1.507c-0.064-1.376-0.233-2.735-0.501-4.069l4.896-2.766
		c4.087-2.309,5.528-7.495,3.219-11.582c-2.309-4.087-7.494-5.529-11.581-3.219l-4.887,2.761c-1.005-0.92-2.082-1.768-3.228-2.535
		l1.505-5.403c1.26-4.522-1.385-9.21-5.907-10.469c-4.522-1.26-9.209,1.385-10.469,5.907l-1.506,5.405
		c-1.377,0.064-2.737,0.233-4.071,0.501l-2.757-4.892c-2.306-4.091-7.49-5.538-11.578-3.232c-4.09,2.304-5.537,7.488-3.232,11.578
		l2.761,4.901c-0.918,1.003-1.765,2.078-2.531,3.222l-5.413-1.508c-4.522-1.26-9.209,1.385-10.469,5.907
		S164.391,86.397,168.914,87.656z M191.667,85.176c1.512-5.428,7.146-8.618,12.575-7.134c0.016,0.004,0.03,0.011,0.045,0.015
		c0.016,0.004,0.032,0.006,0.048,0.011c5.412,1.534,8.585,7.171,7.081,12.597c-0.001,0.002-0.002,0.005-0.002,0.007
		c-0.001,0.004-0.002,0.008-0.003,0.011c-1.517,5.429-7.157,8.618-12.589,7.123c-0.011-0.003-0.021-0.008-0.033-0.011
		c-0.01-0.003-0.021-0.004-0.032-0.007C193.333,96.258,190.153,90.609,191.667,85.176z"/>
</g>
<g>
</g>
<g>
</g>
<g>
</g>
<g>
</g>
<g>
</g>
<g>
</g>
<g>
</g>
<g>
</g>
<g>
</g>
<g>
</g>
<g>
</g>
<g>
</g>
<g>
</g>
<g>
</g>
<g>
</g>
</svg>
