<svg id="Capa_1" data-name="Capa 1" xmlns="http://www.w3.org/2000/svg" viewBox="0 0 270.17593 269.39856"><title>followFlowers2</title><path d="M159.334,182.36252c-14.52225,6.75271-16.28652,24.25925-8.82847,35.83212-.12531.07609-.22377.111-.3482.19155A29.59357,29.59357,0,0,0,142.095,224.814c-.06267-.27211-5.42347-18.47057-13.69338-31.90347-11.97208-19.44535-7.7597-45.118-.06266-66.4341a18.23275,18.23275,0,0,0,36.15346-3.37188v-.70445l.48962.48962A18.24379,18.24379,0,1,0,190.7836,97.09l-.50037-.4941h.72236a18.24591,18.24591,0,1,0,0-36.49181H190.302l.49858-.49857A18.24664,18.24664,0,0,0,165.0009,33.79591l-.50753.50752v-.717a18.24635,18.24635,0,0,0-36.4927,0v.7125l-.51648-.51647a18.24348,18.24348,0,1,0-25.79972,25.80062l.50663.512h-.6946a18.24591,18.24591,0,0,0,0,36.49181h.6946l-.49947.49857a18.24521,18.24521,0,0,0,0,25.8051,18.03855,18.03855,0,0,0,21.88989,2.89121c-12.65773,23.08575-19.33077,49.61947-8.4364,73.23245C129.35855,229.823,126.53,242.8379,126.53,242.8379l-4.89982-2.73993c3.6789-8.11238,1.17528-19.06135-8.65929-22.33924-12.69712-3.30563-18.202-9.69492-20.5884-14.61265a2.17241,2.17241,0,0,0-4.04231.34909c-2.57612,8.97346-6.08137,24.34517-2.7829,32.66073,4.28489,10.829,13.80975,15.59011,23.33191,13.52331-12.05174-6.9004-13.5233-19.27706-13.68979-23.42231a.37538.37538,0,0,1,.27211-.37506.34414.34414,0,0,1,.42876.17544c7.63438,23.16632,30.03538,26.59728,32.40026,28.85294,1.49751,10.20694,2.74082,16.50043,3.69679,20.37985a2.464,2.464,0,0,0,4.69842.27835c2.885-7.63885,7.29067-21.445,7.16178-34.23255,3.74514-4.61249,6.70883-7.47057,12.65147-13.41231,2.97-3.50882,20.85246-11.68475,29.77759-35.81241a.40631.40631,0,0,1,.7868.162c-1.31581,24.94222-17.11717,36.695-17.55667,37.24549,15.207,2.22344,29.43656-6.63634,34.17527-24.19122,3.61623-13.38636-4.77451-36.69052-10.18366-49.56845a2.90417,2.90417,0,0,0-5.44405.24078C185.5544,163.86868,178.54927,174.94923,159.334,182.36252ZM122.93167,78.3446a23.3055,23.3055,0,1,1,23.30595,23.306A23.30767,23.30767,0,0,1,122.93167,78.3446Z" transform="translate(-21.57556 -15.34057)"/><path d="M61.3402,203.47817c-6.22382,2.894-6.97993,10.39682-3.78363,15.35662-.0537.03261-.0959.04757-.14923.0821a12.6829,12.6829,0,0,0-3.45525,2.75476,65.44146,65.44146,0,0,0-5.86859-13.67292c-5.13089-8.33372-3.32558-19.33627-.02685-28.47175a7.814,7.814,0,0,0,15.49434-1.4451V177.78l.20984.20983a7.81877,7.81877,0,1,0,11.05779-11.057l-.21445-.21176h.30959a7.81968,7.81968,0,0,0,0-15.63935h-.30153l.21368-.21367a7.82,7.82,0,0,0-11.057-11.06125l-.21752.21751V139.717a7.81986,7.81986,0,0,0-15.63972,0v.30536l-.22135-.22134a7.81864,7.81864,0,1,0-11.057,11.05741l.21713.21942h-.29769a7.81968,7.81968,0,0,0,0,15.63935h.29769l-.21406.21368a7.81937,7.81937,0,0,0,0,11.05932,7.73081,7.73081,0,0,0,9.38139,1.23909c-5.42475,9.8939-8.28462,21.26549-3.61561,31.38534,6.09148,13.20375,4.87924,18.78156,4.87924,18.78156l-2.09992-1.17426c1.57667-3.47673.50369-8.16915-3.71112-9.574-5.44163-1.4167-7.80088-4.155-8.8236-6.26256a.931.931,0,0,0-1.73242.14961c-1.10406,3.84577-2.6063,10.43365-1.19267,13.99745,1.83638,4.641,5.91846,6.68148,9.99939,5.79571A12.00586,12.00586,0,0,1,33.854,222.29005a.16088.16088,0,0,1,.11662-.16074.14747.14747,0,0,1,.18375.07519c3.27188,9.92842,12.87231,11.39883,13.88583,12.36554.64179,4.3744,1.17464,7.07161,1.58434,8.73422a1.056,1.056,0,0,0,2.01361.1193c1.2364-3.2738,3.12457-9.19073,3.06933-14.6711a70.08754,70.08754,0,0,1,5.42206-5.74813c1.27284-1.50378,8.93677-5.00775,12.76182-15.34818a.17413.17413,0,0,1,.3372.06944,22.06842,22.06842,0,0,1-7.52428,15.96235c6.51729.9529,12.61567-2.84415,14.64654-10.36767,1.54982-5.737-2.04622-15.72451-4.36442-21.24362a1.24465,1.24465,0,0,0-2.33317.10319C72.57753,195.55224,69.57533,200.30105,61.3402,203.47817Zm-15.601-44.57911a9.98807,9.98807,0,1,1,9.98826,9.98827A9.989,9.989,0,0,1,45.73922,158.89906Z" transform="translate(-21.57556 -15.34057)"/><path d="M263.22719,150.7185c-8.29842,3.85869-9.30658,13.86243-5.04483,20.47549-.07161.04348-.12788.06342-.199.10946a16.91046,16.91046,0,0,0-4.607,3.673c-.03581-.15549-3.09912-10.55461-7.82479-18.23056-6.84119-11.11162-4.43411-25.78169-.0358-37.96233a10.41871,10.41871,0,0,0,20.65912-1.92679v-.40255l.27978.27979a10.425,10.425,0,1,0,14.74372-14.74271l-.28592-.28234h.41277a10.42623,10.42623,0,1,0,0-20.85246h-.402l.2849-.2849a10.42665,10.42665,0,0,0-14.7427-14.74833l-.29.29V65.7036a10.42649,10.42649,0,0,0-20.853,0v.40715l-.29513-.29513a10.42484,10.42484,0,1,0-14.7427,14.74321l.28951.29257h-.39692a10.42623,10.42623,0,0,0,0,20.85246h.39692l-.28541.2849a10.42582,10.42582,0,0,0,0,14.74577,10.30773,10.30773,0,0,0,12.50851,1.65212c-7.233,13.19186-11.04616,28.354-4.82081,41.84712,8.122,17.605,6.50566,25.04208,6.50566,25.04208l-2.7999-1.56568c2.10222-4.63564.67159-10.89219-4.94817-12.76527-7.25549-1.88894-10.40116-5.54-11.7648-8.35009a1.24137,1.24137,0,0,0-2.30989.19948c-1.47207,5.12769-3.47507,13.91153-1.59023,18.66327,2.44851,6.188,7.89129,8.90864,13.33253,7.72761-6.88672-3.94308-7.72761-11.01547-7.82275-13.38418a.21452.21452,0,0,1,.1555-.21432.19665.19665,0,0,1,.245.10026c4.36251,13.23789,17.16308,15.19844,18.51443,16.48739.85573,5.83254,1.56619,9.42881,2.11246,11.64562a1.408,1.408,0,0,0,2.68481.15906c1.64854-4.36506,4.1661-12.2543,4.09244-19.56145a93.44575,93.44575,0,0,1,7.22942-7.66418c1.69712-2.005,11.91569-6.677,17.01576-20.46424a.23218.23218,0,0,1,.4496.09258c-.75189,14.2527-9.78124,20.96857-10.03238,21.28314,8.68972,1.27054,16.82089-3.7922,19.52872-13.82356,2.06642-7.64934-2.72829-20.966-5.81923-28.32482a1.65952,1.65952,0,0,0-3.11088.13759C278.2103,140.15059,274.20737,146.48233,263.22719,150.7185ZM242.42588,91.27969a13.31743,13.31743,0,1,1,13.31769,13.31769A13.31867,13.31867,0,0,1,242.42588,91.27969Z" transform="translate(-21.57556 -15.34057)"/><path d="M48.74787,74.99126c-5.18651,2.41169-5.81661,8.664-3.153,12.79719-.04475.02717-.07992.03964-.12436.06841a10.569,10.569,0,0,0-2.87937,2.29564,54.53489,54.53489,0,0,0-4.8905-11.3941c-4.27574-6.94477-2.77132-16.11356-.02237-23.72646a6.5117,6.5117,0,0,0,12.912-1.20425V53.5761l.17486.17487a6.51564,6.51564,0,1,0,9.21483-9.21419l-.17871-.17647h.258a6.5164,6.5164,0,0,0,0-13.03279H59.8079l.17806-.17806a6.51665,6.51665,0,0,0-9.21418-9.2177l-.18126.18126V21.857a6.51656,6.51656,0,0,0-13.03311,0v.25447L37.373,21.927a6.51553,6.51553,0,1,0-9.21418,9.21451l.18094.18285h-.24808a6.5164,6.5164,0,0,0,0,13.03279h.24808l-.17838.17807a6.51613,6.51613,0,0,0,0,9.2161,6.44233,6.44233,0,0,0,7.81781,1.03258c-4.52062,8.24491-6.90384,17.72124-3.013,26.15444,5.07623,11.00313,4.066,15.6513,4.066,15.6513l-1.74994-.97854c1.31389-2.89728.41974-6.80763-3.0926-7.9783-4.53469-1.18058-6.50073-3.46247-7.353-5.21881a.77586.77586,0,0,0-1.44368.12468c-.92,3.20481-2.17192,8.6947-.99389,11.66455,1.53032,3.8675,4.93205,5.56789,8.33283,4.82975a10.0049,10.0049,0,0,1-4.88922-8.36511.13407.13407,0,0,1,.09719-.13395.12289.12289,0,0,1,.15312.06266c2.72657,8.27368,10.72693,9.499,11.57152,10.30462.53483,3.64533.97887,5.893,1.32029,7.27851a.88.88,0,0,0,1.678.09942,36.31048,36.31048,0,0,0,2.55777-12.22592,58.40385,58.40385,0,0,1,4.51839-4.7901c1.0607-1.25316,7.4473-4.17313,10.63485-12.79015a.14511.14511,0,0,1,.281.05786,18.39038,18.39038,0,0,1-6.27024,13.302c5.43107.79408,10.51306-2.37012,12.20545-8.63972,1.29152-4.78084-1.70518-13.10376-3.637-17.703a1.0372,1.0372,0,0,0-1.9443.086C58.11231,68.38632,55.61048,72.34366,48.74787,74.99126ZM35.74705,37.842a8.3234,8.3234,0,1,1,8.32356,8.32355A8.32417,8.32417,0,0,1,35.74705,37.842Z" transform="translate(-21.57556 -15.34057)"/><path d="M236.82654,257.65292c-4.14922,1.92934-4.65329,6.93121-2.52242,10.23774-.03581.02174-.06394.03171-.09949.05473a8.45538,8.45538,0,0,0-2.3035,1.83651,43.62758,43.62758,0,0,0-3.91239-9.11528c-3.4206-5.55581-2.21706-12.89085-.0179-18.98117a5.20935,5.20935,0,0,0,10.32955-.96339v-.20127l.1399.13989a5.21251,5.21251,0,1,0,7.37186-7.37135l-.143-.14118h.20639a5.21312,5.21312,0,1,0,0-10.42623h-.201l.14245-.14245a5.21333,5.21333,0,0,0-7.37135-7.37416l-.145.145v-.20485a5.21324,5.21324,0,0,0-10.42648,0v.20357l-.14757-.14756a5.21242,5.21242,0,1,0-7.37135,7.37161l.14475.14628h-.19845a5.21312,5.21312,0,0,0,0,10.42623H220.5l-.1427.14245a5.21291,5.21291,0,0,0,0,7.37289,5.15387,5.15387,0,0,0,6.25425.82606c-3.61649,6.59593-5.52307,14.177-2.4104,20.92355,4.061,8.80251,3.25283,12.521,3.25283,12.521l-1.39995-.78283a4.57867,4.57867,0,0,0-2.47408-6.38264c-3.62775-.94447-5.20059-2.77-5.8824-4.175a.62069.62069,0,0,0-1.155.09975c-.736,2.56384-1.73753,6.95576-.79511,9.33163a5.75261,5.75261,0,0,0,6.66626,3.8638,8.0039,8.0039,0,0,1-3.91137-6.69208.10725.10725,0,0,1,.07774-.10716.09832.09832,0,0,1,.12251.05012c2.18125,6.61895,8.58153,7.59922,9.25721,8.2437.42786,2.91627.7831,4.71441,1.05623,5.82281a.704.704,0,0,0,1.34241.07953,29.04847,29.04847,0,0,0,2.04622-9.78073,46.72435,46.72435,0,0,1,3.6147-3.83208c.84857-1.00253,5.95785-3.33851,8.50789-10.23212a.11609.11609,0,0,1,.2248.04629,14.71228,14.71228,0,0,1-5.01619,10.64156c4.34485.63527,8.41044-1.89609,9.76436-6.91177,1.03321-3.82468-1.36415-10.483-2.90962-14.16242a.82976.82976,0,0,0-1.55544.0688C244.31809,252.369,242.31662,255.53483,236.82654,257.65292Zm-10.40066-29.71941a6.65872,6.65872,0,1,1,6.65884,6.65884A6.65934,6.65934,0,0,1,226.42588,227.93351Z" transform="translate(-21.57556 -15.34057)"/></svg>