<?xml version="1.0" encoding="iso-8859-1"?>
<!-- Generator: Adobe Illustrator 18.1.1, SVG Export Plug-In . SVG Version: 6.00 Build 0)  -->
<svg version="1.1" id="Capa_1" xmlns="http://www.w3.org/2000/svg" xmlns:xlink="http://www.w3.org/1999/xlink" x="0px" y="0px"
	 viewBox="0 0 51.819 51.819" style="enable-background:new 0 0 51.819 51.819;" xml:space="preserve">
<g>
	<g>
		<circle style="fill:#010002;" cx="27.663" cy="5.624" r="4.26"/>
		<path style="fill:#010002;" d="M38.283,17.109c-0.918-1.991-2.088-3.883-3.834-5.251c-0.188-0.147-0.383-0.245-0.581-0.32
			c-0.013-0.016-0.021-0.034-0.034-0.049c-3.039-1.526-9.806-0.833-11.869-0.409l-0.003,0.062c-3.11-2.076-4.824-5.799-5.429-9.503
			c-0.47-2.873-4.827-1.65-4.361,1.202c0.928,5.678,4.26,10.906,9.53,13.254l-0.033,0.625c0.004,3.125,0.021,14.853,0.021,15.019
			l0.083,17.596c0,1.347,1.122,2.438,2.505,2.438c1.384,0,2.506-1.092,2.506-2.438v-17.05c0,0-0.023-0.842,0.857-0.832
			c0.881,0.008,0.96,0.873,0.96,0.873v17.055c0,1.346,1.123,2.438,2.506,2.438c1.385,0,2.369-1.093,2.369-2.438V33.012l-0.008-2.596
			c1.957-1.256,3.479-3.066,4.571-5.114c0.604-1.125,1.644-2.694,1.644-4.033C39.683,19.904,38.834,18.3,38.283,17.109z
			 M35.426,21.5c-0.268,0.598-0.541,1.197-0.867,1.766c-0.34,0.593-0.705,1.159-1.104,1.695l-0.021-8.291
			c0.972,1.352,1.646,2.933,2.111,4.523C35.517,21.28,35.48,21.381,35.426,21.5z M35.594,21.02
			C35.592,20.811,35.636,20.814,35.594,21.02L35.594,21.02z"/>
	</g>
</g>
<g>
</g>
<g>
</g>
<g>
</g>
<g>
</g>
<g>
</g>
<g>
</g>
<g>
</g>
<g>
</g>
<g>
</g>
<g>
</g>
<g>
</g>
<g>
</g>
<g>
</g>
<g>
</g>
<g>
</g>
</svg>
