<svg id="Layer_1" enable-background="new 0 0 512 512" height="512" viewBox="0 0 512 512" width="512" xmlns="http://www.w3.org/2000/svg"><g><g><path d="m256 0c-141.159 0-256 114.841-256 256s114.841 256 256 256 256-114.841 256-256-114.842-256-256-256zm0 20c82.66 0 155.517 42.725 197.683 107.242-55.192 10.656-61.938 8.538-107.68-5.854-9.184-2.889-19.592-6.164-32.239-9.927-12.711-3.782-26.64-6.03-42.346 3.038l-15.696 9.062-15.696-9.062c-15.706-9.067-29.634-6.819-42.346-3.038-14.28 4.248-26.058 8.047-35.521 11.1-42.179 13.605-48.361 15.592-101.972 1.844 42.431-62.933 114.368-104.405 195.813-104.405zm-206.714 122.243c62.889 16.363 70.778 14.909 119.013-.648 9.854-3.179 21.022-6.781 35.083-10.964 10.523-3.129 17.886-3.866 26.643 1.188l5.695 3.288-35.033 20.227c-8.054 4.649-13.821 12.183-16.24 21.212-2.418 9.027-1.19 18.435 3.459 26.487 9.313 16.132 29.573 21.758 47.128 13.087 9.442-4.663 23.171-10.835 33.514-14.774 7.555 4.553 24.499 14.822 36.595 22.153 1.621.982 3.408 1.45 5.174 1.45 3.382-.001 6.681-1.716 8.562-4.818 2.862-4.724 1.354-10.873-3.368-13.735-11.631-7.05-21.795-13.208-29.063-17.604-3.643-2.202-6.56-3.964-8.572-5.174-4.429-2.664-5.48-3.297-8.293-3.297-1.121 0-2.233.188-3.292.558-11.821 4.12-29.08 11.861-40.112 17.311-7.973 3.938-16.98 1.722-20.95-5.155-1.979-3.427-2.497-7.444-1.461-11.313s3.494-7.088 6.921-9.066l70.729-40.835c8.759-5.056 16.12-4.317 26.643-1.188 12.497 3.718 22.826 6.968 31.939 9.835 50.702 15.955 59.965 17.727 124.484 5.044 17.55 32.982 27.516 70.59 27.516 110.488 0 3.917-.101 7.81-.291 11.681l-48.747 18.264c-2.639-3.34-5.939-6.245-9.844-8.499-3.66-2.113-16.95-10.101-40.628-24.419-4.727-2.858-10.874-1.341-13.732 3.383-2.857 4.727-1.343 10.874 3.383 13.732 23.796 14.389 37.199 22.443 40.978 24.624 7.003 4.043 9.41 13.03 5.368 20.033-4.044 7.004-13.029 9.41-20.033 5.368l-21.434-12.375c-.004-.003-.007-.005-.011-.007l-.004-.002-79.581-45.945c-4.784-2.762-10.899-1.122-13.66 3.66-2.762 4.783-1.123 10.899 3.66 13.66l79.573 45.941c.002.001.003.002.004.003 6.999 4.045 9.404 13.03 5.363 20.03-4.043 7.003-13.03 9.412-20.032 5.368l-14.109-8.146c-.003-.002-.006-.003-.009-.004l-69.858-40.332c-4.784-2.762-10.899-1.122-13.66 3.66-2.762 4.783-1.123 10.899 3.66 13.66l69.865 40.336c6.996 4.046 9.4 13.029 5.36 20.029-4.044 7.003-13.032 9.408-20.033 5.368l-24.035-13.877-44.069-25.443c-2.933-4.981-7.142-9.298-12.496-12.389-6.383-3.686-13.463-5.102-20.304-4.505-.086-2.654-.479-5.32-1.185-7.953-2.402-8.963-8.127-16.44-16.123-21.057-6.681-3.857-14.3-5.345-21.856-4.326-1.038-10.783-7.09-20.93-17.166-26.747-7.996-4.616-17.332-5.836-26.297-3.435-6.86 1.838-12.851 5.624-17.353 10.885-2.855-4.266-6.703-7.959-11.438-10.693-7.994-4.616-17.334-5.836-26.297-3.435-8.962 2.402-16.44 8.128-21.056 16.123l-6.014 10.417-37.598-21.706c-.165-3.623-.261-7.265-.261-10.93 0-41.22 10.634-79.999 29.286-113.757zm17.945 170.162 13.963-24.185c1.945-3.369 5.11-5.785 8.913-6.804 3.801-1.019 7.75-.509 11.121 1.437 6.994 4.038 9.406 13.018 5.376 20.018 0 .001-.001.001-.001.002l-13.981 24.215s0 .001-.001.001c-4.048 6.984-13.028 9.383-20.021 5.348-3.369-1.945-5.785-5.11-6.804-8.912-1.02-3.802-.509-7.751 1.435-11.12zm37.471 33.759 5.231-9.06s0 0 .001-.001l13.993-24.236c.001-.002.003-.005.005-.007l12.353-21.396c1.945-3.369 5.11-5.785 8.912-6.805 3.801-1.019 7.75-.508 11.121 1.438 3.369 1.944 5.785 5.108 6.804 8.911 1.019 3.801.509 7.75-1.436 11.119l-3.701 6.409c-.001.002-.002.005-.004.007l-24.177 41.875s0 .001-.001.001v.001s0 .001-.001.001c-.005.009-.011.017-.016.027l-3.683 6.378c-1.945 3.369-5.11 5.785-8.913 6.805-3.803 1.018-7.752.508-11.121-1.437-7.002-4.041-9.409-13.028-5.367-20.03zm46.42 18.258 24.182-41.885.007-.014c4.048-6.99 13.027-9.396 20.025-5.354 7.003 4.043 9.411 13.03 5.367 20.033l-5.109 8.851c-.001.002-.002.004-.003.006l-13.958 24.176s0 0-.001.001v.001c0 .001-.001.002-.001.002l-5.108 8.847c-4.042 7.002-13.029 9.411-20.033 5.367-7-4.043-9.409-13.028-5.368-20.031zm47.832 15.814 13.963-24.185s.001-.001.001-.001l.008-.014c1.946-3.361 5.107-5.771 8.903-6.789 3.804-1.019 7.752-.509 11.121 1.437 3.369 1.945 5.785 5.11 6.804 8.912s.509 7.751-1.437 11.12l-13.962 24.185c-4.043 7.003-13.03 9.41-20.033 5.367-3.369-1.945-5.785-5.11-6.804-8.912s-.509-7.751 1.436-11.12zm56.684.481c1.771-3.068 3.016-6.298 3.768-9.584l30.104 17.38c.001 0 .001.001.002.001s.002.001.002.001l.022.014c6.981 4.05 9.378 13.023 5.341 20.017-4.043 7.003-13.029 9.41-20.033 5.367l-28.779-16.615zm.362 111.283c-118.099 0-216.21-87.199-233.344-200.593l25.421 14.676c-3.056 7.108-3.642 14.997-1.6 22.618 2.401 8.963 8.127 16.44 16.123 21.057 6.335 3.658 13.359 5.082 20.155 4.514.281 11.695 6.465 22.98 17.316 29.245 7.996 4.615 17.334 5.838 26.297 3.435 1.883-.505 3.701-1.156 5.44-1.944 2.815 6.821 7.814 12.801 14.685 16.767 10.779 6.225 23.547 5.981 33.781.482 2.976 6.412 7.825 11.739 14.049 15.333 5.316 3.069 11.227 4.638 17.226 4.638 3.022 0 6.068-.398 9.071-1.203 5.201-1.394 9.896-3.913 13.828-7.339l30.396 17.549c5.445 3.145 11.396 4.638 17.274 4.638 11.989-.001 23.666-6.218 30.079-17.325 2.654-4.599 4.133-9.559 4.527-14.529 16.005 7.173 35.223 1.196 44.178-14.313 3.181-5.509 4.672-11.537 4.636-17.481 4.32.51 8.751.196 13.09-.967 8.963-2.401 16.44-8.128 21.057-16.123 2.733-4.734 4.22-9.854 4.56-14.974 15.435 5.456 33.089-.685 41.563-15.36 3.675-6.367 5.095-13.428 4.508-20.251l39.248-14.705c-16.466 114.152-114.924 202.155-233.564 202.155z"/><path d="m348.82 248.273c5.522 0 10-4.478 10-10s-4.478-10-10-10h-.007c-5.522 0-9.996 4.478-9.996 10s4.481 10 10.003 10z"/></g></g></svg>