<?xml version="1.0" encoding="iso-8859-1"?>
<!-- Generator: Adobe Illustrator 19.0.0, SVG Export Plug-In . SVG Version: 6.00 Build 0)  -->
<svg version="1.1" id="Capa_1" xmlns="http://www.w3.org/2000/svg" xmlns:xlink="http://www.w3.org/1999/xlink" x="0px" y="0px"
	 viewBox="0 0 512.053 512.053" style="enable-background:new 0 0 512.053 512.053;" xml:space="preserve">
<g transform="translate(-1 -1)">
	<g>
		<g>
			<path d="M137.577,94.92c0-4.713-3.82-8.533-8.533-8.533c-9.426,0-17.067-7.641-17.067-17.067c0-4.713-3.821-8.533-8.533-8.533
				s-8.533,3.82-8.533,8.533c0,18.851,15.282,34.133,34.133,34.133C133.757,103.453,137.577,99.633,137.577,94.92z"/>
			<path d="M129.044,52.253c9.426,0,17.067,7.641,17.067,17.067c0,4.713,3.82,8.533,8.533,8.533s8.533-3.82,8.533-8.533
				c0-18.851-15.282-34.133-34.133-34.133c-4.713,0-8.533,3.82-8.533,8.533S124.331,52.253,129.044,52.253z"/>
			<path d="M150.488,232.409c10.036-8.08,14.648-21.135,11.915-33.726c-2.733-12.591-12.343-22.559-24.826-25.751v-35.934
				c35.76-4.505,61.856-36.034,59.599-72.006C194.92,29.02,165.087,1,129.044,1S63.168,29.02,60.911,64.992
				s23.839,67.501,59.599,72.006v35.934c-12.483,3.192-22.092,13.16-24.826,25.751c-2.733,12.591,1.879,25.646,11.915,33.726
				L30.151,355.187c-17.195,31.9-15.947,70.574,3.268,101.299c19.357,34.706,55.887,56.315,95.625,56.567
				c39.728-0.246,76.253-21.842,95.616-56.533c19.262-30.843,20.433-69.667,3.063-101.615L150.488,232.409z M77.844,69.32
				c0-28.277,22.923-51.2,51.2-51.2s51.2,22.923,51.2,51.2s-22.923,51.2-51.2,51.2C100.779,120.492,77.872,97.585,77.844,69.32z
				 M116.976,193.785c3.201-3.201,7.542-4.999,12.068-4.999c9.426,0,17.067,7.641,17.067,17.067
				c-0.03,4.614-1.948,9.015-5.308,12.177c-6.588-6.263-16.93-6.263-23.518,0c-3.36-3.162-5.278-7.563-5.308-12.177
				C111.977,201.327,113.775,196.986,116.976,193.785z M209.923,447.978c-16.351,29.396-47.242,47.733-80.879,48.009
				c-33.638-0.278-64.527-18.627-80.862-48.034c-16.082-25.357-17.378-57.378-3.396-83.951l84.258-133.649l84.062,133.368
				C227.256,390.339,226.041,422.503,209.923,447.978z"/>
			<path d="M198.403,372.381l-62.14-98.551c-1.664-2.334-4.353-3.719-7.219-3.719c-2.866,0-5.555,1.385-7.219,3.719l-15.531,24.644
				c-2.329,3.973-1.085,9.078,2.811,11.534c3.896,2.456,9.038,1.377,11.619-2.438l8.32-13.184l54.673,86.682
				c1.913,3.474,3.302,7.213,4.122,11.093c0.854,4.031,1.169,8.157,0.939,12.271c-0.276,4.45-1.098,8.849-2.449,13.099
				c-1.459,4.633-3.434,9.087-5.888,13.278c-2.782,4.766-6.138,9.174-9.992,13.124c-3.657,3.756-7.778,7.031-12.262,9.745
				c-4.369,2.63-9.07,4.665-13.978,6.05c-9.916,2.771-20.403,2.771-30.319,0c-4.908-1.388-9.609-3.426-13.978-6.059
				c-4.489-2.705-8.61-5.978-12.262-9.737c-3.848-3.965-7.195-8.387-9.967-13.167c-2.45-4.196-4.425-8.653-5.888-13.286
				c-1.337-4.246-2.153-8.639-2.432-13.082c-0.268-4.121,0.019-8.26,0.853-12.305c0.786-3.71,2.087-7.292,3.866-10.641
				l31.078-49.271c1.628-2.578,1.757-5.828,0.339-8.527c-1.418-2.699-4.169-4.436-7.215-4.557c-3.046-0.121-5.926,1.392-7.554,3.97
				l-31.3,49.741c-2.717,4.932-4.692,10.237-5.862,15.744c-1.171,5.545-1.587,11.223-1.237,16.879
				c0.352,5.831,1.418,11.597,3.174,17.169c1.838,5.85,4.328,11.475,7.424,16.768c3.468,6,7.667,11.547,12.501,16.512
				c4.676,4.808,9.95,8.995,15.693,12.459c5.673,3.415,11.777,6.055,18.15,7.851c12.933,3.641,26.619,3.641,39.552,0
				c6.373-1.795,12.478-4.435,18.15-7.851c5.742-3.465,11.016-7.652,15.693-12.459c4.827-4.964,9.02-10.508,12.484-16.503
				c3.096-5.293,5.586-10.918,7.424-16.768c1.76-5.574,2.832-11.343,3.191-17.178c0.345-5.657-0.074-11.334-1.246-16.879
				C203.308,382.884,201.245,377.433,198.403,372.381z"/>
			<path d="M393.577,94.92c0-4.713-3.82-8.533-8.533-8.533c-9.426,0-17.067-7.641-17.067-17.067c0-4.713-3.82-8.533-8.533-8.533
				s-8.533,3.82-8.533,8.533c0,18.851,15.282,34.133,34.133,34.133C389.757,103.453,393.577,99.633,393.577,94.92z"/>
			<path d="M385.044,52.253c9.426,0,17.067,7.641,17.067,17.067c0,4.713,3.821,8.533,8.533,8.533c4.713,0,8.533-3.82,8.533-8.533
				c0-18.851-15.282-34.133-34.133-34.133c-4.713,0-8.533,3.82-8.533,8.533S380.331,52.253,385.044,52.253z"/>
			<path d="M483.724,354.905l-77.235-122.496c10.036-8.08,14.648-21.135,11.915-33.726c-2.733-12.591-12.343-22.559-24.826-25.751
				v-35.934c35.76-4.505,61.856-36.034,59.599-72.006S421.087,1,385.044,1s-65.876,28.02-68.133,63.992s23.839,67.501,59.599,72.006
				v35.934c-12.483,3.192-22.092,13.16-24.826,25.751c-2.733,12.591,1.879,25.646,11.915,33.726l-77.449,122.778
				c-17.195,31.9-15.947,70.574,3.268,101.299c19.357,34.706,55.887,56.315,95.625,56.567c39.728-0.246,76.253-21.842,95.616-56.533
				C499.922,425.677,501.093,386.853,483.724,354.905z M333.844,69.32c0-28.277,22.923-51.2,51.2-51.2s51.2,22.923,51.2,51.2
				s-22.923,51.2-51.2,51.2C356.779,120.492,333.872,97.585,333.844,69.32z M372.976,193.785c3.201-3.201,7.542-4.999,12.068-4.999
				c9.426,0,17.067,7.641,17.067,17.067c-0.03,4.614-1.948,9.015-5.308,12.177c-6.588-6.263-16.93-6.263-23.518,0
				c-3.36-3.162-5.278-7.563-5.308-12.177C367.977,201.327,369.776,196.986,372.976,193.785z M465.923,447.978
				c-16.133,29.609-47.156,48.035-80.875,48.035c-33.719,0-64.742-18.426-80.875-48.035c-16.089-25.365-17.382-57.398-3.388-83.977
				l84.258-133.649l84.062,133.368C483.256,390.339,482.041,422.503,465.923,447.978z"/>
			<path d="M454.403,372.381l-62.14-98.551c-1.664-2.334-4.353-3.719-7.219-3.719s-5.555,1.385-7.219,3.719l-15.531,24.644
				c-2.329,3.973-1.085,9.078,2.811,11.534c3.896,2.456,9.038,1.377,11.619-2.438l8.32-13.184l54.673,86.682
				c1.913,3.474,3.302,7.213,4.122,11.093c0.828,4.046,1.115,8.184,0.853,12.305c-0.276,4.45-1.098,8.849-2.449,13.099
				c-1.459,4.633-3.434,9.087-5.888,13.278c-2.758,4.75-6.085,9.146-9.907,13.09c-3.657,3.756-7.778,7.031-12.262,9.745
				c-4.369,2.63-9.07,4.665-13.978,6.05c-9.916,2.771-20.403,2.771-30.319,0c-4.908-1.388-9.609-3.426-13.978-6.059
				c-4.489-2.705-8.61-5.978-12.262-9.737c-3.848-3.965-7.195-8.387-9.967-13.167c-2.45-4.196-4.425-8.653-5.888-13.286
				c-1.337-4.246-2.153-8.639-2.432-13.082c-0.268-4.121,0.019-8.26,0.853-12.305c0.786-3.71,2.087-7.292,3.866-10.641
				l31.078-49.271c1.628-2.578,1.757-5.828,0.339-8.527c-1.418-2.699-4.169-4.436-7.215-4.557c-3.046-0.121-5.926,1.392-7.554,3.97
				l-31.334,49.707c-2.717,4.932-4.692,10.237-5.862,15.744c-1.171,5.545-1.587,11.223-1.237,16.879
				c0.352,5.828,1.418,11.592,3.174,17.161c1.846,5.866,4.347,11.506,7.458,16.811c3.468,6,7.667,11.547,12.501,16.512
				c4.676,4.808,9.95,8.995,15.693,12.459c5.673,3.415,11.777,6.055,18.15,7.851c12.933,3.641,26.619,3.641,39.552,0
				c6.373-1.795,12.478-4.435,18.15-7.851c5.742-3.465,11.016-7.652,15.693-12.459c4.827-4.964,9.02-10.508,12.484-16.503
				c3.096-5.293,5.586-10.918,7.424-16.768c1.76-5.574,2.832-11.343,3.191-17.178c0.345-5.657-0.074-11.334-1.246-16.879
				C459.308,382.884,457.245,377.433,454.403,372.381z"/>
		</g>
	</g>
</g>
<g>
</g>
<g>
</g>
<g>
</g>
<g>
</g>
<g>
</g>
<g>
</g>
<g>
</g>
<g>
</g>
<g>
</g>
<g>
</g>
<g>
</g>
<g>
</g>
<g>
</g>
<g>
</g>
<g>
</g>
</svg>
