<?xml version="1.0" ?><!DOCTYPE svg  PUBLIC '-//W3C//DTD SVG 1.1//EN'  'http://www.w3.org/Graphics/SVG/1.1/DTD/svg11.dtd'><svg enable-background="new 0 0 65 65" height="65px" id="Layer_1" version="1.1" viewBox="0 0 65 65" width="65px" xml:space="preserve" xmlns="http://www.w3.org/2000/svg" xmlns:xlink="http://www.w3.org/1999/xlink"><circle cx="51.271" cy="8.684" r="1.246"/><path d="M58.243,5.243c-0.79-1.997-2.625-4.43-6.885-4.683c-0.031-0.001-0.06,0.004-0.091,0.004c-0.029,0-0.057-0.006-0.087-0.004  c-4.261,0.253-6.096,2.687-6.885,4.684c-2.267,5.735,1.269,15.72,4.98,20.531c-3.149,2.394-13.778,4.195-21.736,5.543  C13.403,33.712,6.026,35.15,6.026,39.189c0,4.031,7.085,5.445,18.645,7.418c5.143,0.878,15.844,2.705,16.148,4.46  c-0.304,1.756-11.007,3.582-16.151,4.46C13.11,57.5,6.026,58.913,6.026,62.942c0,0.828,0.671,1.5,1.5,1.5s1.5-0.671,1.5-1.5  c0.31-1.755,11.006-3.581,16.146-4.458c11.561-1.973,18.646-3.387,18.646-7.417s-7.084-5.444-18.643-7.417  c-5.145-0.878-15.849-2.705-16.157-4.412c0.725-1.863,12.179-3.804,19.022-4.963c13.078-2.215,21.886-3.951,24.346-7.458  C56.383,22.57,60.688,11.429,58.243,5.243z M51.271,12.93c-2.341,0-4.246-1.904-4.246-4.245c0-2.341,1.905-4.246,4.246-4.246  c2.34,0,4.244,1.905,4.244,4.246C55.515,11.025,53.61,12.93,51.271,12.93z"/></svg>