<svg id="Capa_1" enable-background="new 0 0 510 510" height="512" viewBox="0 0 510 510" width="512" xmlns="http://www.w3.org/2000/svg"><g id="XMLID_1659_"><path id="XMLID_1662_" d="m405 0v90h-30v-90h-105v90h-30v-90h-105v90h-30v-90h-105v510h510v-510zm-165 285v45h-60v-45zm30 0h60v45h-60zm-30 75v45h-60v-45zm0 75v45h-60v-45zm30 0h60v45h-60zm0-30v-45h60v45zm90-45h41.922c3.872 23.436 2.933 40.467 3.078 45h-45zm0-30v-45h15.244c8.132 14.171 14.704 29.244 19.587 45zm-90-75v-64.705c3.194 1.923 47.306 18.941 84.61 64.705zm-30 0h-84.61c22.026-27.021 50.602-49.247 84.375-64.598l.235-.107zm-105.244 30h15.244v45h-34.831c4.882-15.756 11.455-30.829 19.587-45zm-26.678 75h41.922v45h-45c.14-4.347-.803-21.506 3.078-45zm-3.078 75h45v45h-45zm255 45v-45h45v45zm120 0h-45v-82.309c0-49.895-14.326-98.229-41.431-139.778-51.643-79.169-125.042-99.381-138.569-107.39-4.642 3.761-180 58.636-180 247.169v82.308h-45v-450h45v90h90v-90h45v90h90v-90h45v90h90v-90h45z"/><path id="XMLID_1677_" d="m60 150h30v30h-30z"/><path id="XMLID_1678_" d="m420 150h30v30h-30z"/><path id="XMLID_1679_" d="m420 210h30v30h-30z"/><path id="XMLID_1680_" d="m60 210h30v30h-30z"/></g></svg>