<svg xmlns="http://www.w3.org/2000/svg" viewBox="0 0 2367.84 1517.64"><defs><style>.cls-1{fill:#363436;}</style></defs><title>Vrstva 1</title><g id="Layer_2" data-name="Layer 2"><g id="Vrstva_1" data-name="Vrstva 1"><path class="cls-1" d="M1922.12,854.2C1776.33,687,1602.58,552.34,1427.73,417.59c-50.82,41.65-95.17,81.17-142.84,116.17-49.5,36.35-100.34,71.72-153.92,101.54-118.83,66.13-257.83,30.12-329.3-81.59-36.73-57.41-29.22-124.9,19.84-172C856.74,348,892.82,315,928.22,281.43c75-71.22,148.84-143.92,225-213.82l23-21.12c4.08-3.75,14.41-10.69,10.11-16.28-4-5.23-16.13-4.52-22.12-5.6-11.47-2.05-22.86-4.13-34.45-5.39a346.66,346.66,0,0,0-77.41-.1c-49.64,5.81-99.36,11.1-148.79,18.48-46.13,6.9-92.06,15.62-137,28.35C620.34,107.41,484.53,111,350.29,30.44c-54.41-32.67-89.1-16.06-115.52,42.7Q125.24,316.77,16.37,560.71c-9,20.23-14.7,41.92-16.36,46.77-.39,1.11,15.84,12.66,17.54,14l18.06,14.43q17.78,14.19,35.54,28.39l69.28,55.33C182.83,754.18,225.59,788,267.61,823c3.44,2.87,7.13,5.85,11.57,6.42,5.62.72,9.34-4.68,12.86-8.14,5.31-5.23,10.66-10.42,16-15.63,33.13-32.37,66.63-64.36,99.69-96.79l10-9.84,8.59-8.49c75.61-74.8,179.46-61.12,232.67,31.92,12.29,21.48,21.4,44.78,32.39,68.12,113.79-10.34,178.79,45.24,206.3,146.9,133.08-5.89,177.65,22.7,228.22,146.75,17,0,36-1,54.81.17,67,4,110.48,40.28,131.61,102.3,19.84,58.23,29.16,114.19-30,160.57-53.21,41.71-102,89.09-162.41,142.58,103.66,49.38,162.26,28.05,213.7-55.17,9.69-15.67,28.64-39,40.89-37.57,102.19,11.74,156.57-36.3,174.2-131.5,179.69-.52,191.53-7.37,242.1-139.34,67.6,5.85,140.39,16.1,176.7-61.73C2004.5,985.19,1976.36,916.39,1922.12,854.2Z"/><path class="cls-1" d="M852.62,460.33c5.14-7.37,14.79-26.89,29.44-41.34,128.74-126.86,259.61-251.57,387.1-379.66,50.23-50.46,106.39-43,164.13-28.83,102.17,25,202.7,57.35,305.54,78.88,102.43,21.44,198-8.07,283.29-65.65C2066.93-6.53,2093-1,2117.52,47.88c74.71,148.74,152.06,296.14,228.72,443.89,34.86,67.17,29.63,74.71-31.17,123.49C2240.64,675,2171.32,741,2099.83,804.39c-56.84,50.36-71.44,47.14-127.3-3.42-142.88-129.34-288-256.23-432.75-383.49-15.09-13.26-33.55-22.83-50.9-33.38-83.76-50.91-82-48.7-157.89,14.78-88.16,73.77-166.85,163-283.71,194.45C949.57,619.66,853.08,559.78,852.62,460.33Z"/><path class="cls-1" d="M283.5,1052.49h0c-37.77-37-38.41-98.17-1.41-136L446.53,748.66c37-37.78,98.18-38.41,136-1.41h0c37.77,37,38.41,98.18,1.41,136L419.45,1051.08C382.45,1088.86,321.27,1089.49,283.5,1052.49Z"/><path class="cls-1" d="M496.3,1194.08l-5.36-5.25c-36.3-35.55-36.91-94.34-1.35-130.64L659.28,884.94c35.55-36.3,94.34-36.91,130.64-1.35l5.36,5.25c36.3,35.55,36.91,94.35,1.36,130.65L627,1192.73C591.39,1229,532.6,1229.64,496.3,1194.08Z"/><path class="cls-1" d="M704.71,1352.69l-5.36-5.25c-36.3-35.55-36.91-94.34-1.36-130.64l169.69-173.25c35.56-36.3,94.35-36.91,130.65-1.35l5.36,5.25c36.3,35.55,36.91,94.35,1.35,130.65L835.35,1351.34C799.8,1387.64,741,1388.25,704.71,1352.69Z"/><path class="cls-1" d="M920.8,1491.37l-5.36-5.25c-36.3-35.56-36.91-94.35-1.35-130.65l169.69-173.24c35.55-36.3,94.34-36.91,130.64-1.36l5.36,5.25c36.3,35.56,36.91,94.35,1.36,130.65L1051.45,1490C1015.89,1526.31,957.1,1526.92,920.8,1491.37Z"/></g></g></svg>