<?xml version="1.0" encoding="utf-8"?>
<!-- Generator: Adobe Illustrator 22.1.0, SVG Export Plug-In . SVG Version: 6.00 Build 0)  -->
<svg version="1.1" id="Layer_1" xmlns="http://www.w3.org/2000/svg" xmlns:xlink="http://www.w3.org/1999/xlink" x="0px" y="0px"
	 viewBox="0 0 2367.8 1517.6" style="enable-background:new 0 0 2367.8 1517.6;" xml:space="preserve">
<title>Vrstva 1</title>
<g id="Layer_2_1_">
	<g id="Vrstva_1">
		<path d="M1922.1,854.2c-145.8-167.2-319.5-301.9-494.4-436.6c-50.8,41.6-95.2,81.2-142.8,116.2c-49.5,36.3-100.3,71.7-153.9,101.5
			c-118.8,66.1-257.8,30.1-329.3-81.6c-36.7-57.4-29.2-124.9,19.8-172c35.2-33.7,71.3-66.7,106.7-100.3
			c75-71.2,148.8-143.9,225-213.8l23-21.1c4.1-3.8,14.4-10.7,10.1-16.3c-4-5.2-16.1-4.5-22.1-5.6c-11.5-2-22.9-4.1-34.4-5.4
			c-25.7-2.9-51.7-3-77.4-0.1c-49.6,5.8-99.4,11.1-148.8,18.5c-46.1,6.9-92.1,15.6-137,28.3c-146.2,41.5-282,45.1-416.3-35.5
			c-54.4-32.7-89.1-16.1-115.5,42.7C161.8,235.6,89,398.1,16.4,560.7c-9,20.2-14.7,41.9-16.4,46.8c-0.4,1.1,15.8,12.7,17.5,14
			l18.1,14.4c11.9,9.5,23.7,18.9,35.5,28.4l69.3,55.3c42.4,34.5,85.2,68.4,127.2,103.4c3.4,2.9,7.1,5.8,11.6,6.4
			c5.6,0.7,9.3-4.7,12.9-8.1c5.3-5.2,10.7-10.4,16-15.6c33.1-32.4,66.6-64.4,99.7-96.8l10-9.8l8.6-8.5
			c75.6-74.8,179.5-61.1,232.7,31.9c12.3,21.5,21.4,44.8,32.4,68.1c113.8-10.3,178.8,45.2,206.3,146.9
			c133.1-5.9,177.6,22.7,228.2,146.8c17,0,36-1,54.8,0.2c67,4,110.5,40.3,131.6,102.3c19.8,58.2,29.2,114.2-30,160.6
			c-53.2,41.7-102,89.1-162.4,142.6c103.7,49.4,162.3,28.1,213.7-55.2c9.7-15.7,28.6-39,40.9-37.6
			c102.2,11.7,156.6-36.3,174.2-131.5c179.7-0.5,191.5-7.4,242.1-139.3c67.6,5.8,140.4,16.1,176.7-61.7
			C2004.5,985.2,1976.4,916.4,1922.1,854.2z"/>
		<path d="M852.6,460.3c5.1-7.4,14.8-26.9,29.4-41.3c128.7-126.9,259.6-251.6,387.1-379.7c50.2-50.5,106.4-43,164.1-28.8
			c102.2,25,202.7,57.3,305.5,78.9c102.4,21.4,198-8.1,283.3-65.7c44.8-30.3,70.9-24.7,95.4,24.2
			c74.7,148.7,152.1,296.1,228.7,443.9c34.9,67.2,29.6,74.7-31.2,123.5c-74.4,59.7-143.8,125.7-215.2,189.1
			c-56.8,50.4-71.4,47.1-127.3-3.4c-142.9-129.3-288-256.2-432.8-383.5c-15.1-13.3-33.6-22.8-50.9-33.4
			c-83.8-50.9-82-48.7-157.9,14.8c-88.2,73.8-166.8,163-283.7,194.4C949.6,619.7,853.1,559.8,852.6,460.3z"/>
		<path d="M283.5,1052.5L283.5,1052.5c-37.8-37-38.4-98.2-1.4-136l164.4-167.8c37-37.8,98.2-38.4,136-1.4l0,0
			c37.8,37,38.4,98.2,1.4,136l-164.5,167.8C382.5,1088.9,321.3,1089.5,283.5,1052.5z"/>
		<path d="M496.3,1194.1l-5.4-5.3c-36.3-35.6-36.9-94.3-1.4-130.6l169.7-173.2c35.5-36.3,94.3-36.9,130.6-1.3l5.4,5.3
			c36.3,35.5,36.9,94.3,1.4,130.6L627,1192.7C591.4,1229,532.6,1229.6,496.3,1194.1z"/>
		<path d="M704.7,1352.7l-5.4-5.3c-36.3-35.6-36.9-94.3-1.4-130.6l169.7-173.3c35.6-36.3,94.3-36.9,130.7-1.3l5.4,5.3
			c36.3,35.6,36.9,94.3,1.3,130.7l-169.7,173.2C799.8,1387.6,741,1388.3,704.7,1352.7z"/>
		<path d="M920.8,1491.4l-5.4-5.3c-36.3-35.6-36.9-94.3-1.3-130.7l169.7-173.2c35.6-36.3,94.3-36.9,130.6-1.4l5.4,5.3
			c36.3,35.6,36.9,94.3,1.4,130.7L1051.4,1490C1015.9,1526.3,957.1,1526.9,920.8,1491.4z"/>
	</g>
</g>
</svg>
