<svg id="Layer_1" enable-background="new 0 0 512 512" height="512" viewBox="0 0 512 512" width="512" xmlns="http://www.w3.org/2000/svg"><g><circle cx="433.18" cy="424.176" r="10"/><path d="m175.01 228.986c19.298 0 34.999-15.702 34.999-35.002s-15.701-35.002-34.999-35.002-34.999 15.702-34.999 35.002 15.701 35.002 34.999 35.002zm0-50.002c8.271 0 15 6.729 15 15.001 0 8.271-6.729 15.001-15 15.001s-15-6.729-15-15.001 6.729-15.001 15-15.001z"/><path d="m314.006 193.984c0 19.3 15.701 35.002 34.999 35.002s34.999-15.702 34.999-35.002-15.701-35.002-34.999-35.002c-19.298.001-34.999 15.703-34.999 35.002zm49.998 0c0 8.271-6.728 15.001-15 15.001s-15-6.729-15-15.001c0-8.271 6.728-15.001 15-15.001s15 6.73 15 15.001z"/><path d="m192.185 105.94c1.118-5.408-2.359-10.7-7.768-11.818-5.409-1.117-10.699 2.36-11.818 7.768-1.328 6.421-6.192 12.645-13.696 17.523-10.485 6.816-24.61 9.855-35.149 7.564-5.398-1.175-10.723 2.25-11.896 7.647-1.174 5.397 2.25 10.724 7.646 11.897 3.8.826 7.789 1.229 11.872 1.229 12.998 0 26.914-4.083 38.426-11.567 12.016-7.811 19.965-18.551 22.383-30.243z"/><path d="m400.261 126.977c-10.535 2.291-24.662-.748-35.148-7.563-7.506-4.879-12.37-11.102-13.698-17.524-1.119-5.409-6.419-8.883-11.818-7.768-5.408 1.119-8.885 6.41-7.767 11.819 2.418 11.692 10.368 22.432 22.384 30.243 11.513 7.484 25.426 11.566 38.426 11.566 4.081 0 8.073-.402 11.872-1.229 5.396-1.173 8.82-6.5 7.646-11.897-1.174-5.398-6.503-8.823-11.897-7.647z"/><circle cx="50.014" cy="250.987" r="10"/><path d="m435.107 75.572c-46.209-44.341-109.091-69.572-173.099-69.572-66.172 0-131.061 27-177.648 74.047-36.36 36.717-60.423 84.53-68.913 135.228-3.412 3.264-6.42 7.059-8.873 11.367-6.609 11.606-8.304 25.091-4.771 37.972 2.234 8.146 6.395 15.43 12.084 21.358 6.667 54.271 31.174 105.887 69.643 145.106 46.66 47.572 111.87 74.922 178.477 74.922 25.949 0 51.508-3.96 76.007-11.771 23.699-7.56 46.109-18.611 66.588-32.862 2.19-1.52 3.66-3.81 4.13-6.44.471-2.63-.109-5.29-1.64-7.48-1.86-2.69-4.94-4.29-8.21-4.29-2.05 0-4.021.62-5.7 1.79-38.619 26.851-83.967 41.052-131.176 41.052-61.419 0-119.177-23.931-162.635-67.373-33.009-33.027-54.728-74.328-63.259-119.213 6.518 1.887 13.377 2.438 20.17 1.577l105.495 60.086c-7.96 9.357-14.383 19.816-19.019 31.126-2.095 5.111.349 10.952 5.459 13.047 1.242.509 2.526.75 3.79.75 3.937 0 7.67-2.341 9.256-6.209 15.643-38.159 56.129-63.797 100.745-63.797s85.102 25.638 100.744 63.797c2.097 5.11 7.933 7.557 13.046 5.459 5.11-2.095 7.555-7.936 5.46-13.047-9.122-22.251-25.11-41.249-46.236-54.94-21.471-13.915-46.718-21.27-73.013-21.27-5.416 0-10.787.317-16.089.939l-150.048-85.462c-4.291-9.895-11.675-18.158-21.108-23.531-11.536-6.571-24.606-8.018-36.586-5.092 9.681-41.121 30.581-78.868 61.194-109.497 43.459-43.442 101.217-67.373 162.635-67.373s119.176 23.931 162.625 67.373c43.438 43.452 67.358 101.216 67.368 162.638 0 45.742-13.4 89.924-38.729 127.786-1.489 2.22-2.019 4.88-1.5 7.5.521 2.62 2.03 4.88 4.25 6.37 1.65 1.11 3.57 1.69 5.55 1.69 3.351 0 6.461-1.66 8.32-4.44 27.549-41.141 42.109-89.183 42.109-138.905 0-67.54-28.142-133.637-76.893-180.416zm-370.24 149.746c6.347 3.615 11.148 9.415 13.518 16.33.789 2.304 2.393 4.241 4.51 5.447l8.304 4.73-4.949 8.69c-2.733 4.799-1.059 10.906 3.74 13.639 1.562.89 3.262 1.313 4.939 1.313 3.476 0 6.855-1.816 8.698-5.053l4.949-8.69 17.379 9.898-4.949 8.69c-2.733 4.799-1.058 10.906 3.741 13.639 1.562.89 3.262 1.313 4.939 1.313 3.476 0 6.855-1.816 8.698-5.053l4.949-8.69 17.379 9.898-4.949 8.69c-2.733 4.799-1.058 10.906 3.741 13.639 1.562.89 3.262 1.313 4.939 1.313 3.477 0 6.855-1.816 8.698-5.053l4.949-8.69 38.97 22.196c-14.884 5.168-28.574 12.901-40.538 22.945l-113.421-64.603c-1.518-.865-3.224-1.311-4.949-1.311-.68 0-1.363.069-2.037.209-7.157 1.489-14.594.318-20.941-3.296-6.963-3.966-11.965-10.406-14.084-18.135-2.12-7.728-1.103-15.819 2.863-22.783 8.186-14.373 26.54-19.408 40.914-11.222z"/></g></svg>