<svg id="Capa_1" enable-background="new 0 0 492.386 492.386" height="512" viewBox="0 0 492.386 492.386" width="512" xmlns="http://www.w3.org/2000/svg"><g id="XMLID_4_"><path id="XMLID_181_" d="m366.747 219.988c43.923 0 79.657-35.734 79.657-79.658s-35.734-79.658-79.657-79.658c-43.924 0-79.658 35.734-79.658 79.658s35.735 79.658 79.658 79.658zm-22.832-140.139c5.263 21.682 24.829 37.834 48.107 37.834v-15c-16.258 0-29.917-11.304-33.553-26.463 2.713-.349 5.472-.548 8.279-.548 35.652 0 64.657 29.005 64.657 64.658s-29.005 64.658-64.657 64.658-64.658-29.005-64.658-64.658c-.001-27.616 17.409-51.232 41.825-60.481z"/><path id="XMLID_187_" d="m366.747 27.729c-69.277 0-125.639 56.361-125.639 125.639v18.018c-9.952 1.1-19.357 4.763-27.552 10.767h-.001c-2.181 1.598-45.678 40.907-71.412 64.196l-4.862 4.4 30.088 43.823-7.133 137.589 80.872-102.331v9.187c0 69.277 56.361 125.639 125.639 125.639 29.26 0 57.75-10.279 80.223-28.942l-9.584-11.539c-19.785 16.432-44.872 25.481-70.639 25.481-42.506 0-79.483-24.098-98.006-59.346 60.361-3.71 115.657-35.482 152.307-62.401 24.95-18.325 44.422-36.496 56.338-48.48v59.588c0 15.496-3.137 30.476-9.324 44.529l-8.358 15.497c-3.021 4.668-6.424 9.147-10.118 13.316l11.227 9.948c4.265-4.813 8.188-9.99 11.661-15.388l8.932-16.513.255-.521c7.117-16.055 10.727-33.17 10.727-50.869v-185.649c-.002-69.277-56.363-125.638-125.641-125.638zm0 15c61.007 0 110.639 49.632 110.639 110.639v13.124c-1.002 5.211-13.918 59.886-113.983 91.517-22.719-4.96-42.207-13.407-58.321-25.25.159-2.22.198-4.456.098-6.697-1.159-26.06-19.712-47.585-44.193-53.443-3.583-10.401-4.666-17.974-4.873-19.634.207-60.831 49.755-110.256 110.633-110.256zm-69.229 214.752c1.653-2.867 3.048-5.867 4.182-8.962 9.638 6.436 20.881 12.296 33.975 17.073-15.292 3.592-32.221 6.671-50.965 9.069l13.291-16.818zm-140.447-4.409c26.423-23.902 62.437-56.399 65.459-58.898 7.566-5.508 16.545-8.317 25.911-8.137 22.418.437 40.759 18.311 41.755 40.69.446 10.062-2.676 19.979-8.792 27.927l-103.751 131.28 4.959-95.661zm255.097 62.749c-36.118 26.528-91.016 57.999-149.84 59.771-4.024-11.454-6.22-23.761-6.22-36.573v-28.167l15.482-19.591c41.996-4.368 79.002-12.297 110.215-23.67 29.696-10.82 54.327-24.773 73.209-41.471 9.782-8.651 17.013-17.158 22.371-24.887v56.455c-6.598 7.255-30.697 32.779-65.217 58.133z"/><path id="XMLID_193_" d="m133.028 217.869-34.501-29.829c-2.117-2.13-4.42-4.109-6.848-5.888-10.264-7.519-22.42-11.345-35.175-11.113-30.307.59-55.102 24.758-56.447 55.021-.604 13.565 3.602 26.945 11.843 37.685l20.799 28.114 12.059-8.92-20.839-28.172-.086-.114c-6.116-7.948-9.238-17.866-8.791-27.926.996-22.381 19.337-40.254 41.755-40.691 9.385-.188 18.429 2.658 26.02 8.217 1.861 1.364 3.624 2.888 5.238 4.529l24.913 21.572-18.004 25.683 37.004 48.795v61.675l-13.174 26.505-65.124-88.027-12.059 8.921 79.704 107.735 25.652-51.611v-70.241l-33.441-44.099z"/></g></svg>