<?xml version="1.0" encoding="iso-8859-1"?>
<!-- Generator: Adobe Illustrator 19.0.0, SVG Export Plug-In . SVG Version: 6.00 Build 0)  -->
<svg version="1.1" id="Capa_1" xmlns="http://www.w3.org/2000/svg" xmlns:xlink="http://www.w3.org/1999/xlink" x="0px" y="0px"
	 viewBox="0 0 512 512" style="enable-background:new 0 0 512 512;" xml:space="preserve">
<g>
	<g>
		<path d="M508.127,151.604c-8.086-37.41-28.714-69.765-56.596-88.766c-26.711-18.205-58.295-23.711-91.343-15.924
			c-35.058,8.26-70.076,30.823-104.189,67.112c-34.113-36.287-69.133-58.85-104.189-67.112
			c-33.046-7.787-64.632-2.282-91.343,15.923c-27.881,19.003-48.51,51.357-56.596,88.767c-8.477,39.22-2.933,81.242,15.609,118.327
			c5.275,10.548,11.238,21.007,17.724,31.087c2.253,3.501,6.917,4.511,10.416,2.259c3.5-2.252,4.512-6.915,2.26-10.415
			c-6.194-9.624-11.885-19.606-16.918-29.671C-5.172,186.921,21.317,107.761,68.957,75.292
			c23.123-15.758,50.578-20.499,79.397-13.708c33.932,7.996,68.264,31.082,102.046,68.615c2.949,3.277,8.254,3.277,11.203,0
			c33.781-37.533,68.114-60.619,102.046-68.615c28.82-6.792,56.274-2.052,79.397,13.708c47.64,32.468,74.128,111.629,35.994,187.898
			c-35.679,71.356-94.927,119.337-138.347,147.022c-40.669,25.931-75.462,39.417-84.686,42.78
			c-16.4-6.003-113.723-44.205-182.914-128.35c-2.644-3.214-7.392-3.679-10.608-1.034c-3.214,2.644-3.678,7.392-1.034,10.608
			c40.912,49.754,90.913,83.487,125.653,103.027c37.657,21.178,65.354,30.509,66.514,30.897c1.538,0.512,3.227,0.512,4.766,0
			c1.66-0.554,41.211-13.907,90.039-44.98c45.152-28.733,106.803-78.641,144.096-153.228
			C511.06,232.845,516.604,190.823,508.127,151.604z"/>
	</g>
</g>
<g>
	<g>
		<path d="M463.766,221.283l-24.638-24.638l21.545-21.545c9.206-9.207,9.206-24.188,0-33.394l-34.104-34.104
			c-9.207-9.206-24.187-9.207-33.394,0l-21.545,21.545l-21.545-21.545c-9.207-9.205-24.188-9.205-33.394,0l-34.104,34.104
			c-9.103,9.103-9.103,24.291,0,33.394l21.545,21.545l-24.638,24.638c-4.46,4.459-6.916,10.39-6.916,16.697
			c0,6.307,2.456,12.237,6.916,16.697l34.104,34.104c9.102,9.103,24.291,9.103,33.394,0l24.638-24.638l24.638,24.638
			c9.102,9.103,24.291,9.103,33.394,0l34.104-34.104C472.869,245.574,472.869,230.385,463.766,221.283z M403.833,118.26
			c3.33-3.331,8.749-3.33,12.079,0l34.104,34.104c3.33,3.33,3.33,8.749,0,12.079l-21.545,21.545l-46.183-46.184L403.833,118.26z
			 M336.336,278.122c-3.292,3.292-8.787,3.292-12.079,0l-34.104-34.104c-3.292-3.292-3.292-8.787,0-12.079l24.638-24.638
			l46.183,46.183L336.336,278.122z M453.109,244.019l-34.104,34.104c-3.312,3.272-8.771,3.308-12.079,0L293.246,164.443
			c-1.614-1.614-2.502-3.759-2.502-6.04c0-2.282,0.888-4.426,2.502-6.039l34.104-34.104c3.287-3.287,8.792-3.288,12.079,0
			l113.681,113.681C456.439,235.271,456.439,240.689,453.109,244.019z"/>
	</g>
</g>
<g>
	<g>
		<circle cx="426.569" cy="164.445" r="7.536"/>
	</g>
</g>
<g>
	<g>
		<circle cx="403.831" cy="141.706" r="7.536"/>
	</g>
</g>
<g>
	<g>
		<circle cx="336.338" cy="254.676" r="7.536"/>
	</g>
</g>
<g>
	<g>
		<circle cx="313.599" cy="231.938" r="7.536"/>
	</g>
</g>
<g>
	<g>
		<path d="M412.611,204.23l-45.472-45.472c-2.943-2.943-7.715-2.943-10.657,0l-22.736,22.736c-2.943,2.943-2.943,7.715,0,10.657
			l45.472,45.472c2.903,2.903,7.754,2.903,10.657,0l22.736-22.736C415.554,211.945,415.554,207.173,412.611,204.23z
			 M384.545,221.637l-34.814-34.814l12.079-12.079l34.815,34.814L384.545,221.637z"/>
	</g>
</g>
<g>
	<g>
		<circle cx="316.694" cy="164.445" r="7.536"/>
	</g>
</g>
<g>
	<g>
		<circle cx="339.433" cy="141.706" r="7.536"/>
	</g>
</g>
<g>
	<g>
		<circle cx="406.926" cy="254.676" r="7.536"/>
	</g>
</g>
<g>
	<g>
		<circle cx="429.664" cy="231.938" r="7.536"/>
	</g>
</g>
<g>
</g>
<g>
</g>
<g>
</g>
<g>
</g>
<g>
</g>
<g>
</g>
<g>
</g>
<g>
</g>
<g>
</g>
<g>
</g>
<g>
</g>
<g>
</g>
<g>
</g>
<g>
</g>
<g>
</g>
</svg>
