<svg id="Capa_1" enable-background="new 0 0 512 512" height="512" viewBox="0 0 512 512" width="512" xmlns="http://www.w3.org/2000/svg"><g><g><path d="m316.53 497h-194.519c1.974-3.808 3.097-8.126 3.097-12.703v-56.569c0-13.755-10.079-25.196-23.238-27.338v-17.69h24.5c4.142 0 7.5-3.358 7.5-7.5s-3.358-7.5-7.5-7.5h-32c-4.142 0-7.5 3.358-7.5 7.5v24.824h-11.689c-21.959 0-39.825 17.866-39.825 39.825v32.325c0 21.959 17.866 39.825 39.825 39.825h241.349c4.143 0 7.5-3.358 7.5-7.5s-3.357-7.499-7.5-7.499zm-219.13 0h-22.219c-13.688 0-24.825-11.137-24.825-24.825v-32.325c0-13.688 11.137-24.825 24.825-24.825h22.224c7.004 0 12.703 5.699 12.703 12.703v4.622h-8.663c-4.142 0-7.5 3.358-7.5 7.5s3.358 7.5 7.5 7.5h8.663v17.325h-8.663c-4.142 0-7.5 3.358-7.5 7.5s3.358 7.5 7.5 7.5h8.663v4.622c0 7.004-5.699 12.703-12.703 12.703z"/><path d="m256 270.865c-7.397 0-14.353 2.882-19.587 8.117-2.929 2.929-2.929 7.678 0 10.606 2.929 2.929 7.678 2.929 10.606 0 2.401-2.401 5.59-3.723 8.98-3.723s6.58 1.322 8.981 3.724c1.465 1.464 3.384 2.196 5.303 2.196s3.839-.732 5.304-2.197c2.929-2.929 2.929-7.678-.001-10.606-5.234-5.235-12.19-8.117-19.586-8.117z"/><path d="m278.648 408.105c-4.143 0-7.5 3.358-7.5 7.5v56.521c0 3.652 2.631 6.773 6.229 7.392.537.092.931.16 7.238.16 3.034 0 7.438-.016 13.883-.052 4.142-.023 7.481-3.4 7.458-7.542-.023-4.128-3.376-7.458-7.499-7.458-.015 0-.029 0-.043 0-3.744.021-8.435.04-12.267.046v-49.067c.001-4.142-3.356-7.5-7.499-7.5z"/><path d="m154.984 408.105c-4.142 0-7.5 3.358-7.5 7.5v56.569c0 4.142 3.358 7.5 7.5 7.5s7.5-3.358 7.5-7.5v-21.754h24.146v21.755c0 4.142 3.358 7.5 7.5 7.5s7.5-3.358 7.5-7.5v-56.569c0-4.142-3.358-7.5-7.5-7.5s-7.5 3.358-7.5 7.5v19.814h-24.146v-19.814c0-4.143-3.358-7.501-7.5-7.501z"/><path d="m249.08 423.622c4.142 0 7.5-3.358 7.5-7.5s-3.358-7.5-7.5-7.5h-23.618c-4.142 0-7.5 3.358-7.5 7.5v56.053c0 4.142 3.358 7.5 7.5 7.5h23.618c4.142 0 7.5-3.358 7.5-7.5s-3.358-7.5-7.5-7.5h-16.118v-13.026h14.376c4.142 0 7.5-3.358 7.5-7.5s-3.358-7.5-7.5-7.5h-14.376v-13.026h16.118z"/><path d="m369.301 431.569c0-12.938-10.666-23.464-23.776-23.464h-15.751c-4.038-.08-7.592 3.487-7.5 7.524v56.545c0 4.142 3.357 7.5 7.5 7.5s7.5-3.358 7.5-7.5v-17.113c3.051-.015 6.323-.029 8.251-.029 13.11.001 23.776-10.525 23.776-23.463zm-32.006-8.464h8.229c4.757 0 8.776 3.876 8.776 8.464s-4.02 8.464-8.776 8.464c-1.914 0-5.147.013-8.183.028-.015-3.144-.037-13.66-.046-16.956z"/><path d="m436.819 400.024h-11.689v-24.824c0-4.142-3.357-7.5-7.5-7.5h-113.724v-28.139c2.081.593 4.245.914 6.457.914 12.242 0 22.343-9.344 23.544-21.274 10.171-4.177 17.227-14.224 17.227-25.622 0-3.75-.753-7.421-2.202-10.826 8.921-14.757 14.149-31.338 15.328-48.548h2.859c20.846 0 37.805-16.959 37.805-37.805 0-14.493-8.201-27.1-20.203-33.442v-15.011c2.47 1.549 5.334 2.88 8.672 3.858.704.207 1.415.305 2.113.305 3.244 0 6.235-2.121 7.194-5.391 1.165-3.975-1.112-8.142-5.087-9.308-11.436-3.354-12.918-13.98-13.073-15.509-.598-11.401-2.693-22.411-6.08-32.844 2.628.706 5.432 1.127 8.394 1.127 1.145 0 2.314-.062 3.504-.195 4.117-.458 7.083-4.166 6.626-8.282-.457-4.117-4.166-7.087-8.282-6.626-11.972 1.32-21.434-11.093-21.607-11.325-.011-.015-.024-.028-.035-.043-22.381-38.087-63.781-63.714-111.06-63.714-27.447 0-52.911 8.641-73.826 23.336-.464.25-.91.549-1.327.906-.138.118-14.487 11.677-39.793 7.746-4.097-.638-7.927 2.167-8.563 6.259-.636 4.093 2.167 7.927 6.259 8.563 4.518.702 8.765 1.005 12.735 1.005 1.575 0 3.104-.049 4.591-.139-11.948 14.703-20.72 32.081-25.268 51.085l-.019-.005c-.244.934-2.664 9.155-12.486 10.32-4.113.488-7.052 4.218-6.564 8.331.452 3.813 3.691 6.617 7.438 6.617.294 0 .593-.017.893-.053 2.735-.324 5.178-.94 7.374-1.752-.108 2.153-.163 4.32-.163 6.499v34.239c-12.002 6.342-20.204 18.949-20.204 33.442 0 20.846 16.959 37.805 37.805 37.805h2.859c1.179 17.209 6.408 33.791 15.327 48.547-1.449 3.405-2.202 7.075-2.202 10.826 0 11.398 7.056 21.445 17.228 25.622 1.201 11.931 11.301 21.274 23.543 21.274 2.213 0 4.376-.322 6.457-.914v28.141h-46.724c-4.142 0-7.5 3.358-7.5 7.5s3.358 7.5 7.5 7.5h248.76v17.689c-13.159 2.142-23.237 13.583-23.237 27.338v56.569c0 4.577 1.123 8.895 3.097 12.703h-38.46c-4.143 0-7.5 3.358-7.5 7.5s3.357 7.5 7.5 7.5h85.289c21.96 0 39.825-17.866 39.825-39.825v-32.324c0-21.96-17.865-39.826-39.825-39.826zm-213.725-54.183c.857.094 1.724.146 2.601.146 2.678 0 5.29-.444 7.761-1.306 5.891 5.968 13.931 9.388 22.545 9.388s16.654-3.419 22.545-9.388c2.472.863 5.082 1.306 7.761 1.306.876 0 1.743-.053 2.601-.146v21.858h-65.812v-21.858zm144.024-126.636h-2.602v-45.609h2.602c12.574 0 22.805 10.23 22.805 22.805s-10.231 22.804-22.805 22.804zm-245.041-22.805c0-12.575 10.23-22.805 22.805-22.805h2.602v45.609h-2.602c-12.575.001-22.805-10.229-22.805-22.804zm79.559 129.075c-4.776 0-8.663-3.886-8.663-8.663 0-.587.059-1.174.175-1.745.414-2.031-.032-4.143-1.23-5.834-1.199-1.691-3.044-2.811-5.098-3.093-6.245-.858-10.955-6.259-10.955-12.562 0-2.502.731-4.926 2.115-7.009 1.667-2.512 1.669-5.778.004-8.291-10.141-15.308-15.501-33.142-15.501-51.573v-60.609c0-4.142-3.358-7.5-7.5-7.5h-10.102c-.875 0-1.741.041-2.602.1v-29.976c.002-62.706 51.016-113.72 113.721-113.72s113.72 51.014 113.72 113.719v29.976c-.861-.059-1.726-.1-2.602-.1h-10.102c-4.143 0-7.5 3.358-7.5 7.5v60.609c0 18.432-5.36 36.266-15.501 51.573-1.665 2.513-1.664 5.779.004 8.291 1.383 2.083 2.114 4.507 2.114 7.01 0 6.303-4.71 11.703-10.955 12.562-2.053.282-3.897 1.401-5.097 3.092-1.198 1.69-1.645 3.801-1.231 5.833.116.574.176 1.162.176 1.748 0 4.776-3.887 8.663-8.663 8.663-1.875 0-3.669-.604-5.188-1.747-1.766-1.328-4.027-1.81-6.18-1.319-2.154.492-3.981 1.909-4.995 3.872-1.498 2.903-4.447 4.707-7.695 4.707-2.389 0-4.157-.963-5.222-1.771-1.677-1.274-3.811-1.783-5.883-1.407-2.071.378-3.889 1.609-5.008 3.393-3.09 4.926-8.396 7.867-14.193 7.867s-11.104-2.941-14.194-7.867c-1.119-1.784-2.937-3.015-5.008-3.393-2.073-.379-4.207.133-5.883 1.407-1.063.808-2.832 1.771-5.22 1.771-3.249 0-6.197-1.803-7.695-4.707-1.013-1.963-2.84-3.38-4.995-3.872-2.152-.492-4.415-.01-6.18 1.319-1.519 1.142-3.313 1.746-5.188 1.746zm260.008 146.7c0 13.688-11.137 24.825-24.825 24.825h-22.22-.004c-7.005 0-12.703-5.699-12.703-12.703v-4.622h8.662c4.143 0 7.5-3.358 7.5-7.5s-3.357-7.5-7.5-7.5h-8.662v-17.325h8.662c4.143 0 7.5-3.358 7.5-7.5s-3.357-7.5-7.5-7.5h-8.662v-4.622c0-7.004 5.698-12.703 12.703-12.703h22.224c13.688 0 24.825 11.137 24.825 24.825z"/><path d="m219.969 265.916c1.849-.933 3.229-2.59 3.814-4.577 2.081-7.065 8.683-11.999 16.056-11.999 4.127 0 8.09 1.512 11.158 4.258 2.848 2.549 7.156 2.549 10.004 0 3.068-2.746 7.03-4.258 11.158-4.258 7.372 0 13.975 4.934 16.056 11.999.585 1.987 1.966 3.644 3.814 4.577 1.85.933 4.001 1.06 5.948.351 4.088-1.49 8.26.174 10.365 3.633 1.329 2.185 3.682 3.542 6.238 3.599.057.001.112.002.169.002 2.494 0 4.83-1.241 6.225-3.318 8.658-12.89 13.234-27.922 13.234-43.472v-9.81c0-4.142-3.357-7.5-7.5-7.5s-7.5 3.358-7.5 7.5v9.81c0 9.53-2.127 18.819-6.208 27.292-3.854-2.287-8.385-3.47-13.063-3.26-5.509-9.911-16.138-16.403-27.778-16.403-5.734 0-11.303 1.542-16.16 4.417-4.857-2.875-10.426-4.417-16.16-4.417-11.641 0-22.27 6.492-27.779 16.403-4.673-.208-9.208.972-13.063 3.26-4.081-8.474-6.208-17.762-6.208-27.292v-59.6c0-7.156 4.972-10.581 9.819-12.22-.311 18.369 12.1 31.036 12.728 31.663 1.955 1.956 4.829 2.677 7.476 1.875 2.647-.801 4.639-2.994 5.182-5.706 2.929-14.627 12.247-22.849 19.691-27.207 1.594 17.058 13.661 28.59 14.295 29.186 2.068 1.94 5.056 2.545 7.718 1.568 2.662-.979 4.544-3.375 4.864-6.193 1.77-15.576 8.544-26.62 20.135-32.825 4.925-2.637 9.785-3.876 13.192-4.458l11.32 25.885v13.221c0 4.142 3.357 7.5 7.5 7.5s7.5-3.358 7.5-7.5v-14.79c0-1.034-.214-2.058-.629-3.005l-14.14-32.33c-1.193-2.73-3.891-4.495-6.871-4.495-.487 0-12.069.073-24.284 6.396-8.444 4.371-18.431 12.378-24.263 26.876-1.456-4.276-2.124-9.353-.747-14.864.636-2.545-.104-5.237-1.952-7.1s-4.536-2.625-7.084-2.008c-1.144.276-23.571 5.946-35.27 27.37-1.435-4.465-2.032-9.918-.237-15.906.681-2.271.248-4.729-1.167-6.631s-3.646-3.022-6.017-3.022c-.821 0-8.245.09-15.939 3.199-11.492 4.643-17.82 13.707-17.82 25.521v59.6c0 15.55 4.576 30.582 13.234 43.472 1.427 2.124 3.862 3.396 6.394 3.316 2.558-.057 4.909-1.414 6.239-3.599 2.104-3.458 6.273-5.123 10.365-3.632 1.947.708 4.099.581 5.948-.352z"/></g></g></svg>