<?xml version="1.0" standalone="no"?>
<!DOCTYPE svg PUBLIC "-//W3C//DTD SVG 20010904//EN"
 "http://www.w3.org/TR/2001/REC-SVG-20010904/DTD/svg10.dtd">
<svg version="1.0" xmlns="http://www.w3.org/2000/svg"
 width="1106.000000pt" height="1280.000000pt" viewBox="0 0 1106.000000 1280.000000"
 preserveAspectRatio="xMidYMid meet">
<g transform="translate(0.000000,1280.000000) scale(0.100000,-0.100000)"
fill="#000000" stroke="none">
<path d="M5409 12080 c-197 -23 -352 -99 -511 -248 -114 -107 -180 -198 -264
-364 -132 -262 -179 -322 -302 -387 -81 -44 -158 -122 -267 -273 -229 -317
-268 -361 -383 -440 -85 -57 -105 -88 -77 -118 10 -11 26 -22 37 -26 16 -5 -3
-19 -84 -63 -386 -212 -571 -447 -694 -883 -13 -49 -52 -144 -86 -211 -33 -67
-84 -182 -113 -257 -94 -241 -110 -267 -271 -430 -187 -189 -242 -259 -313
-405 -81 -164 -119 -303 -161 -593 -11 -75 -27 -160 -35 -189 -14 -48 -20 -54
-73 -83 -53 -28 -63 -38 -99 -108 -120 -227 -177 -382 -150 -409 4 -3 -3 -23
-14 -44 -17 -34 -24 -39 -55 -39 -20 0 -76 -13 -126 -30 -49 -16 -101 -30
-116 -30 -62 -1 -187 -82 -218 -142 -39 -75 13 -226 96 -283 35 -24 49 -42 62
-81 9 -27 23 -50 30 -52 8 -2 35 -46 59 -100 42 -93 43 -99 41 -185 -8 -240
-12 -261 -92 -428 -40 -85 -89 -181 -109 -213 -33 -55 -36 -66 -35 -130 1 -86
27 -188 59 -238 52 -78 167 -113 243 -74 17 9 55 46 84 81 28 36 53 65 54 65
1 0 -2 -17 -8 -37 -22 -80 15 -182 81 -227 42 -28 139 -50 181 -41 50 11 168
74 189 101 24 31 53 105 88 231 16 54 30 88 34 81 4 -7 14 -40 23 -73 41 -161
229 -206 384 -92 80 59 109 87 121 116 12 27 16 28 99 35 120 9 160 22 203 64
41 42 59 103 59 202 0 33 5 91 12 130 16 91 6 118 -52 148 -24 12 -56 22 -71
22 -25 0 -26 2 -19 43 4 23 13 62 20 87 9 29 14 105 14 212 l1 166 65 5 c36 3
74 8 86 12 20 6 21 4 16 -102 -3 -77 -10 -118 -23 -144 -12 -25 -20 -71 -25
-151 -7 -123 1 -167 40 -223 19 -27 21 -41 18 -140 -3 -90 -7 -114 -23 -130
-32 -35 -49 -102 -49 -194 0 -113 21 -185 67 -229 34 -32 35 -35 39 -121 3
-86 3 -90 -22 -106 -54 -35 -64 -68 -64 -213 0 -95 4 -141 14 -160 16 -31 61
-74 92 -90 19 -10 23 -24 29 -98 l7 -86 -31 -32 c-62 -64 -83 -162 -57 -276 9
-40 23 -85 31 -100 13 -26 53 -64 75 -72 5 -2 14 -43 20 -93 20 -165 63 -255
124 -255 34 0 83 36 88 65 6 28 -6 153 -21 240 -8 43 -7 53 9 70 11 11 26 36
34 55 15 34 15 31 16 -85 0 -114 5 -149 51 -357 12 -55 11 -64 -19 -170 -21
-73 -58 -164 -105 -257 l-72 -144 3 -226 c4 -258 -4 -310 -76 -502 -22 -57
-45 -122 -52 -144 -7 -22 -31 -83 -53 -135 -49 -115 -59 -208 -33 -306 24 -93
117 -272 166 -319 38 -37 45 -40 98 -40 41 1 69 7 95 22 l37 22 36 -21 c40
-23 137 -28 175 -7 18 9 29 7 61 -11 74 -42 199 -36 232 11 13 19 14 19 24
-10 13 -37 57 -61 127 -68 66 -7 115 15 153 68 32 46 55 49 72 10 40 -98 153
-122 364 -76 90 19 137 51 167 112 23 45 24 59 26 248 1 170 -2 208 -17 252
-25 72 -80 151 -173 249 -56 60 -94 111 -133 184 l-54 101 21 137 c38 259 40
282 28 371 -10 75 -9 95 11 190 44 215 48 224 153 399 129 217 169 300 197
412 27 111 68 177 183 298 98 104 128 152 167 271 45 139 52 198 51 418 l-2
202 37 108 c51 153 50 151 82 120 14 -14 77 -94 141 -178 72 -95 133 -165 160
-184 24 -16 65 -50 90 -75 25 -25 73 -69 107 -98 33 -29 67 -63 74 -77 12 -23
9 -28 -54 -96 -74 -80 -135 -191 -163 -299 -46 -175 2 -415 117 -579 33 -47
44 -74 55 -137 8 -44 14 -97 15 -119 0 -60 -28 -309 -58 -505 -35 -230 -37
-412 -5 -515 33 -104 61 -138 145 -179 116 -57 205 -68 535 -67 l282 1 103
-117 c120 -136 204 -198 328 -244 112 -41 212 -58 338 -59 89 0 108 -3 134
-21 68 -49 230 -74 361 -58 91 11 150 34 207 79 27 21 49 30 76 30 59 0 112
36 150 100 18 30 33 63 34 73 0 20 -22 65 -52 106 -10 13 -25 49 -34 81 -23
83 -58 119 -200 204 -110 66 -359 258 -619 477 -33 27 -136 104 -230 169 -93
66 -191 139 -216 163 -72 67 -145 185 -163 267 -22 96 -20 120 15 186 17 33
51 104 74 159 24 55 57 133 74 173 43 99 69 204 81 332 7 77 17 123 35 162 55
119 65 191 65 446 0 215 2 241 22 304 18 56 26 68 43 68 60 0 76 82 51 256 -8
60 -19 147 -22 193 -7 80 -6 84 12 76 27 -11 134 -35 162 -35 15 0 26 8 32 26
13 33 13 147 0 213 -6 34 -6 59 1 74 7 17 4 40 -15 97 -14 41 -23 76 -22 78 6
6 96 -38 159 -77 71 -46 79 -48 97 -26 17 20 2 36 -127 137 -156 122 -172 178
-122 413 22 102 22 108 6 153 -10 26 -17 56 -17 68 0 24 -42 93 -97 156 l-41
46 10 54 c29 153 -41 438 -154 625 -18 30 -69 103 -114 162 -48 63 -134 204
-213 345 l-133 237 26 106 c22 91 33 117 82 189 60 90 124 210 124 233 0 21
27 -6 137 -134 87 -101 247 -254 266 -255 5 0 42 -71 84 -157 41 -87 100 -196
131 -243 64 -96 218 -253 390 -398 118 -98 158 -145 213 -247 l32 -60 -60 -85
c-63 -88 -94 -160 -96 -221 -2 -41 42 -106 138 -207 l60 -64 -3 -116 c-3 -87
0 -129 12 -161 9 -28 12 -51 6 -61 -5 -9 -16 -54 -25 -99 -10 -46 -27 -100
-39 -120 -18 -31 -21 -52 -21 -146 0 -84 4 -118 17 -143 15 -29 15 -36 2 -68
-24 -57 -41 -385 -24 -471 7 -37 12 -79 11 -93 -16 -272 -14 -540 4 -594 10
-27 11 -46 4 -65 -19 -48 -37 -404 -30 -571 1 -25 -1 -104 -5 -176 -5 -119 -4
-136 14 -178 56 -126 210 -110 267 29 13 30 16 67 15 164 -2 70 2 144 8 166
16 57 15 191 -3 259 -12 46 -13 71 -5 124 6 37 11 94 10 127 -1 33 3 80 9 105
13 59 13 183 -1 240 -6 25 -9 121 -8 220 2 96 3 220 4 276 l1 101 40 -4 c30
-3 52 2 87 21 l47 25 7 -37 c12 -73 24 -110 45 -136 37 -47 69 -56 192 -57
183 -2 223 30 252 201 30 178 41 197 72 123 13 -33 13 -37 -8 -59 -37 -40 -36
-102 6 -239 42 -138 64 -179 108 -202 44 -22 98 -19 193 11 95 31 138 69 164
145 l17 50 48 -50 c27 -28 62 -57 78 -66 77 -39 199 4 242 87 19 38 38 186 34
271 -4 63 -9 83 -32 118 -16 24 -39 71 -52 105 -13 33 -44 108 -70 165 -43 94
-48 114 -56 210 -11 147 -11 213 1 206 5 -3 32 4 61 16 28 12 58 22 66 22 19
0 28 26 38 102 7 64 27 105 71 145 39 36 74 117 74 171 0 58 -38 114 -105 155
-26 16 -63 43 -84 60 -65 56 -183 123 -238 135 -45 10 -54 16 -60 38 -12 50
-62 151 -112 226 -39 58 -49 80 -42 93 16 31 23 106 11 136 -6 16 -30 52 -53
80 -74 90 -200 231 -220 245 -22 16 -85 19 -137 8 l-35 -8 -47 83 c-26 46 -72
144 -101 218 -167 417 -321 629 -567 775 -181 108 -243 172 -352 360 -108 186
-166 279 -238 375 -43 58 -92 133 -109 167 -63 127 -225 340 -320 422 -122
105 -237 172 -450 262 -109 46 -244 119 -256 138 -3 5 19 3 47 -5 80 -21 155
-18 213 10 108 51 108 87 -1 151 -119 70 -196 152 -448 478 -70 91 -120 135
-216 190 -46 27 -60 43 -90 100 -19 37 -60 96 -91 132 -30 35 -75 99 -99 142
-106 191 -227 337 -355 428 -119 85 -294 118 -496 95z m-1901 -4262 c-17 -29
-49 -84 -70 -123 -20 -38 -38 -65 -38 -58 0 25 54 180 83 238 l30 60 14 -32
c12 -30 11 -36 -19 -85z m-248 -604 c-17 -101 -12 -226 15 -366 7 -36 6 -37
-32 -48 -62 -19 -103 -59 -118 -116 -8 -27 -14 -39 -14 -27 -1 23 -48 67 -98
91 -18 9 -33 23 -33 31 1 25 39 94 131 241 47 74 101 163 119 197 19 34 35 61
37 59 1 -1 -2 -29 -7 -62z m5387 -1076 c-2 -13 -4 -3 -4 22 0 25 2 35 4 23 2
-13 2 -33 0 -45z m-5424 -18 c10 -33 17 -63 17 -67 0 -5 -22 -9 -49 -10 l-50
-3 20 58 c10 31 21 63 24 70 9 26 22 10 38 -48z m5417 -269 c-7 -28 -16 -51
-21 -51 -4 0 -6 6 -4 13 2 6 9 32 15 56 6 23 14 41 17 38 3 -3 0 -29 -7 -56z
m-5453 -123 c-2 -13 -4 -5 -4 17 -1 22 1 32 4 23 2 -10 2 -28 0 -40z m143 -93
c0 -23 -3 -27 -10 -15 -5 8 -10 29 -10 45 0 23 3 27 10 15 5 -8 10 -28 10 -45z
m5310 -59 c0 -47 2 -44 -62 -62 -15 -5 -18 2 -18 45 0 49 1 50 33 54 17 2 35
5 40 5 4 1 7 -18 7 -42z m-5410 -144 c0 -78 -1 -82 -19 -73 -11 6 -30 7 -49 2
-29 -9 -30 -7 -34 22 -2 18 -2 55 0 82 l4 50 49 0 49 0 0 -83z m189 -367 c39
-155 64 -219 119 -304 38 -59 150 -326 202 -484 12 -37 34 -121 49 -187 l28
-119 -63 -41 c-152 -98 -262 -277 -294 -476 -13 -78 -20 -94 -20 -41 0 51 -19
136 -40 178 -10 19 -36 48 -58 63 -45 31 -52 47 -52 131 0 57 2 62 35 88 60
48 67 73 63 221 -4 148 -15 181 -73 219 l-35 22 0 91 c0 80 2 93 21 110 12 10
32 42 45 69 20 41 24 66 24 145 0 111 -11 158 -47 201 -25 30 -27 37 -29 154
-2 100 1 126 12 136 25 20 44 66 45 106 1 26 7 7 19 -57 9 -52 32 -153 49
-225z m5181 238 c0 -44 -11 -73 -27 -73 -10 0 -13 6 -9 16 3 9 6 31 6 50 0 24
5 34 15 34 10 0 15 -10 15 -27z m1340 -194 c0 -6 -4 -7 -10 -4 -5 3 -10 11
-10 16 0 6 5 7 10 4 6 -3 10 -11 10 -16z m-1330 -86 c0 -16 3 -45 6 -65 l7
-38 -37 0 -36 0 0 59 c0 63 -2 60 53 70 4 0 7 -11 7 -26z m-5368 -205 c5 -112
3 -133 -12 -130 -37 9 -72 3 -90 -13 -20 -18 -20 -17 -20 71 l0 90 41 -4 c22
-3 46 1 52 7 19 19 27 12 29 -21z m5366 -151 c3 -52 1 -58 -15 -55 -14 3 -19
15 -21 61 -3 52 -1 58 15 55 14 -3 19 -15 21 -61z m12 -310 l0 -64 -30 5 c-29
4 -30 6 -30 57 0 51 1 54 28 58 15 2 28 5 30 6 1 0 2 -27 2 -62z m-5356 -208
c3 -17 6 -58 6 -91 0 -55 -1 -58 -19 -48 -28 15 -67 12 -81 -5 -7 -8 -16 -15
-20 -15 -10 0 -21 129 -14 157 5 19 10 20 31 12 18 -6 32 -5 51 5 38 20 39 19
46 -15z m5342 -65 c-3 -9 -6 -36 -6 -60 0 -38 -3 -44 -21 -44 -19 0 -21 4 -15
38 3 20 6 47 6 60 0 16 6 22 21 22 15 0 19 -4 15 -16z m4 -359 l0 -65 -30 0
-30 0 0 65 0 65 30 0 30 0 0 -65z m-5290 -298 c13 -80 10 -98 -13 -79 -21 18
-60 21 -88 6 l-26 -13 -9 78 -9 78 40 -4 c26 -3 47 1 60 11 11 8 23 12 26 8 3
-4 12 -42 19 -85z m5277 30 c-3 -8 -8 -43 -12 -80 -4 -36 -13 -74 -21 -84 -12
-16 -13 -5 -14 80 l0 97 26 0 c18 0 24 -4 21 -13z"/>
</g>
</svg>
