<?xml version="1.0" encoding="utf-8"?>
<!-- Generator: Adobe Illustrator 23.0.0, SVG Export Plug-In . SVG Version: 6.00 Build 0)  -->
<svg version="1.1" id="Layer_1" xmlns="http://www.w3.org/2000/svg" xmlns:xlink="http://www.w3.org/1999/xlink" x="0px" y="0px"
	 viewBox="0 0 512 512" style="enable-background:new 0 0 512 512;" xml:space="preserve">
<title>imbueMind</title>
<path d="M241.1,54.4c-2.3,0-4.6,0-6.9,0.1c-1.8,0-3.6,0.1-5.4,0.2c-8.8,1.6-12.9,5.4-15.1,9.8c-2.4,4.9-2.3,11.4,0.4,17.3
	c2.7,6.1,8.1,10.7,14.7,12.4c7,1.8,16.5,0.9,29.1-7.2l10.1,15.8c-15.8,10.1-31.1,12.8-43.8,9.5c-11.9-3.1-21.8-11.4-27-22.6
	c-4.6-9.8-5.4-21.4-1-31.6c-42.9,6.9-81.8,23.4-111.6,46.6c-9.8,10.7-10.8,23.1-6.5,31.6c4.8,9.5,16.2,16.5,39,9.3l5.7,17.8
	c-28.6,9-52.1-0.6-61.3-18.6c-2.2-4.4-3.6-9.2-4.1-14.1c-4.8,5.6-9.1,11.6-13,17.8l0.1,0.1c-8.6,19.6-8.8,33.2-5.4,42
	c3.4,8.8,10.6,14.4,21.7,17.5c22.2,6.2,58.1-1.3,83.3-20.2c10.8-8.1,21.1-27.7,22-42.9c0.4-7.6-1.2-13.6-4.3-17.4s-8.3-6.7-18.8-6.6
	l-0.2-18.7c14.5-0.2,26.3,4.8,33.4,13.3c7.1,8.6,9.3,19.7,8.6,30.5c-1.3,21.6-12.6,44.2-29.4,56.8c-29.9,22.3-69.3,31.6-99.5,23.2
	c-14-3.9-26.4-12.4-32.8-25.5c-9.5,45.4,4.3,87.7,30.7,116.9c3.4,3.8,7.1,7.4,11,10.8c-2.7-7.7-4-15.9-3.7-24.1
	c0.5-14.3,6.1-28.3,17.2-38c9.1-7.9,21.8-12.5,36.8-12.5c1,0,2,0,3.1,0.1c2.3,0.1,4.8,0.3,7.2,0.6l-2.4,18.5
	c-15.6-2-25.7,1.5-32.4,7.4c-6.7,5.9-10.4,14.6-10.8,24.6c-0.7,20,12.1,43.4,39.7,50.2l0,0.2c27.2,5.2,57.5,0.4,88-18.2
	c0,0,0,0,0.1,0c6.3-4.5,9.8-8.8,11.4-12.6c1.9-3.9,2.1-8.4,0.5-12.4c-2.8-8.3-12.9-16.8-22.2-19.2c-15-3.8-24.5,1.4-29,7.7
	c-4.5,6.3-4.7,12.5,2.2,17.8L158.7,333c-14.2-11-15.1-30.5-5.9-43.4c6.9-9.7,19-16.3,33.6-16.8c0.6,0,1.2,0,1.8,0
	c4.5,0.1,9,0.7,13.4,1.8c15.5,4,29.8,15.3,35.3,31.3c1.5,4.3,2.1,8.8,1.9,13.3c16.8-8.7,34.3-16,52.3-21.8
	c30.2-13.8,43.2-37.9,42.7-58.3c-0.5-20.5-13.2-37.7-42.4-40.6l1.8-18.6c36.7,3.6,58.5,29.8,59.2,58.8c0.4,16.8-5.8,34.4-18.2,49.3
	c15.8-1.9,31.9-1.4,47.5,1.6c-3.1-6.3-4.7-13.4-4.5-20.4c0.7-22,19.4-42.6,48.9-42.9c2,0,4,0.1,6,0.2l-1.5,18.6
	c-24.9-2-34.3,11.1-34.7,24.7c-0.4,13.4,8.5,28.4,34.2,30.4c28.3,0.3,48.6-15.1,58.5-37.9c13.3-30.5,7-76.3-34.8-118.2
	c-0.8-0.8-1.6-1.6-2.4-2.4c-0.4,3.7-1.4,7.4-2.8,10.8c-7.3,17.4-24.2,29.1-41.9,32.4c-24.3,4.5-44.3-5.3-53.5-20.4
	c-9.2-15.1-6.8-36.4,9.8-47.6l10.5,15.5c-8.9,6-9.3,14.2-4.3,22.3c5,8.1,16.2,15.2,34.2,11.8c11.3-2.1,23.9-11.3,28-21.3
	c2.2-4.9,2.4-10.5,0.4-15.5c-1.7-4.6-5.2-9.8-11.7-15.3l-0.2-0.2C394,94.8,365,79.6,334.2,69.3c0,0,0,0.1,0.1,0.1
	c6.3,11.8,7.5,25.7,3.1,38.3c-8.2,24.5-34.1,43.8-66,42.8c-6.9-0.2-13.6,3.1-19.2,9.7c-5.6,6.5-9.7,16.1-10.7,26.3
	c-1.9,20.4,6.9,42.9,41.3,54l-5.8,17.8c-41.1-13.3-56.8-45.5-54.2-73.5c1.1-13.5,6.4-26.4,15.2-36.8c8.5-9.8,20.5-16.6,34-16.2
	c24,0.8,42.3-14.1,47.7-30.1c2.7-8,2.3-15.9-1.8-23.4c-4-7.3-11.8-14.4-25.9-19.7C275.1,55.8,258.1,54.4,241.1,54.4L241.1,54.4z
	 M342.3,306.3c-41.9,3.4-87.4,23.4-125.3,46.6c-56,34.2-114.9,26.7-156.7-4.3c16.4,58.8,74.7,70.8,135.5,55.9
	c6.6-2.6,12.4-6.8,17.2-12c7.1-7.6,12.2-17.5,13.8-25.6l18.3,3.6c-2.4,12.4-9.1,24.7-18.4,34.7c-8.9,9.6-20.6,17.4-34.1,19.4
	c-6.8,15.1-12.3,29.7-14.6,39.9c-3.6,16.1,14.2,22.2,22.2,6c19-38.7,45.9-73.2,79.4-103C305.6,350.4,328,329.3,342.3,306.3
	L342.3,306.3z"/>
</svg>
