<svg height="512pt" viewBox="-4 0 512 512.066" width="512pt" xmlns="http://www.w3.org/2000/svg"><path d="m48.03125 87.914062c-17.644531 0-32-14.351562-32-32 0-17.648437 14.355469-32 32-32 17.648438 0 32 14.351563 32 32 0 17.648438-14.351562 32-32 32zm0-48c-8.820312 0-16 7.175782-16 16 0 8.824219 7.179688 16 16 16 8.824219 0 16-7.175781 16-16 0-8.824218-7.175781-16-16-16zm0 0"/><path d="m48.03125 111.914062c-17.644531 0-32-14.351562-32-32 0-4.425781 3.578125-8 8-8 4.425781 0 8 3.574219 8 8 0 8.824219 7.179688 16 16 16 8.824219 0 16-7.175781 16-16 0-4.425781 3.578125-8 8-8 4.425781 0 8 3.574219 8 8 0 17.648438-14.351562 32-32 32zm0 0"/><path d="m24.03125 87.914062c-4.421875 0-8-3.574218-8-8v-24c0-4.425781 3.578125-8 8-8 4.425781 0 8 3.574219 8 8v24c0 4.425782-3.574219 8-8 8zm0 0"/><path d="m72.03125 87.914062c-4.421875 0-8-3.574218-8-8v-24c0-4.425781 3.578125-8 8-8 4.425781 0 8 3.574219 8 8v24c0 4.425782-3.574219 8-8 8zm0 0"/><path d="m464.03125 351.914062c-17.644531 0-32-14.351562-32-32 0-17.648437 14.355469-32 32-32 17.648438 0 32 14.351563 32 32 0 17.648438-14.351562 32-32 32zm0-48c-8.820312 0-16 7.175782-16 16 0 8.824219 7.179688 16 16 16 8.824219 0 16-7.175781 16-16 0-8.824218-7.175781-16-16-16zm0 0"/><path d="m464.03125 375.914062c-17.644531 0-32-14.351562-32-32 0-4.425781 3.578125-8 8-8 4.425781 0 8 3.574219 8 8 0 8.824219 7.179688 16 16 16 8.824219 0 16-7.175781 16-16 0-4.425781 3.578125-8 8-8 4.425781 0 8 3.574219 8 8 0 17.648438-14.351562 32-32 32zm0 0"/><path d="m440.03125 351.914062c-4.421875 0-8-3.574218-8-8v-24c0-4.425781 3.578125-8 8-8 4.425781 0 8 3.574219 8 8v24c0 4.425782-3.574219 8-8 8zm0 0"/><path d="m488.03125 351.914062c-4.421875 0-8-3.574218-8-8v-24c0-4.425781 3.578125-8 8-8 4.425781 0 8 3.574219 8 8v24c0 4.425782-3.574219 8-8 8zm0 0"/><path d="m424.050781 255.929688c-13.234375 0-24-10.769532-24-24 0-13.230469 10.765625-24 24-24 13.230469 0 24 10.769531 24 24 0 13.230468-10.769531 24-24 24zm0-32c-4.417969 0-8 3.585937-8 8 0 4.417968 3.582031 8 8 8 4.414063 0 8-3.582032 8-8 0-4.414063-3.585937-8-8-8zm0 0"/><path d="m24.03125 239.921875c-13.230469 0-24-10.769531-24-24s10.769531-24 24-24c13.234375 0 24 10.769531 24 24s-10.765625 24-24 24zm0-32c-4.414062 0-8 3.585937-8 8 0 4.417969 3.585938 8 8 8 4.417969 0 8-3.582031 8-8 0-4.414063-3.582031-8-8-8zm0 0"/><path d="m456.425781 129.050781c-2.046875 0-4.097656-.785156-5.65625-2.34375l-73.535156-73.546875c-3.128906-3.125-3.128906-8.183594 0-11.308594l39.589844-39.601562c3-3 8.3125-3 11.3125 0l73.542969 73.535156c1.503906 1.503906 2.34375 3.527344 2.34375 5.65625s-.839844 4.160156-2.34375 5.65625l-39.605469 39.601563c-1.554688 1.566406-3.601563 2.351562-5.648438 2.351562zm-62.226562-81.542969 62.21875 62.222657 28.296875-28.289063-62.234375-62.222656zm0 0"/><path d="m439.457031 84.480469c-5.34375 0-10.359375-2.078125-14.144531-5.855469-7.800781-7.800781-7.800781-20.488281 0-28.277344 7.558594-7.5625 20.71875-7.5625 28.28125 0 7.800781 7.796875 7.800781 20.488282 0 28.277344-3.777344 3.777344-8.792969 5.855469-14.136719 5.855469zm0-24c-.617187 0-1.808593.152343-2.832031 1.167969-1.550781 1.5625-1.550781 4.097656 0 5.65625 1.023438 1.023437 2.207031 1.167968 2.832031 1.167968s1.808594-.152344 2.832031-1.167968c1.550782-1.558594 1.550782-4.09375 0-5.65625-1.03125-1.023438-2.214843-1.167969-2.832031-1.167969zm0 0"/><path d="m47.640625 383.898438c-2.046875 0-4.09375-.785157-5.65625-2.34375l-39.589844-39.59375c-1.503906-1.503907-2.3437498-3.527344-2.3437498-5.65625 0-2.125.8398438-4.160157 2.3437498-5.65625l73.542969-73.535157c3.128906-3.128906 8.183594-3.128906 11.3125 0l39.589844 39.59375c1.503906 1.503907 2.34375 3.527344 2.34375 5.65625 0 2.125-.839844 4.160157-2.34375 5.65625l-73.542969 73.535157c-1.558594 1.566406-3.609375 2.34375-5.65625 2.34375zm-28.28125-47.59375 28.28125 28.28125 62.230469-62.222657-28.277344-28.28125zm0 0"/><path d="m64.617188 339.328125c-5.34375 0-10.367188-2.078125-14.144532-5.839844-7.792968-7.8125-7.792968-20.496093-.015625-28.285156 7.574219-7.5625 20.753907-7.546875 28.296875-.015625 7.792969 7.816406 7.792969 20.496094.015625 28.285156-3.785156 3.777344-8.808593 5.855469-14.152343 5.855469zm0-23.988281c-.625 0-1.824219.148437-2.839844 1.167968-1.542969 1.542969-1.542969 4.101563.015625 5.664063 1.007812 1.007813 2.199219 1.15625 2.832031 1.15625s1.824219-.148437 2.839844-1.167969c1.542968-1.542968 1.542968-4.101562-.015625-5.664062-1.007813-1.007813-2.207031-1.15625-2.832031-1.15625zm0 0"/><path d="m72.03125 448.089844c-4.421875 0-8-3.574219-8-8 0-39.710938 32.304688-72.015625 72.019531-72.015625 4.421875 0 8 3.574219 8 8 0 4.421875-3.578125 8-8 8-30.890625 0-56.019531 25.128906-56.019531 56.015625 0 4.417968-3.574219 8-8 8zm0 0"/><path d="m424.03125 448.082031c-4.421875 0-8-3.574219-8-8 0-30.871093-25.125-56-56-56-4.421875 0-8-3.574219-8-8s3.578125-8 8-8c39.707031 0 72 32.296875 72 72 0 4.414063-3.574219 8-8 8zm0 0"/><path d="m136.050781 384.074219c-4.417969 0-8-3.578125-8-8 0-4.417969 3.574219-8 8-8l55.980469-.007813c4.417969 0 8 3.574219 8 8 0 4.414063-3.574219 8-8 8zm0 0"/><path d="m72.050781 504.066406c-4.417969 0-8-3.578125-8-8l-.019531-55.976562c0-4.414063 3.578125-8 8-8 4.417969 0 8 3.574218 8 8l.019531 55.976562c0 4.414063-3.578125 8-8 8zm0 0"/><path d="m80.050781 512.066406c-8.824219 0-16-7.175781-16-16 0-4.425781 3.574219-8 8-8 4.421875 0 8 3.574219 8 8v.015625c4.421875 0 8 3.566407 8 7.992188 0 4.414062-3.578125 7.992187-8 7.992187zm0 0"/><path d="m416.03125 512.066406c-4.421875 0-8-3.578125-8-8 0-4.425781 3.578125-8 8-8h.019531c0-4.425781 3.566407-8 7.988281-8 4.417969 0 7.992188 3.574219 7.992188 8 0 8.816406-7.175781 16-16 16zm0 0"/><path d="m424.03125 504.066406c-4.421875 0-8-3.578125-8-8v-55.984375c0-4.425781 3.578125-8 8-8 4.425781 0 8 3.574219 8 8v55.984375c0 4.421875-3.574219 8-8 8zm0 0"/><path d="m416.03125 512.066406h-335.980469c-4.425781 0-8-3.578125-8-8 0-4.425781 3.574219-8 8-8h335.980469c4.425781 0 8 3.574219 8 8 0 4.421875-3.574219 8-8 8zm0 0"/><path d="m192.03125 384.066406c-4.421875 0-8-3.578125-8-8v-45.839844c0-4.425781 3.578125-8 8-8 4.425781 0 8 3.574219 8 8v45.832032c0 4.429687-3.574219 8.007812-8 8.007812zm0 0"/><path d="m304.03125 384.082031c-4.421875 0-8-3.574219-8-8v-45.855469c0-4.425781 3.578125-8 8-8 4.425781 0 8 3.574219 8 8v45.847657c0 4.421875-3.574219 8.007812-8 8.007812zm0 0"/><path d="m248.03125 352.074219c-70.574219 0-128-57.425781-128-128 0-4.425781 3.578125-8 8-8 4.425781 0 8 3.574219 8 8 0 61.761719 50.242188 112 112 112 61.761719 0 112-50.238281 112-112 0-4.425781 3.578125-8 8-8 4.425781 0 8 3.574219 8 8 0 70.574219-57.421875 128-128 128zm0 0"/><path d="m128.03125 232.074219c-4.421875 0-8-3.578125-8-8v-40.601563c0-4.421875 3.578125-8 8-8 4.425781 0 8 3.578125 8 8v40.601563c0 4.414062-3.574219 8-8 8zm0 0"/><path d="m368.03125 232.074219c-4.421875 0-8-3.578125-8-8v-40.609375c0-4.421875 3.578125-8 8-8 4.425781 0 8 3.578125 8 8v40.609375c0 4.414062-3.574219 8-8 8zm0 0"/><path d="m360.03125 384.082031h-56c-4.421875 0-8-3.574219-8-8s3.578125-8 8-8h56c4.425781 0 8 3.574219 8 8s-3.574219 8-8 8zm0 0"/><path d="m248.03125 200.066406c-7.511719 0-184-.457031-184-40 0-9.25 7.074219-22.640625 68.167969-32.191406 4.371093-.65625 8.464843 2.3125 9.144531 6.671875.679688 4.367187-2.304688 8.457031-6.671875 9.144531-38.328125 5.984375-51.640625 13.359375-54.328125 16.414063 6.953125 8.953125 66.425781 23.96875 167.6875 23.96875 101.265625 0 160.738281-15.015625 167.691406-23.96875-2.691406-3.054688-16-10.429688-54.328125-16.414063-4.371093-.6875-7.355469-4.777344-6.671875-9.144531.6875-4.359375 4.804688-7.335937 9.140625-6.671875 61.105469 9.550781 68.167969 22.941406 68.167969 32.191406 0 39.542969-176.484375 40-184 40zm0 0"/><path d="m128.039062 168.066406c-.574218 0-1.15625-.0625-1.742187-.183594-4.3125-.960937-7.03125-5.234374-6.078125-9.542968l32.03125-144.035156c.96875-4.3125 5.253906-6.984376 9.542969-6.078126 4.3125.960938 7.03125 5.230469 6.078125 9.542969l-32.03125 144.023438c-.832032 3.730469-4.136719 6.273437-7.800782 6.273437zm0 0"/><path d="m368.023438 168.066406c-3.664063 0-6.964844-2.527344-7.804688-6.265625l-32.027344-144.023437c-.957031-4.3125 1.761719-8.589844 6.074219-9.550782 4.296875-.914062 8.574219 1.757813 9.542969 6.078126l32.03125 144.023437c.953125 4.3125-1.765625 8.585937-6.078125 9.546875-.578125.128906-1.160157.191406-1.738281.191406zm0 0"/><path d="m248.03125 48.058594c-15.886719 0-25.351562-5.367188-34.503906-10.5625-11.109375-6.300782-23.703125-13.453125-53.460938-13.453125-4.425781 0-8-3.578125-8-8 0-4.425781 3.574219-8 8-8 33.984375 0 49.167969 8.613281 61.359375 15.527343 8.671875 4.925782 14.941407 8.488282 26.605469 8.488282s17.921875-3.550782 26.578125-8.480469c12.191406-6.921875 27.367187-15.535156 61.390625-15.535156 4.425781 0 8 3.574219 8 8 0 4.421875-3.574219 8-8 8-29.800781 0-42.382812 7.152343-53.488281 13.453125-9.132813 5.195312-18.589844 10.5625-34.480469 10.5625zm0 0"/><path d="m368.03125 168.066406h-240c-4.421875 0-8-3.578125-8-8 0-4.425781 3.578125-8 8-8h240c4.425781 0 8 3.574219 8 8 0 4.421875-3.574219 8-8 8zm0 0"/><path d="m360.921875 136.066406h-225.761719c-4.421875 0-8-3.578125-8-8 0-4.425781 3.578125-8 8-8h225.769532c4.421874 0 8 3.574219 8 8 0 4.421875-3.585938 8-8.007813 8zm0 0"/><path d="m216.152344 400.035156c-1.511719 0-3.046875-.433594-4.40625-1.328125l-24.128906-15.96875c-3.6875-2.441406-4.695313-7.410156-2.257813-11.089843 2.441406-3.6875 7.394531-4.703126 11.089844-2.253907l24.128906 15.96875c3.6875 2.4375 4.695313 7.40625 2.253906 11.085938-1.542969 2.328125-4.085937 3.585937-6.679687 3.585937zm0 0"/><path d="m216.152344 400.035156c-3.566406 0-6.832032-2.410156-7.75-6.03125-1.089844-4.28125 1.503906-8.632812 5.789062-9.730468l32-8.128907c4.265625-1.054687 8.632813 1.503907 9.730469 5.792969 1.085937 4.28125-1.503906 8.632812-5.792969 9.726562l-32 8.128907c-.664062.160156-1.320312.242187-1.976562.242187zm0 0"/><path d="m280.167969 400.035156c-.65625 0-1.3125-.082031-1.976563-.242187l-32-8.128907c-4.277344-1.09375-6.871094-5.445312-5.789062-9.726562 1.085937-4.289062 5.445312-6.847656 9.726562-5.792969l32 8.128907c4.28125 1.097656 6.871094 5.449218 5.792969 9.730468-.929687 3.621094-4.183594 6.03125-7.753906 6.03125zm0 0"/><path d="m280.167969 400.035156c-2.582031 0-5.117188-1.25-6.65625-3.554687-2.460938-3.671875-1.472657-8.636719 2.203125-11.09375l23.871094-15.953125c3.6875-2.472656 8.640624-1.472656 11.09375 2.199218 2.464843 3.671876 1.472656 8.640626-2.199219 11.097657l-23.871094 15.953125c-1.375.910156-2.921875 1.351562-4.441406 1.351562zm0 0"/><path d="m144.066406 512.066406c-4.425781 0-8-3.578125-8-8v-127.992187c0-4.425781 3.574219-8 8-8 4.421875 0 8 3.574219 8 8v127.992187c0 4.421875-3.578125 8-8 8zm0 0"/><path d="m168.175781 512.066406c-4.421875 0-8-3.578125-8-8v-127.992187c0-4.425781 3.578125-8 8-8 4.425781 0 8 3.574219 8 8v127.992187c0 4.421875-3.582031 8-8 8zm0 0"/><path d="m328.175781 512.066406c-4.421875 0-8-3.578125-8-8v-127.992187c0-4.425781 3.578125-8 8-8 4.425781 0 8 3.574219 8 8v127.992187c0 4.421875-3.582031 8-8 8zm0 0"/><path d="m352.097656 512.066406c-4.425781 0-8-3.578125-8-8v-127.992187c0-4.425781 3.574219-8 8-8 4.421875 0 8 3.574219 8 8v127.992187c0 4.421875-3.578125 8-8 8zm0 0"/><path d="m248.273438 432.050781c-4.425782 0-8.039063-3.578125-8.039063-8 0-4.425781 3.535156-8 7.949219-8h.089844c4.414062 0 8 3.574219 8 8 0 4.421875-3.585938 8-8 8zm0 0"/><path d="m248.273438 480.058594c-4.425782 0-8.039063-3.578125-8.039063-8 0-4.425782 3.535156-8 7.949219-8h.089844c4.414062 0 8 3.574218 8 8 0 4.421875-3.585938 8-8 8zm0 0"/></svg>