<?xml version="1.0"?>
<svg xmlns="http://www.w3.org/2000/svg" id="Outline" viewBox="0 0 512 512" width="512" height="512"><path d="M471.982,417.008Q472,416.5,472,416a32.036,32.036,0,0,0-32-32V236l28.8-21.6a8,8,0,0,0-.08-12.859L400,151.322V64a8,8,0,0,0,8-8V24a8,8,0,0,0-8-8H320a8,8,0,0,0-8,8V56a8,8,0,0,0,8,8V92.861l-59.28-43.32a8,8,0,0,0-9.44,0l-208,152A8,8,0,0,0,43.2,214.4L72,236V384a32.036,32.036,0,0,0-32,32q0,.5.018,1.008A32,32,0,0,0,48,480H464a32,32,0,0,0,7.982-62.992ZM328,32h64V48H328Zm8,72V64h48v75.63L335.243,104ZM256,65.908,450.555,208.084l-18.628,13.971L260.706,97.53a8,8,0,0,0-9.412,0L80.073,222.055,61.445,208.084ZM32,448a16.019,16.019,0,0,1,15.76-16l.019,0c.409.057.818.106,1.235.133a8,8,0,0,0,8.023-10.716A15.727,15.727,0,0,1,56,416a16.019,16.019,0,0,1,16-16v64H48A16.019,16.019,0,0,1,32,448Zm344,16H280V288h96Zm16,0V280a8,8,0,0,0-8-8H272a8,8,0,0,0-8,8V464H88V236.074L256,113.892,424,236.074V464Zm72,0H440V400a16.019,16.019,0,0,1,16,16,15.727,15.727,0,0,1-1.037,5.421,8,8,0,0,0,8.023,10.716c.417-.027.826-.076,1.235-.133l.019,0a16,16,0,0,1-.24,32Z"/><path d="M224,272H128a8,8,0,0,0-8,8V392a8,8,0,0,0,8,8h96a8,8,0,0,0,8-8V280A8,8,0,0,0,224,272Zm-8,56H184V288h32Zm-48-40v40H136V288Zm-32,56h32v40H136Zm48,40V344h32v40Z"/><circle cx="304" cy="368" r="8" transform="translate(-152.323 508.032) rotate(-67.5)"/></svg>
