<?xml version="1.0" encoding="iso-8859-1"?>
<!-- Generator: Adobe Illustrator 18.0.0, SVG Export Plug-In . SVG Version: 6.00 Build 0)  -->
<!DOCTYPE svg PUBLIC "-//W3C//DTD SVG 1.1//EN" "http://www.w3.org/Graphics/SVG/1.1/DTD/svg11.dtd">
<svg version="1.1" id="Capa_1" xmlns="http://www.w3.org/2000/svg" xmlns:xlink="http://www.w3.org/1999/xlink" x="0px" y="0px"
	 viewBox="0 0 490.364 490.364" style="enable-background:new 0 0 490.364 490.364;" xml:space="preserve">
<g>
	<path d="M100.491,93.716h78.824c2.01,0,3.879-1.03,4.946-2.729c1.054-1.693,1.182-3.815,0.319-5.627L145.155,3.304
		C144.18,1.285,142.137,0,139.902,0c-2.233,0-4.276,1.285-5.251,3.304L95.223,85.359c-0.861,1.812-0.733,3.935,0.32,5.627
		C96.614,92.686,98.481,93.716,100.491,93.716z"/>
	<path d="M311.019,93.716h78.839c2.012,0,3.879-1.03,4.933-2.729c1.069-1.693,1.196-3.815,0.317-5.627L355.682,3.304
		c-0.974-2.027-3.016-3.312-5.252-3.304c-2.235,0-4.278,1.285-5.252,3.304l-39.41,82.055c-0.861,1.812-0.734,3.935,0.318,5.635
		C307.155,92.686,309.024,93.716,311.019,93.716z"/>
	<path d="M451.215,466.636l-26.225-166.328c-1.564-9.984-10.17-17.335-20.273-17.335h-14.621V109.805
		c0-4.022-3.255-7.278-7.278-7.278h-64.76c-4.022,0-7.278,3.256-7.278,7.278v67.648h-9.1v-16.92c0-1.444-0.574-2.826-1.596-3.847
		c-1.021-1.022-2.409-1.597-3.847-1.597l-16.44-0.008c-3.002,0-5.445,2.435-5.445,5.443v16.928h-15.514v-16.92
		c0-3.009-2.442-5.443-5.443-5.443h-16.441c-3.001,0-5.441,2.435-5.441,5.443v16.92h-15.516v-16.92c0-3.009-2.443-5.443-5.443-5.443
		h-16.426c-3.003,0-5.443,2.435-5.443,5.443v16.92h-9.115v-67.648c0-4.022-3.257-7.278-7.278-7.278h-64.775
		c-4.022,0-7.28,3.256-7.28,7.278v173.168H85.646c-10.103,0-18.708,7.351-20.271,17.335L39.149,466.636
		c-0.928,5.929,0.782,11.971,4.676,16.537c3.894,4.565,9.609,7.191,15.611,7.191h133.142v-67.313
		c0-29.06,23.561-52.612,52.612-52.612c29.051,0,52.611,23.553,52.611,52.612v67.313h133.127c6.002,0,11.717-2.626,15.611-7.191
		C450.434,478.607,452.142,472.565,451.215,466.636z M125.28,136.542c0-8.085,6.545-14.638,14.639-14.638
		c8.075,0,14.637,6.553,14.637,14.638v15.899c0,1.565-1.268,2.833-2.834,2.833h-23.607c-1.565,0-2.834-1.269-2.834-2.833V136.542z
		 M190.201,307.351c0,3.366-2.729,6.094-6.094,6.094h-41.286c-3.365,0-6.094-2.728-6.094-6.094v-28.112
		c0-14.765,11.971-26.737,26.736-26.737c14.766,0,26.737,11.972,26.737,26.737V307.351z M271.928,307.351
		c0,3.366-2.728,6.094-6.094,6.094h-41.287c-3.365,0-6.094-2.728-6.094-6.094v-28.114c0-14.765,11.973-26.737,26.736-26.737
		c14.768,0,26.738,11.972,26.738,26.737V307.351z M353.654,307.351c0,3.366-2.729,6.094-6.094,6.094h-41.286
		c-3.365,0-6.094-2.728-6.094-6.094v-28.112c0-14.766,11.972-26.738,26.737-26.738c14.766,0,26.736,11.972,26.736,26.738V307.351z
		 M365.084,152.441c0,1.565-1.269,2.834-2.833,2.834h-23.625c-1.564,0-2.833-1.269-2.833-2.834v-15.906
		c0-8.094,6.561-14.647,14.654-14.647c8.076,0,14.637,6.553,14.637,14.647V152.441z"/>
</g>
<g>
</g>
<g>
</g>
<g>
</g>
<g>
</g>
<g>
</g>
<g>
</g>
<g>
</g>
<g>
</g>
<g>
</g>
<g>
</g>
<g>
</g>
<g>
</g>
<g>
</g>
<g>
</g>
<g>
</g>
</svg>
