<?xml version="1.0"?>
<svg xmlns="http://www.w3.org/2000/svg" version="1" width="26" height="26" viewBox="0 0 26 26">
    <path d="M 0 0 L 0 23 L 7 26 L 13 23 L 20 26 L 26 23 L 26 0 L 20 3 L 13 0 L 7 3 L 0 0 z M 13.09375 2.1875 L 20.09375 5.1875 L 24 3.1875 L 24 21.6875 L 19.90625 23.6875 L 13.8125 21.09375 L 12.90625 20.6875 L 12.09375 21.09375 L 6.90625 23.6875 L 2 21.6875 L 2 3 L 7.09375 5.1875 L 13.09375 2.1875 z M 13 6 C 11 6 9 7.3 9 10 L 11.3125 10 C 11.3125 8.4 12 8 13 8 C 13.8 8 14.40625 8.50625 14.40625 9.40625 C 14.40625 10.90625 11.90625 11.1 11.90625 14 L 14 14 C 14 11.7 17 12.1125 17 9.3125 C 17 7.3125 15.4 6 13 6 z M 13 16 C 12.3 16 11.6875 16.6125 11.6875 17.3125 C 11.6875 18.0125 12.3 18.59375 13 18.59375 C 13.7 18.59375 14.3125 18.0125 14.3125 17.3125 C 14.3125 16.6125 13.7 16 13 16 z"/>
</svg>
