<?xml version="1.0" encoding="utf-8"?>
<!-- Generator: Adobe Illustrator 22.1.0, SVG Export Plug-In . SVG Version: 6.00 Build 0)  -->
<svg version="1.1" xmlns="http://www.w3.org/2000/svg" xmlns:xlink="http://www.w3.org/1999/xlink" x="0px" y="0px"
	 viewBox="0 0 299.9 299.9" style="enable-background:new 0 0 299.9 299.9;" xml:space="preserve">
<g id="Layer_2">
</g>
<g id="Layer_1">
	<g>
		<ellipse cx="149.4" cy="272.7" rx="85.9" ry="27.2"/>
		<g>
			<g>
				<g>
					<path d="M209.1,146.8c20.7,0,37.6-16.6,37.6-36.9c0-10.8-4.6-21-12.4-27.8c1.6-4.8,2.4-9.6,2.4-14.3
						c0-26.2-21.2-47.4-47.3-47.4c-4.3,0-8.6,0.8-11.6,1.6c-7.1-7.2-15.1-15.2-27.9-15.2c-11.7,0-23.9,6.8-32.2,13.7
						c-0.6-0.1-1.2-0.1-1.9-0.1c-26.2,0-47.4,21.3-47.4,47.4c0,4.9,0.7,9.7,2.2,14.3c-8.1,7-12.8,17.1-12.8,27.9
						c0,20.7,15.6,36.9,35.5,36.9c7.3,0,14-2.2,19.7-6.2v92.7c0,11.6-9.4,21.1-21.1,21.1c-2.9,0-5.3,2.4-5.3,5.3
						c0,2.9,2.4,5.3,5.3,5.3c17.4,0,31.6-14.2,31.6-31.6V127.4c0-2.4-1.6-4.4-3.8-5.1c-2.2-0.6-4.7,0.3-5.9,2.3
						c-4.6,7.5-11.9,11.7-20.5,11.7c-14.2,0-25-11.3-25-26.3c0-8.7,4.3-16.8,11.5-21.7c2-1.4,2.8-4.1,1.9-6.4
						c-1.9-4.5-2.8-9.2-2.8-14.1c0-20.3,16.6-36.9,36.9-36.9c0.5,0,1,0.1,1.5,0.1c0.5,0.1,1.1,0.1,1.6,0.2c1.5,0.2,2.9-0.4,4-1.3
						c7-6.3,18.1-12.6,27-12.6c8.7,0,14.3,5.8,20.9,12.5l1.7,1.7c1.4,1.4,3.4,1.9,5.3,1.3c4-1.2,8.5-2,11.7-2
						c20.3,0,36.8,16.6,36.8,36.9c0,4.5-1,9.3-3,14.1c-0.9,2.3-0.2,4.9,1.9,6.4c7.1,4.9,11.1,12.8,11.1,21.7
						c0,14.3-12.4,26.3-27,26.3c-9.4,0-19-4.8-23.3-11.7c-1.2-2-3.7-2.9-5.9-2.3c-2.3,0.6-3.8,2.7-3.8,5.1v106
						c0,17.4,14.2,31.6,31.6,31.6c2.9,0,5.3-2.4,5.3-5.3c0-2.9-2.3-5.3-5.3-5.3c-11.6,0-21.1-9.4-21.1-21.1V140
						C193.1,144.3,201.1,146.8,209.1,146.8z"/>
					<path d="M160.3,138.5c-2.9,0-5.3,2.4-5.3,5.3v84.3c0,2.9,2.4,5.3,5.3,5.3c2.9,0,5.3-2.4,5.3-5.3v-84.3
						C165.6,140.9,163.2,138.5,160.3,138.5z"/>
					<path d="M89.3,67.8c0,2.9,2.4,5.3,5.3,5.3c2.9,0,5.3-2.4,5.3-5.3c0-8.7,7.1-15.8,15.8-15.8c2.9,0,5.3-2.4,5.3-5.3
						s-2.4-5.3-5.3-5.3C101.1,41.5,89.3,53.3,89.3,67.8z"/>
					<path d="M226.3,110c0-2.9-2.4-5.3-5.3-5.3c-2.9,0-5.3,2.4-5.3,5.3c0,2.9-2.4,5.3-5.3,5.3c-2.9,0-5.3,2.4-5.3,5.3
						s2.3,5.3,5.3,5.3C219.2,125.8,226.3,118.7,226.3,110z"/>
				</g>
			</g>
		</g>
	</g>
</g>
</svg>
