<?xml version="1.0" encoding="utf-8"?>
<!-- Generator: Adobe Illustrator 22.1.0, SVG Export Plug-In . SVG Version: 6.00 Build 0)  -->
<svg version="1.1" id="Layer_1" xmlns="http://www.w3.org/2000/svg" xmlns:xlink="http://www.w3.org/1999/xlink" x="0px" y="0px"
	 viewBox="0 0 100 100" style="enable-background:new 0 0 100 100;" xml:space="preserve">
<g>
	<polygon points="19.3,39.5 0,13.2 0,100 48,100 17,60.4 	"/>
	<path d="M32.4,13.8l4.2-4.2c0.9-0.9,2.5-0.9,3.5,0l1.7,1.8c-2.8,2-5.5,4.6-7.6,7.6l-1.8-1.8C31.4,16.4,31.3,14.8,32.4,13.8
		L32.4,13.8z M57.1,25.5l40.1,40.1c0.9,0.9,0.9,2.5,0,3.5l-5.1,5.1c-0.9,0.9-2.5,0.9-3.5,0l-40.3-40L57.1,25.5L57.1,25.5z"/>
	<path d="M39.9,17C51.4,5.4,66.4-0.2,80,0.6c-9.5,4.2-19.2,10.6-28.3,18.7l3.7,3.7l-9.4,9.4l-3.7-3.7c-8.1,9-14.5,18.8-18.7,28.3
		C22.8,43.5,28.3,28.5,39.9,17L39.9,17z"/>
	<polygon points="55.3,59.8 41.6,59.4 36.8,74 56.6,80.2 	"/>
	<polygon points="24.8,60.3 29.9,68.9 33.5,59.1 	"/>
	<polygon points="60.4,83.6 46.5,87.7 57.6,95.4 	"/>
</g>
</svg>
