<?xml version="1.0" encoding="iso-8859-1"?>
<!-- Generator: Adobe Illustrator 16.0.0, SVG Export Plug-In . SVG Version: 6.00 Build 0)  -->
<!DOCTYPE svg PUBLIC "-//W3C//DTD SVG 1.1//EN" "http://www.w3.org/Graphics/SVG/1.1/DTD/svg11.dtd">
<svg version="1.1" id="Capa_1" xmlns="http://www.w3.org/2000/svg" xmlns:xlink="http://www.w3.org/1999/xlink" x="0px" y="0px"
	 width="376.516px" height="376.516px" viewBox="0 0 376.516 376.516" style="enable-background:new 0 0 376.516 376.516;"
	 xml:space="preserve">
<g>
	<g>
		<path d="M343.657,237.412c-21.188,1.306-49.053,22.476-75.93,34.648c-32.939,14.916-84.217,2.924-84.222,2.924
			c7.91-3.713,40.057-11.369,46.526-14.209c34.411-15.146,31.495-46.689,15.106-46.422c-21.652,0.346-34.362,5.659-77.566,11.551
			c-32.746,4.451-71.476,2.824-90.052,9.916c-26.224,10.017-68.458,77.41-68.458,77.41l65.3,63.285c0,0,40.43-39.817,60.099-39.817
			c44.823,0,46.633-0.599,88.255-2.864c17.699-0.946,21.393-1.673,31.521-5.087c53.951-18.24,111.881-66.818,112.945-72.647
			C369.647,242.55,354.844,236.736,343.657,237.412z"/>
		<path d="M123.206,100.449l10.432,1.844c0.097,0.015,0.19,0.013,0.286,0.023c0.427,6.312,1.559,12.443,3.349,18.279
			c-0.129,0.056-0.253,0.097-0.373,0.18l-9.178,5.289c-1.571,0.914-2.717,2.406-3.188,4.151c-0.467,1.763-0.221,3.632,0.688,5.19
			l12.26,21.245c1.268,2.193,3.57,3.433,5.932,3.433c1.157,0,2.335-0.295,3.414-0.932l9.176-5.29
			c0.213-0.117,0.405-0.273,0.59-0.425c4.251,4.438,8.98,8.375,14.12,11.771c-0.118,0.219-0.244,0.454-0.338,0.709l-3.622,9.967
			c-0.625,1.701-0.539,3.585,0.224,5.228c0.77,1.644,2.156,2.903,3.863,3.539l23.048,8.392c0.777,0.276,1.562,0.405,2.343,0.405
			c2.795,0,5.416-1.72,6.423-4.504l3.623-9.956c0.104-0.277,0.165-0.558,0.229-0.837c3.006,0.33,6.061,0.525,9.152,0.525
			c3.1,0,6.15-0.195,9.155-0.526c0.065,0.279,0.126,0.559,0.226,0.836l3.623,9.958c0.624,1.711,1.895,3.098,3.539,3.868
			c0.916,0.415,1.898,0.634,2.895,0.634c0.787,0,1.584-0.143,2.336-0.402l23.051-8.393c3.553-1.299,5.381-5.216,4.092-8.767
			l-3.625-9.967c-0.098-0.255-0.215-0.49-0.338-0.71c5.135-3.396,9.869-7.335,14.115-11.772c0.197,0.152,0.375,0.309,0.592,0.426
			l9.178,5.291c1.049,0.622,2.229,0.931,3.422,0.931c0.592,0,1.191-0.09,1.77-0.236c1.746-0.477,3.248-1.619,4.15-3.196
			l12.266-21.245c1.887-3.273,0.768-7.449-2.504-9.34l-9.176-5.29c-0.123-0.083-0.252-0.125-0.367-0.181
			c1.777-5.835,2.912-11.967,3.338-18.278c0.094-0.012,0.189-0.009,0.289-0.024l10.434-1.843c1.789-0.313,3.379-1.326,4.42-2.807
			c1.037-1.479,1.443-3.32,1.133-5.116l-4.266-24.147c-0.312-1.797-1.324-3.388-2.809-4.413c-1.49-1.043-3.324-1.46-5.113-1.148
			l-10.414,1.84c-2.48-5.813-5.633-11.282-9.332-16.333l6.742-8.022c1.17-1.388,1.734-3.191,1.574-4.988
			c-0.16-1.814-1.025-3.481-2.422-4.644l-18.785-15.772c-1.393-1.161-3.186-1.732-4.996-1.579c-1.807,0.167-3.479,1.033-4.645,2.421
			l-6.602,7.876c-5.605-2.857-11.578-5.073-17.836-6.563V6.839c0-3.766-3.061-6.839-6.836-6.839h-24.529
			c-3.781,0-6.846,3.074-6.846,6.839v10.216c-6.25,1.489-12.225,3.706-17.832,6.563l-6.608-7.875
			c-1.165-1.388-2.835-2.254-4.643-2.421c-1.804-0.153-3.603,0.418-4.989,1.579l-18.795,15.772c-2.893,2.428-3.272,6.73-0.842,9.631
			l6.738,8.021c-3.702,5.051-6.844,10.521-9.332,16.333l-10.412-1.839c-1.78-0.312-3.624,0.104-5.106,1.147
			c-1.488,1.025-2.5,2.616-2.815,4.413l-4.255,24.147C117.001,96.253,119.487,99.802,123.206,100.449z M161.928,97.36
			c0-29.639,24.104-53.738,53.731-53.738c29.631,0,53.738,24.1,53.738,53.738c0,29.637-24.107,53.736-53.738,53.736
			C186.031,151.095,161.928,126.996,161.928,97.36z"/>
	</g>
</g>
<g>
</g>
<g>
</g>
<g>
</g>
<g>
</g>
<g>
</g>
<g>
</g>
<g>
</g>
<g>
</g>
<g>
</g>
<g>
</g>
<g>
</g>
<g>
</g>
<g>
</g>
<g>
</g>
<g>
</g>
</svg>
