<?xml version="1.0" encoding="utf-8"?>
<!-- Generator: Adobe Illustrator 22.1.0, SVG Export Plug-In . SVG Version: 6.00 Build 0)  -->
<svg version="1.1" id="Capa_1" xmlns="http://www.w3.org/2000/svg" xmlns:xlink="http://www.w3.org/1999/xlink" x="0px" y="0px"
	 viewBox="0 0 358.4 363.4" style="enable-background:new 0 0 358.4 363.4;" xml:space="preserve">
<title>chronomancy</title>
<path d="M334.6,224.3c-21.2,1.3-49.1,22.5-75.9,34.6c-32.9,14.9-84.2,2.9-84.2,2.9c7.9-3.7,40.1-11.4,46.5-14.2
	c34.4-15.1,31.5-46.7,15.1-46.4c-21.7,0.3-34.4,5.7-77.6,11.6c-32.7,4.5-71.5,2.8-90.1,9.9C42.2,232.8,0,300.2,0,300.2l65.3,63.3
	c0,0,40.4-39.8,60.1-39.8c44.8,0,46.6-0.6,88.3-2.9c17.7-0.9,21.4-1.7,31.5-5.1c54-18.2,111.9-66.8,112.9-72.6
	C360.6,229.5,345.8,223.7,334.6,224.3z"/>
<g>
	<path d="M176.6,180.7c-11.7-24.4-5.5-38.4,3.5-51.6c9.9-14.4,12.4-28.7,12.4-28.7s7.8,10.1,4.7,25.9c13.7-15.3,16.3-39.6,14.2-49
		c31,21.7,44.3,68.6,26.4,103.4c95.1-53.8,23.6-134.3,11.2-143.3c4.1,9.1,4.9,24.4-3.4,31.9c-14.2-53.7-49.2-64.8-49.2-64.8
		c4.1,27.7-15,58-33.5,80.7c-0.6-11.1-1.3-18.7-7.2-29.3c-1.3,20.1-16.6,36.4-20.8,56.6C129.4,139.7,139.2,159.7,176.6,180.7z"/>
</g>
</svg>
