<?xml version="1.0" encoding="UTF-8" standalone="no"?>
<svg viewBox="0 0 175 304" xmlns="http://www.w3.org/2000/svg">
<g transform="translate(0,-748.36218)">
<path d="m22.43751,748.88939c-2.37833.004-4.77384.2243-7.09375.625-3.04144.52531-6.2955,1.26821-8.6875,3.21875-2.45779,2.00419-3.87507,5.09737-5,8.0625-1.14305,3.01288-1.56125,6.31218-1.65625,9.53125-.004,1.79245 1.59553,2.93138 2.375,4.40625l3.15625,4.65625c1.89517.19936 2.6991,3.10922 4.9375,1.9375 .43807-.22931 1.14337.53008 1.59375.84375 1.87218,1.30392 2.80276,3.8144 3.71875,6.625l-1.21875,7.875h-.0937c0,0-5.02469,2.93746-6.34375,5.375-3.12252,5.77023-3.24803,13.02059-2.4375,19.53125 .8854,7.11205 7.8125,20.03125 7.8125,20.03125l12.21875,20.03125c0,3.64464 1.14561,7.88493-1.46875,10.75l-12.2188,33.71875 14.71875,4 .0937,5.59375-1.46875,7.59375c.5384,1.2127 1.09851,2.41655 1.65625,3.625l.28125,14.875c-.67541,1.10281-1.37136,2.21067-1.9375,3.34375v3.5l2.03125-.875 .0313,1.34375-1.625,2.6875c.53438,2.53195 1.15263,5.05281 1.78125,7.5625l.0937,4.90625v3.40625 3.4375l2.90625.46875-6.34375.5 5.875,1.9375-6.84375,53.75001 2.375-.2813-1.15625,10.125c-.45026,1.769-.94883,3.5958-1.5,5.5313 .39072.7122.34432,1.3681.625,2.125l-.3437,2.9062 3.5.125c.50942.3054 1.06497.6215 1.75.9688 1.17367-.324 2.34349-.567 3.53125-.75 5.32128.2312 12.08177.5737 19.15625,1.125 3.26523.6275 6.54566,1.3567 9.8125,2 0,0 3.95107,1.4688 5.75.2187 .12424-.086.23511-.1786.34375-.2812 1.45124.083 1.62023-.5318.8125-2.5625-.0403-.1736-.1089-.3256-.1875-.5-.0525-.1227-.111-.2754-.1875-.4063l-.0625-.094c-2.01159-3.2477-10.86218-8.7942-17.15625-12.4687l-6.59375-5.8125-.125-4.4063 4.09375-.5 6.8125,1.9688-8.28125-6.3438 7.25-16.8437 1.96875-5.87501v-2.46875l1.53125-4.15625 1.40625-2.21875 1.625-2.59375v-3.5l.71875-1.9375 2.5625-1.78125v-4.25l-.15625-.59375 1.15625-3.125-.6875-8.375-1.5-2.3125 1.875-3.5 3.09375-11.65625 19.6875,17.5312 3.09375,9.1875 .21875,3.59375 4.96875,14.59375 1.40625,1.25 3.625,10.68746-.0937,1.125 1.125,8.3125 2.375.6563 1.59375,4.6562-.8125,2.125 1.5625.094 2.9375,8.6875 4.84375-2 3.96875,6.7813 .90625,2.25c0,0 1.79587,2.6535 3.46875,5.2812l2.5,4.25 .125.1875c.0448.082.0724.1747.125.25l1.71875,2.9375 2.125-1.5625c1.36379-.1458 2.7538-.7693 3.625-1.8125 .38776-.4643 1.43734-1.6265 2.5-2.7812 6.12555-4.6108 14.38406-10.9024 21.1875-16.4688 5.36698-4.3911 5.46763-5.1506 3.09375-6.0937h-.0313c-.43435-1.6187-2.07477-2.1884-3.75-1.3125-3.41425-.8451-9.2201.932-12.96875,2.3437l-4.0625.8438-3.0625-3.8438 5.9375-2.4375-24.15625-55.40621c-1.13539-1.43677-2.14845-3.09288-3.125-4.84375l-.40625-1.625-1.03125-1.03125c-1.16548-2.25082-2.29767-4.54025-3.5-6.65625v-2.28125l-4.0625-2.25-2.4375-4.84375-5.28125-7.21875v-3.3125l-2.71875-4.09375-8.53125-8.125-.53125-.59375 5.4375-5.6875-5.84375-6.84375c-19.7373-27.85018-15.32526-29.4845-15.32526-59.05591l33.38776,6.77466 4.90625-5.875 1.46875,10.28125 6.34375-6.84375v3.90625l-8.8125,9.28125 14.65625-6.84375-9.75,12.21875 12.21875-12.21875 4.75-11.90625h9.75c0,0 1.03868.20462 1.46875.5 .599.4114.76027,1.35466 1.40625,1.6875 1.26436.65144 4.25.28125 4.25.28125l1.5-.59375 2.0625,2 1.78125,1.46875c0,0-.0725,1.94353.59375,2.46875 .33686.26558.96617.29109 1.28125,0 .75369-.69631.25-3.0625.25-3.0625l-1.53125-2.375-2.1875-2.09375c1.01235-.84362 1.36694-1.07249 1.1875-2.46875l1.1875.90625 3.28125,3.15625 1.9375,3.84375c.34629.69046.99009-.34336 1.125-.78125 .38211-1.24013-1.375-3.65625-1.375-3.65625l-3.0625-2.96875-2.09375-1.59375v-.875l2.78125,1.78125 2.96875,3.15625c0,0 1.15289,3.93757 2.28125,3.28125l.65625-.40625c1.23739-.71971-1.5625-3.84375-1.5625-3.84375l-2.875-3.46875-3.15625-2 .0937-.46875 4.46875,2.75 2.46875,3.46875c0,0 1.19836,3.50194 2.125,2.71875l.75-.625c.83773-.70804-1.1875-3.09375-1.1875-3.09375l-2.09375-2.84375-5.625-3.875-4.5625-1.78125h-3.28125l-7.125.59375-10.8125.46875-49.3125-9.0625-4.8125-2.6875 1.875.71875 13.6875-2.4375 18.0625,1.29974 8.3125,2.13776 4.84375-2 13.05604,4.94528-7.46229-7.00778 17.90625,5.5-10.40625-7.03125 13.8125,8.03125-3.50323-12.69366 3.06573-6.58759 .5-.125 4.84375,1.4375c2.48085-.15739 4.92738-.73245 7.375-1.1875l3.75,2.0625c1.50818.5036 1.7066,2.01941 2.875,3.28125s1.8982.36488 1.78125-.5-1.02146-1.87789-1.53125-2.8125c-1.46995-.73498-2.03004-2.20252-3.5-2.9375-1.32936-.65477-.20295-1.05573-.15625-2.15625 2.15948.94461 3.13149,1.37097 5.21875,2.46875 1.8657.53384 2.67855,3.05449 3.53125,3.90625s1.05945-.75484 1.03125-1.53125-.76679-1.7057-1.15625-2.5625c-2.67831-2.11075-5.76091-3.74713-8.78125-5.34375l1.53125-1 4.25,1.25c.41544.53897.63053,1.30909.96875,1.9375 .25018,1.45318 1.91897,2.72467 2.9375,2.40625s0-1.71285 0-2.5625c-1.17202-1.50688-2.48423-2.74312-3.65625-4.25-.51541-.15805-1.02323-.2671-1.59375-.3125-.94107.2233-1.58975-.3646-1.9375-1.21875 .86347-.30645 3.19263.8365 4.5625,1.15625 3.18906.76746 1.72522,3.6547 2.875,4.90625s1.65714-1.59706 1.53125-2.0625c-.14318-2.7076-1.87737-3.5601-2.8125-5.34375l-7.5625-2.28125c-.8088.0749-1.62593.35332-2.4375.5-3.81762.68508-7.41387,2.21471-11.03125,3.5625-1.81855.77989-3.68575,1.3283-5.59375,1.8125l-.3125-1.0625c-18.27944,2.40445-38.60031.77829-55.6875,4.375l-7.34375.5-46.5017-8.8125 9.3142,3.0625-1.40625-1.59375-1.59375.1875-3.15625-4.46875c2.79592-2.57458 7.31286-1.0481 8.65625-4.75 .4184-1.15297-.34665-3.99865-2.53125-4.8125 .011-.0429.0245-.0626.0313-.125-.0591.0134-.12668.047-.1875.0625l-.0937-.0313c-.12218-.19424-.21251-.28696-.25-.3125 .002.0653.0615.26277.15625.40625-1.64619.45675-3.7379,1.45106-3.75.78125-1.60103-.39753-.37503-4.95333 3.3125-5.28125-1.28816-1.80776-.7991-2.97879-.9375-3.5 4.66494-2.98752.434-5.39232-2.15625-7.6875-.33641-3.65031-1.7997-6.96514-4.375-9.5 1.12901.10301 2.40488-.0297 1-.96875-2.22759-1.62277-4.62837-3.33954-7.46875-3.5625-2.29165-.55638-4.65292-.78498-7.03125-.78125z"/>
</g>
</svg>
