<?xml version="1.0" encoding="utf-8"?>
<!-- Generator: Adobe Illustrator 23.0.0, SVG Export Plug-In . SVG Version: 6.00 Build 0)  -->
<svg version="1.1" id="Capa_1" xmlns="http://www.w3.org/2000/svg" xmlns:xlink="http://www.w3.org/1999/xlink" x="0px" y="0px"
	 viewBox="0 0 376.5 376.5" style="enable-background:new 0 0 376.5 376.5;" xml:space="preserve">
<g>
	<g>
		<path d="M343.7,237.4c-21.2,1.3-49.1,22.5-75.9,34.6c-32.9,14.9-84.2,2.9-84.2,2.9c7.9-3.7,40.1-11.4,46.5-14.2
			c34.4-15.1,31.5-46.7,15.1-46.4c-21.7,0.3-34.4,5.7-77.6,11.6c-32.7,4.5-71.5,2.8-90.1,9.9c-26.2,10-68.5,77.4-68.5,77.4
			l65.3,63.3c0,0,40.4-39.8,60.1-39.8c44.8,0,46.6-0.6,88.3-2.9c17.7-0.9,21.4-1.7,31.5-5.1c54-18.2,111.9-66.8,112.9-72.6
			C369.6,242.6,354.8,236.7,343.7,237.4z"/>
	</g>
</g>
<g transform="translate(0,0)">
	<path d="M262.8,11.5c-31.4,0-47.1,26.6-47.1,26.6S200,11.5,168.5,11.5c-15,0-43.6,13.6-43.6,50.6c0,65.3,90.8,131.3,90.8,131.3
		s90.8-66.1,90.8-131.3C306.4,25.1,277.8,11.5,262.8,11.5L262.8,11.5z M203.9,58h24.6v32.1h32.1v24.6h-32.1v32.3h-24.6v-32.3h-32.4
		V90.2h32.4V58z"/>
</g>
</svg>
