<?xml version="1.0" encoding="iso-8859-1"?>
<!-- Generator: Adobe Illustrator 19.0.0, SVG Export Plug-In . SVG Version: 6.00 Build 0)  -->
<svg version="1.1" id="Capa_1" xmlns="http://www.w3.org/2000/svg" xmlns:xlink="http://www.w3.org/1999/xlink" x="0px" y="0px"
	 viewBox="0 0 512.011 512.011" style="enable-background:new 0 0 512.011 512.011;" xml:space="preserve">
<g>
	<g>
		<path d="M509.501,2.502c-3.328-3.336-8.738-3.336-12.066,0l-66.594,66.594C383.25,24.51,321.529,0.002,256.001,0.002
			c-141.158,0-256,114.842-256,256s114.842,256,256,256c32.307,0,63.804-5.939,93.611-17.656c4.386-1.724,6.545-6.673,4.813-11.068
			c-1.715-4.378-6.664-6.528-11.051-4.813c-27.81,10.931-57.208,16.478-87.364,16.478c-131.746,0-238.933-107.187-238.933-238.933
			S124.263,17.077,256.01,17.077c60.971,0,118.451,22.682,162.816,64.06l-24.243,24.243C356.652,70.402,307.79,51.219,256.01,51.219
			c-112.922,0-204.8,91.878-204.8,204.8s91.878,204.8,204.8,204.8c11.972,0,23.962-1.041,35.627-3.106
			c4.642-0.819,7.74-5.24,6.921-9.882s-5.257-7.782-9.89-6.921c-10.692,1.886-21.683,2.842-32.657,2.842
			c-103.518,0-187.733-84.215-187.733-187.733S152.492,68.286,256.01,68.286c47.215,0,91.819,17.391,126.515,49.152l-24.277,24.277
			c-28.211-25.301-64.128-39.296-102.238-39.296c-48.384,0-93.705,22.852-122.726,61.44c-3.012-1.024-6.187-1.707-9.54-1.707
			c-16.469,0-29.867,13.397-29.867,29.867c0,10.496,5.47,19.703,13.679,25.028c-3.345,12.715-5.146,25.779-5.146,38.972
			c0,71.168,48.307,132.565,117.461,149.308c0.674,0.171,1.348,0.239,2.014,0.239c3.849,0,7.339-2.62,8.286-6.528
			c1.109-4.582-1.707-9.19-6.289-10.3c-61.466-14.882-104.405-69.461-104.405-132.727c0-11.554,1.545-22.997,4.437-34.15
			c16.384-0.094,29.696-13.44,29.696-29.85c0-6.912-2.458-13.21-6.417-18.278c25.813-34.082,65.971-54.255,108.817-54.255
			c33.553,0,65.195,12.203,90.172,34.295l-24.124,24.124c-18.483-15.676-41.6-24.286-66.057-24.286
			c-56.465,0-102.4,45.935-102.4,102.4c0,33.254,16.299,64.572,43.588,83.78c1.493,1.058,3.209,1.562,4.907,1.562
			c2.679,0,5.325-1.254,6.989-3.627c2.714-3.849,1.783-9.173-2.074-11.887c-22.758-16.017-36.344-42.129-36.344-69.837
			c0-47.053,38.281-85.333,85.333-85.333c19.9,0,38.767,6.793,53.982,19.285l-24.354,24.363c-8.371-5.965-18.577-9.515-29.619-9.515
			c-28.228,0-51.2,22.963-51.2,51.2s22.972,51.2,51.2,51.2c4.71,0,8.533-3.814,8.533-8.533s-3.823-8.533-8.533-8.533
			c-18.825,0-34.133-15.309-34.133-34.133c0-18.825,15.309-34.133,34.133-34.133c6.315,0,12.151,1.835,17.229,4.838l-23.262,23.262
			c-3.337,3.336-3.337,8.73,0,12.066c1.664,1.664,3.849,2.5,6.033,2.5c2.185,0,4.369-0.836,6.033-2.5l23.27-23.262
			c2.995,5.077,4.83,10.923,4.83,17.229c0,4.719,3.823,8.533,8.533,8.533s8.533-3.814,8.533-8.533
			c0-11.042-3.55-21.248-9.515-29.619L437.027,87.051v-0.008l72.474-72.474C512.837,11.232,512.837,5.839,509.501,2.502z"/>
	</g>
</g>
<g>
	<g>
		<path d="M384.01,281.611c-18.825,0-34.133,15.309-34.133,34.133c0,18.825,15.309,34.133,34.133,34.133
			c18.825,0,34.133-15.309,34.133-34.133C418.143,296.919,402.834,281.611,384.01,281.611z"/>
	</g>
</g>
<g>
	<g>
		<path d="M477.876,162.144c-18.825,0-34.133,15.309-34.133,34.133s15.309,34.133,34.133,34.133s34.133-15.309,34.133-34.133
			S496.692,162.144,477.876,162.144z"/>
	</g>
</g>
<g>
	<g>
		<path d="M435.21,443.744c-18.825,0-34.133,15.309-34.133,34.133s15.309,34.133,34.133,34.133
			c18.825,0,34.133-15.309,34.133-34.133S454.026,443.744,435.21,443.744z"/>
	</g>
</g>
<g>
</g>
<g>
</g>
<g>
</g>
<g>
</g>
<g>
</g>
<g>
</g>
<g>
</g>
<g>
</g>
<g>
</g>
<g>
</g>
<g>
</g>
<g>
</g>
<g>
</g>
<g>
</g>
<g>
</g>
</svg>
