<?xml version="1.0" encoding="utf-8"?>
<!-- Generator: Adobe Illustrator 23.0.0, SVG Export Plug-In . SVG Version: 6.00 Build 0)  -->
<svg version="1.1" id="Capa_1" xmlns="http://www.w3.org/2000/svg" xmlns:xlink="http://www.w3.org/1999/xlink" x="0px" y="0px"
	 viewBox="0 0 358.4 363.4" style="enable-background:new 0 0 358.4 363.4;" xml:space="preserve">
<title>chronomancy</title>
<path d="M334.6,224.3c-21.2,1.3-49.1,22.5-75.9,34.6c-32.9,14.9-84.2,2.9-84.2,2.9c7.9-3.7,40.1-11.4,46.5-14.2
	c34.4-15.1,31.5-46.7,15.1-46.4c-21.7,0.3-34.4,5.7-77.6,11.6c-32.7,4.5-71.5,2.8-90.1,9.9C42.2,232.8,0,300.2,0,300.2l65.3,63.3
	c0,0,40.4-39.8,60.1-39.8c44.8,0,46.6-0.6,88.3-2.9c17.7-0.9,21.4-1.7,31.5-5.1c54-18.2,111.9-66.8,112.9-72.6
	C360.6,229.5,345.8,223.7,334.6,224.3z"/>
<g transform="translate(0,0)">
	<path d="M226,11.1c-37.9,0-74.8,39.9-82.4,89.2c-2.7,17.5-1.3,33.9,3.2,47.6c-1.6-2.4-3-5-4.4-7.6c-6.3-12.3-9.4-25-9.5-36.8
		c-4.5,13.8-3.1,31.5,5.5,48.3c10.6,20.7,31.1,35.1,53.4,37.2c2.2,0.3,4.4,0.4,6.6,0.4c37.9,0,74.8-39.9,82.4-89.2
		c3.5-23,0.1-43.9-8.4-59.7c8.3,8.3,14,17.5,17,26.5c0.2-11.6-5.4-25.1-16.9-36.6c-12.9-12.8-29.5-19.4-43.9-19.4
		C227.8,11.1,226.9,11.1,226,11.1L226,11.1z M223.9,25c15.4,0,28.1,7.8,36.5,20.4c6.1,16.4,4.8,41.3,0.4,56.4
		c-6.1,21-15.5,36.7-30.5,48.1c-16,12.2-37.6,9.3-44.2-2.2c-0.5-0.9-0.9-1.8-1.3-2.8c4.5,5.4,14.6,5.7,23.6,0.5
		c9.7-5.6,14.5-15.5,10.7-22.2c-3.8-6.6-14.8-7.5-24.5-1.8c-3.8,2.2-6.8,5-8.8,8c0.2-0.5,0.4-1,0.6-1.5c-7.1,9.3-9.4,19.9-4.9,27.6
		c14.8,17.5,37.4,9.7,53.7-2.5c14.5-10.8,27.6-28.1,34.1-50.4c0.5-1.7,0.9-3.3,1.3-5c-0.1,0.8-0.2,1.7-0.4,2.5
		c-6.4,41.6-37.6,75.4-69.6,75.4c-13.6,0-25.2-6.1-33.5-16.3c-10.1-18.5-6.1-54.2,1.8-70.7c10.2-21.3,25.2-46.9,51.3-44.6
		c17.6,1.5,24.1,22.4,14.9,44.4c-3.3,7.9-8.1,15-13.8,20.7c9.5-6.3,17.8-16.1,22.7-27.9c9.2-22,2.6-43.3-14.9-44.6
		c-32.7-2.4-52.5,22.4-67.8,49c-3.5,7.6-6.2,15.4-8,23.2c0.2-2.8,0.5-5.7,1-8.6C160.7,58.7,191.9,25,223.9,25L223.9,25z"/>
</g>
</svg>
