<?xml version="1.0" encoding="iso-8859-1"?>
<!-- Generator: Adobe Illustrator 16.0.0, SVG Export Plug-In . SVG Version: 6.00 Build 0)  -->
<!DOCTYPE svg PUBLIC "-//W3C//DTD SVG 1.1//EN" "http://www.w3.org/Graphics/SVG/1.1/DTD/svg11.dtd">
<svg version="1.1" id="Capa_1" xmlns="http://www.w3.org/2000/svg" xmlns:xlink="http://www.w3.org/1999/xlink" x="0px" y="0px"
	 width="499.097px" height="499.098px" viewBox="0 0 499.097 499.098" style="enable-background:new 0 0 499.097 499.098;"
	 xml:space="preserve">
<g>
	<g>
		<path d="M386.625,333.619c-2.636-6.64-5.808-13.119-9.987-19.234c-3.119-4.561-6.541-8.816-10.29-13.052
			c-3.585-4.22-8.107-8.159-12.545-11.773c-5.741-4.679-11.944-8.978-18.474-12.919c-12.834-7.746-26.829-14.089-41.049-19.992
			c-14.576-6.051-29.638-11.583-43.344-18.897c-10.739-5.73-21.483-13.412-24.52-23.999c-0.708-2.47-5.536-15.88,1.215-27.287
			c7.102-12,18.523-21.697,30.545-30.679l39.018-28.488c0.139-0.104,0.263-0.221,0.396-0.328
			c1.926,20.285,6.705,40.05,14.247,57.671c2.914,6.808,6.228,13.335,10.014,19.272c1.508,2.363,3.062,4.816,5.062,6.324v55.92
			h8.727v-55.881c0.812-0.579,1.567-1.316,2.233-2.211c3.52-4.729,6.602-10.234,9.358-15.834c4.535-9.205,8.275-19.15,11.18-29.54
			c5.767-20.64,8.178-42.879,7.426-64.96c-0.121-3.546-0.324-7.084-0.617-10.612c-1.786-22.103-7.071-43.721-15.588-62.605
			c-3.178-7.048-6.811-13.981-11.076-19.868c-0.915-1.26-1.837-2.42-3.002-3.235c-1.502-1.052-3.203-1.535-4.885-1.384
			c-1.675,0.15-3.312,0.926-4.7,2.229c-0.91,0.854-1.67,1.964-2.435,3.048c-4.343,6.154-8.036,13.339-11.252,20.666
			c-4.161,9.48-7.517,19.633-10.041,30.156c-3.885,16.187-5.719,33.277-5.651,50.335c-11.042,3.586-80.352,32.606-103.228,52.159
			c-4.242,3.626-8.161,7.581-11.635,11.786c-1.819-6.441-4.052-12.658-6.698-18.526c-2.438-5.405-5.225-10.724-8.495-15.237
			c-0.701-0.967-1.409-1.856-2.303-2.482c-1.152-0.807-2.456-1.178-3.746-1.062c-1.285,0.115-2.539,0.71-3.604,1.71
			c-0.698,0.655-1.281,1.507-1.868,2.338c-3.33,4.72-6.163,10.23-8.629,15.85c-3.192,7.271-5.765,15.059-7.701,23.13
			c-3.903,16.267-5.116,33.725-3.871,50.755c1.229,16.807,5.004,33.263,11.231,47.813c2.235,5.221,4.777,10.227,7.681,14.781
			c1.156,1.812,2.348,3.692,3.881,4.85v42.89h6.693v-42.858c0.622-0.444,1.202-1.01,1.712-1.695c2.7-3.628,5.064-7.851,7.178-12.144
			c2.491-5.058,4.664-10.407,6.518-15.964c6.151,8.507,13.759,16.368,21.899,23.444c11.153,9.692,23.579,18.324,35.894,27.021
			c6.257,4.42,12.5,8.864,18.386,13.61c5.376,4.333,31.472,25.14,5.433,37.97c-13.44,6.622-27.769,11.865-41.792,17.632
			c-15.331,6.303-35.3,15.36-44.274,21.356c-57.343,38.308-67.161,78.364-69.323,93.508h75.866c0.319-1.685,0.715-3.365,1.054-5.049
			c0.861-4.279,2.868-8.452,4.771-12.482l25.345,8.269c-1.32,2.969-2.804,6.104-3.261,9.264h78.015
			c1.647-1.426,3.356-2.806,5.081-4.162c8.182-6.434,16.968-12.343,25.557-18.408c12.04-8.51,23.847-17.27,34.386-27.018
			c11.159-10.318,20.38-21.605,27.71-33.964c7.474-12.573,11.219-26.558,12.401-40.405
			C394.036,361.297,391.87,346.828,386.625,333.619z M215.626,162.485c11.868-9.778,25.81-17.549,39.951-25.003
			c6.71-3.535,13.435-7.035,20.068-10.643l3.489,2.165c-8.25,4.899-16.694,9.587-25.015,14.409
			c-6.927,4.016-13.918,8.132-20.278,12.732c-5.393,3.898-10.888,7.867-15.395,12.472l-5.479-3.858
			C213.815,163.969,214.72,163.231,215.626,162.485z M237.47,276.841c-2.752-1.73-5.476-3.488-8.15-5.3
			c-12.328-8.344-24.28-18.414-30.973-30.405c-3.375-6.049-6.064-12.312-7.114-18.925c-0.848-5.438-1.08-10.763-0.639-16.236
			l9.397,0.44c-0.003,0.093-0.006,0.188-0.009,0.281c-0.422,12.849,3.424,25.927,12.795,36.488
			c8.872,9.998,20.348,17.869,32.651,24.986L237.47,276.841z M316.559,411.844c-11.62,10.067-24.979,18.404-38.829,26.363
			c-12.271,7.053-24.641,13.94-36.267,21.688l-16.061-16.046l0.719-0.44c12.724-7.818,26.238-14.662,39.6-21.735
			c7.16-3.789,14.155-7.731,20.978-11.907c5.901-3.61,11.806-7.662,16.648-12.21l16.282,11.466
			C318.657,409.999,317.602,410.914,316.559,411.844z M341.599,364.234l-19.397-0.906c0.029-0.344,0.06-0.688,0.09-1.033
			c1.033-11.792-2.298-23.819-10.104-33.87c-8.005-10.31-19.296-18.495-31.071-25.916l9.24-10.068
			c3.49,2.023,6.955,4.081,10.308,6.253c12.976,8.409,24.62,18.273,32.065,30.415c3.521,6.07,6.248,12.276,7.588,18.92
			C341.409,353.426,341.785,358.768,341.599,364.234z"/>
		<path d="M365.22,87.118C365.724,93.176,364.734,81.098,365.22,87.118L365.22,87.118z"/>
	</g>
</g>
<g>
</g>
<g>
</g>
<g>
</g>
<g>
</g>
<g>
</g>
<g>
</g>
<g>
</g>
<g>
</g>
<g>
</g>
<g>
</g>
<g>
</g>
<g>
</g>
<g>
</g>
<g>
</g>
<g>
</g>
</svg>
