<?xml version="1.0" encoding="iso-8859-1"?>
<!-- Generator: Adobe Illustrator 19.0.0, SVG Export Plug-In . SVG Version: 6.00 Build 0)  -->
<svg version="1.1" id="Layer_1" xmlns="http://www.w3.org/2000/svg" xmlns:xlink="http://www.w3.org/1999/xlink" x="0px" y="0px"
	 viewBox="0 0 512.002 512.002" style="enable-background:new 0 0 512.002 512.002;" xml:space="preserve">
<g>
	<g>
		<path d="M489.344,465.043h-78.089l-14.889-26.193c-1.434-2.523-4.112-4.081-7.014-4.081h-21.248
			c-9.208-36.261-35.201-65.135-68.591-78.848l21.514-37.262c2.227-3.858,0.906-8.792-2.952-11.019
			c-3.857-2.226-8.792-0.907-11.019,2.952l-23.183,40.151c-0.981-0.247-1.967-0.472-2.955-0.694
			c-0.038-0.009-0.075-0.018-0.113-0.027c-1.589-0.354-3.183-0.675-4.784-0.963c-0.19-0.034-0.382-0.062-0.571-0.096
			c-1.311-0.228-2.627-0.432-3.945-0.615c-0.424-0.059-0.848-0.116-1.272-0.171c-0.373-0.047-0.745-0.107-1.12-0.15l117.671-203.813
			c3.847,2.757,7.918,5.147,12.194,7.162l-79.145,137.084c-2.227,3.858-0.906,8.792,2.952,11.019
			c3.859,2.226,8.793,0.907,11.019-2.952l80.677-139.738c5.884,1.399,12.013,2.162,18.32,2.162c13.721,0,27.242-3.565,39.101-10.312
			c3.873-2.204,5.226-7.129,3.024-11.001c-2.204-3.874-7.131-5.224-11.001-3.024c-9.434,5.367-20.196,8.203-31.125,8.203
			c-7.118,0-13.958-1.202-20.345-3.387c-0.66-0.225-1.318-0.458-1.968-0.703c-0.472-0.18-0.941-0.366-1.408-0.556
			c-0.464-0.187-0.924-0.381-1.381-0.579c-0.614-0.268-1.224-0.542-1.827-0.828c-0.27-0.127-0.538-0.259-0.806-0.39
			c-0.742-0.365-1.479-0.738-2.204-1.13c-0.088-0.047-0.175-0.098-0.262-0.145c-19.566-10.72-32.863-31.507-32.863-55.346
			c0-34.774,28.292-63.065,63.065-63.065s63.065,28.292,63.065,63.065c0,14.48-4.773,28.096-13.802,39.375
			c-2.784,3.477-2.221,8.554,1.257,11.339c3.477,2.784,8.554,2.22,11.339-1.257c11.182-13.967,17.339-31.532,17.339-49.456
			c0-43.671-35.528-79.199-79.199-79.199s-79.199,35.528-79.199,79.199c0,20.614,7.923,39.407,20.874,53.512L250.889,347.328
			c-51.413,2.006-95.498,37.797-108.103,87.442h-21.248c-2.901,0-5.58,1.557-7.014,4.081l-14.889,26.193H21.547
			C9.666,465.043,0,474.709,0,486.589v3.313c0,11.881,9.666,21.547,21.547,21.547h324.124c4.456,0,8.067-3.611,8.067-8.067
			s-3.611-8.067-8.067-8.067H21.547c-2.985,0-5.413-2.429-5.413-5.413v-3.313c0-2.985,2.429-5.413,5.413-5.413h82.783h302.232
			h82.783c2.985,0,5.413,2.429,5.413,5.413v3.313c0,2.985-2.429,5.413-5.413,5.413H375.787c-4.456,0-8.067,3.611-8.067,8.067
			s3.611,8.067,8.067,8.067h113.558c11.881,0,21.547-9.666,21.547-21.547v-3.313C510.891,474.709,501.225,465.043,489.344,465.043z
			 M255.446,363.36c0.041,0,0.081,0.002,0.12,0.002c0.009,0,0.017,0.002,0.025,0.002c0.796,0.001,1.59,0.028,2.383,0.048
			c0.475,0.012,0.953,0.011,1.426,0.029c0.656,0.026,1.309,0.075,1.963,0.113c0.675,0.04,1.352,0.072,2.024,0.126
			c0.592,0.046,1.181,0.112,1.77,0.169c0.74,0.072,1.481,0.141,2.218,0.229c0.526,0.062,1.051,0.14,1.576,0.211
			c0.807,0.11,1.613,0.222,2.416,0.351c0.454,0.073,0.905,0.155,1.357,0.233c0.882,0.155,1.761,0.315,2.635,0.493
			c0.373,0.075,0.745,0.157,1.119,0.237c0.963,0.206,1.921,0.425,2.874,0.659c0.285,0.07,0.569,0.142,0.853,0.214
			c1.052,0.269,2.098,0.553,3.137,0.855c0.187,0.055,0.374,0.109,0.561,0.163c31.983,9.499,57.75,34.614,67.494,67.275H159.494
			C171.998,392.854,210.889,363.36,255.446,363.36z M118.194,465.043l8.038-14.139h22.99H361.67h22.99l8.038,14.139H118.194z"/>
	</g>
</g>
<g>
</g>
<g>
</g>
<g>
</g>
<g>
</g>
<g>
</g>
<g>
</g>
<g>
</g>
<g>
</g>
<g>
</g>
<g>
</g>
<g>
</g>
<g>
</g>
<g>
</g>
<g>
</g>
<g>
</g>
</svg>
