<svg id="Layer_1" data-name="Layer 1" xmlns="http://www.w3.org/2000/svg" viewBox="0 0 474.37902 473.93699"><title>takeArtifacts</title><path d="M145.28,17.156a32.16051,32.16051,0,0,0-26.124,13.532c-3.28-.298-6.57-.46-9.844-.5a118.64611,118.64611,0,0,0-18.968,1.28,96.84145,96.84145,0,0,0-12.313,2.657A32.06746,32.06746,0,1,0,33.439,79.968a70.75655,70.75655,0,0,0-.25,27.907,32.06425,32.06425,0,1,0,40.063,49.969c4.63,3.03,9.4,5.94,14.22,8.812a32.04557,32.04557,0,0,0,47.467,32.688,94.10478,94.10478,0,0,1,9.937,11.03,32.03924,32.03924,0,0,0,15.844,53.721,144.34049,144.34049,0,0,1-2.94,22.906,41.83859,41.83859,0,0,0-.5,59.156L143.876,459.5l24.75-36.344.125-1.03,8.844-74.907.625-5.22,4.78-2.188,23.813-10.937,3.78-1.72,3.813,1.626,66.375,28.595,5.033,2.156,41.218-2.03-97.717-42.063a42.02367,42.02367,0,0,0-16.157-31.656,151.541,151.541,0,0,1,19.5-30.717,31.61254,31.61254,0,0,0,12.625,2.625,32.27185,32.27185,0,0,0,32.126-32.125c0-.858-.026-1.72-.094-2.563,7.24-3.022,14.84-5.583,22.782-8.063a32.06389,32.06389,0,0,0,59.032-17.406c0-.248.006-.5,0-.75,7.466-2.73,15.06-5.84,22.78-9.468a32.06331,32.06331,0,0,0,56.533-20.781,31.72111,31.72111,0,0,0-3.094-13.686q2.982-2.544,5.97-5.25a107.78973,107.78973,0,0,0,11.717-12.406,31.75659,31.75659,0,0,0,9.126,1.343,32.11251,32.11251,0,0,0,1.595-64.186,39.95925,39.95925,0,0,0-2.688-4.094c-10.114-13.47-27.91-19.66-46.812-15.906a32.0886,32.0886,0,0,0-57.813,19.219,31.742,31.742,0,0,0,.97,7.78,135.60925,135.60925,0,0,1-14.22,3.688,32.10534,32.10534,0,0,0-60.5,1.782c-.49-.056-.977-.096-1.468-.156-7.364-.893-14.776-2.13-22.19-3.656a32.08393,32.08393,0,0,0-57.967-17.719c-8.143-3.288-16.077-6.82-23.688-10.56.02-.475.03-.96.03-1.44a32.26927,32.26927,0,0,0-32.124-32.124Zm0,18.688a9.50116,9.50116,0,1,0,.001.001ZM54.063,42a13.4375,13.4375,0,1,0,.001,0Zm51.438,6.938q3.801-.063,7.656.156v.187a32.10517,32.10517,0,0,0,57.907,19.126c7.672,3.723,15.626,7.253,23.782,10.53-.017.424-.03.857-.03,1.283A32.06926,32.06926,0,0,0,254.19,97.094c8.235,1.716,16.52,3.09,24.78,4.094,1.16.14,2.31.28,3.47.406a32.0869,32.0869,0,0,0,62.092-1.75,151.9561,151.9561,0,0,0,22.908-6.156,32.061,32.061,0,0,0,53.25-24.126c0-.582,0-1.174-.032-1.75,10.226-1.395,18.642,2.073,23.938,7.813a31.92885,31.92885,0,0,0-7.123,47.281,103.50082,103.50082,0,0,1-8.72,8.875c-1.994,1.812-3.984,3.533-5.97,5.22a31.76317,31.76317,0,0,0-16.467-4.594,32.10978,32.10978,0,0,0-31.907,35.845c-7.127,3.36-14.19,6.254-21.187,8.813a32.06378,32.06378,0,0,0-58.314,17.906,242.78482,242.78482,0,0,0-24.312,8.936,32.06155,32.06155,0,0,0-51.906,37.593,167.52013,167.52013,0,0,0-22.375,34.313,41.584,41.584,0,0,0-17.843-.063c.5-4.477.787-8.82.874-13a32.116,32.116,0,0,0-11.531-62.094,31.77389,31.77389,0,0,0-6.344.625,110.62081,110.62081,0,0,0-13.595-15.5,31.7,31.7,0,0,0,3.47-14.405,32.05162,32.05162,0,0,0-55.69-21.719c-4.358-2.647-8.565-5.262-12.53-7.875a31.7751,31.7751,0,0,0,1.03-7.968,32.24222,32.24222,0,0,0-32.125-32.093c-.508,0-1.026.006-1.53.03a49.72252,49.72252,0,0,1,.47-14.344c1.013.1,2.054.156,3.093.156a31.99279,31.99279,0,0,0,31.844-36.218c2.323-.556,4.722-1.032,7.218-1.407a94.35653,94.35653,0,0,1,12.375-1Zm283.063,7.187a13.43849,13.43849,0,1,1-.001,0ZM226.938,66.813a13.406,13.406,0,1,1,0-.002ZM313.25,79.22a13.42151,13.42151,0,1,1-13.438,13.405A13.2739,13.2739,0,0,1,313.25,79.22ZM462.156,89a13.422,13.422,0,1,1-13.406,13.438A13.301,13.301,0,0,1,462.156,89ZM52.03,120.406a13.43653,13.43653,0,1,0,.001,0Zm354.283,30.688a13.4365,13.4365,0,1,0,0,.001Zm-287.094,6.844a9.98083,9.98083,0,1,1-.002-.001Zm207.81,24.187a9.98714,9.98714,0,1,0,.002.001Zm-81.75,28.03a9.99187,9.99187,0,1,0,.002.001Zm-77.468,9.19a13.43751,13.43751,0,1,0,.001,0Zm19.5,74.155a23.20242,23.20242,0,0,1,20.907,12.875l-1.157-.5-42.375,16.78a23.80077,23.80077,0,0,1-.72-5.81,23.2324,23.2324,0,0,1,10.126-19.314l.47.126c.04-.17.083-.33.124-.5a23.3689,23.3689,0,0,1,12.625-3.656Zm23.5,54.094-15.28,7L188.468,414.5l52.374,3.156,23.47-47.03L210.81,347.594Zm129.22,28-58.75,2.906-24.907,49.906,30.22,54.28L340.03,375.594Zm-155.5,57.375-34.626,50.874,119.97,7.25-30.47-54.813-54.875-3.31Z" transform="translate(-19.90699 -17.156)"/></svg>