<?xml version="1.0" encoding="iso-8859-1"?>
<!-- Generator: Adobe Illustrator 19.0.0, SVG Export Plug-In . SVG Version: 6.00 Build 0)  -->
<svg version="1.1" id="Capa_1" xmlns="http://www.w3.org/2000/svg" xmlns:xlink="http://www.w3.org/1999/xlink" x="0px" y="0px"
	 viewBox="0 0 512.019 512.019" style="enable-background:new 0 0 512.019 512.019;" xml:space="preserve">
<g transform="translate(-1)">
	<g>
		<g>
			<path d="M487.329,69.385c0.099-0.367,0.173-0.741,0.222-1.118V25.6c0-14.138-11.462-25.6-25.6-25.6H52.35
				c-14.138,0-25.6,11.461-25.6,25.6v42.667c0.048,0.377,0.123,0.751,0.222,1.118c-0.001,0.391,0.027,0.782,0.085,1.169
				L68.973,221.44l-41.66,108.297c-0.138,0.519-0.227,1.051-0.265,1.587c-0.147,0.481-0.247,0.976-0.299,1.476v155.785
				c-1.02,6.701,0.754,13.527,4.907,18.884c3.262,3.111,7.657,4.749,12.16,4.531H461.95c14.138,0,25.6-11.461,25.6-25.6V332.8
				c-0.052-0.503-0.152-1.001-0.299-1.485c-0.038-0.534-0.126-1.062-0.265-1.579l-41.66-108.297l41.916-150.886
				C487.301,70.167,487.33,69.776,487.329,69.385z M83.813,230.4h30.285l-25.6,93.867H47.708L83.813,230.4z M188.884,181.325
				c-1.256,0.637-2.433,1.419-3.507,2.33c-14.626,12.706-39.159,37.743-39.159,62.583c-0.974,13.965,4.063,27.68,13.843,37.695
				c9.78,10.015,23.373,15.376,37.357,14.733c13.984,0.643,27.576-4.718,37.357-14.733c9.78-10.015,14.817-23.731,13.843-37.695
				c0-24.841-24.533-49.877-39.151-62.575c-1.075-0.916-2.256-1.7-3.516-2.338V153.6h102.4v27.725
				c-1.256,0.637-2.433,1.419-3.507,2.33c-14.626,12.706-39.159,37.743-39.159,62.583c-0.974,13.965,4.063,27.68,13.843,37.695
				c9.78,10.015,23.373,15.376,37.357,14.733c13.984,0.643,27.576-4.718,37.357-14.733c9.78-10.015,14.817-23.731,13.843-37.695
				c0-24.841-24.533-49.877-39.151-62.575c-1.075-0.916-2.256-1.7-3.516-2.338V153.6h29.636c3.849-0.001,7.222,2.575,8.235,6.289
				l44.826,164.378H106.187l44.834-164.378c1.012-3.711,4.38-6.286,8.226-6.289h29.636V181.325z M196.564,196.531
				c0.509-0.37,1.198-0.37,1.707,0c20.847,18.108,33.28,36.693,33.28,49.698c0,22.153-12.757,35.371-34.133,35.371
				s-34.133-13.218-34.133-35.362C163.284,233.233,175.725,214.647,196.564,196.531z M316.03,196.531c0.509-0.37,1.198-0.37,1.707,0
				c20.847,18.108,33.28,36.693,33.28,49.698c0,22.153-12.757,35.371-34.133,35.371s-34.133-13.218-34.133-35.362
				C282.75,233.233,295.192,214.647,316.03,196.531z M470.484,486.4c0,4.713-3.821,8.533-8.533,8.533H43.971
				c-0.166-2.066-0.218-4.14-0.154-6.212V341.333h426.667V486.4z M466.593,324.267h-40.789l-25.6-93.867h30.285L466.593,324.267z
				 M429.865,213.333h-34.313l-15.804-57.941c-3.055-11.124-13.16-18.841-24.695-18.859h-29.636c0-4.713-3.82-8.533-8.533-8.533
				s-8.533,3.82-8.533,8.533h-102.4c0-4.713-3.82-8.533-8.533-8.533s-8.533,3.82-8.533,8.533h-29.636
				c-11.536,0.018-21.641,7.735-24.695,18.859l-15.804,57.941H84.436L46.514,76.8h421.274L429.865,213.333z M470.484,59.733H43.817
				V25.6c0-4.713,3.82-8.533,8.533-8.533h409.6c4.713,0,8.533,3.82,8.533,8.533V59.733z"/>
			<path d="M180.615,251.657c0.725,4.081,4.278,7.05,8.422,7.04c0.501,0.004,1.001-0.039,1.493-0.128
				c4.629-0.835,7.709-5.259,6.886-9.89c-0.418-2.372,3.354-7.125,5.606-9.967l1.084-1.374c1.982-2.393,2.506-5.675,1.368-8.566
				c-1.138-2.892-3.757-4.936-6.839-5.337c-3.081-0.401-6.137,0.904-7.978,3.408l-0.998,1.254
				C183.378,234.271,180.079,242.864,180.615,251.657z"/>
			<path d="M300.082,251.657c0.725,4.081,4.278,7.05,8.422,7.04c0.501,0.004,1.001-0.039,1.493-0.128
				c4.629-0.835,7.709-5.259,6.886-9.89c-0.418-2.372,3.354-7.125,5.606-9.967l1.084-1.374c2.735-3.72,2.014-8.94-1.625-11.781
				c-3.64-2.841-8.879-2.271-11.823,1.285l-0.998,1.254C302.845,234.271,299.546,242.864,300.082,251.657z"/>
		</g>
	</g>
</g>
<g>
</g>
<g>
</g>
<g>
</g>
<g>
</g>
<g>
</g>
<g>
</g>
<g>
</g>
<g>
</g>
<g>
</g>
<g>
</g>
<g>
</g>
<g>
</g>
<g>
</g>
<g>
</g>
<g>
</g>
</svg>
