<svg id="Layer_1" height="512" viewBox="0 0 128 128" width="512" xmlns="http://www.w3.org/2000/svg" data-name="Layer 1"><path d="m55.318 92.25a7.952 7.952 0 0 0 -7.943 7.943 1.75 1.75 0 1 0 3.5 0 4.448 4.448 0 0 1 4.443-4.443 1.75 1.75 0 1 0 0-3.5z"/><path d="m76 84.873a6.054 6.054 0 0 0 -4.451-1.366 1.75 1.75 0 0 0 .331 3.484 2.586 2.586 0 0 1 2.816 2.327 1.75 1.75 0 0 0 1.74 1.584c.055 0 .111 0 .167-.008a1.75 1.75 0 0 0 1.577-1.908 6.045 6.045 0 0 0 -2.18-4.113z"/><path d="m116.8 114.453a14.136 14.136 0 0 0 -14.03-12.573q-.649 0-1.306.064a14.332 14.332 0 0 0 -13.902-14.144 19.731 19.731 0 0 0 -3.072-5.3 11.72 11.72 0 0 0 -.67-2.415l-10.578-25.852a4.549 4.549 0 0 0 -6.942-1.913l-7.76 5.835-.738-.982a1.732 1.732 0 0 0 -2.28-.451l-22.943-30.508-2.023-12.237a3.721 3.721 0 0 0 -5.211-2.786 3.829 3.829 0 0 0 -4.864-.228l-7.348 5.525a3.826 3.826 0 0 0 -1.133 4.736 3.722 3.722 0 0 0 1.231 5.776l11.194 5.341 22.941 30.513a1.744 1.744 0 0 0 -.2 2.315l.738.981-7.76 5.835a4.55 4.55 0 0 0 -.09 7.2l7.718 6.115a14.437 14.437 0 0 0 -9.494 10.718h-.078a11 11 0 0 0 -9.778 5.9 14.135 14.135 0 0 0 -13.052 12.332h-3.37a1.75 1.75 0 0 0 0 3.5h104a1.745 1.745 0 0 0 .8-3.3zm-86.224-85.079 22.134 29.437-2.558 1.924-22.134-29.435zm21.179 36.073-.737-.98 5.038-3.788 6.474 8.608-5.038 3.789zm-22.732-39.285-3.661 2.752-8.535-4.072a3.79 3.79 0 0 0 2.027-.745l7.346-5.525a3.8 3.8 0 0 0 1.279-1.731zm-13.785-6.876 7.347-5.525a.322.322 0 0 1 .453.064l1.125 1.5a.323.323 0 0 1 -.064.453l-7.347 5.522a.323.323 0 0 1 -.453-.064l-.562-.747-.562-.748a.324.324 0 0 1 .063-.455zm26.591 56.322a1.031 1.031 0 0 1 .419-.825l7.76-5.835 5.735 7.627a1.751 1.751 0 0 0 2.451.347l7.835-5.892a1.75 1.75 0 0 0 .347-2.451l-5.735-7.627 7.76-5.835a1.049 1.049 0 0 1 1.6.441l9.146 22.354a19.782 19.782 0 0 0 -26.724 6.605l-10.2-8.074a1.032 1.032 0 0 1 -.394-.835zm-12.488 29.773.185.009a1.739 1.739 0 0 0 1.653-1.1 7.488 7.488 0 0 1 8.307-4.653 1.75 1.75 0 0 0 2.04-1.6 10.847 10.847 0 0 1 10.771-10c.315 0 .625.022.934.048a1.756 1.756 0 0 0 1.685-.9 16.25 16.25 0 0 1 26.536-2.856 1.745 1.745 0 0 0 .178.207 16.274 16.274 0 0 1 3.034 5.57 1.747 1.747 0 0 0 1.783 1.224l.179-.012c.175-.012.35-.026.527-.026a10.733 10.733 0 0 1 10.667 12.508 1.75 1.75 0 0 0 2.18 1.96 10.563 10.563 0 0 1 13.23 8.49h-94.324a10.618 10.618 0 0 1 10.435-8.869z"/></svg>