<?xml version='1.0' encoding='iso-8859-1'?>
<svg version="1.1" xmlns="http://www.w3.org/2000/svg" viewBox="0 0 463.004 463.004" xmlns:xlink="http://www.w3.org/1999/xlink" enable-background="new 0 0 463.004 463.004">
  <g>
    <path d="m455.502,416.002h-8.5v-139.983l5.546,2.377c0.963,0.413 1.965,0.608 2.95,0.608 2.91,0 5.679-1.704 6.897-4.547 1.632-3.808-0.132-8.216-3.939-9.848l-123.454-52.909v-24.417l4.779,2.731c1.174,0.671 2.452,0.99 3.714,0.99 2.604,0 5.135-1.358 6.519-3.78 2.056-3.597 0.806-8.178-2.791-10.233l-108.221-61.84v-20.149h72.5c2.766,0 5.308-1.522 6.612-3.961 1.306-2.439 1.162-5.398-0.372-7.699l-13.227-19.84 13.227-19.84c1.534-2.301 1.678-5.26 0.372-7.699-1.305-2.438-3.847-3.961-6.612-3.961h-72.5v-8.5c0-4.142-3.357-7.5-7.5-7.5s-7.5,3.358-7.5,7.5v91.648l-108.221,61.84c-3.597,2.055-4.847,6.636-2.791,10.233 2.056,3.596 6.636,4.845 10.232,2.791l4.779-2.731v24.417l-123.453,52.909c-3.808,1.632-5.571,6.041-3.939,9.848 1.219,2.844 3.987,4.547 6.897,4.547 0.985,0 1.987-0.196 2.95-0.608l5.546-2.377v139.983h-8.5c-4.143,0-7.5,3.358-7.5,7.5s3.357,7.5 7.5,7.5h120.5v8.5c0,4.142 3.357,7.5 7.5,7.5h192c4.143,0 7.5-3.358 7.5-7.5v-8.5h120.5c4.143,0 7.5-3.358 7.5-7.5s-3.357-7.5-7.5-7.5zm-23.5-146.412v114.412h-25v-78.5c0-5.238-4.262-9.5-9.5-9.5h-28c-5.238,0-9.5,4.262-9.5,9.5v78.5h-25v-155.983l97,41.571zm-40,58.412h-17v-17h17v17zm-17,15h17v41h-17v-41zm-77.514-296l-8.227,12.34c-1.68,2.519-1.68,5.801 0,8.32l8.227,12.34h-58.486v-33h58.486zm-65.986,81.138l88.586,50.62c-0.051,0.352-0.086,0.709-0.086,1.075v36.736c0,0.026 0,0.052 0,0.078v183.353h-33v-64.5c0-4.142-3.357-7.5-7.5-7.5h-96c-4.143,0-7.5,3.358-7.5,7.5v64.5h-33v-183.353c0-0.026 0-0.052 0-0.078v-36.736c0-0.366-0.035-0.723-0.086-1.075l88.586-50.62zm-40.5,214.862h33v89h-33v-89zm48,0h33v89h-33v-89zm-111-114.983v155.983h-25v-78.5c0-5.238-4.262-9.5-9.5-9.5h-28c-5.238,0-9.5,4.262-9.5,9.5v78.5h-25v-114.412l97-41.571zm-40,99.983h-17v-17h17v17zm-17,15h17v41h-17v-41zm-40,73v-17h32.5 32 32.5v17h-97zm112-1h33v17h-33v-17zm177,17h-33v-17h33v17zm15-33h32.5 32 32.5v17h-97v-17z"/>
    <path d="m183.502,311.002h32c4.143,0 7.5-3.358 7.5-7.5v-86c0-5.238-4.262-9.5-9.5-9.5h-28c-5.238,0-9.5,4.262-9.5,9.5v86c0,4.142 3.357,7.5 7.5,7.5zm7.5-15v-41h17v41h-17zm17-73v17h-17v-17h17z"/>
    <path d="m247.502,311.002h32c4.143,0 7.5-3.358 7.5-7.5v-86c0-5.238-4.262-9.5-9.5-9.5h-28c-5.238,0-9.5,4.262-9.5,9.5v86c0,4.142 3.357,7.5 7.5,7.5zm7.5-15v-41h17v41h-17zm17-73v17h-17v-17h17z"/>
  </g>
</svg>
