<?xml version="1.0" standalone="no"?>
<!DOCTYPE svg PUBLIC "-//W3C//DTD SVG 20010904//EN"
 "http://www.w3.org/TR/2001/REC-SVG-20010904/DTD/svg10.dtd">
<svg version="1.0" xmlns="http://www.w3.org/2000/svg"
 width="1280.000000pt" height="1034.000000pt" viewBox="0 0 1280.000000 1034.000000"
 preserveAspectRatio="xMidYMid meet">
<metadata>
Created by potrace 1.15, written by Peter Selinger 2001-2017
</metadata>
<g transform="translate(0.000000,1034.000000) scale(0.100000,-0.100000)"
fill="#000000" stroke="none">
<path d="M6054 10259 c-54 -44 -286 -269 -514 -498 -228 -229 -497 -493 -598
-587 -101 -93 -208 -200 -237 -239 -117 -153 -238 -395 -325 -652 -23 -66 -50
-113 -137 -235 -392 -550 -498 -711 -618 -943 -37 -71 -92 -166 -123 -209
-136 -195 -165 -306 -267 -1021 -59 -412 -67 -449 -175 -805 -120 -392 -157
-566 -186 -870 -19 -198 -14 -540 11 -785 28 -268 8 -516 -56 -710 -57 -170
-178 -369 -309 -509 -40 -42 -60 -71 -52 -73 63 -22 191 -140 432 -399 120
-129 310 -248 495 -312 269 -93 765 -193 1020 -206 55 -3 152 -8 215 -11 229
-12 261 -21 615 -175 332 -144 530 -179 948 -166 718 22 740 24 1107 106 300
67 461 89 655 90 134 0 318 20 416 45 197 50 292 104 733 413 176 124 594 400
961 635 l240 154 3 164 c6 263 -38 615 -108 869 -52 189 -82 312 -100 401 -30
150 -35 186 -80 534 -28 220 -37 279 -60 395 -12 58 -25 141 -31 185 -17 145
-39 507 -39 660 0 83 -3 186 -6 231 l-7 81 -98 112 c-143 164 -154 181 -317
521 -89 183 -187 337 -379 591 l-127 169 -71 0 c-92 -1 -141 -23 -219 -103
-76 -77 -174 -130 -299 -161 -163 -41 -151 -42 -165 12 -47 178 -245 611 -392
857 -101 168 -153 275 -198 407 -50 144 -71 239 -127 573 -87 519 -136 659
-288 821 -72 77 -103 100 -279 201 -166 95 -182 106 -298 219 -109 105 -219
183 -361 254 -54 28 -100 50 -102 50 -2 0 -48 -36 -103 -81z"/>
</g>
</svg>
