<?xml version="1.0"?><svg width="744.09448819" height="1052.3622047" xmlns="http://www.w3.org/2000/svg">
 <title>fire</title>

 <metadata id="metadata7">image/svg+xmlFire symbolFire symbol sign flame burn</metadata>
 <g>
  <title>Layer 1</title>
  <g id="layer1">
   <path fill="#000000" id="path2396" d="m289.518738,102.879463l20.222504,35.06942c38.867218,67.980759 50.538544,118.335266 49.916351,215.280212c-0.509277,79.329437 -3.852112,99.693268 -27.645996,170.48349c-24.114655,71.744385 -26.64447,87.628174 -23.294281,147.44519l3.58374,67.067078l-16.382782,-36.861267c-18.704346,-41.598572 -20.530701,-86.629456 -9.727295,-243.438171l6.911499,-100.088654l-25.342163,-51.452209c-25.936661,-52.653671 -91.050262,-126.665665 -80.378098,-91.385315c7.683868,25.401611 -14.069794,81.8125 -66.299126,172.27536c-64.898251,112.405731 -78.705021,156.334412 -74.234562,232.174988c5.406979,91.726135 51.529636,175.342834 131.830334,238.830505c26.246307,20.750916 48.034607,31.485779 64.507263,31.485657l24.83017,0l-34.557449,-37.629211c-47.777237,-51.832214 -75.347687,-115.793213 -80.378113,-186.098328c-2.990341,-41.794128 -1.467819,-55.681824 5.37561,-51.452271c5.158539,3.188171 9.215408,12.453552 9.215332,20.478455c0,23.250427 45.89386,108.610474 79.354172,147.701233c16.867981,19.70636 52.541687,51.868835 79.098206,71.418762c46.074646,33.918213 50.701385,35.581482 105.208252,35.58136c31.416748,0 55.729797,-2.764526 54.012054,-6.143555c-49.1008,-96.583252 -51.487366,-104.501587 -51.196228,-169.971497c0.269073,-60.518555 3.407288,-71.796875 38.653137,-147.445251c43.798767,-94.00528 54.754944,-135.713928 55.03595,-205.552887c0.407776,-101.266083 -47.761475,-177.397034 -140.533661,-222.191711c-28.442932,-13.733528 -62.075409,-27.511543 -74.746521,-30.461754l-23.0383,-5.119629zm341.734924,266.732445l-6.399536,36.861267c-9.053467,52.441284 -20.321228,77.364838 -67.835022,151.540924c-23.086975,36.042114 -46.697205,77.645996 -52.732147,92.409241c-17.083893,41.792664 -7.594055,127.251831 20.478485,184.050476l23.294312,47.356506l10.239258,-35.325378c7.876587,-27.012756 25.47052,-49.917175 75.258484,-97.272888c72.205566,-68.677917 82.860291,-91.117432 82.937927,-175.603149c0.056946,-61.969391 -16.436707,-110.241943 -55.291931,-163.060028l-29.949829,-40.95697z"/>
  </g>
 </g>
</svg>