<?xml version="1.0" encoding="utf-8"?>
<!-- Svg Vector Icons : http://www.onlinewebfonts.com/icon -->
<!DOCTYPE svg PUBLIC "-//W3C//DTD SVG 1.1//EN" "http://www.w3.org/Graphics/SVG/1.1/DTD/svg11.dtd">
<svg version="1.1" xmlns="http://www.w3.org/2000/svg" xmlns:xlink="http://www.w3.org/1999/xlink" x="0px" y="0px" viewBox="0 0 1000 1000" enable-background="new 0 0 1000 1000" xml:space="preserve">
<metadata> Svg Vector Icons : http://www.onlinewebfonts.com/icon </metadata>
<g><g><path d="M835.2,10c-9,0-16.2,6.9-17.2,15.7H181.9c-1-8.8-8.1-15.7-17.2-15.7c-9.7,0-17.5,7.8-17.5,17.5v15.7v70.1v15.7c0,9.7,7.8,17.5,17.5,17.5c9,0,16.2-6.9,17.2-15.7h41.2c65,119.5,31,238.5-5.1,364.3c-35,121.8-71,247.5-10.9,374h-25.2c-1-8.8-8.1-15.6-17.2-15.6c-9.7,0-17.5,7.8-17.5,17.5v15.6v70.1v15.7c0,9.7,7.8,17.5,17.5,17.5c9,0,16.2-6.9,17.2-15.7H818c1,8.8,8.2,15.7,17.2,15.7c9.7,0,17.5-7.8,17.5-17.5v-15.7v-70.1v-15.6c0-9.7-7.8-17.5-17.5-17.5c-9,0-16.2,6.9-17.2,15.6h-45.7c-65-119.5-30.9-238.5,5.2-364.3c35-121.8,71-247.5,10.9-374h29.6c1,8.8,8.1,15.7,17.2,15.7c9.7,0,17.5-7.8,17.5-17.5v-15.7V43.2V27.5C852.7,17.9,844.9,10,835.2,10z M817.7,939.3H182.3v-35.1h635.4L817.7,939.3L817.7,939.3z M182.3,60.7h635.4v35.1H182.3V60.7z"/></g><g></g><g></g><g></g><g></g><g></g><g></g><g></g><g></g><g></g><g></g><g></g><g></g><g></g><g></g><g></g></g>
</svg>