<?xml version="1.0" encoding="utf-8"?>
<!-- Svg Vector Icons : http://www.onlinewebfonts.com/icon -->
<!DOCTYPE svg PUBLIC "-//W3C//DTD SVG 1.1//EN" "http://www.w3.org/Graphics/SVG/1.1/DTD/svg11.dtd">
<svg version="1.1" xmlns="http://www.w3.org/2000/svg" xmlns:xlink="http://www.w3.org/1999/xlink" x="0px" y="0px" viewBox="0 0 1000 1000" enable-background="new 0 0 1000 1000" xml:space="preserve">
<metadata> Svg Vector Icons : http://www.onlinewebfonts.com/icon </metadata>
<g><g><path d="M258.2,712.3c5.4-3.6,6.8-11,3.2-16.4c-3.7-5.4-11-6.8-16.4-3.2c-23.6,15.9-35.5,33.7-35.5,52.9c0,69.7,149.7,107.3,290.5,107.3c140.8,0,290.5-37.6,290.5-107.3c0-17.8-10.3-34.4-30.6-49.5c-5.2-3.9-12.6-2.8-16.5,2.5c-3.9,5.2-2.8,12.6,2.5,16.5c9.6,7.1,21.1,18.2,21.1,30.5c0,39.6-109.6,83.7-266.9,83.7c-157.3,0-266.9-44.1-266.9-83.7C233.1,732,246.8,720,258.2,712.3z"/><path d="M870.7,649.5c-6-2.5-12.9,0.4-15.4,6.4c-2.5,6,0.4,12.9,6.5,15.4c67.5,27.6,104.6,61.1,104.6,94.4c0,73.5-187.4,152.1-466.4,152.1c-279,0-466.4-78.6-466.4-152.1c0-34.4,39.5-68.8,111.1-96.8c6.1-2.4,9.1-9.2,6.7-15.3c-2.4-6.1-9.3-9.1-15.3-6.7C53.6,679.3,10,720.3,10,765.7c0,98.5,215.2,175.7,490,175.7c274.8,0,490-77.2,490-175.7C990,721.6,948.8,681.4,870.7,649.5z"/><path d="M311.2,494.9C311.2,390.6,500,58.6,500,58.6s188.8,332,188.8,436.3c0,104.3-84.5,188.8-188.8,188.8C395.7,683.6,311.2,599.1,311.2,494.9z"/></g><g></g><g></g><g></g><g></g><g></g><g></g><g></g><g></g><g></g><g></g><g></g><g></g><g></g><g></g><g></g></g>
</svg>